<?xml version="1.0" standalone="no"?>
<!DOCTYPE svg PUBLIC "-//W3C//DTD SVG 1.1//EN" "http://www.w3.org/Graphics/SVG/1.1/DTD/svg11.dtd" >
<svg xmlns="http://www.w3.org/2000/svg" xmlns:xlink="http://www.w3.org/1999/xlink" version="1.1">
<metadata>
Created by FontForge 20141024 at Sun Jun 21 17:46:22 2015
 By Jimmy Warting
Copyright (c) 2012 by Glenjan. All rights reserved.
</metadata>
<defs>
<font id="Room-Bold" horiz-adv-x="560" >
  <font-face 
    font-family="Room"
    font-weight="700"
    font-stretch="normal"
    units-per-em="1000"
    panose-1="2 0 5 6 0 0 0 2 0 4"
    ascent="821"
    descent="-179"
    x-height="500"
    cap-height="600"
    bbox="-79 -251 1027 859"
    underline-thickness="50"
    underline-position="-50"
    unicode-range="U+0020-2265"
  />
<missing-glyph horiz-adv-x="300" 
 />
    <glyph glyph-name=".notdef" horiz-adv-x="300" 
 />
    <glyph glyph-name=".null" horiz-adv-x="0" 
 />
    <glyph glyph-name="nonmarkingreturn" horiz-adv-x="333" 
 />
    <glyph glyph-name="space" unicode=" " horiz-adv-x="300" 
 />
    <glyph glyph-name="space" unicode="&#xa0;" horiz-adv-x="300" 
 />
    <glyph glyph-name="exclam" unicode="!" horiz-adv-x="200" 
d="M52 638h95v-149l-4 -326h-86l-5 326v149zM35 60q0 29 17.5 47t46.5 18q30 0 48 -18t18 -47t-18 -47.5t-48 -18.5q-29 0 -46.5 18.5t-17.5 47.5z" />
    <glyph glyph-name="quotedbl" unicode="&#x22;" horiz-adv-x="270" 
d="M44 431l-14 169h94l-14 -169h-66zM160 431l-13 169h93l-13 -169h-67z" />
    <glyph glyph-name="numbersign" unicode="#" horiz-adv-x="428" 
d="M99 96l9 84h-77v64h86l6 55h-90v65h97l12 89l62 -5l-10 -84h57l10 89l64 -5l-11 -84h84v-65h-92l-5 -55h95v-64h-103l-12 -89l-61 5l8 84h-55l-12 -89zM186 299l-6 -55h57l6 55h-57z" />
    <glyph glyph-name="dollar" unicode="$" horiz-adv-x="515" 
d="M41 368q0 62 48 100q37 29 111 38v60h104v-60q70 -7 160 -45l-38 -85q-86 38 -166 38q-75 0 -97 -18q-14 -12 -14 -29t13 -27q17 -13 50 -17l99 -17q92 -16 133 -53q41 -38 41 -99q0 -70 -45 -110q-40 -38 -136 -50v-60h-104v59q-87 6 -167 48l36 88q89 -41 173 -41
q79 0 111 20q26 17 26 44q0 20 -19 32q-18 13 -65 20l-111 20q-74 12 -111 52q-32 35 -32 92z" />
    <glyph glyph-name="uni0025" unicode="%" horiz-adv-x="647" 
d="M139 25l335 489l66 -43l-338 -488zM164 221q-63 0 -102 39q-42 42 -42 104q0 61 41 102q43 43 103 43q61 0 103 -42q41 -41 41 -103q0 -60 -42 -101q-45 -42 -102 -42zM232 364q0 30 -20 50q-19 19 -48 19q-28 0 -49 -18q-19 -21 -19 -51q0 -31 20 -49q21 -21 48 -21
q32 0 51 22q17 23 17 48zM515 -9q-61 0 -102 41q-42 42 -42 103q0 62 40 102q42 42 104 42q63 0 103 -40q42 -42 42 -104q0 -60 -40 -101q-40 -43 -105 -43zM583 135q0 31 -20 49q-19 21 -48 21q-27 0 -48 -21q-20 -18 -20 -49q0 -33 20 -51q18 -18 48 -18q35 0 51 21
q17 20 17 48z" />
    <glyph glyph-name="ampersand" unicode="&#x26;" horiz-adv-x="587" 
d="M457 501l-86 -40q-27 61 -84 61q-38 0 -59 -24q-17 -20 -17 -51q0 -35 24 -59l200 -207q15 26 21 58l86 -24q-12 -67 -40 -106l55 -59l-69 -62l-50 53q-68 -52 -170 -52q-96 0 -160 51q-78 58 -78 160q0 66 30 116q21 33 63 64q-15 26 -15 66q0 67 44 113q50 52 135 52
q124 0 170 -110zM270 80q58 0 101 29l-194 203q-25 -20 -35 -48q-10 -24 -10 -63q0 -51 39 -85q39 -36 99 -36z" />
    <glyph glyph-name="quotesingle" unicode="'" horiz-adv-x="159" 
d="M44 431l-14 169h99l-14 -169h-71z" />
    <glyph glyph-name="parenleft" unicode="(" horiz-adv-x="217" 
d="M209 573q-36 -57 -56.5 -142t-20.5 -160q0 -76 19.5 -155.5t57.5 -136.5l-77 -44q-100 148 -100 336q0 202 100 347z" />
    <glyph glyph-name="parenright" unicode=")" horiz-adv-x="217" 
d="M8 -20q36 57 56.5 142t20.5 160q0 76 -19.5 155.5t-57.5 136.5l77 44q100 -148 100 -336q0 -202 -100 -347z" />
    <glyph glyph-name="asterisk" unicode="*" horiz-adv-x="269" 
d="M170 587l-7 -62l55 25l22 -1l16 -54l-17 -11l-54 -12l34 -45l5 -21l-37 -29l-20 6l-32 53l-32 -52l-21 -7l-37 29l1 21l40 45l-59 14l-14 14l16 51l21 1l56 -26l-4 61l8 20h52z" />
    <glyph glyph-name="plus" unicode="+" horiz-adv-x="341" 
d="M20 314h107v108h85v-108h109v-85h-109v-108h-85v108h-107v85z" />
    <glyph glyph-name="comma" unicode="," horiz-adv-x="207" 
d="M35 61q0 29 18.5 48t49.5 19q32 0 50.5 -18.5t18.5 -48.5q0 -19 -6 -33l-51 -123l-59 16l15 79q-36 17 -36 61z" />
    <glyph glyph-name="hyphen" unicode="-" horiz-adv-x="363" 
d="M30 305h303v-85h-303v85z" />
    <glyph glyph-name="period" unicode="." horiz-adv-x="207" 
d="M35 61q0 29 18.5 48t49.5 19q32 0 50.5 -18.5t18.5 -48.5t-18.5 -48t-50.5 -18q-31 0 -49.5 18.5t-18.5 47.5z" />
    <glyph glyph-name="slash" unicode="/" horiz-adv-x="303" 
d="M-10 -10l241 640l82 -30l-241 -640z" />
    <glyph glyph-name="zero" unicode="0" horiz-adv-x="666" 
d="M333 79q77 0 139 62q60 60 60 159q0 95 -55 157q-57 64 -144 64t-144 -64q-55 -62 -55 -157q0 -99 60 -159q62 -62 139 -62zM333 -11q-125 0 -208 80q-45 42 -70 103.5t-25 127.5q0 130 84 220q89 91 219 91t219 -91q84 -90 84 -220q0 -66 -25 -127.5t-70 -103.5
q-83 -80 -208 -80z" />
    <glyph glyph-name="one" unicode="1" horiz-adv-x="283" 
d="M51 450l-36 75l160 75h58v-600h-99v483z" />
    <glyph glyph-name="two" unicode="2" horiz-adv-x="538" 
d="M51 0v84l258 200q49 37 71 71q22 28 22 69q0 40 -28 66q-35 32 -106 32q-100 0 -168 -82l-65 61q90 110 233 110q113 0 176 -56q59 -51 59 -135q0 -66 -42 -120q-36 -46 -97 -94l-151 -117h286v-89h-448z" />
    <glyph glyph-name="three" unicode="3" horiz-adv-x="550" 
d="M266 78q82 0 126 42q29 29 29 74q0 42 -25 64q-27 24 -83 24h-172v88h161q38 0 60 21q21 19 21 55t-25 55q-28 23 -101 23q-48 0 -81.5 -13.5t-71.5 -47.5l-58 61q48 47 99 67t121 20q106 0 165 -53q48 -42 48 -112q0 -38 -13 -64q-11 -24 -32 -39v-7q40 -19 64 -55
q22 -34 22 -87q0 -89 -62 -144q-73 -61 -192 -61q-84 0 -137.5 24t-103.5 78l59 63q46 -43 87.5 -59.5t94.5 -16.5z" />
    <glyph glyph-name="four" unicode="4" horiz-adv-x="571" 
d="M25 88v72l375 440h82v-422h62v-84l-62 -5v-89h-101v88h-356zM381 178v258l-219 -258h219z" />
    <glyph glyph-name="five" unicode="5" horiz-adv-x="543" 
d="M257 78q84 0 128 44q30 30 30 83q0 49 -32 81q-41 41 -109 41q-86 0 -146 -32h-67v305h407v-90h-313v-120q49 24 119 24q105 0 175 -62q64 -57 64 -147q0 -97 -66 -154q-73 -62 -190 -62q-147 0 -232 99l60 68q42 -42 79.5 -60t92.5 -18z" />
    <glyph glyph-name="six" unicode="6" horiz-adv-x="561" 
d="M287 411q120 0 188 -65q56 -53 56 -141q0 -89 -61 -150q-66 -66 -184 -66q-121 0 -192 87q-64 81 -64 218q0 150 73 236q71 81 191 81q112 0 205 -71l-54 -68q-42 29 -75 39t-75 10q-70 0 -111 -41q-36 -36 -45 -98q65 29 148 29zM286 78q67 0 107 34q39 33 39 93
q0 55 -34 83q-37 34 -111 34q-93 0 -156 -32v-6q0 -100 42 -154q40 -52 113 -52z" />
    <glyph glyph-name="seven" unicode="7" horiz-adv-x="514" 
d="M40 511v89h459v-68l-272 -532h-112l264 511h-339z" />
    <glyph glyph-name="eight" unicode="8" horiz-adv-x="581" 
d="M289 -11q-130 0 -200 58q-59 49 -59 138q0 56 31 97q23 32 66 55q-23 20 -35 42q-15 30 -15 67q0 77 62 122q58 43 153 43q99 0 158 -52q50 -47 50 -110q0 -39 -15 -64q-12 -20 -35 -37q45 -20 73 -62q28 -41 28 -96q0 -92 -65 -144q-69 -57 -197 -57zM289 523
q-62 0 -90 -23q-23 -18 -23 -56q0 -34 24 -47q26 -17 89 -17q45 0 70 -4q16 9 29 25q12 18 12 46q0 36 -26 54q-32 22 -85 22zM289 289q-48 0 -83 5q-35 -10 -55 -36q-21 -27 -21 -68q0 -52 37 -78q47 -34 122 -34q81 0 128 39q33 30 33 73q0 47 -31 69q-38 30 -130 30z" />
    <glyph glyph-name="nine" unicode="9" horiz-adv-x="561" 
d="M274 189q-120 0 -188 65q-56 53 -56 141q0 89 61 150q66 66 184 66q121 0 192 -87q64 -81 64 -218q0 -150 -73 -236q-71 -81 -191 -81q-66 0 -112.5 14t-94.5 50l49 72q63 -46 157 -46q70 0 111 41q36 36 45 98q-65 -29 -148 -29zM275 522q-67 0 -107 -34
q-39 -33 -39 -93q0 -55 34 -83q37 -34 111 -34q93 0 156 32v6q0 100 -42 154q-40 52 -113 52z" />
    <glyph glyph-name="colon" unicode=":" horiz-adv-x="170" 
d="M35 61q0 29 18.5 48t49.5 19q32 0 50.5 -18.5t18.5 -48.5t-18.5 -48t-50.5 -18q-31 0 -49.5 18.5t-18.5 47.5zM35 347q0 29 18.5 48t49.5 19q32 0 50.5 -18.5t18.5 -48.5t-18.5 -48t-50.5 -18q-31 0 -49.5 18.5t-18.5 47.5z" />
    <glyph glyph-name="semicolon" unicode=";" horiz-adv-x="170" 
d="M35 61q0 29 18.5 48t49.5 19q32 0 50.5 -18.5t18.5 -48.5q0 -19 -6 -33l-51 -123l-59 16l15 79q-36 17 -36 61zM35 347q0 29 18.5 48t49.5 19q32 0 50.5 -18.5t18.5 -48.5t-18.5 -48t-50.5 -18q-31 0 -49.5 18.5t-18.5 47.5z" />
    <glyph glyph-name="less" unicode="&#x3c;" horiz-adv-x="297" 
d="M228 417l39 -57l-137 -108l137 -110l-39 -57l-208 143v46z" />
    <glyph glyph-name="equal" unicode="=" horiz-adv-x="348" 
d="M30 368h288v-81h-288v81zM30 228h288v-81h-288v81z" />
    <glyph glyph-name="greater" unicode="&#x3e;" horiz-adv-x="297" 
d="M59 85l-39 57l137 108l-137 110l39 57l208 -143v-46z" />
    <glyph glyph-name="question" unicode="?" horiz-adv-x="498" 
d="M266 179v-31h-87v47q0 44 23 76q19 27 70 52l41 18q37 15 54 40q14 20 14 46q0 44 -30 66q-35 29 -101 29q-60 0 -97 -18.5t-72 -66.5l-71 51q43 69 101.5 96t137.5 27q107 0 172 -53q58 -48 58 -128q0 -41 -18 -77q-23 -44 -68 -66l-88 -43q-21 -11 -29 -25
q-10 -16 -10 -40zM158 60q0 28 18 46.5t47 18.5t47 -18.5t18 -46.5t-18 -47t-47 -19t-47 19t-18 47z" />
    <glyph glyph-name="at" unicode="@" horiz-adv-x="675" 
d="M517 88q-43 0 -76 31q-52 -37 -106 -37q-70 0 -117 45q-52 50 -52 123q0 64 46 112q51 51 122 51q54 0 94 -26l16 22l49 -9v-200q0 -18 6 -28q7 -13 20 -13q19 0 30 11q18 19 18 81q0 92 -50 150q-61 73 -178 73q-106 0 -168 -65q-61 -61 -61 -158q0 -92 56 -154
q64 -71 173 -71q80 0 171 35l24 -63q-99 -46 -195 -46q-145 0 -230 87q-79 81 -79 212q0 122 82 207q87 89 227 89t223 -83t83 -213q0 -87 -49 -136q-30 -27 -79 -27zM338 155q41 0 77 27q-1 8 -1 30v109q-34 21 -77 21q-37 0 -64 -24q-29 -24 -29 -68q0 -42 24 -66
q27 -29 70 -29z" />
    <glyph glyph-name="A" unicode="A" horiz-adv-x="697" 
d="M291 600h115l266 -600h-115l-50 110h-320l-49 -110h-113zM340 492l-112 -285h239l-115 285h-12z" />
    <glyph glyph-name="B" unicode="B" horiz-adv-x="611" 
d="M372 0h-322v600h310q84 0 136 -52q41 -41 41 -106q0 -38 -15 -65q-15 -24 -41 -41v-5q36 -17 60 -48q30 -42 30 -99q0 -79 -55 -129q-58 -55 -144 -55zM467 185q0 37 -19 59q-28 31 -70 31h-222v-182h217q39 0 71 29q23 23 23 63zM432 437q0 32 -20 50q-23 20 -58 20
h-198v-139h214q26 0 45 21q17 20 17 48z" />
    <glyph glyph-name="C" unicode="C" horiz-adv-x="618" 
d="M136 301q0 -93 58 -151q62 -64 152 -64q97 0 179 73l64 -71q-54 -52 -111 -75.5t-132 -23.5q-135 0 -226 89q-91 88 -91 223q0 130 89 221q89 89 228 89q74 0 131 -23.5t112 -73.5l-64 -72q-81 73 -179 73q-89 0 -149 -60q-61 -61 -61 -154z" />
    <glyph glyph-name="D" unicode="D" horiz-adv-x="639" 
d="M50 600h250q135 0 225 -92q79 -82 79 -208q0 -132 -89 -219q-84 -81 -215 -81h-250v600zM296 503h-141v-407h141q91 0 147 56q55 56 55 148q0 90 -54 146q-57 57 -148 57z" />
    <glyph glyph-name="E" unicode="E" horiz-adv-x="570" 
d="M50 0v600h466v-98h-358v-139h320v-97h-320v-169h372v-97h-480z" />
    <glyph glyph-name="F" unicode="F" horiz-adv-x="535" 
d="M49 600h456v-99h-348v-151h309v-99h-309v-251h-108v600z" />
    <glyph glyph-name="G" unicode="G" horiz-adv-x="648" 
d="M596 349v-343l-71 -13l-11 39q-72 -43 -163 -43q-157 0 -246 106q-72 85 -72 206q0 134 92 221q91 89 228 89q75 0 132 -23t110 -76l-71 -71q-39 39 -78 55.5t-93 16.5q-90 0 -153 -63q-58 -58 -58 -149q0 -97 62 -156q61 -58 147 -58q77 0 139 40v124l-154 8v90h260z
" />
    <glyph glyph-name="H" unicode="H" horiz-adv-x="629" 
d="M473 600h106v-600h-106v273h-316v-273h-107v600h107v-232h316v232z" />
    <glyph glyph-name="I" unicode="I" horiz-adv-x="205" 
d="M155 600v-600h-105v600h105z" />
    <glyph glyph-name="J" unicode="J" horiz-adv-x="535" 
d="M383 600h107v-341q0 -127 -71 -197q-76 -73 -195 -73q-123 0 -209 90l59 71q64 -61 147 -61q79 0 118 39q44 44 44 120v352z" />
    <glyph glyph-name="K" unicode="K" horiz-adv-x="605" 
d="M50 600h107v-232h124l164 232h125l-197 -275l212 -325h-123l-179 273h-126v-273h-107v600z" />
    <glyph glyph-name="L" unicode="L" horiz-adv-x="542" 
d="M517 95v-95h-467v600h107v-505h360z" />
    <glyph glyph-name="M" unicode="M" horiz-adv-x="750" 
d="M50 600h116l212 -297l207 297h115v-600h-106v440h-4l-197 -279h-39l-199 279h-4v-440h-101v600z" />
    <glyph glyph-name="N" unicode="N" horiz-adv-x="657" 
d="M504 600h103v-600h-99l-353 431v-431h-105v600h99l355 -432v432z" />
    <glyph glyph-name="O" unicode="O" horiz-adv-x="693" 
d="M346 611q139 0 227 -88q89 -92 89 -223t-85 -218q-90 -93 -231 -93t-234 100q-83 90 -83 211q0 126 84 215q90 96 233 96zM136 300q0 -89 57 -149q60 -66 153 -66q91 0 153 65q56 59 56 150q0 92 -57 151q-62 64 -152 64q-91 0 -153 -65q-57 -60 -57 -150z" />
    <glyph glyph-name="P" unicode="P" horiz-adv-x="596" 
d="M566 380q0 -89 -65 -154q-68 -63 -161 -63h-182v-163h-109v600h291q109 0 176 -80q50 -63 50 -140zM344 260q53 0 84 38q30 43 30 82q0 50 -30 82q-34 40 -92 40h-178v-242h186z" />
    <glyph glyph-name="Q" unicode="Q" horiz-adv-x="694" 
d="M137 300q0 -84 50 -142q62 -70 159 -70q106 0 165 79q44 57 44 133q0 84 -52 143q-63 70 -157 70q-96 0 -159 -71q-50 -56 -50 -142zM733 -37l5 -78q-30 -9 -58 -9q-75 0 -157 53q-8 5 -44.5 31t-58.5 38q-32 -7 -74 -7q-132 0 -224 88q-92 87 -92 221q0 130 84 216
q91 94 232 94q142 0 232 -93q85 -85 85 -217q0 -109 -60 -187q-31 -40 -72 -68q9 -5 37 -22.5t46 -26.5q56 -27 119 -33z" />
    <glyph glyph-name="R" unicode="R" horiz-adv-x="602" 
d="M572 380q0 -77 -43 -132q-32 -42 -82 -63q4 -7 48 -78t65 -107h-122l-97 163h-184v-163h-108v600h296q95 0 162 -64q65 -65 65 -156zM157 502v-242h190q55 0 85 36q32 35 32 84q0 50 -30 81q-33 41 -92 41h-185z" />
    <glyph glyph-name="S" unicode="S" horiz-adv-x="587" 
d="M39 438q0 78 62 123q64 50 189 50q122 0 241 -60l-40 -85q-99 48 -195 48q-90 0 -126 -26q-27 -20 -27 -51q0 -23 23 -37q17 -13 65 -22l122 -22q112 -21 162 -69q42 -42 42 -110q0 -90 -69 -137q-73 -51 -214 -51q-74 0 -127.5 12t-117.5 42l33 88q111 -44 210 -44
q110 0 155 34q24 19 24 53q0 31 -24 50q-26 19 -88 31l-133 23q-88 14 -131 57q-36 38 -36 103z" />
    <glyph glyph-name="T" unicode="T" horiz-adv-x="600" 
d="M24 504v96h551v-96h-223v-504h-105v504h-223z" />
    <glyph glyph-name="U" unicode="U" horiz-adv-x="625" 
d="M575 252q0 -115 -80 -192q-75 -70 -182 -70q-114 0 -188 74q-76 76 -76 188v348h108v-354q0 -67 45 -112q44 -47 111 -47q64 0 111 47q43 43 43 112v354h108v-348z" />
    <glyph glyph-name="V" unicode="V" horiz-adv-x="675" 
d="M407 0h-141l-242 600h116l195 -496h8l194 496h112z" />
    <glyph glyph-name="W" unicode="W" horiz-adv-x="953" 
d="M353 0h-147l-181 600h116l137 -495h4l120 495h146l126 -495h4l135 495h114l-181 -600h-148l-124 473h-4z" />
    <glyph glyph-name="X" unicode="X" horiz-adv-x="656" 
d="M170 600l157 -222l149 222h126l-205 -289l229 -311h-134l-170 242l-170 -242h-124l223 310l-215 290h134z" />
    <glyph glyph-name="Y" unicode="Y" horiz-adv-x="669" 
d="M388 0h-106v143l-259 457h123l185 -344h9l187 344h117l-256 -457v-143z" />
    <glyph glyph-name="Z" unicode="Z" horiz-adv-x="595" 
d="M555 99v-99h-516v81l363 426l-128 -3h-221v96h497v-75l-364 -430l120 4h249z" />
    <glyph glyph-name="bracketleft" unicode="[" horiz-adv-x="227" 
d="M146 545v-535h69v-89h-165v713h165v-89h-69z" />
    <glyph glyph-name="backslash" unicode="\" horiz-adv-x="303" 
d="M72 630l241 -640l-82 -30l-241 640z" />
    <glyph glyph-name="bracketright" unicode="]" horiz-adv-x="227" 
d="M81 10v535h-69v89h165v-713h-165v89h69z" />
    <glyph glyph-name="asciicircum" unicode="^" horiz-adv-x="378" 
d="M358 429l-58 -50l-112 110l-108 -110l-60 52l150 169h40z" />
    <glyph glyph-name="underscore" unicode="_" horiz-adv-x="327" 
d="M0 -34h327v-80h-327v80z" />
    <glyph glyph-name="grave" unicode="`" horiz-adv-x="258" 
d="M140 750l68 -169l-71 -33l-87 157z" />
    <glyph glyph-name="a" unicode="a" horiz-adv-x="603" 
d="M247 500h109l222 -500h-116l-39 89h-246l-39 -89h-113zM296 380l-78 -196h163l-78 196h-7z" />
    <glyph glyph-name="b" unicode="b" horiz-adv-x="530" 
d="M318 0h-268v500h259q79 0 121 -47q34 -37 34 -92q0 -28 -13 -50q-10 -18 -30 -32v-4q35 -17 50 -44q19 -28 19 -74q0 -71 -48 -114q-49 -43 -124 -43zM384 155q0 24 -14 41q-16 19 -47 19h-166v-122h163q32 0 48 19q16 16 16 43zM357 357q0 22 -13 35q-14 14 -41 14h-146
v-98h155q20 0 34 15q11 14 11 34z" />
    <glyph glyph-name="c" unicode="c" horiz-adv-x="546" 
d="M143 251q0 -73 44 -117q44 -47 115 -47q73 0 143 62l66 -71q-98 -87 -209 -87q-114 0 -189 75q-78 76 -78 185q0 106 77 183q75 75 190 75q118 0 209 -87l-66 -71q-68 62 -143 62q-69 0 -113 -44q-46 -46 -46 -118z" />
    <glyph glyph-name="d" unicode="d" horiz-adv-x="552" 
d="M50 500h212q112 0 184 -72q71 -71 71 -178q0 -108 -71 -179q-73 -71 -184 -71h-212v500zM258 404h-101v-309h101q70 0 113 46q39 41 39 109q0 70 -41 111q-43 43 -111 43z" />
    <glyph glyph-name="e" unicode="e" horiz-adv-x="498" 
d="M50 0v500h398v-96h-291v-101h260v-95h-260v-113h301v-95h-408z" />
    <glyph glyph-name="f" unicode="f" horiz-adv-x="467" 
d="M50 500h387v-96h-280v-113h249v-95h-249v-196h-107v500z" />
    <glyph glyph-name="g" unicode="g" horiz-adv-x="563" 
d="M508 296v-287l-62 -14l-20 32q-52 -36 -129 -36q-110 0 -183 70q-79 76 -79 190q0 107 76 183q75 75 192 75q119 0 210 -88l-66 -68q-66 60 -144 60q-71 0 -114 -45q-46 -46 -46 -117q0 -74 46 -120q44 -44 112 -44q58 0 101 29v87l-123 5v88h229z" />
    <glyph glyph-name="h" unicode="h" horiz-adv-x="549" 
d="M392 500h107v-500h-107v218h-235v-218h-107v500h107v-187h235v187z" />
    <glyph glyph-name="i" unicode="i" horiz-adv-x="208" 
d="M50 500h108v-500h-108v500z" />
    <glyph glyph-name="j" unicode="j" horiz-adv-x="466" 
d="M314 500h107v-272q0 -116 -60 -179q-58 -58 -166 -58q-111 0 -180 82l65 69q58 -55 114 -55q65 0 94 38q26 35 26 93v282z" />
    <glyph glyph-name="k" unicode="k" horiz-adv-x="539" 
d="M50 500h107v-190h86l137 190h126l-172 -234l184 -266h-129l-143 214h-89v-214h-107v500z" />
    <glyph glyph-name="l" unicode="l" horiz-adv-x="470" 
d="M158 95h287v-95h-395v500h108v-405z" />
    <glyph glyph-name="m" unicode="m" horiz-adv-x="645" 
d="M50 500h109l164 -240l163 240h109v-500h-107v329h-4l-141 -210h-43l-143 210h-4v-329h-103v500z" />
    <glyph glyph-name="n" unicode="n" horiz-adv-x="573" 
d="M419 500h104v-500h-97l-271 328v-328h-105v500h97l272 -327v327z" />
    <glyph glyph-name="o" unicode="o" horiz-adv-x="591" 
d="M296 509q116 0 192 -78q73 -73 73 -181q0 -114 -78 -187q-75 -72 -187 -72q-116 0 -191 75t-75 184q0 113 81 189q75 70 185 70zM137 250q0 -73 45 -118q43 -46 114 -46q66 0 110 44q47 44 47 120q0 79 -47 121q-45 43 -110 43q-71 0 -115 -47q-44 -44 -44 -117z" />
    <glyph glyph-name="p" unicode="p" horiz-adv-x="516" 
d="M486 315q0 -72 -50 -125q-57 -59 -142 -59h-137v-131h-107v500h244q85 0 140 -58q52 -52 52 -127zM297 226q38 0 59 26q23 26 23 63q0 33 -21 61q-24 29 -68 29h-133v-179h140z" />
    <glyph glyph-name="q" unicode="q" horiz-adv-x="591" 
d="M138 250q0 -67 37 -110q46 -54 120 -54q78 0 126 60q32 41 32 104q0 68 -38 112q-46 52 -120 52t-120 -54q-37 -43 -37 -110zM616 -24l6 -77q-29 -10 -58 -10q-64 0 -131 44q-16 11 -41 32.5t-38 30.5q-32 -5 -59 -5q-112 0 -188 75q-77 75 -77 184q0 105 72 180
q76 79 193 79t193 -78q73 -73 73 -181q0 -87 -52 -157q-17 -24 -49 -49q7 -5 30 -24.5t36 -25.5q32 -14 90 -18z" />
    <glyph glyph-name="r" unicode="r" horiz-adv-x="521" 
d="M491 316q0 -61 -35 -108q-26 -34 -63 -54l90 -154h-122l-71 131h-133v-131h-107v500h249q95 0 150 -67q42 -48 42 -117zM157 405v-179h137q42 0 68 30q21 26 21 60q0 38 -24 64q-22 25 -65 25h-137z" />
    <glyph glyph-name="s" unicode="s" horiz-adv-x="515" 
d="M41 368q0 62 48 100q54 41 167 41q104 0 208 -48l-38 -85q-86 38 -166 38q-75 0 -97 -18q-14 -12 -14 -29t13 -27q17 -13 50 -17l99 -17q92 -16 133 -53q41 -38 41 -99q0 -70 -45 -110q-60 -53 -197 -53q-113 0 -210 50l36 88q89 -41 173 -41q79 0 111 20q26 17 26 44
q0 20 -19 32q-18 13 -65 20l-111 20q-74 12 -111 52q-32 35 -32 92z" />
    <glyph glyph-name="t" unicode="t" horiz-adv-x="514" 
d="M25 405v95h464v-95h-179v-405h-107v405h-178z" />
    <glyph glyph-name="u" unicode="u" horiz-adv-x="544" 
d="M494 212q0 -98 -67 -162q-63 -58 -154 -58q-97 0 -160 63q-63 66 -63 157v288h107v-293q0 -53 32 -85q33 -35 84 -35t83 34q31 33 31 86v293h107v-288z" />
    <glyph glyph-name="v" unicode="v" horiz-adv-x="584" 
d="M352 0h-121l-206 500h117l146 -388h10l145 388h116z" />
    <glyph glyph-name="w" unicode="w" horiz-adv-x="846" 
d="M317 0h-129l-158 500h115l108 -372h4l105 372h121l108 -373h4l107 373h114l-157 -500h-131l-105 352h-4z" />
    <glyph glyph-name="x" unicode="x" horiz-adv-x="564" 
d="M162 500l119 -174l116 174h125l-168 -240l185 -260h-130l-129 189l-131 -189h-124l181 257l-172 243h128z" />
    <glyph glyph-name="y" unicode="y" horiz-adv-x="581" 
d="M344 0h-107v112l-212 388h121l144 -272h6l141 272h119l-212 -388v-112z" />
    <glyph glyph-name="z" unicode="z" horiz-adv-x="515" 
d="M475 95v-95h-435v77l279 333l-84 -3h-187v93h418v-73l-280 -335l76 3h213z" />
    <glyph glyph-name="braceleft" unicode="{" horiz-adv-x="240" 
d="M194 546q-25 0 -25 -26v-166q0 -56 -35 -75v-5q35 -19 35 -74v-166q0 -26 25 -26h42v-87h-42q-124 0 -124 119v155q0 37 -32 37h-22v92h22q15 0 23.5 10t8.5 26v155q0 119 124 119h42v-88h-42z" />
    <glyph glyph-name="bar" unicode="|" horiz-adv-x="182" 
d="M50 650h82v-800h-82v800z" />
    <glyph glyph-name="braceright" unicode="}" horiz-adv-x="240" 
d="M46 9q25 0 25 26v169q0 56 35 75v5q-35 19 -35 74v163q0 26 -25 26h-42v87h42q124 0 124 -119v-152q0 -37 32 -37h22v-92h-22q-15 0 -23.5 -10t-8.5 -26v-158q0 -119 -124 -119h-42v88h42z" />
    <glyph glyph-name="asciitilde" unicode="~" horiz-adv-x="412" 
d="M207 217q-39 14 -70 14q-38 0 -65 -23l-42 52q49 51 107 51q38 0 70 -14t69 -14q36 0 66 24l40 -54q-46 -49 -106 -49q-34 0 -69 13z" />
    <glyph glyph-name="exclamdown" unicode="&#xa1;" horiz-adv-x="176" 
d="M124 -33h-95v149l4 326h86l5 -326v-149zM141 545q0 -29 -17.5 -47t-46.5 -18q-30 0 -48 18t-18 47t18 47.5t48 18.5q29 0 46.5 -18.5t17.5 -47.5z" />
    <glyph glyph-name="cent" unicode="&#xa2;" horiz-adv-x="546" 
d="M355 566v-61q85 -15 156 -83l-66 -71q-68 62 -143 62q-69 0 -113 -44q-46 -46 -46 -118q0 -73 44 -117q44 -47 115 -47q73 0 143 62l66 -71q-72 -66 -156 -82v-62h-104v62q-81 13 -138 70q-78 76 -78 185q0 106 77 183q53 53 139 70v62h104z" />
    <glyph glyph-name="currency" unicode="&#xa4;" horiz-adv-x="437" 
d="M217 90q-48 0 -80 17l-43 -41l-64 68l38 40q-19 36 -19 76q0 42 18 76l-37 42l64 64l42 -38q32 17 81 17t81 -17l41 38l68 -64l-41 -42q20 -38 20 -76q0 -39 -20 -77l39 -41l-66 -66l-42 41q-36 -17 -80 -17zM307 250q0 37 -24 61q-24 26 -66 26q-44 0 -65 -27
q-23 -23 -23 -60q0 -38 24 -64q23 -24 64 -24q39 0 65 24q25 27 25 64z" />
    <glyph glyph-name="yen" unicode="&#xa5;" horiz-adv-x="583" 
d="M461 162h-337v69h59l-158 269h121l143 -260h5l147 260h117l-159 -269h62v-69zM124 138h337v-68h-116v-70h-107v70h-114v68z" />
    <glyph glyph-name="brokenbar" unicode="&#xa6;" horiz-adv-x="182" 
d="M50 650h82v-370h-82v370zM50 220h82v-370h-82v370z" />
    <glyph glyph-name="section" unicode="&#xa7;" horiz-adv-x="482" 
d="M408 565l-44 -78q-56 30 -123 30q-48 0 -67 -14q-14 -9 -14 -27q0 -19 17 -31t54 -18l71 -13q76 -13 117 -61q33 -36 33 -92q0 -42 -21 -78q-13 -25 -35 -42q24 -35 24 -73q0 -62 -41 -100q-47 -43 -142 -43q-106 0 -192 49l37 82q48 -22 79.5 -30t75.5 -8q49 0 69 14
q13 8 13 26t-9 27q-12 13 -47 20l-97 20q-68 13 -104 55q-32 38 -32 95q0 41 18 72q13 24 40 43q-30 33 -30 86q0 55 39 89q52 46 144 46q89 0 167 -46zM200 332q-42 10 -43 10q-13 -9 -21 -24q-8 -18 -8 -37q0 -22 11 -35q12 -15 38 -21l90 -20q37 -8 52 -14q14 11 22 26
q9 17 9 38q0 28 -17 43q-18 16 -70 24z" />
    <glyph glyph-name="dieresis" unicode="&#xa8;" horiz-adv-x="417" 
d="M243 611q0 26 18 44t44 18t44 -18t18 -44t-18 -44t-44 -18t-44 18t-18 44zM50 611q0 26 18 44t44 18t44 -18t18 -44t-18 -44t-44 -18t-44 18t-18 44z" />
    <glyph glyph-name="copyright" unicode="&#xa9;" horiz-adv-x="587" 
d="M148 250q0 64 48 105q44 41 103 41q58 0 108 -42l-39 -56q-34 25 -69 25q-30 0 -53 -19q-21 -18 -21 -54q0 -29 17 -49q22 -25 57 -25q39 0 72 27l36 -56q-49 -43 -108 -43q-64 0 -108 42q-43 43 -43 104zM476 250q0 74 -46 127q-50 56 -137 56q-77 0 -128 -51
q-53 -55 -53 -132q0 -74 44 -126q49 -59 137 -59q92 0 140 61q43 49 43 124zM293 -11q-117 0 -193 83q-65 71 -65 178q0 110 72 182q77 77 186 77q114 0 190 -79q69 -72 69 -180q0 -109 -63 -178q-76 -83 -196 -83z" />
    <glyph glyph-name="ordfeminine" unicode="&#xaa;" horiz-adv-x="358" 
d="M249 589l19 17l32 -10v-176q0 -30 18 -62l-43 -27q-18 13 -25 28q-39 -26 -79 -26q-70 0 -111 44q-35 35 -35 95q0 59 43 102q40 37 101 37q48 0 80 -22zM235 535q-25 15 -66 15q-43 0 -62 -25q-17 -20 -17 -53q0 -35 23 -56q23 -22 61 -22q30 0 61 21v120z" />
    <glyph glyph-name="guillemotleft" unicode="&#xab;" horiz-adv-x="393" 
d="M20 242v38l142 145l51 -41l-100 -122l100 -124l-51 -41zM311 97l-142 144v40l142 144l52 -41l-100 -122l100 -124z" />
    <glyph glyph-name="logicalnot" unicode="&#xac;" horiz-adv-x="339" 
d="M244 190l-9 90h-215v78h299v-168h-75z" />
    <glyph glyph-name="uni00AD" unicode="&#xad;" horiz-adv-x="327" 
d="M30 305h303v-85h-303v85z" />
    <glyph glyph-name="registered" unicode="&#xae;" horiz-adv-x="398" 
d="M198 263q-78 0 -127 49q-51 51 -51 129q0 82 54 131q47 47 124 47q90 0 142 -66q38 -49 38 -112q0 -76 -47 -123q-55 -55 -133 -55zM320 441q0 48 -32 85q-32 38 -90 38q-52 0 -84 -31q-37 -32 -37 -92q0 -52 28 -81q37 -42 93 -42t88 37q34 34 34 86zM249 415l30 -60
h-58l-19 47h-24v-47h-52v176h81q35 0 54 -21q17 -17 17 -45q0 -18 -8 -32q-4 -11 -21 -18zM178 481v-30h29q8 0 15 5q4 4 4 11t-5 10q-5 4 -14 4h-29z" />
    <glyph glyph-name="overscore" unicode="&#xaf;" horiz-adv-x="387" 
d="M50 634h287v-76h-287v76z" />
    <glyph glyph-name="degree" unicode="&#xb0;" horiz-adv-x="325" 
d="M163 328q-63 0 -103 39q-40 37 -40 103q0 62 42 103q40 38 101 38q58 0 101 -40q41 -41 41 -101t-40 -100q-42 -42 -102 -42zM238 470q0 34 -20 54q-23 24 -55 24q-31 0 -56 -22q-21 -21 -21 -56q0 -33 21 -56q25 -22 56 -22q30 0 54 24q21 21 21 54z" />
    <glyph glyph-name="plusminus" unicode="&#xb1;" horiz-adv-x="341" 
d="M20 395h107v108h85v-108h109v-86h-109v-107h-85v107h-107v86zM20 171h301v-83h-301v83z" />
    <glyph glyph-name="twosuperior" unicode="&#xb2;" horiz-adv-x="287" 
d="M39 324v54l119 80q19 14 29 30q7 10 7 28q0 16 -13 26q-15 11 -40 11q-27 0 -43 -8t-37 -29l-38 38q45 58 118 58q53 0 87 -30q29 -27 29 -68q0 -30 -16 -55q-17 -26 -46 -45l-51 -33h112v-57h-217z" />
    <glyph glyph-name="threesuperior" unicode="&#xb3;" horiz-adv-x="307" 
d="M147 375q39 0 56 17q11 11 11 27q0 12 -9 21q-16 10 -34 10h-82v53h81q13 0 20 7q6 6 6 18q0 14 -9 21q-11 10 -41 10q-40 0 -77 -26l-31 41q26 24 50 33.5t60 9.5q50 0 80 -25q29 -21 29 -60q0 -31 -19 -47q39 -22 39 -66q0 -41 -27 -68q-34 -34 -103 -34q-39 0 -66 11
t-56 40l38 44q40 -37 84 -37z" />
    <glyph glyph-name="acute" unicode="&#xb4;" horiz-adv-x="262" 
d="M50 581l68 169l90 -45l-87 -157z" />
    <glyph glyph-name="mu" unicode="&#xb5;" horiz-adv-x="591" 
d="M541 5l-76 -10l-17 48q-65 -52 -166 -52q-40 0 -73 13q-24 9 -56 34h-4l9 -175h-108v637h106v-224q0 -80 28 -129q35 -61 104 -61q46 0 78.5 13t67.5 45v356h107v-495z" />
    <glyph glyph-name="paragraph" unicode="&#xb6;" horiz-adv-x="508" 
d="M208 500h252l3 -54l-66 -12v-372l-15 -157l-28 -31l-33 16v538h-59v-409l-14 -149l-31 -29l-31 15v341q-60 4 -99 45q-42 44 -42 110q0 72 49 112q44 36 114 36z" />
    <glyph glyph-name="middot" unicode="&#xb7;" horiz-adv-x="176" 
d="M35 317q0 29 18.5 48t49.5 19q32 0 50.5 -18.5t18.5 -48.5t-18.5 -48t-50.5 -18q-31 0 -49.5 18.5t-18.5 47.5z" />
    <glyph glyph-name="cedilla" unicode="&#xb8;" horiz-adv-x="246" 
d="M61 12h72l-2 -49q33 0 50 -21q14 -17 14 -41q0 -42 -31 -73q-32 -32 -95 -51l-19 48q33 13 50 30q13 13 13 32q0 10 -8 16q-7 6 -19 6h-25v103z" />
    <glyph glyph-name="onesuperior" unicode="&#xb9;" horiz-adv-x="172" 
d="M35 515l-20 44l80 41h37v-276h-62v203z" />
    <glyph glyph-name="ordmasculine" unicode="&#xba;" horiz-adv-x="298" 
d="M149 349q-55 0 -93 36q-36 35 -36 92t39 94q35 35 90 35q65 0 101 -46q28 -34 28 -83q0 -55 -35 -90q-38 -38 -94 -38zM210 477q0 25 -15 43q-20 20 -46 20q-29 0 -45 -18q-16 -17 -16 -45q0 -29 17 -44q16 -18 44 -18t44 19q17 17 17 43z" />
    <glyph glyph-name="guillemotright" unicode="&#xbb;" horiz-adv-x="393" 
d="M373 280v-38l-142 -145l-51 41l100 122l-100 124l51 41zM82 425l142 -144v-40l-142 -144l-52 41l100 122l-100 124z" />
    <glyph glyph-name="questiondown" unicode="&#xbf;" horiz-adv-x="502" 
d="M216 426v31h87v-47q0 -44 -23 -76q-19 -27 -70 -52l-41 -18q-37 -15 -54 -40q-14 -20 -14 -46q0 -44 30 -66q35 -29 101 -29q60 0 97 18.5t72 66.5l71 -51q-43 -69 -101.5 -96t-137.5 -27q-107 0 -172 53q-58 48 -58 128q0 41 18 77q23 44 68 66l88 43q21 11 29 25
q10 16 10 40zM324 545q0 -28 -18 -46.5t-47 -18.5t-47 18.5t-18 46.5t18 47t47 19t47 -19t18 -47z" />
    <glyph glyph-name="Agrave" unicode="&#xc0;" horiz-adv-x="697" 
d="M291 600h115l266 -600h-115l-50 110h-320l-49 -110h-113zM340 492l-112 -285h239l-115 285h-12zM300 859l81 -185l-70 -34l-96 177z" />
    <glyph glyph-name="Aacute" unicode="&#xc1;" horiz-adv-x="697" 
d="M291 600h115l266 -600h-115l-50 110h-320l-49 -110h-113zM340 492l-112 -285h239l-115 285h-12zM318 674l81 185l85 -42l-96 -177z" />
    <glyph glyph-name="Acircumflex" unicode="&#xc2;" horiz-adv-x="697" 
d="M291 600h115l266 -600h-115l-50 110h-320l-49 -110h-113zM340 492l-112 -285h239l-115 285h-12zM239 634l-48 51l136 135h42l136 -135l-48 -51l-109 90z" />
    <glyph glyph-name="Atilde" unicode="&#xc3;" horiz-adv-x="697" 
d="M291 600h115l266 -600h-115l-50 110h-320l-49 -110h-113zM340 492l-112 -285h239l-115 285h-12zM420 645q-37 0 -71 15q-36 16 -72 16t-68 -24l-43 54q51 54 111 54q33 0 72 -16t71 -16q35 0 67 24l43 -55q-49 -52 -110 -52z" />
    <glyph glyph-name="Adieresis" unicode="&#xc4;" horiz-adv-x="697" 
d="M291 600h115l266 -600h-115l-50 110h-320l-49 -110h-113zM340 492l-112 -285h239l-115 285h-12zM385 710q0 27 19 46.5t46 19.5q28 0 47.5 -19.5t19.5 -46.5t-19.5 -46.5t-47.5 -19.5q-27 0 -46 19.5t-19 46.5zM179 710q0 27 19.5 46.5t46.5 19.5t46.5 -19.5t19.5 -46.5
t-19.5 -46.5t-46.5 -19.5t-46.5 19.5t-19.5 46.5z" />
    <glyph glyph-name="Aring" unicode="&#xc5;" horiz-adv-x="697" 
d="M291 600h115l266 -600h-115l-50 110h-320l-49 -110h-113zM340 492l-112 -285h239l-115 285h-12zM348 620q-43 0 -76 31q-33 33 -33 78q0 43 30 75q32 34 79 34t79 -34q30 -32 30 -75q0 -45 -33 -78q-33 -31 -76 -31zM348 677q22 0 37 15t15 37q0 21 -15 36q-13 16 -37 16
q-25 0 -38 -16q-14 -14 -14 -36t15 -37t37 -15z" />
    <glyph glyph-name="AE" unicode="&#xc6;" horiz-adv-x="993" 
d="M483 0v138h-249l-86 -138h-123l385 600h529v-97h-351v-139h312v-96h-312v-172h365v-96h-470zM466 502l-170 -267h187v267h-17z" />
    <glyph glyph-name="Ccedilla" unicode="&#xc7;" horiz-adv-x="618" 
d="M136 301q0 -93 58 -151q62 -64 152 -64q97 0 179 73l64 -71q-92 -91 -220 -98l-1 -26q32 -2 48 -18q21 -21 21 -54q0 -38 -30 -72q-34 -38 -115 -60l-19 52q43 18 61 36q18 16 18 40q0 9 -8 17q-8 6 -20 6h-32v82q-104 17 -172 85q-91 88 -91 223q0 130 89 221
q89 89 228 89q74 0 131 -23.5t112 -73.5l-64 -72q-81 73 -179 73q-89 0 -149 -60q-61 -61 -61 -154z" />
    <glyph glyph-name="Egrave" unicode="&#xc8;" horiz-adv-x="570" 
d="M50 0v600h466v-98h-358v-139h320v-97h-320v-169h372v-97h-480zM255 859l81 -185l-70 -34l-96 177z" />
    <glyph glyph-name="Eacute" unicode="&#xc9;" horiz-adv-x="570" 
d="M50 0v600h466v-98h-358v-139h320v-97h-320v-169h372v-97h-480zM249 674l81 185l85 -42l-96 -177z" />
    <glyph glyph-name="Ecircumflex" unicode="&#xca;" horiz-adv-x="570" 
d="M50 0v600h466v-98h-358v-139h320v-97h-320v-169h372v-97h-480zM176 634l-48 51l136 135h42l136 -135l-48 -51l-109 90z" />
    <glyph glyph-name="Edieresis" unicode="&#xcb;" horiz-adv-x="570" 
d="M50 0v600h466v-98h-358v-139h320v-97h-320v-169h372v-97h-480zM322 710q0 27 19 46.5t46 19.5q28 0 47.5 -19.5t19.5 -46.5t-19.5 -46.5t-47.5 -19.5q-27 0 -46 19.5t-19 46.5zM116 710q0 27 19.5 46.5t46.5 19.5t46.5 -19.5t19.5 -46.5t-19.5 -46.5t-46.5 -19.5
t-46.5 19.5t-19.5 46.5z" />
    <glyph glyph-name="Igrave" unicode="&#xcc;" horiz-adv-x="205" 
d="M155 600v-600h-105v600h105zM73 859l81 -185l-70 -34l-96 177z" />
    <glyph glyph-name="Iacute" unicode="&#xcd;" horiz-adv-x="205" 
d="M155 600v-600h-105v600h105zM55 674l81 185l85 -42l-96 -177z" />
    <glyph glyph-name="Icircumflex" unicode="&#xce;" horiz-adv-x="205" 
d="M155 600v-600h-105v600h105zM-6 634l-48 51l136 135h42l136 -135l-48 -51l-109 90z" />
    <glyph glyph-name="Idieresis" unicode="&#xcf;" horiz-adv-x="205" 
d="M155 600v-600h-105v600h105zM140 710q0 27 19 46.5t46 19.5q28 0 47.5 -19.5t19.5 -46.5t-19.5 -46.5t-47.5 -19.5q-27 0 -46 19.5t-19 46.5zM-66 710q0 27 19.5 46.5t46.5 19.5t46.5 -19.5t19.5 -46.5t-19.5 -46.5t-46.5 -19.5t-46.5 19.5t-19.5 46.5z" />
    <glyph glyph-name="Eth" unicode="&#xd0;" horiz-adv-x="639" 
d="M2 345h48v255h250q135 0 225 -92q79 -82 79 -208q0 -132 -89 -219q-84 -81 -215 -81h-250v260h-48v85zM296 503h-141v-158h185v-85h-185v-164h141q91 0 147 56q55 56 55 148q0 90 -54 146q-57 57 -148 57z" />
    <glyph glyph-name="Ntilde" unicode="&#xd1;" horiz-adv-x="657" 
d="M504 600h103v-600h-99l-353 431v-431h-105v600h99l355 -432v432zM400 645q-37 0 -71 15q-36 16 -72 16q-37 0 -68 -24l-43 54q51 54 111 54q33 0 72 -16t71 -16q35 0 67 24l43 -55q-49 -52 -110 -52z" />
    <glyph glyph-name="Ograve" unicode="&#xd2;" horiz-adv-x="693" 
d="M346 611q139 0 227 -88q89 -92 89 -223t-85 -218q-90 -93 -231 -93t-234 100q-83 90 -83 211q0 126 84 215q90 96 233 96zM136 300q0 -89 57 -149q60 -66 153 -66q91 0 153 65q56 59 56 150q0 92 -57 151q-62 64 -152 64q-91 0 -153 -65q-57 -60 -57 -150zM293 859
l81 -185l-70 -34l-96 177z" />
    <glyph glyph-name="Oacute" unicode="&#xd3;" horiz-adv-x="693" 
d="M346 611q139 0 227 -88q89 -92 89 -223t-85 -218q-90 -93 -231 -93t-234 100q-83 90 -83 211q0 126 84 215q90 96 233 96zM136 300q0 -89 57 -149q60 -66 153 -66q91 0 153 65q56 59 56 150q0 92 -57 151q-62 64 -152 64q-91 0 -153 -65q-57 -60 -57 -150zM321 674
l81 185l85 -42l-96 -177z" />
    <glyph glyph-name="Ocircumflex" unicode="&#xd4;" horiz-adv-x="693" 
d="M346 611q139 0 227 -88q89 -92 89 -223t-85 -218q-90 -93 -231 -93t-234 100q-83 90 -83 211q0 126 84 215q90 96 233 96zM136 300q0 -89 57 -149q60 -66 153 -66q91 0 153 65q56 59 56 150q0 92 -57 151q-62 64 -152 64q-91 0 -153 -65q-57 -60 -57 -150zM237 634
l-48 51l136 135h42l136 -135l-48 -51l-109 90z" />
    <glyph glyph-name="Otilde" unicode="&#xd5;" horiz-adv-x="693" 
d="M346 611q139 0 227 -88q89 -92 89 -223t-85 -218q-90 -93 -231 -93t-234 100q-83 90 -83 211q0 126 84 215q90 96 233 96zM136 300q0 -89 57 -149q60 -66 153 -66q91 0 153 65q56 59 56 150q0 92 -57 151q-62 64 -152 64q-91 0 -153 -65q-57 -60 -57 -150zM418 645
q-37 0 -71 15q-36 16 -72 16q-37 0 -68 -24l-43 54q51 54 111 54q33 0 72 -16t71 -16q35 0 67 24l43 -55q-49 -52 -110 -52z" />
    <glyph glyph-name="Odieresis" unicode="&#xd6;" horiz-adv-x="693" 
d="M346 611q139 0 227 -88q89 -92 89 -223t-85 -218q-90 -93 -231 -93t-234 100q-83 90 -83 211q0 126 84 215q90 96 233 96zM136 300q0 -89 57 -149q60 -66 153 -66q91 0 153 65q56 59 56 150q0 92 -57 151q-62 64 -152 64q-91 0 -153 -65q-57 -60 -57 -150zM383 710
q0 27 19 46.5t46 19.5q28 0 47.5 -19.5t19.5 -46.5t-19.5 -46.5t-47.5 -19.5q-27 0 -46 19.5t-19 46.5zM177 710q0 27 19.5 46.5t46.5 19.5t46.5 -19.5t19.5 -46.5t-19.5 -46.5t-46.5 -19.5t-46.5 19.5t-19.5 46.5z" />
    <glyph glyph-name="multiply" unicode="&#xd7;" horiz-adv-x="309" 
d="M26 184l78 78l-79 80l50 50l79 -80l80 81l50 -51l-80 -80l79 -79l-50 -50l-79 80l-79 -79z" />
    <glyph glyph-name="Oslash" unicode="&#xd8;" horiz-adv-x="693" 
d="M346 611q68 0 134 -27l29 42l78 -53l-26 -39q52 -54 72 -101q29 -60 29 -133q0 -131 -85 -218q-90 -93 -231 -93q-66 0 -134 29l-32 -47l-79 54l30 45q-38 35 -67 87q-35 65 -35 143q0 126 84 215q90 96 233 96zM555 300q0 42 -14 81q-13 36 -40 66l-234 -348
q36 -14 79 -14q91 0 153 65q56 59 56 150zM136 300q0 -46 15 -84q11 -30 38 -63q38 57 116.5 174t117.5 173q-36 15 -77 15q-91 0 -153 -65q-57 -60 -57 -150z" />
    <glyph glyph-name="Ugrave" unicode="&#xd9;" horiz-adv-x="625" 
d="M575 252q0 -115 -80 -192q-75 -70 -182 -70q-114 0 -188 74q-76 76 -76 188v348h108v-354q0 -67 45 -112q44 -47 111 -47q64 0 111 47q43 43 43 112v354h108v-348zM288 859l81 -185l-70 -34l-96 177z" />
    <glyph glyph-name="Uacute" unicode="&#xda;" horiz-adv-x="625" 
d="M575 252q0 -115 -80 -192q-75 -70 -182 -70q-114 0 -188 74q-76 76 -76 188v348h108v-354q0 -67 45 -112q44 -47 111 -47q64 0 111 47q43 43 43 112v354h108v-348zM267 674l81 185l85 -42l-96 -177z" />
    <glyph glyph-name="Ucircumflex" unicode="&#xdb;" horiz-adv-x="625" 
d="M575 252q0 -115 -80 -192q-75 -70 -182 -70q-114 0 -188 74q-76 76 -76 188v348h108v-354q0 -67 45 -112q44 -47 111 -47q64 0 111 47q43 43 43 112v354h108v-348zM203 634l-48 51l136 135h42l136 -135l-48 -51l-109 90z" />
    <glyph glyph-name="Udieresis" unicode="&#xdc;" horiz-adv-x="625" 
d="M575 252q0 -115 -80 -192q-75 -70 -182 -70q-114 0 -188 74q-76 76 -76 188v348h108v-354q0 -67 45 -112q44 -47 111 -47q64 0 111 47q43 43 43 112v354h108v-348zM349 710q0 27 19 46.5t46 19.5q28 0 47.5 -19.5t19.5 -46.5t-19.5 -46.5t-47.5 -19.5q-27 0 -46 19.5
t-19 46.5zM143 710q0 27 19.5 46.5t46.5 19.5t46.5 -19.5t19.5 -46.5t-19.5 -46.5t-46.5 -19.5t-46.5 19.5t-19.5 46.5z" />
    <glyph glyph-name="Yacute" unicode="&#xdd;" horiz-adv-x="669" 
d="M388 0h-106v143l-259 457h123l185 -344h9l187 344h117l-256 -457v-143zM297 674l81 185l85 -42l-96 -177z" />
    <glyph glyph-name="Thorn" unicode="&#xde;" horiz-adv-x="586" 
d="M556 305q0 -88 -65 -153q-68 -63 -160 -63h-174v-89h-107v600h107v-75h174q108 0 175 -80q50 -63 50 -140zM335 184q54 0 85 38q30 41 30 83q0 51 -30 84q-34 40 -93 40h-170v-245h178z" />
    <glyph glyph-name="germandbls" unicode="&#xdf;" horiz-adv-x="592" 
d="M50 0v458q0 84 58 133q48 42 125 42q97 0 142 -59q28 -36 28 -91q0 -34 -10 -67q-70 -11 -92 -24q-20 -12 -20 -32q0 -14 15 -24q19 -12 45 -17l55 -12q90 -19 130 -62q36 -39 36 -100q0 -54 -40 -96q-55 -58 -166 -58q-101 0 -190 34l34 92q73 -29 155 -29q59 0 85 27
q12 14 12 33q0 20 -12 32q-19 15 -60 24l-65 14q-70 15 -101 45q-41 37 -41 90q0 55 40 92q29 29 89 48q-2 19 -13 30q-20 18 -55 18q-38 0 -59 -21t-21 -60v-460h-104z" />
    <glyph glyph-name="agrave" unicode="&#xe0;" horiz-adv-x="603" 
d="M247 500h109l222 -500h-116l-39 89h-246l-39 -89h-113zM296 380l-78 -196h163l-78 196h-7zM266 750l68 -169l-71 -33l-87 157z" />
    <glyph glyph-name="aacute" unicode="&#xe1;" horiz-adv-x="603" 
d="M247 500h109l222 -500h-116l-39 89h-246l-39 -89h-113zM296 380l-78 -196h163l-78 196h-7zM279 581l68 169l90 -45l-87 -157z" />
    <glyph glyph-name="acircumflex" unicode="&#xe2;" horiz-adv-x="603" 
d="M247 500h109l222 -500h-116l-39 89h-246l-39 -89h-113zM296 380l-78 -196h163l-78 196h-7zM449 592l-48 -53l-99 82l-98 -82l-50 53l127 126h42z" />
    <glyph glyph-name="atilde" unicode="&#xe3;" horiz-adv-x="603" 
d="M247 500h109l222 -500h-116l-39 89h-246l-39 -89h-113zM296 380l-78 -196h163l-78 196h-7zM371 558q-33 0 -69 14q-36 16 -70 16q-38 0 -65 -22l-42 51q47 51 107 51q34 0 70 -16q31 -15 69 -15q37 0 65 23l41 -53q-46 -49 -106 -49z" />
    <glyph glyph-name="adieresis" unicode="&#xe4;" horiz-adv-x="603" 
d="M247 500h109l222 -500h-116l-39 89h-246l-39 -89h-113zM296 380l-78 -196h163l-78 196h-7zM336 611q0 26 18 44t44 18t44 -18t18 -44t-18 -44t-44 -18t-44 18t-18 44zM143 611q0 26 18 44t44 18t44 -18t18 -44t-18 -44t-44 -18t-44 18t-18 44z" />
    <glyph glyph-name="aring" unicode="&#xe5;" horiz-adv-x="603" 
d="M247 500h109l222 -500h-116l-39 89h-246l-39 -89h-113zM296 380l-78 -196h163l-78 196h-7zM302 539q-43 0 -72 29q-30 28 -30 72q0 42 30 72t72 30q43 0 74 -33q27 -29 27 -69q0 -42 -31 -73q-28 -28 -70 -28zM302 602q16 0 27 11t11 27q0 17 -11 28q-10 10 -27 10
q-16 0 -27 -11t-11 -27q0 -15 12 -27q11 -11 26 -11z" />
    <glyph glyph-name="ae" unicode="&#xe6;" horiz-adv-x="855" 
d="M417 0v97h-208l-58 -97h-126l307 500h472v-96h-280v-94h249v-95h-249v-120h291v-95h-398zM387 404l-122 -212h152v212h-30z" />
    <glyph glyph-name="ccedilla" unicode="&#xe7;" horiz-adv-x="546" 
d="M143 251q0 -73 44 -117q44 -47 115 -47q73 0 143 62l66 -71q-94 -83 -196 -87l-1 -24q33 0 50 -21q14 -17 14 -41q0 -42 -31 -73q-32 -32 -95 -51l-19 48q33 13 50 30q13 13 13 32q0 10 -8 16t-19 6h-25v84q-79 17 -131 69q-78 76 -78 185q0 106 77 183q75 75 190 75
q118 0 209 -87l-66 -71q-68 62 -143 62q-69 0 -113 -44q-46 -46 -46 -118z" />
    <glyph glyph-name="egrave" unicode="&#xe8;" horiz-adv-x="498" 
d="M50 0v500h398v-96h-291v-101h260v-95h-260v-113h301v-95h-408zM245 750l68 -169l-71 -33l-87 157z" />
    <glyph glyph-name="eacute" unicode="&#xe9;" horiz-adv-x="498" 
d="M50 0v500h398v-96h-291v-101h260v-95h-260v-113h301v-95h-408zM202 581l68 169l90 -45l-87 -157z" />
    <glyph glyph-name="ecircumflex" unicode="&#xea;" horiz-adv-x="498" 
d="M50 0v500h398v-96h-291v-101h260v-95h-260v-113h301v-95h-408zM397 592l-48 -53l-99 82l-98 -82l-50 53l127 126h42z" />
    <glyph glyph-name="edieresis" unicode="&#xeb;" horiz-adv-x="498" 
d="M50 0v500h398v-96h-291v-101h260v-95h-260v-113h301v-95h-408zM284 611q0 26 18 44t44 18t44 -18t18 -44t-18 -44t-44 -18t-44 18t-18 44zM91 611q0 26 18 44t44 18t44 -18t18 -44t-18 -44t-44 -18t-44 18t-18 44z" />
    <glyph glyph-name="igrave" unicode="&#xec;" horiz-adv-x="208" 
d="M50 500h108v-500h-108v500zM92 750l68 -169l-71 -33l-87 157z" />
    <glyph glyph-name="iacute" unicode="&#xed;" horiz-adv-x="208" 
d="M50 500h108v-500h-108v500zM54 581l68 169l90 -45l-87 -157z" />
    <glyph glyph-name="icircumflex" unicode="&#xee;" horiz-adv-x="208" 
d="M50 500h108v-500h-108v500zM253 592l-48 -53l-99 82l-98 -82l-50 53l127 126h42z" />
    <glyph glyph-name="idieresis" unicode="&#xef;" horiz-adv-x="208" 
d="M50 500h108v-500h-108v500zM140 611q0 26 18 44t44 18t44 -18t18 -44t-18 -44t-44 -18t-44 18t-18 44zM-53 611q0 26 18 44t44 18t44 -18t18 -44t-18 -44t-44 -18t-44 18t-18 44z" />
    <glyph glyph-name="eth" unicode="&#xf0;" horiz-adv-x="552" 
d="M8 216v80h42v204h212q112 0 184 -72q71 -71 71 -178q0 -108 -71 -179q-73 -71 -184 -71h-212v216h-42zM258 404h-101v-108h136v-80h-136v-121h101q70 0 113 46q39 41 39 109q0 70 -41 111q-43 43 -111 43z" />
    <glyph glyph-name="ntilde" unicode="&#xf1;" horiz-adv-x="573" 
d="M419 500h104v-500h-97l-271 328v-328h-105v500h97l272 -327v327zM354 558q-33 0 -69 14q-36 16 -70 16q-37 0 -65 -22l-42 51q46 51 107 51q34 0 70 -16q31 -15 69 -15q37 0 65 23l41 -53q-46 -49 -106 -49z" />
    <glyph glyph-name="ograve" unicode="&#xf2;" horiz-adv-x="591" 
d="M296 509q116 0 192 -78q73 -73 73 -181q0 -114 -78 -187q-75 -72 -187 -72q-116 0 -191 75t-75 184q0 113 81 189q75 70 185 70zM137 250q0 -73 45 -118q43 -46 114 -46q66 0 110 44q47 44 47 120q0 79 -47 121q-45 43 -110 43q-71 0 -115 -47q-44 -44 -44 -117zM252 750
l68 -169l-71 -33l-87 157z" />
    <glyph glyph-name="oacute" unicode="&#xf3;" horiz-adv-x="591" 
d="M296 509q116 0 192 -78q73 -73 73 -181q0 -114 -78 -187q-75 -72 -187 -72q-116 0 -191 75t-75 184q0 113 81 189q75 70 185 70zM137 250q0 -73 45 -118q43 -46 114 -46q66 0 110 44q47 44 47 120q0 79 -47 121q-45 43 -110 43q-71 0 -115 -47q-44 -44 -44 -117zM267 581
l68 169l90 -45l-87 -157z" />
    <glyph glyph-name="ocircumflex" unicode="&#xf4;" horiz-adv-x="591" 
d="M296 509q116 0 192 -78q73 -73 73 -181q0 -114 -78 -187q-75 -72 -187 -72q-116 0 -191 75t-75 184q0 113 81 189q75 70 185 70zM137 250q0 -73 45 -118q43 -46 114 -46q66 0 110 44q47 44 47 120q0 79 -47 121q-45 43 -110 43q-71 0 -115 -47q-44 -44 -44 -117zM443 592
l-48 -53l-99 82l-98 -82l-50 53l127 126h42z" />
    <glyph glyph-name="otilde" unicode="&#xf5;" horiz-adv-x="591" 
d="M296 509q116 0 192 -78q73 -73 73 -181q0 -114 -78 -187q-75 -72 -187 -72q-116 0 -191 75t-75 184q0 113 81 189q75 70 185 70zM137 250q0 -73 45 -118q43 -46 114 -46q66 0 110 44q47 44 47 120q0 79 -47 121q-45 43 -110 43q-71 0 -115 -47q-44 -44 -44 -117zM365 558
q-33 0 -69 14q-36 16 -70 16q-38 0 -65 -22l-42 51q47 51 107 51q34 0 70 -16q31 -15 69 -15q37 0 65 23l41 -53q-46 -49 -106 -49z" />
    <glyph glyph-name="odieresis" unicode="&#xf6;" horiz-adv-x="591" 
d="M296 509q116 0 192 -78q73 -73 73 -181q0 -114 -78 -187q-75 -72 -187 -72q-116 0 -191 75t-75 184q0 113 81 189q75 70 185 70zM137 250q0 -73 45 -118q43 -46 114 -46q66 0 110 44q47 44 47 120q0 79 -47 121q-45 43 -110 43q-71 0 -115 -47q-44 -44 -44 -117zM330 611
q0 26 18 44t44 18t44 -18t18 -44t-18 -44t-44 -18t-44 18t-18 44zM137 611q0 26 18 44t44 18t44 -18t18 -44t-18 -44t-44 -18t-44 18t-18 44z" />
    <glyph glyph-name="divide" unicode="&#xf7;" horiz-adv-x="337" 
d="M99 119q0 29 18.5 48t49.5 19q32 0 50.5 -18.5t18.5 -48.5t-18.5 -48t-50.5 -18q-31 0 -49.5 18.5t-18.5 47.5zM99 400q0 30 18.5 48.5t49.5 18.5q32 0 50.5 -18.5t18.5 -48.5t-18.5 -48t-50.5 -18q-31 0 -49.5 18.5t-18.5 47.5zM18 305h303v-85h-303v85z" />
    <glyph glyph-name="oslash" unicode="&#xf8;" horiz-adv-x="591" 
d="M296 509q71 0 132 -33l28 34l65 -51l-28 -34q35 -38 53 -87q15 -40 15 -88q0 -114 -78 -187q-75 -72 -187 -72q-73 0 -131 31l-27 -33l-65 52l25 31q-32 35 -50 80t-18 98q0 113 81 189q75 70 185 70zM137 250q0 -30 7 -52q8 -28 20 -45l201 246q-31 15 -69 15
q-71 0 -115 -47q-44 -44 -44 -117zM447 300q-6 22 -19 44l-200 -244q33 -14 68 -14q66 0 110 44q47 44 47 120q0 26 -6 50z" />
    <glyph glyph-name="ugrave" unicode="&#xf9;" horiz-adv-x="544" 
d="M494 212q0 -98 -67 -162q-63 -58 -154 -58q-97 0 -160 63q-63 66 -63 157v288h107v-293q0 -53 32 -85q33 -35 84 -35t83 34q31 33 31 86v293h107v-288zM249 750l68 -169l-71 -33l-87 157z" />
    <glyph glyph-name="uacute" unicode="&#xfa;" horiz-adv-x="544" 
d="M494 212q0 -98 -67 -162q-63 -58 -154 -58q-97 0 -160 63q-63 66 -63 157v288h107v-293q0 -53 32 -85q33 -35 84 -35t83 34q31 33 31 86v293h107v-288zM227 581l68 169l90 -45l-87 -157z" />
    <glyph glyph-name="ucircumflex" unicode="&#xfb;" horiz-adv-x="544" 
d="M494 212q0 -98 -67 -162q-63 -58 -154 -58q-97 0 -160 63q-63 66 -63 157v288h107v-293q0 -53 32 -85q33 -35 84 -35t83 34q31 33 31 86v293h107v-288zM420 592l-48 -53l-99 82l-98 -82l-50 53l127 126h42z" />
    <glyph glyph-name="udieresis" unicode="&#xfc;" horiz-adv-x="544" 
d="M494 212q0 -98 -67 -162q-63 -58 -154 -58q-97 0 -160 63q-63 66 -63 157v288h107v-293q0 -53 32 -85q33 -35 84 -35t83 34q31 33 31 86v293h107v-288zM307 611q0 26 18 44t44 18t44 -18t18 -44t-18 -44t-44 -18t-44 18t-18 44zM114 611q0 26 18 44t44 18t44 -18t18 -44
t-18 -44t-44 -18t-44 18t-18 44z" />
    <glyph glyph-name="yacute" unicode="&#xfd;" horiz-adv-x="581" 
d="M344 0h-107v112l-212 388h121l144 -272h6l141 272h119l-212 -388v-112zM256 581l68 169l90 -45l-87 -157z" />
    <glyph glyph-name="thorn" unicode="&#xfe;" horiz-adv-x="511" 
d="M481 255q0 -72 -50 -124q-58 -61 -142 -61h-132v-70h-107v500h107v-59h132q83 0 140 -59q52 -52 52 -127zM293 165q36 0 58 27q23 26 23 63q0 36 -21 61q-24 29 -67 29h-129v-180h136z" />
    <glyph glyph-name="ydieresis" unicode="&#xff;" horiz-adv-x="581" 
d="M344 0h-107v112l-212 388h121l144 -272h6l141 272h119l-212 -388v-112zM325 611q0 26 18 44t44 18t44 -18t18 -44t-18 -44t-44 -18t-44 18t-18 44zM132 611q0 26 18 44t44 18t44 -18t18 -44t-18 -44t-44 -18t-44 18t-18 44z" />
    <glyph glyph-name="Amacron" unicode="&#x100;" horiz-adv-x="697" 
d="M291 600h115l266 -600h-115l-50 110h-320l-49 -110h-113zM340 492l-112 -285h239l-115 285h-12zM184 731h329v-81h-329v81z" />
    <glyph glyph-name="amacron" unicode="&#x101;" horiz-adv-x="603" 
d="M247 500h109l222 -500h-116l-39 89h-246l-39 -89h-113zM296 380l-78 -196h163l-78 196h-7zM158 634h287v-76h-287v76z" />
    <glyph glyph-name="Abreve" unicode="&#x102;" horiz-adv-x="697" 
d="M291 600h115l266 -600h-115l-50 110h-320l-49 -110h-113zM340 492l-112 -285h239l-115 285h-12zM424 779l73 -35q-15 -42 -54 -71q-42 -31 -96 -31t-94 31q-39 29 -54 71l73 35q11 -23 26 -37q20 -19 50 -19q29 0 49 17q17 14 27 39z" />
    <glyph glyph-name="abreve" unicode="&#x103;" horiz-adv-x="603" 
d="M247 500h109l222 -500h-116l-39 89h-246l-39 -89h-113zM296 380l-78 -196h163l-78 196h-7zM300 545q-52 0 -91 29q-37 28 -52 68l75 35q9 -19 21 -31q18 -18 48 -18t48 18q12 12 21 31l75 -35q-15 -41 -50 -67q-39 -30 -95 -30z" />
    <glyph glyph-name="Aogonek" unicode="&#x104;" horiz-adv-x="697" 
d="M291 600h115l266 -600q-20 0 -29 -16q-8 -13 -8 -36q0 -27 19 -53q21 -28 48 -44l-26 -44q-55 16 -84 41q-40 35 -40 83q0 33 17 55l-60 124h-324l-49 -110h-111zM340 492l-114 -285h243l-117 285h-12z" />
    <glyph glyph-name="aogonek" unicode="&#x105;" horiz-adv-x="603" 
d="M247 500h109l222 -500q-17 -4 -28 -18q-9 -12 -9 -27q0 -26 16 -45q18 -18 47 -32l-22 -45q-61 14 -87 42t-26 63q0 39 31 62h-38l-39 89h-246l-39 -89h-113zM296 380l-78 -196h163l-78 196h-7z" />
    <glyph glyph-name="Cacute" unicode="&#x106;" horiz-adv-x="618" 
d="M136 301q0 -93 58 -151q62 -64 152 -64q97 0 179 73l64 -71q-54 -52 -111 -75.5t-132 -23.5q-135 0 -226 89q-91 88 -91 223q0 130 89 221q89 89 228 89q74 0 131 -23.5t112 -73.5l-64 -72q-81 73 -179 73q-89 0 -149 -60q-61 -61 -61 -154zM318 674l81 185l85 -42
l-96 -177z" />
    <glyph glyph-name="cacute" unicode="&#x107;" horiz-adv-x="546" 
d="M143 251q0 -73 44 -117q44 -47 115 -47q73 0 143 62l66 -71q-98 -87 -209 -87q-114 0 -189 75q-78 76 -78 185q0 106 77 183q75 75 190 75q118 0 209 -87l-66 -71q-68 62 -143 62q-69 0 -113 -44q-46 -46 -46 -118zM267 581l68 169l90 -45l-87 -157z" />
    <glyph glyph-name="Ccircumflex" unicode="&#x108;" horiz-adv-x="618" 
d="M136 301q0 -93 58 -151q62 -64 152 -64q97 0 179 73l64 -71q-54 -52 -111 -75.5t-132 -23.5q-135 0 -226 89q-91 88 -91 223q0 130 89 221q89 89 228 89q74 0 131 -23.5t112 -73.5l-64 -72q-81 73 -179 73q-89 0 -149 -60q-61 -61 -61 -154zM238 634l-48 51l136 135h42
l136 -135l-48 -51l-109 90z" />
    <glyph glyph-name="ccircumflex" unicode="&#x109;" horiz-adv-x="546" 
d="M143 251q0 -73 44 -117q44 -47 115 -47q73 0 143 62l66 -71q-98 -87 -209 -87q-114 0 -189 75q-78 76 -78 185q0 106 77 183q75 75 190 75q118 0 209 -87l-66 -71q-68 62 -143 62q-69 0 -113 -44q-46 -46 -46 -118zM451 592l-48 -53l-99 82l-98 -82l-50 53l127 126h42z
" />
    <glyph glyph-name="Cdotaccent" unicode="&#x10a;" horiz-adv-x="618" 
d="M136 301q0 -93 58 -151q62 -64 152 -64q97 0 179 73l64 -71q-54 -52 -111 -75.5t-132 -23.5q-135 0 -226 89q-91 88 -91 223q0 130 89 221q89 89 228 89q74 0 131 -23.5t112 -73.5l-64 -72q-81 73 -179 73q-89 0 -149 -60q-61 -61 -61 -154zM280 709q0 29 20 48t48 19
t47 -18.5t19 -48.5q0 -29 -19 -47t-47 -18t-48 18t-20 47z" />
    <glyph glyph-name="cdotaccent" unicode="&#x10b;" horiz-adv-x="546" 
d="M143 251q0 -73 44 -117q44 -47 115 -47q73 0 143 62l66 -71q-98 -87 -209 -87q-114 0 -189 75q-78 76 -78 185q0 106 77 183q75 75 190 75q118 0 209 -87l-66 -71q-68 62 -143 62q-69 0 -113 -44q-46 -46 -46 -118zM242 621q0 26 18 44.5t44 18.5t44.5 -18.5t18.5 -44.5
t-18.5 -44t-44.5 -18t-44 18t-18 44z" />
    <glyph glyph-name="Ccaron" unicode="&#x10c;" horiz-adv-x="618" 
d="M136 301q0 -93 58 -151q62 -64 152 -64q97 0 179 73l64 -71q-54 -52 -111 -75.5t-132 -23.5q-135 0 -226 89q-91 88 -91 223q0 130 89 221q89 89 228 89q74 0 131 -23.5t112 -73.5l-64 -72q-81 73 -179 73q-89 0 -149 -60q-61 -61 -61 -154zM193 774l48 51l109 -90
l109 90l48 -51l-136 -135h-42z" />
    <glyph glyph-name="ccaron" unicode="&#x10d;" horiz-adv-x="546" 
d="M143 251q0 -73 44 -117q44 -47 115 -47q73 0 143 62l66 -71q-98 -87 -209 -87q-114 0 -189 75q-78 76 -78 185q0 106 77 183q75 75 190 75q118 0 209 -87l-66 -71q-68 62 -143 62q-69 0 -113 -44q-46 -46 -46 -118zM153 665l48 53l99 -82l98 82l50 -53l-127 -126h-42z
" />
    <glyph glyph-name="Dcaron" unicode="&#x10e;" horiz-adv-x="639" 
d="M50 600h250q135 0 225 -92q79 -82 79 -208q0 -132 -89 -219q-84 -81 -215 -81h-250v600zM296 503h-141v-407h141q91 0 147 56q55 56 55 148q0 90 -54 146q-57 57 -148 57zM126 774l48 51l109 -90l109 90l48 -51l-136 -135h-42z" />
    <glyph glyph-name="dcaron" unicode="&#x10f;" horiz-adv-x="552" 
d="M50 500h212q112 0 184 -72q71 -71 71 -178q0 -108 -71 -179q-73 -71 -184 -71h-212v500zM258 404h-101v-309h101q70 0 113 46q39 41 39 109q0 70 -41 111q-43 43 -111 43zM109 665l48 53l99 -82l98 82l50 -53l-127 -126h-42z" />
    <glyph glyph-name="Dcroat" unicode="&#x110;" horiz-adv-x="639" 
d="M2 345h48v255h250q135 0 225 -92q79 -82 79 -208q0 -132 -89 -219q-84 -81 -215 -81h-250v260h-48v85zM296 503h-141v-158h185v-85h-185v-164h141q91 0 147 56q55 56 55 148q0 90 -54 146q-57 57 -148 57z" />
    <glyph glyph-name="dslash" unicode="&#x111;" horiz-adv-x="552" 
d="M8 216v80h42v204h212q112 0 184 -72q71 -71 71 -178q0 -108 -71 -179q-73 -71 -184 -71h-212v216h-42zM258 404h-101v-108h136v-80h-136v-121h101q70 0 113 46q39 41 39 109q0 70 -41 111q-43 43 -111 43z" />
    <glyph glyph-name="Emacron" unicode="&#x112;" horiz-adv-x="570" 
d="M50 0v600h466v-98h-358v-139h320v-97h-320v-169h372v-97h-480zM121 731h329v-81h-329v81z" />
    <glyph glyph-name="emacron" unicode="&#x113;" horiz-adv-x="498" 
d="M50 0v500h398v-96h-291v-101h260v-95h-260v-113h301v-95h-408zM106 634h287v-76h-287v76z" />
    <glyph glyph-name="Ebreve" unicode="&#x114;" horiz-adv-x="570" 
d="M50 0v600h466v-98h-358v-139h320v-97h-320v-169h372v-97h-480zM361 779l73 -35q-15 -42 -54 -71q-42 -31 -96 -31t-94 31q-39 29 -54 71l73 35q11 -23 26 -37q20 -19 50 -19q29 0 49 17q16 14 27 39z" />
    <glyph glyph-name="ebreve" unicode="&#x115;" horiz-adv-x="498" 
d="M50 0v500h398v-96h-291v-101h260v-95h-260v-113h301v-95h-408zM262 545q-52 0 -91 29q-37 28 -52 68l75 35q9 -19 21 -31q18 -18 48 -18t48 18q12 12 21 31l75 -35q-15 -41 -50 -67q-39 -30 -95 -30z" />
    <glyph glyph-name="Edotaccent" unicode="&#x116;" horiz-adv-x="570" 
d="M50 0v600h466v-98h-358v-139h320v-97h-320v-169h372v-97h-480zM223 706q0 26 18 44.5t44 18.5t44.5 -18.5t18.5 -44.5t-18.5 -44t-44.5 -18t-44 18t-18 44z" />
    <glyph glyph-name="edotaccent" unicode="&#x117;" horiz-adv-x="498" 
d="M50 0v500h398v-96h-291v-101h260v-95h-260v-113h301v-95h-408zM187 616q0 26 18 44.5t44 18.5t44.5 -18.5t18.5 -44.5t-18.5 -44t-44.5 -18t-44 18t-18 44z" />
    <glyph glyph-name="Eogonek" unicode="&#x118;" horiz-adv-x="570" 
d="M50 0v600h466v-98h-358v-139h320v-97h-320v-169h372v-97q-20 0 -31 -18q-12 -18 -12 -40q0 -25 18 -50q17 -24 45 -41l-26 -47q-51 15 -87 51q-30 32 -30 76q0 40 38 69h-395z" />
    <glyph glyph-name="eogonek" unicode="&#x119;" horiz-adv-x="498" 
d="M50 0v500h398v-96h-291v-101h260v-95h-260v-113h301v-95q-25 -2 -36 -13t-11 -32q0 -23 14 -40q12 -17 47 -37l-24 -45q-55 13 -81 41q-28 28 -28 68q0 37 30 58h-319z" />
    <glyph glyph-name="Ecaron" unicode="&#x11a;" horiz-adv-x="570" 
d="M50 0v600h466v-98h-358v-139h320v-97h-320v-169h372v-97h-480zM128 774l48 51l109 -90l109 90l48 -51l-136 -135h-42z" />
    <glyph glyph-name="ecaron" unicode="&#x11b;" horiz-adv-x="498" 
d="M50 0v500h398v-96h-291v-101h260v-95h-260v-113h301v-95h-408zM117 665l48 53l99 -82l98 82l50 -53l-127 -126h-42z" />
    <glyph glyph-name="Gcircumflex" unicode="&#x11c;" horiz-adv-x="648" 
d="M596 349v-343l-71 -13l-11 39q-72 -43 -163 -43q-157 0 -246 106q-72 85 -72 206q0 134 92 221q91 89 228 89q75 0 132 -23t110 -76l-71 -71q-39 39 -78 55.5t-93 16.5q-90 0 -153 -63q-58 -58 -58 -149q0 -97 62 -156q61 -58 147 -58q77 0 139 40v124l-154 8v90h260z
M249 634l-48 51l136 135h42l136 -135l-48 -51l-109 90z" />
    <glyph glyph-name="gcircumflex" unicode="&#x11d;" horiz-adv-x="563" 
d="M508 296v-287l-62 -14l-20 32q-52 -36 -129 -36q-110 0 -183 70q-79 76 -79 190q0 107 76 183q75 75 192 75q119 0 210 -88l-66 -68q-66 60 -144 60q-71 0 -114 -45q-46 -46 -46 -117q0 -74 46 -120q44 -44 112 -44q58 0 101 29v87l-123 5v88h229zM451 592l-48 -53
l-99 82l-98 -82l-50 53l127 126h42z" />
    <glyph glyph-name="Gbreve" unicode="&#x11e;" horiz-adv-x="648" 
d="M596 349v-343l-71 -13l-11 39q-72 -43 -163 -43q-157 0 -246 106q-72 85 -72 206q0 134 92 221q91 89 228 89q75 0 132 -23t110 -76l-71 -71q-39 39 -78 55.5t-93 16.5q-90 0 -153 -63q-58 -58 -58 -149q0 -97 62 -156q61 -58 147 -58q77 0 139 40v124l-154 8v90h260z
M429 779l73 -35q-15 -42 -54 -71q-42 -31 -96 -31t-94 31q-39 29 -54 71l73 35q11 -23 26 -37q20 -19 50 -19q29 0 49 17q16 14 27 39z" />
    <glyph glyph-name="gbreve" unicode="&#x11f;" horiz-adv-x="563" 
d="M508 296v-287l-62 -14l-20 32q-52 -36 -129 -36q-110 0 -183 70q-79 76 -79 190q0 107 76 183q75 75 192 75q119 0 210 -88l-66 -68q-66 60 -144 60q-71 0 -114 -45q-46 -46 -46 -117q0 -74 46 -120q44 -44 112 -44q58 0 101 29v87l-123 5v88h229zM303 545q-52 0 -91 29
q-37 28 -52 68l75 35q9 -19 21 -31q18 -18 48 -18t48 18q12 12 21 31l75 -35q-15 -41 -50 -67q-39 -30 -95 -30z" />
    <glyph glyph-name="Gdotaccent" unicode="&#x120;" horiz-adv-x="648" 
d="M596 349v-343l-71 -13l-11 39q-72 -43 -163 -43q-157 0 -246 106q-72 85 -72 206q0 134 92 221q91 89 228 89q75 0 132 -23t110 -76l-71 -71q-39 39 -78 55.5t-93 16.5q-90 0 -153 -63q-58 -58 -58 -149q0 -97 62 -156q61 -58 147 -58q77 0 139 40v124l-154 8v90h260z
M290 715q0 29 20 48t48 19t47 -18.5t19 -48.5q0 -29 -19 -47t-47 -18t-48 18t-20 47z" />
    <glyph glyph-name="gdotaccent" unicode="&#x121;" horiz-adv-x="563" 
d="M508 296v-287l-62 -14l-20 32q-52 -36 -129 -36q-110 0 -183 70q-79 76 -79 190q0 107 76 183q75 75 192 75q119 0 210 -88l-66 -68q-66 60 -144 60q-71 0 -114 -45q-46 -46 -46 -117q0 -74 46 -120q44 -44 112 -44q58 0 101 29v87l-123 5v88h229zM239 617q0 26 18 44.5
t44 18.5t44.5 -18.5t18.5 -44.5t-18.5 -44t-44.5 -18t-44 18t-18 44z" />
    <glyph glyph-name="Gcommaaccent" unicode="&#x122;" horiz-adv-x="648" 
d="M596 349v-343l-71 -13l-11 39q-72 -43 -163 -43q-157 0 -246 106q-72 85 -72 206q0 134 92 221q91 89 228 89q75 0 132 -23t110 -76l-71 -71q-39 39 -78 55.5t-93 16.5q-90 0 -153 -63q-58 -58 -58 -149q0 -97 62 -156q61 -58 147 -58q77 0 139 40v124l-154 8v90h260z
M353 -40q28 0 45 -16.5t17 -41.5q0 -16 -7 -34l-35 -104l-46 7l6 74q-40 12 -40 57q0 25 16 41.5t44 16.5z" />
    <glyph glyph-name="gcommaaccent" unicode="&#x123;" horiz-adv-x="563" 
d="M508 296v-287l-62 -14l-20 32q-52 -36 -129 -36q-110 0 -183 70q-79 76 -79 190q0 107 76 183q75 75 192 75q119 0 210 -88l-66 -68q-66 60 -144 60q-71 0 -114 -45q-46 -46 -46 -117q0 -74 46 -120q44 -44 112 -44q58 0 101 29v87l-123 5v88h229zM304 -34
q28 0 43.5 -15.5t15.5 -39.5q0 -11 -6 -27l-40 -101l-52 14l11 63q-29 12 -29 51q0 24 15.5 39.5t41.5 15.5z" />
    <glyph glyph-name="Hcircumflex" unicode="&#x124;" horiz-adv-x="629" 
d="M473 600h106v-600h-106v273h-316v-273h-107v600h107v-232h316v232zM205 634l-48 51l136 135h42l136 -135l-48 -51l-109 90z" />
    <glyph glyph-name="hcircumflex" unicode="&#x125;" horiz-adv-x="549" 
d="M392 500h107v-500h-107v218h-235v-218h-107v500h107v-187h235v187zM422 592l-48 -53l-99 82l-98 -82l-50 53l127 126h42z" />
    <glyph glyph-name="Hbar" unicode="&#x126;" horiz-adv-x="629" 
d="M475 600h104v-79h33v-82h-33v-439h-104v273h-320v-273h-105v439h-33v82h33v79h105v-79h320v79zM155 367h320v72h-320v-72z" />
    <glyph glyph-name="hbar" unicode="&#x127;" horiz-adv-x="549" 
d="M392 500h107v-58h38v-75h-38v-367h-107v218h-235v-218h-107v367h-38v75h38v58h107v-58h235v58zM157 313h235v54h-235v-54z" />
    <glyph glyph-name="Itilde" unicode="&#x128;" horiz-adv-x="205" 
d="M155 600v-600h-105v600h105zM175 645q-37 0 -71 15q-36 16 -72 16t-68 -24l-43 54q51 54 111 54q33 0 72 -16t71 -16q35 0 67 24l43 -55q-49 -52 -110 -52z" />
    <glyph glyph-name="itilde" unicode="&#x129;" horiz-adv-x="208" 
d="M50 500h108v-500h-108v500zM175 558q-33 0 -69 14q-36 16 -70 16q-38 0 -65 -22l-42 51q46 51 107 51q34 0 70 -16q31 -15 69 -15q37 0 65 23l41 -53q-46 -49 -106 -49z" />
    <glyph glyph-name="imacron" unicode="&#x12b;" horiz-adv-x="208" 
d="M50 500h108v-500h-108v500zM-38 634h287v-76h-287v76z" />
    <glyph glyph-name="Ibreve" unicode="&#x12c;" horiz-adv-x="205" 
d="M155 600v-600h-105v600h105zM179 779l73 -35q-15 -42 -54 -71q-42 -31 -96 -31t-94 31q-39 29 -54 71l73 35q11 -23 26 -37q20 -19 50 -19q29 0 49 17q16 14 27 39z" />
    <glyph glyph-name="Iogonek" unicode="&#x12e;" horiz-adv-x="205" 
d="M155 600v-600q-14 0 -23 -11q-11 -14 -11 -38q0 -32 20 -59q17 -24 45 -41l-26 -44q-49 14 -83 48q-30 32 -30 76t31 69h-28v600h105z" />
    <glyph glyph-name="iogonek" unicode="&#x12f;" horiz-adv-x="208" 
d="M50 500h108v-500q-17 0 -28 -11q-12 -12 -12 -34q0 -28 18 -47q16 -17 43 -30l-24 -45q-55 13 -81 41q-28 28 -28 68q0 36 28 58h-24v500z" />
    <glyph glyph-name="Idot" unicode="&#x130;" horiz-adv-x="205" 
d="M155 600v-600h-105v600h105zM36 715q0 29 20 48t48 19t47 -18.5t19 -48.5q0 -29 -19 -47t-47 -18t-48 18t-20 47z" />
    <glyph glyph-name="Jcircumflex" unicode="&#x134;" horiz-adv-x="535" 
d="M383 600h107v-341q0 -127 -71 -197q-76 -73 -195 -73q-123 0 -209 90l59 71q64 -61 147 -61q79 0 118 39q44 44 44 120v352zM326 634l-48 51l136 135h42l136 -135l-48 -51l-109 90z" />
    <glyph glyph-name="jcircumflex" unicode="&#x135;" horiz-adv-x="466" 
d="M314 500h107v-272q0 -116 -60 -179q-58 -58 -166 -58q-111 0 -180 82l65 69q58 -55 114 -55q65 0 94 38q26 35 26 93v282zM513 592l-48 -53l-99 82l-98 -82l-50 53l127 126h42z" />
    <glyph glyph-name="Kcommaaccent" unicode="&#x136;" horiz-adv-x="605" 
d="M50 600h107v-232h124l164 232h125l-197 -275l212 -325h-123l-179 273h-126v-273h-107v600zM282 11q28 0 45 -16.5t17 -41.5q0 -16 -7 -34l-35 -104l-46 7l6 74q-40 12 -40 57q0 25 16 41.5t44 16.5z" />
    <glyph glyph-name="kcommaaccent" unicode="&#x137;" horiz-adv-x="539" 
d="M50 500h107v-190h86l137 190h126l-172 -234l184 -266h-129l-143 214h-89v-214h-107v500zM268 15q28 0 44.5 -16.5t16.5 -41.5q0 -13 -5 -28l-44 -106l-47 12l15 67q-40 7 -40 55q0 25 17 41.5t43 16.5z" />
    <glyph glyph-name="kgreenlandic" unicode="&#x138;" horiz-adv-x="539" 
d="M50 500h107v-190h86l137 190h126l-172 -234l184 -266h-129l-143 214h-89v-214h-107v500z" />
    <glyph glyph-name="Lacute" unicode="&#x139;" horiz-adv-x="542" 
d="M517 95v-95h-467v600h107v-505h360zM72 674l81 185l85 -42l-96 -177z" />
    <glyph glyph-name="lacute" unicode="&#x13a;" horiz-adv-x="470" 
d="M158 95h287v-95h-395v500h108v-405zM72 581l68 169l90 -45l-87 -157z" />
    <glyph glyph-name="Lcommaaccent" unicode="&#x13b;" horiz-adv-x="542" 
d="M517 95v-95h-467v600h107v-505h360zM288 -40q28 0 45 -16.5t17 -41.5q0 -16 -7 -34l-35 -104l-46 7l6 74q-40 12 -40 57q0 25 16 41.5t44 16.5z" />
    <glyph glyph-name="lcommaaccent" unicode="&#x13c;" horiz-adv-x="470" 
d="M158 95h287v-95h-395v500h108v-405zM249 -27q29 0 45 -16.5t16 -41.5q0 -13 -5 -28l-44 -106l-47 12l15 67q-40 7 -40 55q0 25 17 41.5t43 16.5z" />
    <glyph glyph-name="Lcaron" unicode="&#x13d;" horiz-adv-x="542" 
d="M517 95v-95h-467v600h107v-505h360zM-56 774l48 51l109 -90l109 90l48 -51l-136 -135h-42z" />
    <glyph glyph-name="lcaron" unicode="&#x13e;" horiz-adv-x="470" 
d="M158 95h287v-95h-395v500h108v-405zM-43 665l48 53l99 -82l98 82l50 -53l-127 -126h-42z" />
    <glyph glyph-name="Ldot" unicode="&#x13f;" horiz-adv-x="542" 
d="M517 95v-95h-467v600h107v-505h360zM245 315q0 29 20 48t48 19t47 -18.5t19 -48.5q0 -29 -19 -47t-47 -18t-48 18t-20 47z" />
    <glyph glyph-name="ldot" unicode="&#x140;" horiz-adv-x="470" 
d="M158 95h287v-95h-395v500h108v-405zM246 303q0 26 18 44.5t44 18.5t44.5 -18.5t18.5 -44.5t-18.5 -44t-44.5 -18t-44 18t-18 44z" />
    <glyph glyph-name="Lslash" unicode="&#x141;" horiz-adv-x="542" 
d="M18 251l-26 87l58 16v246h105v-217l104 30l26 -87l-130 -37v-195h362v-94h-467v260z" />
    <glyph glyph-name="lslash" unicode="&#x142;" horiz-adv-x="470" 
d="M21 188l-29 66l58 25v221h108v-175l75 32l29 -67l-104 -44v-151h287v-95h-395v200z" />
    <glyph glyph-name="Nacute" unicode="&#x143;" horiz-adv-x="657" 
d="M504 600h103v-600h-99l-353 431v-431h-105v600h99l355 -432v432zM290 674l81 185l85 -42l-96 -177z" />
    <glyph glyph-name="nacute" unicode="&#x144;" horiz-adv-x="573" 
d="M419 500h104v-500h-97l-271 328v-328h-105v500h97l272 -327v327zM249 581l68 169l90 -45l-87 -157z" />
    <glyph glyph-name="Ncommaaccent" unicode="&#x145;" horiz-adv-x="657" 
d="M504 600h103v-600h-99l-353 431v-431h-105v600h99l355 -432v432zM308 27q28 0 45 -16.5t17 -41.5q0 -16 -7 -34l-35 -104l-46 7l6 74q-40 12 -40 57q0 25 16 41.5t44 16.5z" />
    <glyph glyph-name="ncommaaccent" unicode="&#x146;" horiz-adv-x="573" 
d="M419 500h104v-500h-97l-271 328v-328h-105v500h97l272 -327v327zM282 26q28 0 44.5 -16t16.5 -42q0 -13 -5 -28l-44 -106l-47 12l15 67q-40 7 -40 55q0 25 17 41.5t43 16.5z" />
    <glyph glyph-name="Ncaron" unicode="&#x147;" horiz-adv-x="657" 
d="M504 600h103v-600h-99l-353 431v-431h-105v600h99l355 -432v432zM192 774l48 51l109 -90l109 90l48 -51l-136 -135h-42z" />
    <glyph glyph-name="ncaron" unicode="&#x148;" horiz-adv-x="573" 
d="M419 500h104v-500h-97l-271 328v-328h-105v500h97l272 -327v327zM141 665l48 53l99 -82l98 82l50 -53l-127 -126h-42z" />
    <glyph glyph-name="napostrophe" unicode="&#x149;" horiz-adv-x="655" 
d="M501 500h104v-500h-97l-271 328v-328h-105v500h97l272 -327v327zM57 619q29 0 45 -16.5t16 -41.5q0 -13 -5 -28l-44 -106l-47 12l15 67q-40 7 -40 55q0 25 17 41.5t43 16.5z" />
    <glyph glyph-name="Omacron" unicode="&#x14c;" horiz-adv-x="693" 
d="M346 611q139 0 227 -88q89 -92 89 -223t-85 -218q-90 -93 -231 -93t-234 100q-83 90 -83 211q0 126 84 215q90 96 233 96zM136 300q0 -89 57 -149q60 -66 153 -66q91 0 153 65q56 59 56 150q0 92 -57 151q-62 64 -152 64q-91 0 -153 -65q-57 -60 -57 -150zM182 731h329
v-81h-329v81z" />
    <glyph glyph-name="omacron" unicode="&#x14d;" horiz-adv-x="591" 
d="M296 509q116 0 192 -78q73 -73 73 -181q0 -114 -78 -187q-75 -72 -187 -72q-116 0 -191 75t-75 184q0 113 81 189q75 70 185 70zM137 250q0 -73 45 -118q43 -46 114 -46q66 0 110 44q47 44 47 120q0 79 -47 121q-45 43 -110 43q-71 0 -115 -47q-44 -44 -44 -117zM152 634
h287v-76h-287v76z" />
    <glyph glyph-name="Obreve" unicode="&#x14e;" horiz-adv-x="693" 
d="M346 611q139 0 227 -88q89 -92 89 -223t-85 -218q-90 -93 -231 -93t-234 100q-83 90 -83 211q0 126 84 215q90 96 233 96zM136 300q0 -89 57 -149q60 -66 153 -66q91 0 153 65q56 59 56 150q0 92 -57 151q-62 64 -152 64q-91 0 -153 -65q-57 -60 -57 -150zM422 779
l73 -35q-15 -42 -54 -71q-42 -31 -96 -31t-94 31q-39 29 -54 71l73 35q11 -23 26 -37q20 -19 50 -19q29 0 49 17q17 14 27 39z" />
    <glyph glyph-name="obreve" unicode="&#x14f;" horiz-adv-x="591" 
d="M296 509q116 0 192 -78q73 -73 73 -181q0 -114 -78 -187q-75 -72 -187 -72q-116 0 -191 75t-75 184q0 113 81 189q75 70 185 70zM137 250q0 -73 45 -118q43 -46 114 -46q66 0 110 44q47 44 47 120q0 79 -47 121q-45 43 -110 43q-71 0 -115 -47q-44 -44 -44 -117zM294 545
q-52 0 -91 29q-37 28 -52 68l75 35q9 -19 21 -31q18 -18 48 -18t48 18q12 12 21 31l75 -35q-15 -41 -50 -67q-39 -30 -95 -30z" />
    <glyph glyph-name="Ohungarumlaut" unicode="&#x150;" horiz-adv-x="693" 
d="M346 611q139 0 227 -88q89 -92 89 -223t-85 -218q-90 -93 -231 -93t-234 100q-83 90 -83 211q0 126 84 215q90 96 233 96zM136 300q0 -89 57 -149q60 -66 153 -66q91 0 153 65q56 59 56 150q0 92 -57 151q-62 64 -152 64q-91 0 -153 -65q-57 -60 -57 -150zM258 660
l55 181l86 -36l-76 -170zM377 664l78 177l84 -41l-94 -169z" />
    <glyph glyph-name="ohungarumlaut" unicode="&#x151;" horiz-adv-x="591" 
d="M296 509q116 0 192 -78q73 -73 73 -181q0 -114 -78 -187q-75 -72 -187 -72q-116 0 -191 75t-75 184q0 113 81 189q75 70 185 70zM137 250q0 -73 45 -118q43 -46 114 -46q66 0 110 44q47 44 47 120q0 79 -47 121q-45 43 -110 43q-71 0 -115 -47q-44 -44 -44 -117zM205 575
l50 171l86 -36l-71 -161zM320 580l73 166l86 -41l-91 -159z" />
    <glyph glyph-name="OE" unicode="&#x152;" horiz-adv-x="1067" 
d="M347 611q126 0 210 -78v67h456v-97h-350v-141h312v-96h-312v-170h364v-96h-470v68q-85 -79 -210 -79q-141 0 -234 100q-83 90 -83 211q0 126 84 215q90 96 233 96zM135 300q0 -89 56 -151q63 -66 156 -66q94 0 154 66q56 61 56 151q0 92 -58 152q-62 65 -152 65
q-95 0 -155 -66q-57 -60 -57 -151z" />
    <glyph glyph-name="oe" unicode="&#x153;" horiz-adv-x="891" 
d="M296 509q94 0 157 -53v44h388v-96h-281v-101h250v-95h-250v-113h291v-95h-398v43q-59 -52 -157 -52q-116 0 -191 75t-75 184q0 113 81 189q75 70 185 70zM137 250q0 -73 45 -118q43 -46 114 -46q66 0 110 44q47 44 47 120q0 79 -47 121q-45 43 -110 43q-71 0 -115 -47
q-44 -44 -44 -117z" />
    <glyph glyph-name="Racute" unicode="&#x154;" horiz-adv-x="602" 
d="M572 380q0 -77 -43 -132q-32 -42 -82 -63q4 -7 48 -78t65 -107h-122l-97 163h-184v-163h-108v600h296q95 0 162 -64q65 -65 65 -156zM157 502v-242h190q55 0 85 36q32 35 32 84q0 50 -30 81q-33 41 -92 41h-185zM239 674l81 185l85 -42l-96 -177z" />
    <glyph glyph-name="racute" unicode="&#x155;" horiz-adv-x="521" 
d="M491 316q0 -61 -35 -108q-26 -34 -63 -54l90 -154h-122l-71 131h-133v-131h-107v500h249q95 0 150 -67q42 -48 42 -117zM157 405v-179h137q42 0 68 30q21 26 21 60q0 38 -24 64q-22 25 -65 25h-137zM207 581l68 169l90 -45l-87 -157z" />
    <glyph glyph-name="Rcommaaccent" unicode="&#x156;" horiz-adv-x="602" 
d="M572 380q0 -77 -43 -132q-32 -42 -82 -63q4 -7 48 -78t65 -107h-122l-97 163h-184v-163h-108v600h296q95 0 162 -64q65 -65 65 -156zM157 502v-242h190q55 0 85 36q32 35 32 84q0 50 -30 81q-33 41 -92 41h-185zM280 26q28 0 44.5 -16t16.5 -42q0 -13 -5 -28l-44 -106
l-47 12l15 67q-40 7 -40 55q0 25 17 41.5t43 16.5z" />
    <glyph glyph-name="rcommaaccent" unicode="&#x157;" horiz-adv-x="521" 
d="M491 316q0 -61 -35 -108q-26 -34 -63 -54l90 -154h-122l-71 131h-133v-131h-107v500h249q95 0 150 -67q42 -48 42 -117zM157 405v-179h137q42 0 68 30q21 26 21 60q0 38 -24 64q-22 25 -65 25h-137zM253 -8q29 0 45 -16t16 -42q0 -13 -5 -28l-44 -106l-47 12l15 67
q-40 7 -40 55q0 25 17 41.5t43 16.5z" />
    <glyph glyph-name="Rcaron" unicode="&#x158;" horiz-adv-x="602" 
d="M572 380q0 -77 -43 -132q-32 -42 -82 -63q4 -7 48 -78t65 -107h-122l-97 163h-184v-163h-108v600h296q95 0 162 -64q65 -65 65 -156zM157 502v-242h190q55 0 85 36q32 35 32 84q0 50 -30 81q-33 41 -92 41h-185zM127 774l48 51l109 -90l109 90l48 -51l-136 -135h-42z" />
    <glyph glyph-name="rcaron" unicode="&#x159;" horiz-adv-x="521" 
d="M491 316q0 -61 -35 -108q-26 -34 -63 -54l90 -154h-122l-71 131h-133v-131h-107v500h249q95 0 150 -67q42 -48 42 -117zM157 405v-179h137q42 0 68 30q21 26 21 60q0 38 -24 64q-22 25 -65 25h-137zM111 665l48 53l99 -82l98 82l50 -53l-127 -126h-42z" />
    <glyph glyph-name="Sacute" unicode="&#x15a;" horiz-adv-x="587" 
d="M39 438q0 78 62 123q64 50 189 50q122 0 241 -60l-40 -85q-99 48 -195 48q-90 0 -126 -26q-27 -20 -27 -51q0 -23 23 -37q17 -13 65 -22l122 -22q112 -21 162 -69q42 -42 42 -110q0 -90 -69 -137q-73 -51 -214 -51q-74 0 -127.5 12t-117.5 42l33 88q111 -44 210 -44
q110 0 155 34q24 19 24 53q0 31 -24 50q-26 19 -88 31l-133 23q-88 14 -131 57q-36 38 -36 103zM264 674l81 185l85 -42l-96 -177z" />
    <glyph glyph-name="sacute" unicode="&#x15b;" horiz-adv-x="515" 
d="M41 368q0 62 48 100q54 41 167 41q104 0 208 -48l-38 -85q-86 38 -166 38q-75 0 -97 -18q-14 -12 -14 -29t13 -27q17 -13 50 -17l99 -17q92 -16 133 -53q41 -38 41 -99q0 -70 -45 -110q-60 -53 -197 -53q-113 0 -210 50l36 88q89 -41 173 -41q79 0 111 20q26 17 26 44
q0 20 -19 32q-18 13 -65 20l-111 20q-74 12 -111 52q-32 35 -32 92zM229 581l68 169l90 -45l-87 -157z" />
    <glyph glyph-name="Scircumflex" unicode="&#x15c;" horiz-adv-x="587" 
d="M39 438q0 78 62 123q64 50 189 50q122 0 241 -60l-40 -85q-99 48 -195 48q-90 0 -126 -26q-27 -20 -27 -51q0 -23 23 -37q17 -13 65 -22l122 -22q112 -21 162 -69q42 -42 42 -110q0 -90 -69 -137q-73 -51 -214 -51q-74 0 -127.5 12t-117.5 42l33 88q111 -44 210 -44
q110 0 155 34q24 19 24 53q0 31 -24 50q-26 19 -88 31l-133 23q-88 14 -131 57q-36 38 -36 103zM183 634l-48 51l136 135h42l136 -135l-48 -51l-109 90z" />
    <glyph glyph-name="scircumflex" unicode="&#x15d;" horiz-adv-x="515" 
d="M41 368q0 62 48 100q54 41 167 41q104 0 208 -48l-38 -85q-86 38 -166 38q-75 0 -97 -18q-14 -12 -14 -29t13 -27q17 -13 50 -17l99 -17q92 -16 133 -53q41 -38 41 -99q0 -70 -45 -110q-60 -53 -197 -53q-113 0 -210 50l36 88q89 -41 173 -41q79 0 111 20q26 17 26 44
q0 20 -19 32q-18 13 -65 20l-111 20q-74 12 -111 52q-32 35 -32 92zM409 592l-48 -53l-99 82l-98 -82l-50 53l127 126h42z" />
    <glyph glyph-name="Scedilla" unicode="&#x15e;" horiz-adv-x="587" 
d="M39 438q0 78 62 123q64 50 189 50q122 0 241 -60l-40 -85q-99 48 -195 48q-90 0 -126 -26q-27 -20 -27 -51q0 -23 23 -37q17 -13 65 -22l122 -22q112 -21 162 -69q42 -42 42 -110q0 -89 -68 -138q-64 -44 -180 -49l-3 -30q34 -2 50 -18q21 -21 21 -54q0 -38 -30 -72
q-35 -38 -115 -60l-19 52q45 19 62 36q18 17 18 40q0 9 -8 17q-8 6 -20 6h-33v83q-104 5 -203 53l33 88q111 -44 210 -44q110 0 155 34q24 19 24 53q0 31 -24 50q-26 19 -88 31l-133 23q-88 14 -131 57q-36 38 -36 103z" />
    <glyph glyph-name="scedilla" unicode="&#x15f;" horiz-adv-x="515" 
d="M41 368q0 62 48 100q54 41 167 41q104 0 208 -48l-38 -85q-86 38 -166 38q-75 0 -97 -18q-14 -12 -14 -29t13 -27q17 -13 50 -17l99 -17q92 -16 133 -53q41 -38 41 -99q0 -70 -45 -110q-52 -47 -164 -52l-1 -24q33 0 50 -21q14 -17 14 -41q0 -42 -31 -73q-32 -32 -95 -51
l-19 48q33 13 50 30q13 13 13 32q0 10 -8 16q-7 6 -19 6h-25v78q-88 5 -172 49l36 88q89 -41 173 -41q79 0 111 20q26 17 26 44q0 20 -19 32q-18 13 -65 20l-111 20q-74 12 -111 52q-32 35 -32 92z" />
    <glyph glyph-name="Scaron" unicode="&#x160;" horiz-adv-x="587" 
d="M39 438q0 78 62 123q64 50 189 50q122 0 241 -60l-40 -85q-99 48 -195 48q-90 0 -126 -26q-27 -20 -27 -51q0 -23 23 -37q17 -13 65 -22l122 -22q112 -21 162 -69q42 -42 42 -110q0 -90 -69 -137q-73 -51 -214 -51q-74 0 -127.5 12t-117.5 42l33 88q111 -44 210 -44
q110 0 155 34q24 19 24 53q0 31 -24 50q-26 19 -88 31l-133 23q-88 14 -131 57q-36 38 -36 103zM139 774l48 51l109 -90l109 90l48 -51l-136 -135h-42z" />
    <glyph glyph-name="scaron" unicode="&#x161;" horiz-adv-x="515" 
d="M41 368q0 62 48 100q54 41 167 41q104 0 208 -48l-38 -85q-86 38 -166 38q-75 0 -97 -18q-14 -12 -14 -29t13 -27q17 -13 50 -17l99 -17q92 -16 133 -53q41 -38 41 -99q0 -70 -45 -110q-60 -53 -197 -53q-113 0 -210 50l36 88q89 -41 173 -41q79 0 111 20q26 17 26 44
q0 20 -19 32q-18 13 -65 20l-111 20q-74 12 -111 52q-32 35 -32 92zM110 665l48 53l99 -82l98 82l50 -53l-127 -126h-42z" />
    <glyph glyph-name="Tcommaaccent" unicode="&#x162;" horiz-adv-x="600" 
d="M24 504v96h551v-96h-223v-504h-105v504h-223zM300 -49q28 0 44.5 -16.5t16.5 -41.5q0 -13 -5 -28l-44 -106l-47 12l15 67q-40 7 -40 55q0 25 17 41.5t43 16.5z" />
    <glyph glyph-name="tcommaaccent" unicode="&#x163;" horiz-adv-x="514" 
d="M25 405v95h464v-95h-179v-405h-107v405h-178zM257 -25q29 0 45 -16.5t16 -41.5q0 -13 -5 -28l-44 -106l-47 12l15 67q-40 7 -40 55q0 25 17 41.5t43 16.5z" />
    <glyph glyph-name="Tcaron" unicode="&#x164;" horiz-adv-x="600" 
d="M24 504v96h551v-96h-223v-504h-105v504h-223zM143 774l48 51l109 -90l109 90l48 -51l-136 -135h-42z" />
    <glyph glyph-name="tcaron" unicode="&#x165;" horiz-adv-x="514" 
d="M25 405v95h464v-95h-179v-405h-107v405h-178zM110 665l48 53l99 -82l98 82l50 -53l-127 -126h-42z" />
    <glyph glyph-name="Tbar" unicode="&#x166;" horiz-adv-x="600" 
d="M109 284v85h139v137h-223v94h550v-94h-223v-137h139v-85h-139v-284h-104v284h-139z" />
    <glyph glyph-name="tbar" unicode="&#x167;" horiz-adv-x="514" 
d="M100 220v83h103v102h-178v95h464v-95h-179v-102h104v-83h-104v-220h-107v220h-103z" />
    <glyph glyph-name="Utilde" unicode="&#x168;" horiz-adv-x="625" 
d="M575 252q0 -115 -80 -192q-75 -70 -182 -70q-114 0 -188 74q-76 76 -76 188v348h108v-354q0 -67 45 -112q44 -47 111 -47q64 0 111 47q43 43 43 112v354h108v-348zM384 645q-37 0 -71 15q-36 16 -72 16q-37 0 -68 -24l-43 54q51 54 111 54q33 0 72 -16t71 -16q35 0 67 24
l43 -55q-49 -52 -110 -52z" />
    <glyph glyph-name="utilde" unicode="&#x169;" horiz-adv-x="544" 
d="M494 212q0 -98 -67 -162q-63 -58 -154 -58q-97 0 -160 63q-63 66 -63 157v288h107v-293q0 -53 32 -85q33 -35 84 -35t83 34q31 33 31 86v293h107v-288zM342 558q-33 0 -69 14q-36 16 -70 16q-37 0 -65 -22l-42 51q46 51 107 51q34 0 70 -16q31 -15 69 -15q37 0 65 23
l41 -53q-46 -49 -106 -49z" />
    <glyph glyph-name="Umacron" unicode="&#x16a;" horiz-adv-x="625" 
d="M575 252q0 -115 -80 -192q-75 -70 -182 -70q-114 0 -188 74q-76 76 -76 188v348h108v-354q0 -67 45 -112q44 -47 111 -47q64 0 111 47q43 43 43 112v354h108v-348zM148 731h329v-81h-329v81z" />
    <glyph glyph-name="umacron" unicode="&#x16b;" horiz-adv-x="544" 
d="M494 212q0 -98 -67 -162q-63 -58 -154 -58q-97 0 -160 63q-63 66 -63 157v288h107v-293q0 -53 32 -85q33 -35 84 -35t83 34q31 33 31 86v293h107v-288zM129 634h287v-76h-287v76z" />
    <glyph glyph-name="Ubreve" unicode="&#x16c;" horiz-adv-x="625" 
d="M575 252q0 -115 -80 -192q-75 -70 -182 -70q-114 0 -188 74q-76 76 -76 188v348h108v-354q0 -67 45 -112q44 -47 111 -47q64 0 111 47q43 43 43 112v354h108v-348zM388 779l73 -35q-15 -42 -54 -71q-42 -31 -96 -31t-94 31q-39 29 -54 71l73 35q11 -23 26 -37
q20 -19 50 -19q29 0 49 17q17 14 27 39z" />
    <glyph glyph-name="ubreve" unicode="&#x16d;" horiz-adv-x="544" 
d="M494 212q0 -98 -67 -162q-63 -58 -154 -58q-97 0 -160 63q-63 66 -63 157v288h107v-293q0 -53 32 -85q33 -35 84 -35t83 34q31 33 31 86v293h107v-288zM271 545q-52 0 -91 29q-37 28 -52 68l75 35q9 -19 21 -31q18 -18 48 -18t48 18q12 12 21 31l75 -35q-15 -41 -50 -67
q-39 -30 -95 -30z" />
    <glyph glyph-name="Uring" unicode="&#x16e;" horiz-adv-x="625" 
d="M575 252q0 -115 -80 -192q-75 -70 -182 -70q-114 0 -188 74q-76 76 -76 188v348h108v-354q0 -67 45 -112q44 -47 111 -47q64 0 111 47q43 43 43 112v354h108v-348zM312 620q-43 0 -76 31q-33 33 -33 78q0 43 30 75q32 34 79 34t79 -34q30 -32 30 -75q0 -45 -33 -78
q-33 -31 -76 -31zM312 677q22 0 37 15t15 37q0 21 -15 36q-13 16 -37 16q-25 0 -38 -16q-14 -14 -14 -36t15 -37t37 -15z" />
    <glyph glyph-name="uring" unicode="&#x16f;" horiz-adv-x="544" 
d="M494 212q0 -98 -67 -162q-63 -58 -154 -58q-97 0 -160 63q-63 66 -63 157v288h107v-293q0 -53 32 -85q33 -35 84 -35t83 34q31 33 31 86v293h107v-288zM273 539q-43 0 -72 29q-30 28 -30 72q0 42 30 72t72 30q43 0 74 -33q27 -29 27 -69q0 -42 -31 -73q-28 -28 -70 -28z
M273 602q16 0 27 11t11 27q0 17 -11 28q-10 10 -27 10q-16 0 -27 -11t-11 -27q0 -15 12 -27q11 -11 26 -11z" />
    <glyph glyph-name="Uhungarumlaut" unicode="&#x170;" horiz-adv-x="625" 
d="M575 252q0 -115 -80 -192q-75 -70 -182 -70q-114 0 -188 74q-76 76 -76 188v348h108v-354q0 -67 45 -112q44 -47 111 -47q64 0 111 47q43 43 43 112v354h108v-348zM212 660l55 181l86 -36l-76 -170zM331 664l78 177l84 -41l-94 -169z" />
    <glyph glyph-name="uhungarumlaut" unicode="&#x171;" horiz-adv-x="544" 
d="M494 212q0 -98 -67 -162q-63 -58 -154 -58q-97 0 -160 63q-63 66 -63 157v288h107v-293q0 -53 32 -85q33 -35 84 -35t83 34q31 33 31 86v293h107v-288zM177 575l50 171l86 -36l-71 -161zM292 580l73 166l86 -41l-91 -159z" />
    <glyph glyph-name="Uogonek" unicode="&#x172;" horiz-adv-x="625" 
d="M575 252q0 -115 -80 -192q-46 -44 -108 -61q-19 -4 -32 -22q-10 -18 -10 -34q0 -31 18 -53q19 -24 49 -38l-29 -44q-62 21 -87 47q-31 33 -31 77q0 37 24 59q-98 7 -164 73q-76 76 -76 188v348h108v-354q0 -67 45 -112q44 -47 111 -47q64 0 111 47q43 43 43 112v354h108
v-348z" />
    <glyph glyph-name="uogonek" unicode="&#x173;" horiz-adv-x="544" 
d="M494 212q0 -98 -67 -162q-46 -43 -107 -53q-25 -15 -25 -42q0 -26 14 -43q15 -18 47 -34l-24 -45q-54 13 -81 39q-28 28 -28 67q0 33 25 55q-84 10 -135 61q-63 66 -63 157v288h107v-293q0 -53 32 -85q33 -35 84 -35t83 34q31 33 31 86v293h107v-288z" />
    <glyph glyph-name="Wcircumflex" unicode="&#x174;" horiz-adv-x="953" 
d="M353 0h-147l-181 600h116l137 -495h4l120 495h146l126 -495h4l135 495h114l-181 -600h-148l-124 473h-4zM367 634l-48 51l136 135h42l136 -135l-48 -51l-109 90z" />
    <glyph glyph-name="wcircumflex" unicode="&#x175;" horiz-adv-x="846" 
d="M317 0h-129l-158 500h115l108 -372h4l105 372h121l108 -373h4l107 373h114l-157 -500h-131l-105 352h-4zM571 592l-48 -53l-99 82l-98 -82l-50 53l127 126h42z" />
    <glyph glyph-name="Ycircumflex" unicode="&#x176;" horiz-adv-x="669" 
d="M388 0h-106v143l-259 457h123l185 -344h9l187 344h117l-256 -457v-143zM225 634l-48 51l136 135h42l136 -135l-48 -51l-109 90z" />
    <glyph glyph-name="ycircumflex" unicode="&#x177;" horiz-adv-x="581" 
d="M344 0h-107v112l-212 388h121l144 -272h6l141 272h119l-212 -388v-112zM438 592l-48 -53l-99 82l-98 -82l-50 53l127 126h42z" />
    <glyph glyph-name="Ydieresis" unicode="&#x178;" horiz-adv-x="669" 
d="M388 0h-106v143l-259 457h123l185 -344h9l187 344h117l-256 -457v-143zM371 710q0 27 19 46.5t46 19.5q28 0 47.5 -19.5t19.5 -46.5t-19.5 -46.5t-47.5 -19.5q-27 0 -46 19.5t-19 46.5zM165 710q0 27 19.5 46.5t46.5 19.5t46.5 -19.5t19.5 -46.5t-19.5 -46.5t-46.5 -19.5
t-46.5 19.5t-19.5 46.5z" />
    <glyph glyph-name="Zacute" unicode="&#x179;" horiz-adv-x="595" 
d="M555 99v-99h-516v81l363 426l-128 -3h-221v96h497v-75l-364 -430l120 4h249zM241 674l81 185l85 -42l-96 -177z" />
    <glyph glyph-name="zacute" unicode="&#x17a;" horiz-adv-x="515" 
d="M475 95v-95h-435v77l279 333l-84 -3h-187v93h418v-73l-280 -335l76 3h213zM209 581l68 169l90 -45l-87 -157z" />
    <glyph glyph-name="Zdotaccent" unicode="&#x17b;" horiz-adv-x="595" 
d="M555 99v-99h-516v81l363 426l-128 -3h-221v96h497v-75l-364 -430l120 4h249zM233 709q0 29 20 48t48 19t47 -18.5t19 -48.5q0 -29 -19 -47t-47 -18t-48 18t-20 47z" />
    <glyph glyph-name="zdotaccent" unicode="&#x17c;" horiz-adv-x="515" 
d="M475 95v-95h-435v77l279 333l-84 -3h-187v93h418v-73l-280 -335l76 3h213zM195 604q0 26 18 44.5t44 18.5t44.5 -18.5t18.5 -44.5t-18.5 -44t-44.5 -18t-44 18t-18 44z" />
    <glyph glyph-name="Zcaron" unicode="&#x17d;" horiz-adv-x="595" 
d="M555 99v-99h-516v81l363 426l-128 -3h-221v96h497v-75l-364 -430l120 4h249zM149 774l48 51l109 -90l109 90l48 -51l-136 -135h-42z" />
    <glyph glyph-name="zcaron" unicode="&#x17e;" horiz-adv-x="515" 
d="M475 95v-95h-435v77l279 333l-84 -3h-187v93h418v-73l-280 -335l76 3h213zM110 665l48 53l99 -82l98 82l50 -53l-127 -126h-42z" />
    <glyph glyph-name="florin" unicode="&#x192;" horiz-adv-x="390" 
d="M38 -167l-39 80q40 12 59 34q24 26 24 68v392h-68v93h68v5q0 76 56 122q52 44 130 44q90 0 167 -73l-58 -64q-30 26 -53.5 36t-55.5 10q-41 0 -64 -26q-18 -21 -18 -48v-6h184v-93h-184v-395q0 -67 -35 -111q-34 -44 -113 -68z" />
    <glyph glyph-name="AEacute" unicode="&#x1fc;" horiz-adv-x="993" 
d="M483 0v138h-249l-86 -138h-123l385 600h529v-97h-351v-139h312v-96h-312v-172h365v-96h-470zM466 502l-170 -267h187v267h-17zM505 674l81 185l85 -42l-96 -177z" />
    <glyph glyph-name="aeacute" unicode="&#x1fd;" horiz-adv-x="855" 
d="M417 0v97h-208l-58 -97h-126l307 500h472v-96h-280v-94h249v-95h-249v-120h291v-95h-398zM387 404l-122 -212h152v212h-30zM412 581l68 169l90 -45l-87 -157z" />
    <glyph glyph-name="Oslashacute" unicode="&#x1fe;" horiz-adv-x="693" 
d="M322 674l81 185l85 -42l-96 -177zM346 611q68 0 134 -27l29 42l78 -53l-26 -39q52 -54 72 -101q29 -60 29 -133q0 -131 -85 -218q-90 -93 -231 -93q-66 0 -134 29l-32 -47l-79 54l30 45q-38 35 -67 87q-35 65 -35 143q0 126 84 215q90 96 233 96zM555 300q0 42 -14 81
q-13 36 -40 66l-234 -348q36 -14 79 -14q91 0 153 65q56 59 56 150zM136 300q0 -46 15 -84q11 -30 38 -63q38 57 116.5 174t117.5 173q-36 15 -77 15q-91 0 -153 -65q-57 -60 -57 -150z" />
    <glyph glyph-name="oslashacute" unicode="&#x1ff;" horiz-adv-x="591" 
d="M296 509q71 0 132 -33l28 34l65 -51l-28 -34q35 -38 53 -87q15 -40 15 -88q0 -114 -78 -187q-75 -72 -187 -72q-73 0 -131 31l-27 -33l-65 52l25 31q-32 35 -50 80t-18 98q0 113 81 189q75 70 185 70zM137 250q0 -30 7 -52q8 -28 20 -45l201 246q-31 15 -69 15
q-71 0 -115 -47q-44 -44 -44 -117zM447 300q-6 22 -19 44l-200 -244q33 -14 68 -14q66 0 110 44q47 44 47 120q0 26 -6 50zM275 581l68 169l90 -45l-87 -157z" />
    <glyph glyph-name="Scommaaccent" unicode="&#x218;" horiz-adv-x="587" 
d="M39 438q0 78 62 123q64 50 189 50q122 0 241 -60l-40 -85q-99 48 -195 48q-90 0 -126 -26q-27 -20 -27 -51q0 -23 23 -37q17 -13 65 -22l122 -22q112 -21 162 -69q42 -42 42 -110q0 -90 -69 -137q-73 -51 -214 -51q-74 0 -127.5 12t-117.5 42l33 88q111 -44 210 -44
q110 0 155 34q24 19 24 53q0 31 -24 50q-26 19 -88 31l-133 23q-88 14 -131 57q-36 38 -36 103zM281 -49q28 0 45 -16.5t17 -41.5q0 -16 -7 -34l-35 -104l-46 7l6 74q-40 12 -40 57q0 25 16 41.5t44 16.5z" />
    <glyph glyph-name="scommaaccent" unicode="&#x219;" horiz-adv-x="515" 
d="M41 368q0 62 48 100q54 41 167 41q104 0 208 -48l-38 -85q-86 38 -166 38q-75 0 -97 -18q-14 -12 -14 -29t13 -27q17 -13 50 -17l99 -17q92 -16 133 -53q41 -38 41 -99q0 -70 -45 -110q-60 -53 -197 -53q-113 0 -210 50l36 88q89 -41 173 -41q79 0 111 20q26 17 26 44
q0 20 -19 32q-18 13 -65 20l-111 20q-74 12 -111 52q-32 35 -32 92zM250 -35q28 0 44.5 -16.5t16.5 -41.5q0 -13 -5 -28l-44 -106l-47 12l15 67q-40 7 -40 55q0 25 17 41.5t43 16.5z" />
    <glyph glyph-name="uni021A" unicode="&#x21a;" horiz-adv-x="600" 
d="M25 506v94h550v-94h-223v-506h-24q35 -29 35 -69q0 -44 -30 -76q-34 -34 -83 -48l-26 44q28 17 45 41q18 25 18 50q0 40 -39 58v506h-223z" />
    <glyph glyph-name="uni021B" unicode="&#x21b;" horiz-adv-x="514" 
d="M25 405v95h464v-95h-179v-405h-30q32 -19 32 -58q0 -40 -28 -68q-26 -28 -81 -41l-24 45q35 20 47 37q14 17 14 40q0 34 -37 45v405h-178z" />
    <glyph glyph-name="circumflex" unicode="&#x2c6;" horiz-adv-x="395" 
d="M345 592l-48 -53l-99 82l-98 -82l-50 53l127 126h42z" />
    <glyph glyph-name="caron" unicode="&#x2c7;" horiz-adv-x="396" 
d="M50 665l48 53l99 -82l98 82l50 -53l-127 -126h-42z" />
    <glyph glyph-name="uni02C9" unicode="&#x2c9;" horiz-adv-x="327" 
d="M0 624h327v-80h-327v80z" />
    <glyph glyph-name="breve" unicode="&#x2d8;" horiz-adv-x="388" 
d="M193 545q-52 0 -91 29q-37 28 -52 68l75 35q9 -19 21 -31q18 -18 48 -18t48 18q12 12 21 31l75 -35q-15 -41 -50 -67q-39 -30 -95 -30z" />
    <glyph glyph-name="dotaccent" unicode="&#x2d9;" horiz-adv-x="225" 
d="M50 56q0 26 18 44.5t44 18.5t44.5 -18.5t18.5 -44.5t-18.5 -44t-44.5 -18t-44 18t-18 44z" />
    <glyph glyph-name="ring" unicode="&#x2da;" horiz-adv-x="303" 
d="M152 539q-43 0 -72 29q-30 28 -30 72q0 42 30 72t72 30q43 0 74 -33q27 -29 27 -69q0 -42 -31 -73q-28 -28 -70 -28zM152 602q16 0 27 11t11 27q0 17 -11 28q-10 10 -27 10q-16 0 -27 -11t-11 -27q0 -15 12 -27q11 -11 26 -11z" />
    <glyph glyph-name="ogonek" unicode="&#x2db;" horiz-adv-x="233" 
d="M108 18l47 -18q-15 -5 -25 -17q-8 -11 -8 -28q0 -23 14 -40q12 -17 47 -37l-24 -45q-55 13 -81 41q-28 28 -28 68q0 28 18 49q13 16 40 27z" />
    <glyph glyph-name="tilde" unicode="&#x2dc;" horiz-adv-x="452" 
d="M296 558q-33 0 -69 14q-36 16 -70 16q-37 0 -65 -22l-42 51q47 51 107 51q34 0 70 -16q31 -15 69 -15q37 0 65 23l41 -53q-46 -49 -106 -49z" />
    <glyph glyph-name="hungarumlaut" unicode="&#x2dd;" horiz-adv-x="374" 
d="M50 575l50 171l86 -36l-71 -161zM165 580l73 166l86 -41l-91 -159z" />
    <glyph glyph-name="afii10023" unicode="&#x401;" horiz-adv-x="559" 
d="M316 710q0 27 19 46.5t46 19.5q28 0 47.5 -19.5t19.5 -46.5t-19.5 -46.5t-47.5 -19.5q-27 0 -46 19.5t-19 46.5zM110 710q0 27 19.5 46.5t46.5 19.5t46.5 -19.5t19.5 -46.5t-19.5 -46.5t-46.5 -19.5t-46.5 19.5t-19.5 46.5zM50 0v600h466v-98h-358v-139h320v-97h-320
v-169h372v-97h-480z" />
    <glyph glyph-name="afii10051" unicode="&#x402;" horiz-adv-x="748" 
d="M20 505v95h502v-95h-203v-110q71 41 150 41q112 0 174 -71q54 -63 54 -166v-119q0 -71 -23.5 -124t-81.5 -105l-63 57q36 41 50.5 80t14.5 90v121q0 69 -33 109q-30 35 -92 35q-84 0 -150 -46v-297h-107v505h-192z" />
    <glyph glyph-name="afii10052" unicode="&#x403;" horiz-adv-x="530" 
d="M156 504v-504h-107v600h456v-96h-349zM239 674l81 185l85 -42l-96 -177z" />
    <glyph glyph-name="afii10053" unicode="&#x404;" horiz-adv-x="618" 
d="M460 361v-97h-321q11 -64 46 -107q65 -70 161 -70q99 0 177 75l66 -73q-53 -53 -109.5 -76t-133.5 -23q-136 0 -228 89q-89 89 -89 223q0 136 89 220q91 88 227 88q77 0 134 -22t110 -74l-66 -74q-77 73 -178 73q-91 0 -153 -62q-37 -37 -49 -90h317z" />
    <glyph glyph-name="afii10054" unicode="&#x405;" horiz-adv-x="587" 
d="M39 438q0 78 62 123q64 50 189 50q122 0 241 -60l-40 -85q-99 48 -195 48q-90 0 -126 -26q-27 -20 -27 -51q0 -23 23 -37q17 -13 65 -22l122 -22q112 -21 162 -69q42 -42 42 -110q0 -90 -69 -137q-73 -51 -214 -51q-74 0 -127.5 12t-117.5 42l33 88q111 -44 210 -44
q110 0 155 34q24 19 24 53q0 31 -24 50q-26 19 -88 31l-133 23q-88 14 -131 57q-36 38 -36 103z" />
    <glyph glyph-name="afii10055" unicode="&#x406;" horiz-adv-x="205" 
d="M155 600v-600h-105v600h105z" />
    <glyph glyph-name="afii10056" unicode="&#x407;" horiz-adv-x="205" 
d="M155 600v-600h-105v600h105zM140 710q0 27 19 46.5t46 19.5q28 0 47.5 -19.5t19.5 -46.5t-19.5 -46.5t-47.5 -19.5q-27 0 -46 19.5t-19 46.5zM-66 710q0 27 19.5 46.5t46.5 19.5t46.5 -19.5t19.5 -46.5t-19.5 -46.5t-46.5 -19.5t-46.5 19.5t-19.5 46.5z" />
    <glyph glyph-name="afii10057" unicode="&#x408;" horiz-adv-x="535" 
d="M383 600h107v-341q0 -127 -71 -197q-76 -73 -195 -73q-123 0 -209 90l59 71q64 -61 147 -61q79 0 118 39q44 44 44 120v352z" />
    <glyph glyph-name="afii10058" unicode="&#x409;" horiz-adv-x="1040" 
d="M217 600h406v-161h161q99 0 166 -70q58 -61 58 -148q0 -94 -62 -156q-65 -65 -162 -65h-268v504h-203l-51 -372q-11 -67 -48 -101q-38 -35 -106 -35q-49 0 -93 16l20 88q24 -7 56 -7q28 0 44 16q19 20 23 51zM901 221q0 50 -32 82q-37 40 -90 40h-156v-247h162
q46 0 82 34q34 31 34 91z" />
    <glyph glyph-name="afii10059" unicode="&#x40a;" horiz-adv-x="977" 
d="M453 600h107v-161h161q99 0 166 -70q59 -62 59 -148q0 -93 -64 -157t-161 -64h-268v272h-298v-272h-105v600h105v-232h298v232zM838 221q0 42 -28 80q-37 42 -94 42h-156v-247h162q46 0 82 34q34 31 34 91z" />
    <glyph glyph-name="afii10060" unicode="&#x40b;" horiz-adv-x="748" 
d="M20 505v95h502v-95h-203v-110q71 41 150 41q112 0 174 -71q54 -63 54 -166v-199h-103v199q0 69 -33 109q-30 35 -92 35q-84 0 -150 -46v-297h-107v505h-192z" />
    <glyph glyph-name="afii10061" unicode="&#x40c;" horiz-adv-x="613" 
d="M49 600h106v-233h86q23 0 40 9q13 6 25 25l70 122q22 39 55 61q35 23 89 23q38 0 61 -7l-11 -91h-26q-36 0 -52 -10q-17 -11 -26 -27l-67 -114q-19 -30 -26 -37l211 -321h-126l-174 275q-17 -4 -38 -4h-91v-271h-106v600zM243 674l81 185l85 -42l-96 -177z" />
    <glyph glyph-name="afii10062" unicode="&#x40e;" horiz-adv-x="672" 
d="M527 600h120l-262 -494q-28 -53 -62 -81q-36 -30 -90 -30q-35 0 -67 6l11 87h35q27 0 46 11q19 15 24 27l7 14q-44 74 -133 230t-133 230h125l195 -356h6zM424 779l73 -35q-15 -42 -54 -71q-42 -31 -96 -31t-94 31q-39 29 -54 71l73 35q11 -23 26 -37q20 -19 50 -19
q29 0 49 17q17 14 27 39z" />
    <glyph glyph-name="afii10145" unicode="&#x40f;" horiz-adv-x="625" 
d="M156 96h312v504h107v-600h-211l-5 -118h-94l-5 118h-211v600h107v-504z" />
    <glyph glyph-name="afii10017" unicode="&#x410;" horiz-adv-x="697" 
d="M291 600h115l266 -600h-115l-50 110h-320l-49 -110h-113zM340 492l-112 -285h239l-115 285h-12z" />
    <glyph glyph-name="afii10018" unicode="&#x411;" horiz-adv-x="601" 
d="M156 405h199q99 0 156 -60q55 -55 55 -142q0 -86 -56 -142q-58 -61 -155 -61h-306v600h457v-96h-350v-99zM460 203q0 47 -29 76q-30 30 -81 30h-194v-213h199q48 0 79 34q26 26 26 73z" />
    <glyph glyph-name="afii10019" unicode="&#x412;" horiz-adv-x="611" 
d="M372 0h-322v600h310q84 0 136 -52q41 -41 41 -106q0 -38 -15 -65q-15 -24 -41 -41v-5q36 -17 60 -48q30 -42 30 -99q0 -79 -55 -129q-58 -55 -144 -55zM467 185q0 37 -19 59q-28 31 -70 31h-222v-182h217q39 0 71 29q23 23 23 63zM432 437q0 32 -20 50q-23 20 -58 20
h-198v-139h214q26 0 45 21q17 20 17 48z" />
    <glyph glyph-name="afii10020" unicode="&#x413;" horiz-adv-x="530" 
d="M156 504v-504h-107v600h456v-96h-349z" />
    <glyph glyph-name="afii10021" unicode="&#x414;" horiz-adv-x="703" 
d="M196 600h422v-504h59v-213h-90l-13 117h-449l-11 -117h-89v213q58 0 85 34q24 31 32 88zM512 504h-224l-45 -308q-12 -67 -36 -100h305v408z" />
    <glyph glyph-name="afii10022" unicode="&#x415;" horiz-adv-x="570" 
d="M50 0v600h466v-98h-358v-139h320v-97h-320v-169h372v-97h-480z" />
    <glyph glyph-name="afii10024" unicode="&#x416;" horiz-adv-x="945" 
d="M524 0h-105v271h-61q-23 0 -38 4l-165 -275h-126l200 322q-16 18 -25 37l-58 116q-8 17 -23 25q-16 10 -49 10h-30l-10 90q35 6 65 6q48 0 83 -20q38 -24 57 -63l61 -124q7 -15 21 -23q14 -9 42 -9h56v233h105v-233h57q28 0 42 9q14 8 21 23q51 104 60 124q21 43 56 63
t84 20q32 0 66 -6l-10 -90h-30q-37 0 -46 -7q-16 -7 -27 -28l-58 -116q-9 -19 -25 -37l201 -322h-127l-163 275q-15 -4 -38 -4h-63v-271z" />
    <glyph glyph-name="afii10025" unicode="&#x417;" horiz-adv-x="605" 
d="M291 87q88 0 135 35q36 25 36 76q0 36 -24 58q-26 23 -68 23h-220v95h203q35 0 54 19q17 20 17 49q0 30 -26 49q-42 26 -117 26q-92 0 -179 -47l-42 79q99 62 227 62q118 0 184 -48q60 -46 60 -118q0 -37 -15 -64q-14 -24 -36 -39v-4q42 -23 65 -54q25 -35 25 -86
q0 -94 -72 -151q-73 -58 -207 -58q-154 0 -257 69l45 86q99 -57 212 -57z" />
    <glyph glyph-name="afii10026" unicode="&#x418;" horiz-adv-x="644" 
d="M153 600v-437l343 437h98v-600h-102v438l-345 -438h-98v600h104z" />
    <glyph glyph-name="afii10027" unicode="&#x419;" horiz-adv-x="639" 
d="M153 600v-437l343 437h98v-600h-102v438l-345 -438h-98v600h104zM407 779l73 -35q-15 -42 -54 -71q-42 -31 -96 -31t-94 31q-39 29 -54 71l73 35q11 -23 26 -37q20 -19 50 -19q29 0 49 17q16 14 27 39z" />
    <glyph glyph-name="afii10028" unicode="&#x41a;" horiz-adv-x="613" 
d="M49 600h106v-233h86q23 0 40 9q13 6 25 25l70 122q22 39 55 61q35 23 89 23q38 0 61 -7l-11 -91h-26q-36 0 -52 -10q-17 -11 -26 -27l-67 -114q-19 -30 -26 -37l211 -321h-126l-174 275q-17 -4 -38 -4h-91v-271h-106v600z" />
    <glyph glyph-name="afii10029" unicode="&#x41b;" horiz-adv-x="696" 
d="M220 600h425v-600h-105v504h-228l-52 -372q-10 -66 -46 -102q-38 -34 -105 -34q-51 0 -94 16l20 88q25 -7 56 -7t47 16q18 21 22 51z" />
    <glyph glyph-name="afii10030" unicode="&#x41c;" horiz-adv-x="750" 
d="M50 600h116l212 -297l207 297h115v-600h-106v440h-4l-197 -279h-39l-199 279h-4v-440h-101v600z" />
    <glyph glyph-name="afii10031" unicode="&#x41d;" horiz-adv-x="629" 
d="M473 600h106v-600h-106v273h-316v-273h-107v600h107v-232h316v232z" />
    <glyph glyph-name="afii10032" unicode="&#x41e;" horiz-adv-x="693" 
d="M346 611q139 0 227 -88q89 -92 89 -223t-85 -218q-90 -93 -231 -93t-234 100q-83 90 -83 211q0 126 84 215q90 96 233 96zM136 300q0 -89 57 -149q60 -66 153 -66q91 0 153 65q56 59 56 150q0 92 -57 151q-62 64 -152 64q-91 0 -153 -65q-57 -60 -57 -150z" />
    <glyph glyph-name="afii10033" unicode="&#x41f;" horiz-adv-x="620" 
d="M49 600h521v-600h-107v504h-307v-504h-107v600z" />
    <glyph glyph-name="afii10034" unicode="&#x420;" horiz-adv-x="596" 
d="M566 380q0 -89 -65 -154q-68 -63 -161 -63h-182v-163h-109v600h291q109 0 176 -80q50 -63 50 -140zM344 260q53 0 84 38q30 43 30 82q0 50 -30 82q-34 40 -92 40h-178v-242h186z" />
    <glyph glyph-name="afii10035" unicode="&#x421;" horiz-adv-x="618" 
d="M136 301q0 -93 58 -151q62 -64 152 -64q97 0 179 73l64 -71q-54 -52 -111 -75.5t-132 -23.5q-135 0 -226 89q-91 88 -91 223q0 130 89 221q89 89 228 89q74 0 131 -23.5t112 -73.5l-64 -72q-81 73 -179 73q-89 0 -149 -60q-61 -61 -61 -154z" />
    <glyph glyph-name="afii10036" unicode="&#x422;" horiz-adv-x="600" 
d="M24 504v96h551v-96h-223v-504h-105v504h-223z" />
    <glyph glyph-name="afii10037" unicode="&#x423;" horiz-adv-x="672" 
d="M527 600h120l-262 -494q-28 -53 -62 -81q-36 -30 -90 -30q-35 0 -67 6l11 87h35q27 0 46 11q19 15 24 27l7 14q-44 74 -133 230t-133 230h125l195 -356h6z" />
    <glyph glyph-name="afii10038" unicode="&#x424;" horiz-adv-x="808" 
d="M456 611v-61h82q105 0 174 -75q65 -68 65 -165q0 -103 -74 -174q-71 -66 -165 -66h-82v-70h-105v70h-82q-103 0 -172 71q-67 67 -67 169q0 93 56 157q72 83 183 83h82v61h105zM531 452h-75v-284h75q59 0 101 39q41 41 41 103q0 60 -40 102q-40 40 -102 40zM172 212
q44 -44 104 -44h75v284h-75q-68 0 -111 -49q-32 -45 -32 -93q0 -57 39 -98z" />
    <glyph glyph-name="afii10039" unicode="&#x425;" horiz-adv-x="656" 
d="M170 600l157 -222l149 222h126l-205 -289l229 -311h-134l-170 242l-170 -242h-124l223 310l-215 290h134z" />
    <glyph glyph-name="afii10040" unicode="&#x426;" horiz-adv-x="656" 
d="M156 96h312v504h107v-504h55v-214h-90l-11 118h-480v600h107v-504z" />
    <glyph glyph-name="afii10041" unicode="&#x427;" horiz-adv-x="634" 
d="M584 0h-107v179q-78 -40 -165 -40q-126 0 -193 61q-75 70 -75 211v189h106v-184q0 -91 46 -137q40 -43 122 -43q89 0 159 40v324h107v-600z" />
    <glyph glyph-name="afii10042" unicode="&#x428;" horiz-adv-x="871" 
d="M488 600v-504h225v504h107v-600h-770v600h106v-504h225v504h107z" />
    <glyph glyph-name="afii10043" unicode="&#x429;" horiz-adv-x="902" 
d="M488 600v-504h225v504h107v-504h56v-214h-91l-11 118h-724v600h106v-504h225v504h107z" />
    <glyph glyph-name="afii10044" unicode="&#x42a;" horiz-adv-x="690" 
d="M659 221q0 -93 -63 -156q-60 -65 -161 -65h-286v504l-129 7v89h236v-161h179q100 0 166 -71q58 -60 58 -147zM553 221q0 48 -32 83q-36 39 -91 39h-174v-247h180q48 0 82 34q35 31 35 91z" />
    <glyph glyph-name="afii10045" unicode="&#x42b;" horiz-adv-x="776" 
d="M560 221q0 -92 -63 -157q-64 -64 -161 -64h-287v600h107v-161h180q96 0 166 -70q58 -63 58 -148zM453 221q0 48 -32 83q-36 39 -90 39h-175v-247h181q47 0 81 34q35 31 35 91zM725 600v-600h-106v600h106z" />
    <glyph glyph-name="afii10046" unicode="&#x42c;" horiz-adv-x="590" 
d="M560 221q0 -92 -63 -157q-64 -64 -162 -64h-286v600h107v-161h179q105 0 169 -69q56 -62 56 -149zM453 221q0 51 -29 84q-35 38 -94 38h-174v-247h180q48 0 82 34q35 32 35 91z" />
    <glyph glyph-name="afii10047" unicode="&#x42d;" horiz-adv-x="619" 
d="M157 264v97h316q-15 58 -47 90q-63 63 -154 63q-102 0 -180 -71l-64 72q55 50 112.5 73t131.5 23q136 0 227 -88q90 -85 90 -221q0 -134 -90 -224q-92 -89 -228 -89q-74 0 -131.5 24t-111.5 75l66 73q86 -75 177 -75q98 0 161 71q36 41 44 107h-319z" />
    <glyph glyph-name="afii10048" unicode="&#x42e;" horiz-adv-x="878" 
d="M542 611q132 0 221 -92q86 -91 86 -219q0 -138 -97 -230q-84 -81 -210 -81q-131 0 -221 93q-67 73 -81 178h-85v-260h-105v600h105v-244h86q18 93 81 163q86 92 220 92zM741 300q0 92 -55 154q-55 61 -144 61q-93 0 -148 -66q-49 -58 -49 -149q0 -90 52 -150
q63 -65 145 -65q80 0 139 59q60 60 60 156z" />
    <glyph glyph-name="afii10049" unicode="&#x42f;" horiz-adv-x="603" 
d="M32 380q0 88 59 150q70 70 172 70h290v-600h-106v162h-189q-1 -1 -107 -162h-123l126 185q-52 28 -83 71q-39 54 -39 124zM141 380q0 -41 22 -73q33 -49 100 -49h184v246h-184q-61 0 -97 -48q-25 -31 -25 -76z" />
    <glyph glyph-name="afii10065" unicode="&#x430;" horiz-adv-x="603" 
d="M247 500h109l222 -500h-116l-39 89h-246l-39 -89h-113zM296 380l-78 -196h163l-78 196h-7z" />
    <glyph glyph-name="afii10066" unicode="&#x431;" horiz-adv-x="521" 
d="M158 338h148q80 0 133 -53q47 -47 47 -114q0 -72 -47 -119q-50 -52 -133 -52h-256v500h386v-93h-278v-69zM158 242v-147h145q44 0 64 29q14 20 14 47q0 28 -19 49q-22 22 -59 22h-145z" />
    <glyph glyph-name="afii10067" unicode="&#x432;" horiz-adv-x="530" 
d="M318 0h-268v500h259q79 0 121 -47q34 -37 34 -92q0 -28 -13 -50q-10 -18 -30 -32v-4q35 -17 50 -44q19 -28 19 -74q0 -71 -48 -114q-49 -43 -124 -43zM384 155q0 24 -14 41q-16 19 -47 19h-166v-122h163q32 0 48 19q16 16 16 43zM357 357q0 22 -13 35q-14 14 -41 14h-146
v-98h155q20 0 34 15q11 14 11 34z" />
    <glyph glyph-name="afii10068" unicode="&#x433;" horiz-adv-x="471" 
d="M157 405v-405h-107v500h386v-95h-279z" />
    <glyph glyph-name="afii10069" unicode="&#x434;" horiz-adv-x="610" 
d="M169 500h360v-405h51v-189h-93l-10 94h-350l-9 -94h-93v189h18q31 0 51 21q20 23 27 70zM422 406h-163l-36 -241q-6 -45 -29 -70h228v311z" />
    <glyph glyph-name="afii10070" unicode="&#x435;" horiz-adv-x="498" 
d="M50 0v500h398v-96h-291v-101h260v-95h-260v-113h301v-95h-408z" />
    <glyph glyph-name="afii10072" unicode="&#x436;" horiz-adv-x="811" 
d="M458 0h-105v218h-47q-20 0 -25 2l-125 -220h-126l162 266q-11 10 -19 27l-46 93q-6 13 -18 19q-11 6 -33 6h-33l-9 88q32 6 63 6q45 0 76 -19q29 -16 45 -51l49 -102q5 -11 14 -16q8 -5 22 -5h50v188h105v-188h50q14 0 22 5q9 5 14 16l49 102q17 35 45 51q31 19 76 19
q31 0 63 -6l-9 -88h-33q-22 0 -33 -6q-12 -6 -18 -19l-46 -93q-8 -17 -19 -27l162 -266h-126l-125 220q-5 -2 -25 -2h-47v-218z" />
    <glyph glyph-name="afii10073" unicode="&#x437;" horiz-adv-x="520" 
d="M248 87q66 0 101 24q28 19 28 54q0 27 -15 40q-17 16 -50 16h-184v93h168q24 0 37 12q14 14 14 34q0 27 -22 40q-26 16 -85 16q-78 0 -155 -34l-35 77q87 50 195 50t164 -49q44 -37 44 -98q0 -26 -12 -48q-10 -19 -28 -32v-4q37 -18 53 -48q19 -33 19 -66q0 -71 -49 -117
q-60 -56 -188 -56q-113 0 -218 54l37 84q96 -42 181 -42z" />
    <glyph glyph-name="afii10074" unicode="&#x438;" horiz-adv-x="559" 
d="M154 500v-331l259 331h96v-500h-103v332l-260 -332h-96v500h104z" />
    <glyph glyph-name="afii10075" unicode="&#x439;" horiz-adv-x="552" 
d="M154 500v-331l259 331h96v-500h-103v332l-260 -332h-96v500h104zM275 545q-52 0 -91 29q-37 28 -52 68l75 35q9 -19 21 -31q18 -18 48 -18t48 18q12 12 21 31l75 -35q-15 -41 -50 -67q-39 -30 -95 -30z" />
    <glyph glyph-name="afii10076" unicode="&#x43a;" horiz-adv-x="537" 
d="M50 500h106v-188h63q19 0 29 7q11 7 19 21l47 95q16 33 47 51q31 19 77 19q33 0 63 -6l-13 -89h-32q-20 0 -33 -8q-11 -6 -20 -22l-44 -87q-7 -15 -18 -26l166 -267h-124l-131 221q-12 -3 -27 -3h-69v-218h-106v500z" />
    <glyph glyph-name="afii10077" unicode="&#x43b;" horiz-adv-x="608" 
d="M190 500h368v-500h-107v404h-168l-42 -291q-7 -54 -47 -87q-36 -30 -89 -30q-48 0 -90 17l27 86q22 -8 48 -8q22 0 34 12t15 35z" />
    <glyph glyph-name="afii10078" unicode="&#x43c;" horiz-adv-x="645" 
d="M50 500h109l164 -240l163 240h109v-500h-107v329h-4l-141 -210h-43l-143 210h-4v-329h-103v500z" />
    <glyph glyph-name="afii10079" unicode="&#x43d;" horiz-adv-x="549" 
d="M392 500h107v-500h-107v218h-235v-218h-107v500h107v-187h235v187z" />
    <glyph glyph-name="afii10080" unicode="&#x43e;" horiz-adv-x="591" 
d="M296 509q116 0 192 -78q73 -73 73 -181q0 -114 -78 -187q-75 -72 -187 -72q-116 0 -191 75t-75 184q0 113 81 189q75 70 185 70zM137 250q0 -73 45 -118q43 -46 114 -46q66 0 110 44q47 44 47 120q0 79 -47 121q-45 43 -110 43q-71 0 -115 -47q-44 -44 -44 -117z" />
    <glyph glyph-name="afii10081" unicode="&#x43f;" horiz-adv-x="554" 
d="M157 404v-404h-107v500h454v-500h-108v404h-239z" />
    <glyph glyph-name="afii10082" unicode="&#x440;" horiz-adv-x="516" 
d="M486 315q0 -72 -50 -125q-57 -59 -142 -59h-137v-131h-107v500h244q85 0 140 -58q52 -52 52 -127zM297 226q38 0 59 26q23 26 23 63q0 33 -21 61q-24 29 -68 29h-133v-179h140z" />
    <glyph glyph-name="afii10083" unicode="&#x441;" horiz-adv-x="546" 
d="M143 251q0 -73 44 -117q44 -47 115 -47q73 0 143 62l66 -71q-98 -87 -209 -87q-114 0 -189 75q-78 76 -78 185q0 106 77 183q75 75 190 75q118 0 209 -87l-66 -71q-68 62 -143 62q-69 0 -113 -44q-46 -46 -46 -118z" />
    <glyph glyph-name="afii10084" unicode="&#x442;" horiz-adv-x="514" 
d="M25 405v95h464v-95h-179v-405h-107v405h-178z" />
    <glyph glyph-name="afii10085" unicode="&#x443;" horiz-adv-x="581" 
d="M438 500h118l-214 -410q-30 -52 -60 -73t-74 -21q-29 0 -64 7l7 84h38q18 0 28 7q12 7 19 19l4 7l-215 380h124l149 -279h4z" />
    <glyph glyph-name="afii10086" unicode="&#x444;" horiz-adv-x="684" 
d="M395 509v-51h56q94 0 155 -71q48 -58 48 -130q0 -81 -59 -140q-60 -60 -144 -60h-56v-57h-106v57h-56q-86 0 -145 62q-58 63 -58 138q0 81 55 139q57 62 148 62h56v51h106zM163 184q28 -31 76 -31h50v210h-50q-47 0 -75 -31q-30 -28 -30 -75q0 -46 29 -73zM446 363h-51
v-210h51q45 0 75 30q29 29 29 74q0 38 -26 71q-32 35 -78 35z" />
    <glyph glyph-name="afii10087" unicode="&#x445;" horiz-adv-x="564" 
d="M162 500l119 -174l116 174h125l-168 -240l185 -260h-130l-129 189l-131 -189h-124l181 257l-172 243h128z" />
    <glyph glyph-name="afii10088" unicode="&#x446;" horiz-adv-x="566" 
d="M157 96h229v404h108v-404h47v-191h-92l-9 95h-390v500h107v-404z" />
    <glyph glyph-name="afii10089" unicode="&#x447;" horiz-adv-x="548" 
d="M498 0h-107v138q-53 -26 -121 -26q-110 0 -172 65q-58 63 -58 165v158h108v-154q0 -74 31 -106q30 -33 93 -33q66 0 119 33v260h107v-500z" />
    <glyph glyph-name="afii10090" unicode="&#x448;" horiz-adv-x="748" 
d="M427 500v-405h164v405h107v-500h-648v500h107v-405h163v405h107z" />
    <glyph glyph-name="afii10091" unicode="&#x449;" horiz-adv-x="768" 
d="M699 500v-405h44v-189h-92l-10 94h-591v500h107v-405h164v405h107v-405h164v405h107z" />
    <glyph glyph-name="afii10092" unicode="&#x44a;" horiz-adv-x="587" 
d="M557 186q0 -77 -56 -133q-53 -53 -135 -53h-242v405l-104 6v89h211v-130h135q82 0 136 -54q55 -52 55 -130zM450 186q0 40 -22 61q-26 27 -66 27h-131v-178h136q38 0 60 25q23 23 23 65z" />
    <glyph glyph-name="afii10093" unicode="&#x44b;" horiz-adv-x="686" 
d="M483 186q0 -75 -48 -126q-57 -60 -143 -60h-242v500h107v-130h135q85 0 146 -64q45 -50 45 -120zM376 186q0 32 -18 57q-24 31 -69 31h-132v-178h139q34 0 58 26q22 22 22 64zM528 500h108v-500h-108v500z" />
    <glyph glyph-name="afii10094" unicode="&#x44c;" horiz-adv-x="513" 
d="M483 186q0 -75 -48 -126q-57 -60 -143 -60h-242v500h107v-130h135q85 0 146 -64q45 -50 45 -120zM376 186q0 32 -18 57q-24 31 -69 31h-132v-178h139q34 0 58 26q22 22 22 64z" />
    <glyph glyph-name="afii10095" unicode="&#x44d;" horiz-adv-x="547" 
d="M143 209v96h260q-7 46 -44 77q-39 32 -105 32q-83 0 -147 -61l-65 67q86 89 212 89q115 0 189 -69q74 -72 74 -190q0 -120 -76 -192q-70 -67 -187 -67q-126 0 -214 88l63 71q69 -63 151 -63q68 0 108 37q36 31 43 85h-262z" />
    <glyph glyph-name="afii10096" unicode="&#x44e;" horiz-adv-x="757" 
d="M470 509q115 0 188 -79q69 -75 69 -180q0 -108 -71 -182q-74 -77 -186 -77q-107 0 -179 69q-64 64 -76 148h-57v-208h-108v500h108v-196h59q18 87 80 142q71 63 173 63zM619 250q0 67 -36 113q-43 51 -113 51q-59 0 -100 -38q-50 -45 -50 -126q0 -73 40 -116
q41 -47 110 -47q66 0 110 48q39 46 39 115z" />
    <glyph glyph-name="afii10097" unicode="&#x44f;" horiz-adv-x="522" 
d="M33 315q0 69 42 119q56 66 155 66h242v-500h-106v130h-138l-79 -130h-124l102 156q-42 25 -67 66q-27 43 -27 93zM141 315q0 -35 21 -61q26 -29 68 -29h136v179h-137q-43 0 -67 -27q-21 -25 -21 -62z" />
    <glyph glyph-name="afii10071" unicode="&#x451;" horiz-adv-x="485" 
d="M277 611q0 26 18 44t44 18t44 -18t18 -44t-18 -44t-44 -18t-44 18t-18 44zM84 611q0 26 18 44t44 18t44 -18t18 -44t-18 -44t-44 -18t-44 18t-18 44zM50 0v500h398v-96h-291v-101h260v-95h-260v-113h301v-95h-408z" />
    <glyph glyph-name="afii10099" unicode="&#x452;" horiz-adv-x="696" 
d="M20 405v95h475v-95h-184v-70q50 27 111 27q90 0 149 -49q75 -62 75 -165v-75q0 -64 -26 -111q-27 -46 -87 -86l-58 59q35 35 49 64q14 33 14 78v68q0 65 -30 93q-32 29 -90 29q-64 0 -107 -28v-239h-107v405h-184z" />
    <glyph glyph-name="afii10100" unicode="&#x453;" horiz-adv-x="471" 
d="M157 405v-405h-107v500h386v-95h-279zM209 581l68 169l90 -45l-87 -157z" />
    <glyph glyph-name="afii10101" unicode="&#x454;" horiz-adv-x="546" 
d="M394 305v-96h-252q7 -54 43 -85q40 -37 108 -37q49 0 82.5 14t68.5 49l62 -71q-88 -88 -213 -88q-117 0 -187 67q-76 72 -76 192q0 118 74 190q74 69 189 69q125 0 211 -89l-64 -67q-61 61 -147 61q-66 0 -105 -32q-37 -31 -44 -77h250z" />
    <glyph glyph-name="afii10102" unicode="&#x455;" horiz-adv-x="515" 
d="M41 368q0 62 48 100q54 41 167 41q104 0 208 -48l-38 -85q-86 38 -166 38q-75 0 -97 -18q-14 -12 -14 -29t13 -27q17 -13 50 -17l99 -17q92 -16 133 -53q41 -38 41 -99q0 -70 -45 -110q-60 -53 -197 -53q-113 0 -210 50l36 88q89 -41 173 -41q79 0 111 20q26 17 26 44
q0 20 -19 32q-18 13 -65 20l-111 20q-74 12 -111 52q-32 35 -32 92z" />
    <glyph glyph-name="afii10103" unicode="&#x456;" horiz-adv-x="208" 
d="M50 500h108v-500h-108v500z" />
    <glyph glyph-name="afii10104" unicode="&#x457;" horiz-adv-x="208" 
d="M50 500h108v-500h-108v500zM140 611q0 26 18 44t44 18t44 -18t18 -44t-18 -44t-44 -18t-44 18t-18 44zM-53 611q0 26 18 44t44 18t44 -18t18 -44t-18 -44t-44 -18t-44 18t-18 44z" />
    <glyph glyph-name="afii10105" unicode="&#x458;" horiz-adv-x="466" 
d="M314 500h107v-272q0 -116 -60 -179q-58 -58 -166 -58q-111 0 -180 82l65 69q58 -55 114 -55q65 0 94 38q26 35 26 93v282z" />
    <glyph glyph-name="afii10106" unicode="&#x459;" horiz-adv-x="910" 
d="M192 500h361v-130h136q85 0 142 -60q49 -52 49 -124q0 -75 -52 -129q-54 -57 -139 -57h-243v404h-159l-42 -291q-9 -63 -48 -91q-35 -26 -94 -26q-47 0 -88 17l22 86q26 -8 51 -8t39 13q12 12 15 34zM773 186q0 36 -21 59q-24 29 -66 29h-133v-178h140q34 0 60 29
q20 28 20 61z" />
    <glyph glyph-name="afii10107" unicode="&#x45a;" horiz-adv-x="857" 
d="M393 500h107v-130h135q88 0 146 -65q46 -51 46 -119q0 -74 -49 -126q-57 -60 -143 -60h-242v218h-236v-218h-107v500h107v-187h236v187zM720 186q0 29 -19 57q-24 31 -68 31h-133v-178h140q34 0 58 26q22 23 22 64z" />
    <glyph glyph-name="afii10108" unicode="&#x45b;" horiz-adv-x="691" 
d="M20 405v95h475v-95h-184v-70q50 27 111 27q90 0 149 -49q75 -62 75 -165v-148h-108v145q0 65 -30 93q-32 29 -90 29q-64 0 -107 -28v-239h-107v405h-184z" />
    <glyph glyph-name="afii10109" unicode="&#x45c;" horiz-adv-x="537" 
d="M50 500h106v-188h63q19 0 29 7q11 7 19 21l47 95q16 33 47 51q31 19 77 19q33 0 63 -6l-13 -89h-32q-20 0 -33 -8q-11 -6 -20 -22l-44 -87q-7 -15 -18 -26l166 -267h-124l-131 221q-12 -3 -27 -3h-69v-218h-106v500zM218 581l68 169l90 -45l-87 -157z" />
    <glyph glyph-name="afii10110" unicode="&#x45e;" horiz-adv-x="581" 
d="M438 500h118l-214 -410q-30 -52 -60 -73t-74 -21q-29 0 -64 7l7 84h38q18 0 28 7q12 7 19 19l4 7l-215 380h124l149 -279h4zM299 545q-52 0 -91 29q-37 28 -52 68l75 35q9 -19 21 -31q18 -18 48 -18t48 18q12 12 21 31l75 -35q-15 -41 -50 -67q-39 -30 -95 -30z" />
    <glyph glyph-name="afii10193" unicode="&#x45f;" horiz-adv-x="552" 
d="M157 96h237v404h108v-500h-175l-6 -95h-91l-6 95h-174v500h107v-404z" />
    <glyph glyph-name="afii10146" unicode="&#x462;" horiz-adv-x="587" 
d="M-1 466v88h47v46h107v-46h152v-88h-152v-37h179q110 0 175 -75q50 -58 50 -138q0 -98 -68 -160q-62 -56 -157 -56h-286v466h-47zM450 216q0 42 -24 76q-34 41 -98 41h-175v-237h180q57 0 91 39q26 32 26 81z" />
    <glyph glyph-name="afii10194" unicode="&#x463;" horiz-adv-x="513" 
d="M4 412v88h46v92h107v-92h126v-88h-126v-42h135q85 0 146 -64q45 -50 45 -120q0 -74 -49 -126q-57 -60 -142 -60h-242v412h-46zM376 186q0 32 -18 57q-24 31 -69 31h-132v-178h139q34 0 58 26q22 22 22 64z" />
    <glyph glyph-name="afii10147" unicode="&#x472;" horiz-adv-x="693" 
d="M346 611q139 0 227 -88q89 -92 89 -223t-85 -218q-90 -93 -231 -93t-234 100q-83 90 -83 211q0 126 84 215q90 96 233 96zM460 224q-66 0 -128 37q-49 29 -104 29q-48 0 -90 -24q11 -68 54 -116q63 -65 154 -65t153 65q41 44 52 101q-40 -27 -91 -27zM193 450
q-35 -37 -49 -87q40 22 90 22q68 0 121 -32q56 -32 111 -32q52 0 85 21q-10 63 -53 109q-62 64 -152 64q-91 0 -153 -65z" />
    <glyph glyph-name="afii10195" unicode="&#x473;" horiz-adv-x="591" 
d="M296 509q116 0 192 -78q73 -73 73 -181q0 -114 -78 -187q-75 -72 -187 -72q-116 0 -191 75t-75 184q0 113 81 189q75 70 185 70zM372 183q-47 0 -93 28q-37 23 -79 23q-28 0 -60 -20q7 -47 42 -82q43 -46 114 -46q66 0 110 44q23 24 43 70q-40 -17 -77 -17zM181 367
q-26 -26 -36 -58q31 15 69 15q56 0 105 -28q37 -21 77 -21q30 0 53 15q-11 52 -43 81q-45 43 -110 43q-71 0 -115 -47z" />
    <glyph glyph-name="afii10148" unicode="&#x474;" horiz-adv-x="682" 
d="M397 0h-121l-251 600h114l190 -482h11l43 138q32 99 87 194q59 95 145 176l67 -63q-74 -79 -125 -166q-44 -75 -80 -176z" />
    <glyph glyph-name="afii10196" unicode="&#x475;" horiz-adv-x="585" 
d="M359 0h-123l-211 500h116l156 -390h7l29 107q24 85 71 164q48 76 116 144l73 -63q-65 -65 -106 -140q-31 -55 -62 -139z" />
    <glyph glyph-name="afii10050" unicode="&#x490;" horiz-adv-x="540" 
d="M156 504v-504h-107v600h366l10 93l90 -3v-186h-359z" />
    <glyph glyph-name="afii10098" unicode="&#x491;" horiz-adv-x="471" 
d="M157 405v-405h-107v500h286l7 79h93v-174h-279z" />
    <glyph glyph-name="uni04D8" unicode="&#x4d8;" horiz-adv-x="682" 
d="M156 447l-65 72q99 92 244 92q143 0 234 -93q83 -83 83 -218q0 -140 -88 -224q-89 -87 -223 -87q-147 0 -237 103q-74 87 -74 208q0 36 5 67h501q-16 63 -61 102q-53 47 -140 47q-106 0 -179 -69zM488 142q47 52 57 130h-408q11 -83 55 -127q61 -61 149 -61q84 0 147 58z
" />
    <glyph glyph-name="afii10846" unicode="&#x4d9;" horiz-adv-x="582" 
d="M131 355l-61 72q88 82 216 82q112 0 186 -68q80 -74 80 -192q0 -113 -75 -186q-75 -72 -186 -72q-113 0 -188 75q-73 71 -73 183q0 29 5 63h399q-12 45 -46 70q-41 32 -102 32q-49 0 -83.5 -14t-71.5 -45zM400 130q34 34 43 87h-304q7 -53 40 -85q43 -46 112 -46
q63 0 109 44z" />
    <glyph glyph-name="Wgrave" unicode="&#x1e80;" horiz-adv-x="953" 
d="M353 0h-147l-181 600h116l137 -495h4l120 495h146l126 -495h4l135 495h114l-181 -600h-148l-124 473h-4zM449 859l81 -185l-70 -34l-96 177z" />
    <glyph glyph-name="wgrave" unicode="&#x1e81;" horiz-adv-x="846" 
d="M317 0h-129l-158 500h115l108 -372h4l105 372h121l108 -373h4l107 373h114l-157 -500h-131l-105 352h-4zM400 750l68 -169l-71 -33l-87 157z" />
    <glyph glyph-name="Wacute" unicode="&#x1e82;" horiz-adv-x="953" 
d="M353 0h-147l-181 600h116l137 -495h4l120 495h146l126 -495h4l135 495h114l-181 -600h-148l-124 473h-4zM438 674l81 185l85 -42l-96 -177z" />
    <glyph glyph-name="wacute" unicode="&#x1e83;" horiz-adv-x="846" 
d="M317 0h-129l-158 500h115l108 -372h4l105 372h121l108 -373h4l107 373h114l-157 -500h-131l-105 352h-4zM391 581l68 169l90 -45l-87 -157z" />
    <glyph glyph-name="Wdieresis" unicode="&#x1e84;" horiz-adv-x="953" 
d="M353 0h-147l-181 600h116l137 -495h4l120 495h146l126 -495h4l135 495h114l-181 -600h-148l-124 473h-4zM513 710q0 27 19 46.5t46 19.5q28 0 47.5 -19.5t19.5 -46.5t-19.5 -46.5t-47.5 -19.5q-27 0 -46 19.5t-19 46.5zM307 710q0 27 19.5 46.5t46.5 19.5t46.5 -19.5
t19.5 -46.5t-19.5 -46.5t-46.5 -19.5t-46.5 19.5t-19.5 46.5z" />
    <glyph glyph-name="wdieresis" unicode="&#x1e85;" horiz-adv-x="846" 
d="M317 0h-129l-158 500h115l108 -372h4l105 372h121l108 -373h4l107 373h114l-157 -500h-131l-105 352h-4zM458 611q0 26 18 44t44 18t44 -18t18 -44t-18 -44t-44 -18t-44 18t-18 44zM265 611q0 26 18 44t44 18t44 -18t18 -44t-18 -44t-44 -18t-44 18t-18 44z" />
    <glyph glyph-name="Ygrave" unicode="&#x1ef2;" horiz-adv-x="669" 
d="M388 0h-106v143l-259 457h123l185 -344h9l187 344h117l-256 -457v-143zM324 859l81 -185l-70 -34l-96 177z" />
    <glyph glyph-name="ygrave" unicode="&#x1ef3;" horiz-adv-x="581" 
d="M344 0h-107v112l-212 388h121l144 -272h6l141 272h119l-212 -388v-112zM259 750l68 -169l-71 -33l-87 157z" />
    <glyph glyph-name="endash" unicode="&#x2013;" horiz-adv-x="442" 
d="M30 305h382v-85h-382v85z" />
    <glyph glyph-name="emdash" unicode="&#x2014;" horiz-adv-x="520" 
d="M30 305h460v-85h-460v85z" />
    <glyph glyph-name="quoteleft" unicode="&#x2018;" horiz-adv-x="176" 
d="M89 491q-28 0 -43.5 15.5t-15.5 39.5q0 11 6 27l40 101l52 -14l-11 -63q29 -12 29 -51q0 -24 -15.5 -39.5t-41.5 -15.5z" />
    <glyph glyph-name="quoteright" unicode="&#x2019;" horiz-adv-x="176" 
d="M87 616q28 0 43.5 -15.5t15.5 -39.5q0 -11 -6 -27l-40 -101l-52 14l11 63q-29 12 -29 51q0 24 15.5 39.5t41.5 15.5z" />
    <glyph glyph-name="quotesinglbase" unicode="&#x201a;" horiz-adv-x="176" 
d="M87 104q28 0 43.5 -15.5t15.5 -39.5q0 -11 -6 -27l-40 -101l-52 14l11 63q-29 12 -29 51q0 24 15.5 39.5t41.5 15.5z" />
    <glyph glyph-name="quotedblleft" unicode="&#x201c;" horiz-adv-x="313" 
d="M89 491q-28 0 -43.5 15.5t-15.5 39.5q0 11 6 27l40 101l52 -14l-11 -63q29 -12 29 -51q0 -24 -15.5 -39.5t-41.5 -15.5zM226 491q-28 0 -43.5 15.5t-15.5 39.5q0 11 6 27l40 101l52 -14l-11 -63q29 -12 29 -51q0 -24 -15.5 -39.5t-41.5 -15.5z" />
    <glyph glyph-name="quotedblright" unicode="&#x201d;" horiz-adv-x="313" 
d="M87 616q28 0 43.5 -15.5t15.5 -39.5q0 -11 -6 -27l-40 -101l-52 14l11 63q-29 12 -29 51q0 24 15.5 39.5t41.5 15.5zM224 616q28 0 43.5 -15.5t15.5 -39.5q0 -11 -6 -27l-40 -101l-52 14l11 63q-29 12 -29 51q0 24 15.5 39.5t41.5 15.5z" />
    <glyph glyph-name="quotedblbase" unicode="&#x201e;" horiz-adv-x="313" 
d="M87 104q28 0 43.5 -15.5t15.5 -39.5q0 -11 -6 -27l-40 -101l-52 14l11 63q-29 12 -29 51q0 24 15.5 39.5t41.5 15.5zM224 104q28 0 43.5 -15.5t15.5 -39.5q0 -11 -6 -27l-40 -101l-52 14l11 63q-29 12 -29 51q0 24 15.5 39.5t41.5 15.5z" />
    <glyph glyph-name="dagger" unicode="&#x2020;" horiz-adv-x="315" 
d="M127 115l-6 96v60l4 61l-43 -5h-34l-28 27v15l28 27h34l42 -4l-3 39v42l27 27h18l28 -27v-42l-5 -40l41 5h37l28 -27v-15l-28 -27h-37l-41 5l5 -61v-60l-7 -96l-20 -150h-20z" />
    <glyph glyph-name="daggerdbl" unicode="&#x2021;" horiz-adv-x="315" 
d="M190 207l4 -36l-28 -206h-18l-27 206l3 36l-42 -4h-34l-28 27v15l28 27h34l42 -4l-3 32l3 31l-42 -4h-34l-28 27v15l28 27h34l42 -4l-3 39v42l27 27h18l28 -27v-42l-5 -40l41 5h37l28 -27v-15l-28 -27h-37l-40 4l4 -31l-4 -32l40 4h37l28 -27v-15l-28 -27h-37z" />
    <glyph glyph-name="bullet" unicode="&#x2022;" horiz-adv-x="214" 
d="M35 315q0 32 21 53t51 21q31 0 51.5 -21t20.5 -53q0 -30 -20.5 -51t-51.5 -21q-30 0 -51 21t-21 51z" />
    <glyph glyph-name="onedotenleader" unicode="&#x2024;" horiz-adv-x="207" 
d="M35 61q0 29 18.5 48t49.5 19q32 0 50.5 -18.5t18.5 -48.5t-18.5 -48t-50.5 -18q-31 0 -49.5 18.5t-18.5 47.5z" />
    <glyph glyph-name="twodotenleader" unicode="&#x2025;" horiz-adv-x="393" 
d="M221 61q0 29 18.5 48t49.5 19q32 0 50.5 -18.5t18.5 -48.5t-18.5 -48t-50.5 -18q-31 0 -49.5 18.5t-18.5 47.5zM35 61q0 29 18.5 48t49.5 19q32 0 50.5 -18.5t18.5 -48.5t-18.5 -48t-50.5 -18q-31 0 -49.5 18.5t-18.5 47.5z" />
    <glyph glyph-name="ellipsis" unicode="&#x2026;" horiz-adv-x="579" 
d="M35 61q0 29 18.5 48t49.5 19q32 0 50.5 -18.5t18.5 -48.5t-18.5 -48t-50.5 -18q-31 0 -49.5 18.5t-18.5 47.5zM407 61q0 29 18.5 48t49.5 19q32 0 50.5 -18.5t18.5 -48.5t-18.5 -48t-50.5 -18q-31 0 -49.5 18.5t-18.5 47.5zM221 61q0 29 18.5 48t49.5 19q32 0 50.5 -18.5
t18.5 -48.5t-18.5 -48t-50.5 -18q-31 0 -49.5 18.5t-18.5 47.5z" />
    <glyph glyph-name="perthousand" unicode="&#x2030;" horiz-adv-x="991" 
d="M139 25l335 489l66 -43l-338 -488zM164 221q-63 0 -102 39q-42 42 -42 104q0 61 41 102q43 43 103 43q61 0 103 -42q41 -41 41 -103q0 -60 -42 -101q-45 -42 -102 -42zM232 364q0 30 -20 50q-19 19 -48 19q-28 0 -49 -18q-19 -21 -19 -51q0 -31 20 -49q21 -21 48 -21
q32 0 51 22q17 23 17 48zM515 -9q-61 0 -102 41q-42 42 -42 103q0 62 40 102q42 42 104 42q63 0 103 -40q42 -42 42 -104q0 -60 -40 -101q-40 -43 -105 -43zM583 135q0 31 -20 49q-19 21 -48 21q-27 0 -48 -21q-20 -18 -20 -49q0 -33 20 -51q18 -18 48 -18q35 0 51 21
q17 20 17 48zM826 -9q-61 0 -102 41q-42 42 -42 103q0 62 40 102q42 42 104 42q63 0 103 -40q42 -42 42 -104q0 -60 -40 -101q-40 -43 -105 -43zM894 135q0 31 -20 49q-19 21 -48 21q-27 0 -48 -21q-20 -18 -20 -49q0 -33 20 -51q18 -18 48 -18q34 0 51 21q17 20 17 48z" />
    <glyph glyph-name="guilsinglleft" unicode="&#x2039;" horiz-adv-x="297" 
d="M228 417l39 -57l-137 -108l137 -110l-39 -57l-208 143v46z" />
    <glyph glyph-name="guilsinglright" unicode="&#x203a;" horiz-adv-x="297" 
d="M59 85l-39 57l137 108l-137 110l39 57l208 -143v-46z" />
    <glyph glyph-name="exclamdbl" unicode="&#x203c;" horiz-adv-x="373" 
d="M52 638h95v-149l-4 -326h-86l-5 326v149zM35 60q0 29 17.5 47t46.5 18q30 0 48 -18t18 -47t-18 -47.5t-48 -18.5q-29 0 -46.5 18.5t-17.5 47.5zM225 638h95v-149l-4 -326h-86l-5 326v149zM208 60q0 29 17.5 47t46.5 18q30 0 48 -18t18 -47t-18 -47.5t-48 -18.5
q-29 0 -46.5 18.5t-17.5 47.5z" />
    <glyph glyph-name="fraction" unicode="&#x2044;" horiz-adv-x="198" 
d="M-60 -7l276 535l42 -21l-277 -536z" />
    <glyph glyph-name="zerosuperior" unicode="&#x2070;" horiz-adv-x="341" 
d="M169 373q35 0 61 28q23 29 23 64q0 41 -24 65q-20 23 -60 23q-35 0 -58 -23q-24 -27 -24 -65q0 -37 25 -66q26 -26 57 -26zM169 315q-66 0 -109 46q-40 43 -40 104q0 62 42 104q43 43 107 43q68 0 112 -47q40 -42 40 -100q0 -66 -44 -110q-40 -40 -108 -40z" />
    <glyph glyph-name="foursuperior" unicode="&#x2074;" horiz-adv-x="297" 
d="M30 363v53l162 184h49v-179h31v-52l-31 -6v-41h-63v41h-148zM178 421v79l-72 -79h72z" />
    <glyph glyph-name="fivesuperior" unicode="&#x2075;" horiz-adv-x="295" 
d="M139 371q37 0 52 15q11 11 11 31q0 15 -10 25q-14 14 -46 14q-36 0 -69 -15l-38 7v152h207v-59h-146v-37q24 9 53 9q56 0 87 -34q25 -27 25 -62q0 -44 -27 -71q-33 -33 -99 -33q-70 0 -114 45l39 42q18 -17 33.5 -23t41.5 -6z" />
    <glyph glyph-name="sixsuperior" unicode="&#x2076;" horiz-adv-x="305" 
d="M234 542q-35 17 -74 17q-26 0 -44 -15q-15 -13 -19 -32q27 13 57 13q56 0 88 -26q33 -27 33 -76q0 -41 -34 -75q-35 -30 -85 -30q-62 0 -95 41q-31 36 -31 106q0 68 33 106q35 45 97 45q53 0 99 -30zM108 397q18 -24 51 -24q21 0 37 13q16 12 16 37q0 17 -9 27
q-17 17 -48 17q-37 0 -62 -14q0 -36 15 -56z" />
    <glyph glyph-name="sevensuperior" unicode="&#x2077;" horiz-adv-x="273" 
d="M25 543v57h223v-41l-111 -235h-71l108 219h-149z" />
    <glyph glyph-name="eightsuperior" unicode="&#x2078;" horiz-adv-x="318" 
d="M159 318q-66 0 -100 31q-29 26 -29 69q0 21 14 41q11 14 26 22q-18 18 -18 50q0 39 29 61q29 25 80 25t80 -28q23 -21 23 -56q0 -31 -18 -44q20 -11 30 -27q12 -18 12 -42q0 -44 -33 -72q-37 -30 -96 -30zM159 559q-25 0 -37 -9q-8 -6 -8 -17q0 -14 8 -17q13 -7 37 -7
q23 0 32 -1q10 9 10 26q0 14 -9 18q-10 7 -33 7zM159 454q-33 0 -48 4q-17 -13 -17 -38q0 -21 13 -31q16 -13 52 -13q38 0 53 13q12 11 12 30q0 18 -12 25q-16 10 -53 10z" />
    <glyph glyph-name="ninesuperior" unicode="&#x2079;" horiz-adv-x="305" 
d="M65 393q41 -18 80 -18q26 0 44 15q15 13 19 32q-27 -13 -57 -13q-56 0 -88 26q-33 27 -33 76q0 41 34 75q35 30 85 30q62 0 95 -41q31 -36 31 -106q0 -68 -33 -106q-35 -45 -97 -45q-55 0 -102 28zM197 537q-18 24 -51 24q-21 0 -37 -13q-16 -12 -16 -37q0 -17 9 -27
q17 -17 48 -17q37 0 62 14q0 36 -15 56z" />
    <glyph glyph-name="parenleftsuperior" unicode="&#x207d;" horiz-adv-x="149" 
d="M90 461q0 -91 39 -155l-48 -24q-51 81 -51 179q0 99 51 180l48 -25q-39 -62 -39 -155z" />
    <glyph glyph-name="parenrightsuperior" unicode="&#x207e;" horiz-adv-x="149" 
d="M59 462q0 91 -39 155l48 24q51 -81 51 -179q0 -99 -51 -180l-48 25q39 62 39 155z" />
    <glyph glyph-name="zeroinferior" unicode="&#x2080;" horiz-adv-x="341" 
d="M169 -4q35 0 61 28q23 29 23 64q0 41 -24 65q-20 23 -60 23q-35 0 -58 -23q-24 -27 -24 -65q0 -37 25 -66q26 -26 57 -26zM169 -62q-66 0 -109 46q-40 43 -40 104q0 62 42 104q43 43 107 43q68 0 112 -47q40 -42 40 -100q0 -66 -44 -110q-40 -40 -108 -40z" />
    <glyph glyph-name="oneinferior" unicode="&#x2081;" horiz-adv-x="172" 
d="M35 136l-20 44l80 41h37v-276h-62v203z" />
    <glyph glyph-name="twoinferior" unicode="&#x2082;" horiz-adv-x="287" 
d="M39 -53v54l119 80q19 14 29 30q7 10 7 28q0 16 -13 26q-15 11 -40 11q-27 0 -43 -8t-37 -29l-38 38q45 58 118 58q53 0 87 -30q29 -27 29 -68q0 -30 -16 -55q-17 -26 -46 -45l-51 -33h112v-57h-217z" />
    <glyph glyph-name="threeinferior" unicode="&#x2083;" horiz-adv-x="307" 
d="M147 -2q39 0 56 17q11 11 11 27q0 12 -9 21q-16 10 -34 10h-82v53h81q13 0 20 7q6 6 6 18q0 13 -9 21q-11 10 -41 10q-40 0 -77 -26l-31 41q26 24 50 33.5t60 9.5q50 0 80 -25q29 -21 29 -60q0 -31 -19 -47q39 -22 39 -66q0 -41 -27 -68q-34 -34 -103 -34q-39 0 -66 11
t-56 40l38 44q40 -37 84 -37z" />
    <glyph glyph-name="fourinferior" unicode="&#x2084;" horiz-adv-x="297" 
d="M30 -16v53l162 184h49v-179h31v-52l-31 -6v-41h-63v41h-148zM178 42v79l-72 -79h72z" />
    <glyph glyph-name="fiveinferior" unicode="&#x2085;" horiz-adv-x="295" 
d="M139 -8q37 0 52 15q11 11 11 31q0 15 -10 25q-14 14 -46 14q-36 0 -69 -15l-38 7v152h207v-59h-146v-37q24 9 53 9q56 0 87 -34q25 -27 25 -62q0 -44 -27 -71q-33 -33 -99 -33q-70 0 -114 45l39 42q18 -17 33.5 -23t41.5 -6z" />
    <glyph glyph-name="sixinferior" unicode="&#x2086;" horiz-adv-x="305" 
d="M234 165q-35 17 -74 17q-26 0 -44 -15q-15 -13 -19 -32q27 13 57 13q56 0 88 -26q33 -27 33 -76q0 -41 -34 -75q-35 -30 -85 -30q-62 0 -95 41q-31 36 -31 106q0 68 33 106q35 45 97 45q53 0 99 -30zM108 20q18 -24 51 -24q21 0 37 13q16 12 16 37q0 16 -9 27
q-17 17 -48 17q-37 0 -62 -14q0 -36 15 -56z" />
    <glyph glyph-name="seveninferior" unicode="&#x2087;" horiz-adv-x="273" 
d="M25 164v57h223v-41l-111 -235h-71l108 219h-149z" />
    <glyph glyph-name="eightinferior" unicode="&#x2088;" horiz-adv-x="318" 
d="M159 -59q-66 0 -100 31q-29 26 -29 69q0 21 14 41q11 14 26 22q-18 18 -18 50q0 39 29 61q29 25 80 25t80 -28q23 -21 23 -56q0 -31 -18 -44q20 -10 30 -27q12 -18 12 -42q0 -44 -33 -72q-37 -30 -96 -30zM159 182q-25 0 -37 -9q-8 -6 -8 -17q0 -14 8 -17q13 -7 37 -7
q23 0 32 -1q10 9 10 26q0 13 -9 18q-10 7 -33 7zM159 77q-33 0 -48 4q-17 -13 -17 -38q0 -21 13 -31q16 -13 52 -13q38 0 53 13q12 11 12 30q0 18 -12 25q-16 10 -53 10z" />
    <glyph glyph-name="nineinferior" unicode="&#x2089;" horiz-adv-x="305" 
d="M65 16q41 -18 80 -18q26 0 44 15q15 13 19 32q-27 -13 -57 -13q-56 0 -88 26q-33 27 -33 76q0 41 34 75q34 30 85 30q62 0 95 -41q31 -36 31 -106q0 -68 -33 -106q-35 -45 -97 -45q-55 0 -102 28zM197 160q-18 24 -51 24q-21 0 -37 -13q-16 -12 -16 -37q0 -16 9 -27
q17 -17 48 -17q37 0 62 14q0 36 -15 56z" />
    <glyph glyph-name="parenleftinferior" unicode="&#x208d;" horiz-adv-x="149" 
d="M90 82q0 -91 39 -155l-48 -24q-51 81 -51 179q0 99 51 180l48 -25q-39 -62 -39 -155z" />
    <glyph glyph-name="parenrightinferior" unicode="&#x208e;" horiz-adv-x="149" 
d="M59 83q0 91 -39 155l48 24q51 -81 51 -179q0 -99 -51 -180l-48 25q39 62 39 155z" />
    <glyph glyph-name="Euro" unicode="&#x20ac;" horiz-adv-x="542" 
d="M11 236h357l-16 -71h-192q13 -29 44 -50q40 -28 95 -28q77 0 143 60l64 -69q-87 -87 -207 -87q-106 0 -182 64q-53 45 -70 110h-36v71zM373 267h-362v71h37q28 78 83 119q68 52 168 52q115 0 208 -87l-64 -69q-68 60 -144 60q-49 0 -90 -23q-33 -19 -47 -52h226z" />
    <glyph glyph-name="afii61352" unicode="&#x2116;" horiz-adv-x="827" 
d="M682 177q-48 0 -82 34q-32 32 -32 80q0 49 35 83q31 31 79 31q50 0 83 -35q32 -32 32 -79q0 -46 -32 -78q-36 -36 -83 -36zM730 291q0 19 -11 33q-13 16 -38 16q-23 0 -36 -16q-11 -14 -11 -33q0 -22 14 -36q13 -13 34 -13q23 0 37 17q11 14 11 32zM584 153h196v-63h-196
v63zM419 500h104v-500h-97l-271 328v-328h-105v500h97l272 -327v327z" />
    <glyph glyph-name="trademark" unicode="&#x2122;" horiz-adv-x="647" 
d="M184 533v-196h-69v196h-90v67h250v-67h-91zM371 493v-156h-68v263h68l85 -104l84 104h67v-263h-69v156l-72 -85h-26z" />
    <glyph glyph-name="minus" unicode="&#x2212;" horiz-adv-x="347" 
d="M30 314h287v-85h-287v85z" />
    <glyph glyph-name="approxequal" unicode="&#x2248;" horiz-adv-x="385" 
d="M190 171q-39 14 -70 14q-37 0 -63 -22l-37 47q49 51 107 51q38 0 70 -14t69 -14q34 0 64 24l35 -50q-46 -49 -106 -49q-34 0 -69 13zM190 294q-39 14 -70 14q-37 0 -63 -22l-37 47q49 51 107 51q38 0 70 -14t69 -14q34 0 64 24l35 -50q-46 -49 -106 -49q-34 0 -69 13z
" />
    <glyph glyph-name="notequal" unicode="&#x2260;" horiz-adv-x="358" 
d="M30 228h99l16 59h-115v81h136l16 57l72 -19l-10 -38h84v-81h-106l-16 -59h122v-81h-144l-15 -57l-72 20l10 37h-77v81z" />
    <glyph glyph-name="lessequal" unicode="&#x2264;" horiz-adv-x="307" 
d="M277 184l-39 -57l-218 145v44l218 143l39 -57l-148 -109zM20 220l16 10l189 -125l-39 -56l-166 103v68z" />
    <glyph glyph-name="greaterequal" unicode="&#x2265;" horiz-adv-x="307" 
d="M69 127l-39 57l148 109l-148 109l39 57l218 -143v-44zM271 230l16 -10v-68l-166 -103l-39 56z" />
    <glyph glyph-name="NULL" horiz-adv-x="0" 
 />
    <glyph glyph-name="CR" horiz-adv-x="300" 
 />
    <glyph glyph-name="percent" horiz-adv-x="680" 
d="M139 25l335 489l66 -43l-338 -488zM164 221q-63 0 -102 39q-42 42 -42 104q0 61 41 102q43 43 103 43q61 0 103 -42q41 -41 41 -103q0 -60 -42 -101q-45 -42 -102 -42zM232 364q0 30 -20 50q-19 19 -48 19q-28 0 -49 -18q-19 -21 -19 -51q0 -31 20 -49q21 -21 48 -21
q32 0 51 22q17 23 17 48zM515 -9q-61 0 -102 41q-42 42 -42 103q0 62 40 102q42 42 104 42q63 0 103 -40q42 -42 42 -104q0 -60 -40 -101q-40 -43 -105 -43zM583 135q0 31 -20 49q-19 21 -48 21q-27 0 -48 -21q-20 -18 -20 -49q0 -33 20 -51q18 -18 48 -18q35 0 51 21
q17 20 17 48z" />
    <glyph glyph-name="Breve" horiz-adv-x="398" 
d="M275 779l73 -35q-15 -42 -54 -71q-42 -31 -96 -31t-94 31q-39 29 -54 71l73 35q11 -23 26 -37q20 -19 50 -19q29 0 49 17q16 14 27 39z" />
    <glyph glyph-name="Dieresis" horiz-adv-x="438" 
d="M256 710q0 27 19 46.5t46 19.5q28 0 47.5 -19.5t19.5 -46.5t-19.5 -46.5t-47.5 -19.5q-27 0 -46 19.5t-19 46.5zM50 710q0 27 19.5 46.5t46.5 19.5t46.5 -19.5t19.5 -46.5t-19.5 -46.5t-46.5 -19.5t-46.5 19.5t-19.5 46.5z" />
    <glyph glyph-name="commaaccent" horiz-adv-x="221" 
d="M110 109q28 0 44.5 -16.5t16.5 -41.5q0 -13 -5 -28l-44 -106l-47 12l15 67q-40 7 -40 55q0 25 17 41.5t43 16.5z" />
    <glyph glyph-name="dblgrave" horiz-adv-x="374" 
d="M274 746l50 -171l-65 -26l-71 161zM136 746l73 -166l-68 -34l-91 159z" />
    <glyph glyph-name="Acute" horiz-adv-x="266" 
d="M50 674l81 185l85 -42l-96 -177z" />
    <glyph glyph-name="Grave" horiz-adv-x="266" 
d="M135 859l81 -185l-70 -34l-96 177z" />
    <glyph glyph-name="Caron" horiz-adv-x="414" 
d="M50 774l48 51l109 -90l109 90l48 -51l-136 -135h-42z" />
    <glyph glyph-name="Circumflex" horiz-adv-x="414" 
d="M98 634l-48 51l136 135h42l136 -135l-48 -51l-109 90z" />
    <glyph glyph-name="commaaccent.cap" horiz-adv-x="222" 
d="M110 110q28 0 45 -16.5t17 -41.5q0 -16 -7 -34l-35 -104l-46 7l6 74q-40 12 -40 57q0 25 16 41.5t44 16.5z" />
    <glyph glyph-name="Dotaccent" horiz-adv-x="234" 
d="M50 59q0 29 20 48t48 19t47 -18.5t19 -48.5q0 -29 -19 -47t-47 -18t-48 18t-20 47z" />
    <glyph glyph-name="Hungarumlaut" horiz-adv-x="381" 
d="M50 660l55 181l86 -36l-76 -170zM169 664l78 177l84 -41l-94 -169z" />
    <glyph glyph-name="dblGrave" horiz-adv-x="381" 
d="M276 841l55 -181l-65 -25l-76 170zM134 841l78 -177l-68 -33l-94 169z" />
    <glyph glyph-name="Macron" horiz-adv-x="429" 
d="M50 731h329v-81h-329v81z" />
    <glyph glyph-name="Ring" horiz-adv-x="318" 
d="M159 620q-43 0 -76 31q-33 33 -33 78q0 43 30 75q32 34 79 34t79 -34q30 -32 30 -75q0 -45 -33 -78q-33 -31 -76 -31zM159 677q22 0 37 15t15 37q0 21 -15 36q-13 16 -37 16q-25 0 -38 -16q-14 -14 -14 -36t15 -37t37 -15z" />
    <glyph glyph-name="Tilde" horiz-adv-x="464" 
d="M304 645q-37 0 -71 15q-36 16 -72 16q-37 0 -68 -24l-43 54q51 54 111 54q33 0 72 -16t71 -16q35 0 67 24l43 -55q-49 -52 -110 -52z" />
    <glyph glyph-name="zero.fitted" horiz-adv-x="620" 
d="M311 79q77 0 139 62q60 60 60 159q0 95 -55 157q-57 64 -144 64t-144 -64q-55 -62 -55 -157q0 -99 60 -159q62 -62 139 -62zM311 -11q-125 0 -208 80q-45 42 -70 103.5t-25 127.5q0 130 84 220q89 91 219 91t219 -91q84 -90 84 -220q0 -66 -25 -127.5t-70 -103.5
q-83 -80 -208 -80z" />
    <glyph glyph-name="one.fitted" horiz-adv-x="620" 
d="M200 450l-36 75l160 75h58v-600h-99v483z" />
    <glyph glyph-name="two.fitted" horiz-adv-x="620" 
d="M81 0v84l258 200q49 37 71 71q22 28 22 69q0 40 -28 66q-35 32 -106 32q-100 0 -168 -82l-65 61q90 110 233 110q113 0 176 -56q59 -51 59 -135q0 -66 -42 -120q-36 -46 -97 -94l-151 -117h286v-89h-448z" />
    <glyph glyph-name="three.fitted" horiz-adv-x="620" 
d="M304 78q82 0 126 42q29 29 29 74q0 42 -25 64q-27 24 -83 24h-172v88h161q38 0 60 21q21 19 21 55t-25 55q-28 23 -101 23q-48 0 -81.5 -13.5t-71.5 -47.5l-58 61q48 47 99 67t121 20q106 0 165 -53q48 -42 48 -112q0 -38 -13 -64q-11 -24 -32 -39v-7q40 -19 64 -55
q22 -34 22 -87q0 -89 -62 -144q-73 -61 -192 -61q-84 0 -137.5 24t-103.5 78l59 63q46 -43 87.5 -59.5t94.5 -16.5z" />
    <glyph glyph-name="four.fitted" horiz-adv-x="620" 
d="M51 88v72l375 440h82v-422h62v-84l-62 -5v-89h-101v88h-356zM407 178v258l-219 -258h219z" />
    <glyph glyph-name="five.fitted" horiz-adv-x="620" 
d="M298 78q84 0 128 44q30 30 30 83q0 49 -32 81q-41 41 -109 41q-86 0 -146 -32h-67v305h407v-90h-313v-120q49 24 119 24q105 0 175 -62q64 -57 64 -147q0 -97 -66 -154q-73 -62 -190 -62q-147 0 -232 99l60 68q42 -42 79.5 -60t92.5 -18z" />
    <glyph glyph-name="six.fitted" horiz-adv-x="620" 
d="M317 411q120 0 188 -65q56 -53 56 -141q0 -89 -61 -150q-66 -66 -184 -66q-121 0 -192 87q-64 81 -64 218q0 150 73 236q71 81 191 81q112 0 205 -71l-54 -68q-42 29 -75 39t-75 10q-70 0 -111 -41q-36 -36 -45 -98q65 29 148 29zM316 78q67 0 107 34q39 33 39 93
q0 55 -34 83q-37 34 -111 34q-93 0 -156 -32v-6q0 -100 42 -154q40 -52 113 -52z" />
    <glyph glyph-name="seven.fitted" horiz-adv-x="620" 
d="M82 511v89h459v-68l-272 -532h-112l264 511h-339z" />
    <glyph glyph-name="eight.fitted" horiz-adv-x="620" 
d="M309 -11q-130 0 -200 58q-59 49 -59 138q0 56 31 97q23 32 66 55q-23 20 -35 42q-15 30 -15 67q0 77 62 122q58 43 153 43q99 0 158 -52q50 -47 50 -110q0 -39 -15 -64q-12 -20 -35 -37q45 -20 73 -62q28 -41 28 -96q0 -92 -65 -144q-69 -57 -197 -57zM309 523
q-62 0 -90 -23q-23 -18 -23 -56q0 -34 24 -47q26 -17 89 -17q45 0 70 -4q16 9 29 25q12 18 12 46q0 36 -26 54q-32 22 -85 22zM309 289q-48 0 -83 5q-35 -10 -55 -36q-21 -27 -21 -68q0 -52 37 -78q47 -34 122 -34q81 0 128 39q33 30 33 73q0 47 -31 69q-38 30 -130 30z" />
    <glyph glyph-name="nine.fitted" horiz-adv-x="620" 
d="M304 189q-120 0 -188 65q-56 53 -56 141q0 89 61 150q66 66 184 66q121 0 192 -87q64 -81 64 -218q0 -150 -73 -236q-71 -81 -191 -81q-66 0 -112.5 14t-94.5 50l49 72q63 -46 157 -46q70 0 111 41q36 36 45 98q-65 -29 -148 -29zM305 522q-67 0 -107 -34
q-39 -33 -39 -93q0 -55 34 -83q37 -34 111 -34q93 0 156 32v6q0 100 -42 154q-40 52 -113 52z" />
    <glyph glyph-name="zerooldstyle" horiz-adv-x="574" 
d="M544 250q0 -115 -72 -187t-185 -72q-116 0 -188 75q-69 70 -69 184q0 112 70 185q71 74 187 74q119 0 190 -77q67 -73 67 -182zM135 250q0 -78 45 -125q42 -42 107 -42q69 0 115 48q37 45 37 119q0 80 -41 124q-43 43 -111 43q-65 0 -107 -42q-45 -47 -45 -125z" />
    <glyph glyph-name="oneoldstyle" horiz-adv-x="265" 
d="M42 354l-34 75l145 71h62v-500h-105v378z" />
    <glyph glyph-name="twooldstyle" horiz-adv-x="482" 
d="M42 0v81l247 176q28 19 43 45q12 22 12 45q0 28 -20 46q-25 24 -89 24q-81 0 -143 -65l-61 65q79 92 204 92q109 0 165 -53q46 -44 46 -113q0 -45 -22 -82q-24 -42 -87 -86l-120 -83h226v-92h-401z" />
    <glyph glyph-name="threeoldstyle" horiz-adv-x="498" 
d="M243 83q70 0 102 29q20 20 20 49q0 26 -21 44q-21 15 -59 15h-159v95h157q26 0 40 14q12 12 12 33q0 26 -18 37q-23 18 -79 18q-44 0 -75.5 -10.5t-69.5 -38.5l-51 72q48 38 93.5 53.5t106.5 15.5q90 0 145 -44q50 -37 50 -103q0 -30 -13 -52q-10 -20 -30 -30v-5
q37 -17 56 -48q18 -29 18 -66q0 -78 -63 -125q-59 -45 -163 -45q-71 0 -119.5 20.5t-97.5 66.5l60 69q73 -64 158 -64z" />
    <glyph glyph-name="fouroldstyle" horiz-adv-x="496" 
d="M25 78v80l310 342h87v-329h54v-87l-54 -4v-80h-104v78h-293zM318 171v173l-157 -173h157z" />
    <glyph glyph-name="fiveoldstyle" horiz-adv-x="478" 
d="M214 82q60 0 94 31q25 23 25 59q0 40 -31 64q-28 22 -86 22q-62 0 -111 -29l-60 16v255h354v-92h-256v-72q33 13 82 13q83 0 140 -39q73 -50 73 -139q0 -77 -60 -129q-58 -51 -164 -51q-68 0 -113.5 19t-85.5 60l60 70q33 -31 64 -44.5t75 -13.5z" />
    <glyph glyph-name="sixoldstyle" horiz-adv-x="500" 
d="M258 344q109 0 164 -55q48 -47 48 -118q0 -76 -51 -124q-58 -56 -166 -56q-110 0 -168 74q-55 66 -55 184q0 117 63 189q64 71 170 71q99 0 184 -61l-53 -70q-36 25 -64.5 33t-66.5 8q-50 0 -88 -31q-24 -21 -35 -64q54 20 118 20zM253 81q52 0 87 26q30 25 30 65
q0 34 -25 56q-28 25 -87 25q-75 0 -126 -21v-8q0 -60 28 -99q31 -44 93 -44z" />
    <glyph glyph-name="sevenoldstyle" horiz-adv-x="449" 
d="M20 408v92h409v-67l-231 -433h-113l220 408h-285z" />
    <glyph glyph-name="eightoldstyle" horiz-adv-x="525" 
d="M262 509q90 0 142 -39q50 -37 50 -103q0 -51 -41 -76v-7q32 -12 53 -40q29 -35 29 -83q0 -78 -57 -122q-63 -48 -176 -48q-118 0 -178 49q-54 46 -54 121q0 35 20 68q18 29 56 49v5q-35 29 -35 84q0 61 46 99q54 43 145 43zM262 229q-46 0 -81 6q-25 -9 -37 -30
q-11 -20 -11 -45q0 -36 33 -57q35 -22 97 -22q76 0 106 28q23 18 23 52t-25 50q-28 18 -105 18zM172 365q0 -27 23 -37t67 -10q43 0 66 -4q26 18 26 53q0 27 -21 41q-22 14 -70 14q-52 0 -76 -20q-15 -14 -15 -37z" />
    <glyph glyph-name="nineoldstyle" horiz-adv-x="500" 
d="M242 158q-110 0 -164 53q-48 47 -48 114q0 73 50 123q61 61 166 61q108 0 167 -70q57 -66 57 -188q0 -131 -78 -203q-60 -57 -154 -57q-61 0 -102.5 11.5t-87.5 46.5l47 75q61 -43 142 -43q51 0 86 27q34 27 41 76q-58 -26 -122 -26zM246 419q-60 0 -94 -35
q-22 -25 -22 -57q0 -33 23 -55q28 -25 89 -25q72 0 127 23v5q0 55 -29 99q-32 45 -94 45z" />
    <glyph glyph-name="one.taboldstyle" 
d="M171 354l-34 75l145 71h62v-500h-105v378z" />
    <glyph glyph-name="two.taboldstyle" 
d="M74 0v81l247 176q28 19 43 45q12 22 12 45q0 28 -20 46q-25 24 -89 24q-81 0 -143 -65l-61 65q79 92 204 92q109 0 165 -53q46 -44 46 -113q0 -45 -22 -82q-24 -42 -87 -86l-120 -83h226v-92h-401z" />
    <glyph glyph-name="zero.taboldstyle" 
d="M541 250q0 -115 -72 -187t-185 -72q-116 0 -188 75q-69 70 -69 184q0 112 70 185q71 74 187 74q119 0 190 -77q67 -73 67 -182zM132 250q0 -78 45 -125q42 -42 107 -42q69 0 115 48q37 45 37 119q0 80 -41 124q-43 43 -111 43q-65 0 -107 -42q-45 -47 -45 -125z" />
    <glyph glyph-name="three.taboldstyle" 
d="M284 83q70 0 102 29q20 20 20 49q0 26 -21 44q-21 15 -59 15h-159v95h157q26 0 40 14q12 12 12 33q0 26 -18 37q-23 18 -79 18q-44 0 -75.5 -10.5t-69.5 -38.5l-51 72q48 38 93.5 53.5t106.5 15.5q90 0 145 -44q50 -37 50 -103q0 -30 -13 -52q-11 -20 -30 -30v-5
q37 -17 56 -48q18 -29 18 -66q0 -78 -63 -125q-59 -45 -163 -45q-71 0 -119.5 20.5t-97.5 66.5l60 69q73 -64 158 -64z" />
    <glyph glyph-name="four.taboldstyle" 
d="M57 78v80l310 342h87v-329h54v-87l-54 -4v-80h-104v78h-293zM350 171v173l-157 -173h157z" />
    <glyph glyph-name="five.taboldstyle" 
d="M273 82q60 0 94 31q25 23 25 59q0 40 -31 64q-28 22 -86 22q-62 0 -111 -29l-60 16v255h354v-92h-256v-72q33 13 82 13q83 0 140 -39q73 -50 73 -139q0 -77 -60 -129q-58 -51 -164 -51q-68 0 -113.5 19t-85.5 60l60 70q33 -31 64 -44.5t75 -13.5z" />
    <glyph glyph-name="six.taboldstyle" 
d="M292 344q109 0 164 -55q48 -47 48 -118q0 -76 -51 -124q-58 -56 -166 -56q-110 0 -168 74q-55 66 -55 184q0 117 63 189q64 71 170 71q99 0 184 -61l-53 -70q-36 25 -64.5 33t-66.5 8q-50 0 -88 -31q-24 -21 -35 -64q54 20 118 20zM287 81q52 0 87 26q30 25 30 65
q0 34 -25 56q-28 25 -87 25q-75 0 -126 -21v-8q0 -60 28 -99q31 -44 93 -44z" />
    <glyph glyph-name="seven.taboldstyle" 
d="M82 408v92h409v-67l-231 -433h-113l220 408h-285z" />
    <glyph glyph-name="eight.taboldstyle" 
d="M285 509q90 0 142 -39q50 -37 50 -103q0 -51 -41 -76v-7q32 -12 53 -40q29 -35 29 -83q0 -78 -57 -122q-63 -48 -176 -48q-118 0 -178 49q-54 46 -54 121q0 35 20 68q18 29 56 49v5q-35 29 -35 84q0 61 46 99q54 43 145 43zM285 229q-47 0 -81 6q-25 -9 -37 -30
q-11 -20 -11 -45q0 -36 33 -57q35 -22 97 -22q76 0 106 28q23 18 23 52t-25 50q-28 18 -105 18zM195 365q0 -27 23 -37t67 -10q43 0 66 -4q26 18 26 53q0 27 -21 41q-22 14 -70 14q-52 0 -76 -20q-15 -14 -15 -37z" />
    <glyph glyph-name="nine.taboldstyle" 
d="M276 158q-110 0 -164 53q-48 47 -48 114q0 73 50 123q61 61 166 61q108 0 167 -70q57 -66 57 -188q0 -131 -78 -203q-60 -57 -154 -57q-61 0 -102.5 11.5t-87.5 46.5l47 75q61 -43 142 -43q52 0 86 27t41 76q-58 -26 -122 -26zM280 419q-60 0 -94 -35q-22 -25 -22 -57
q0 -33 23 -55q28 -25 89 -25q72 0 127 23v5q0 55 -29 99q-32 45 -94 45z" />
    <glyph glyph-name="currency.taboldstyle" 
d="M279 90q-48 0 -80 17l-43 -41l-64 68l38 40q-19 36 -19 76q0 42 18 76l-37 42l64 64l42 -38q32 17 81 17t81 -17l41 38l68 -64l-41 -42q20 -38 20 -76q0 -39 -20 -77l39 -41l-66 -66l-42 41q-36 -17 -80 -17zM369 250q0 37 -24 61q-24 26 -66 26q-44 0 -65 -27
q-23 -23 -23 -60q0 -38 24 -64q23 -24 64 -24q39 0 65 24q25 27 25 64z" />
    <glyph glyph-name="centoldstyle" horiz-adv-x="546" 
d="M355 566v-61q85 -15 156 -83l-66 -71q-68 62 -143 62q-69 0 -113 -44q-46 -46 -46 -118q0 -73 44 -117q44 -47 115 -47q73 0 143 62l66 -71q-72 -66 -156 -82v-62h-104v62q-81 13 -138 70q-78 76 -78 185q0 106 77 183q53 53 139 70v62h104z" />
    <glyph glyph-name="dollaroldstyle" horiz-adv-x="515" 
d="M41 368q0 62 48 100q37 29 111 38v60h104v-60q70 -7 160 -45l-38 -85q-86 38 -166 38q-75 0 -97 -18q-14 -12 -14 -29t13 -27q17 -13 50 -17l99 -17q92 -16 133 -53q41 -38 41 -99q0 -70 -45 -110q-40 -38 -136 -50v-60h-104v59q-87 6 -167 48l36 88q89 -41 173 -41
q79 0 111 20q26 17 26 44q0 20 -19 32q-18 13 -65 20l-111 20q-74 12 -111 52q-32 35 -32 92z" />
    <glyph glyph-name="cent.taboldstyle" 
d="M371 566v-61q85 -15 156 -83l-66 -71q-68 62 -143 62q-69 0 -113 -44q-46 -46 -46 -118q0 -73 44 -117q44 -47 115 -47q73 0 143 62l66 -71q-72 -66 -156 -82v-62h-104v62q-81 13 -138 70q-78 76 -78 185q0 106 77 183q53 53 139 70v62h104z" />
    <glyph glyph-name="dollar.taboldstyle" 
d="M62 368q0 62 48 100q37 29 111 38v60h104v-60q70 -7 160 -45l-38 -85q-86 38 -166 38q-75 0 -97 -18q-14 -12 -14 -29t13 -27q17 -13 50 -17l99 -17q92 -16 133 -53q41 -38 41 -99q0 -70 -45 -110q-40 -38 -136 -50v-60h-104v59q-87 6 -167 48l36 88q89 -41 173 -41
q79 0 111 20q26 17 26 44q0 20 -19 32q-18 13 -65 20l-111 20q-74 12 -111 52q-32 35 -32 92z" />
    <glyph glyph-name="Euro.taboldstyle" 
d="M26 236h357l-16 -71h-192q13 -29 44 -50q40 -28 95 -28q77 0 143 60l64 -69q-87 -87 -207 -87q-106 0 -182 64q-53 45 -70 110h-36v71zM388 267h-362v71h37q28 78 83 119q68 52 168 52q115 0 208 -87l-64 -69q-68 60 -144 60q-49 0 -90 -23q-33 -19 -47 -52h226z" />
    <glyph glyph-name="yen.taboldstyle" 
d="M439 162h-337v69h59l-158 269h121l143 -260h5l147 260h117l-159 -269h62v-69zM102 138h337v-68h-116v-70h-107v70h-114v68z" />
    <glyph glyph-name="numbersign.taboldstyle" horiz-adv-x="570" 
d="M149 34l9 84h-77v64h86l6 55h-90v65h97l12 89l62 -5l-10 -84h57l10 89l64 -5l-11 -84h84v-65h-92l-5 -55h95v-64h-103l-12 -89l-61 5l8 84h-55l-12 -89zM236 237l-6 -55h57l6 55h-57z" />
    <glyph glyph-name="zero.denominator" horiz-adv-x="341" 
d="M169 46q35 0 61 28q23 29 23 64q0 41 -24 65q-20 23 -60 23q-35 0 -58 -23q-24 -27 -24 -65q0 -37 25 -66q26 -26 57 -26zM169 -12q-66 0 -109 46q-40 43 -40 104q0 62 42 104q43 43 107 43q68 0 112 -47q40 -42 40 -100q0 -66 -44 -110q-40 -40 -108 -40z" />
    <glyph glyph-name="one.denominator" horiz-adv-x="172" 
d="M35 186l-20 44l80 41h37v-276h-62v203z" />
    <glyph glyph-name="three.denominator" horiz-adv-x="307" 
d="M147 48q39 0 56 17q11 11 11 27q0 12 -9 21q-16 10 -34 10h-82v53h81q13 0 20 7q6 6 6 18q0 13 -9 21q-11 10 -41 10q-40 0 -77 -26l-31 41q26 24 50 33.5t60 9.5q50 0 80 -25q29 -21 29 -60q0 -31 -19 -47q39 -22 39 -66q0 -41 -27 -68q-34 -34 -103 -34q-39 0 -66 11
t-56 40l38 44q40 -37 84 -37z" />
    <glyph glyph-name="four.denominator" horiz-adv-x="297" 
d="M30 34v53l162 184h49v-179h31v-52l-31 -6v-41h-63v41h-148zM178 92v79l-72 -79h72z" />
    <glyph glyph-name="five.denominator" horiz-adv-x="295" 
d="M139 42q37 0 52 15q11 11 11 31q0 15 -10 25q-14 14 -46 14q-36 0 -69 -15l-38 7v152h207v-59h-146v-37q24 9 53 9q56 0 87 -34q25 -27 25 -62q0 -44 -27 -71q-33 -33 -99 -33q-70 0 -114 45l39 42q18 -17 33.5 -23t41.5 -6z" />
    <glyph glyph-name="six.denominator" horiz-adv-x="305" 
d="M234 215q-35 17 -74 17q-26 0 -44 -15q-15 -13 -19 -32q27 13 57 13q56 0 88 -26q33 -27 33 -76q0 -41 -34 -75q-35 -30 -85 -30q-62 0 -95 41q-31 36 -31 106q0 68 33 106q35 45 97 45q53 0 99 -30zM108 70q18 -24 51 -24q21 0 37 13q16 12 16 37q0 16 -9 27
q-17 17 -48 17q-37 0 -62 -14q0 -36 15 -56z" />
    <glyph glyph-name="seven.denominator" horiz-adv-x="273" 
d="M25 214v57h223v-41l-111 -235h-71l108 219h-149z" />
    <glyph glyph-name="eight.denominator" horiz-adv-x="318" 
d="M159 -9q-66 0 -100 31q-29 26 -29 69q0 21 14 41q11 14 26 22q-18 18 -18 50q0 39 29 61q29 25 80 25t80 -28q23 -21 23 -56q0 -31 -18 -44q20 -10 30 -27q12 -18 12 -42q0 -44 -33 -72q-37 -30 -96 -30zM159 232q-25 0 -37 -9q-8 -6 -8 -17q0 -14 8 -17q13 -7 37 -7
q23 0 32 -1q10 9 10 26q0 13 -9 18q-10 7 -33 7zM159 127q-33 0 -48 4q-17 -13 -17 -38q0 -21 13 -31q16 -13 52 -13q38 0 53 13q12 10 12 30q0 18 -12 25q-16 10 -53 10z" />
    <glyph glyph-name="nine.denominator" horiz-adv-x="305" 
d="M65 66q41 -18 80 -18q26 0 44 15q15 13 19 32q-27 -13 -57 -13q-56 0 -88 26q-33 27 -33 76q0 41 34 75q34 30 85 30q62 0 95 -41q31 -36 31 -106q0 -68 -33 -106q-35 -45 -97 -45q-55 0 -102 28zM197 210q-18 24 -51 24q-21 0 -37 -13q-16 -12 -16 -37q0 -16 9 -27
q17 -17 48 -17q37 0 62 14q0 36 -15 56z" />
    <glyph glyph-name="period.denominator" horiz-adv-x="120" 
d="M15 35q0 20 12.5 33t31.5 13q20 0 33 -13t13 -33q0 -19 -13 -31.5t-33 -12.5q-19 0 -31.5 12.5t-12.5 31.5z" />
    <glyph glyph-name="comma.denominator" horiz-adv-x="120" 
d="M15 35q0 20 12.5 33t32.5 13q19 0 32 -13t13 -33q0 -11 -3 -20l-29 -79l-36 7l7 52q-29 11 -29 40z" />
    <glyph glyph-name="dollar.denominator" horiz-adv-x="298" 
d="M114 302h63v-28q47 -5 87 -27l-24 -49q-46 21 -88 21q-36 0 -49 -7q-10 -6 -10 -17q0 -17 31 -23l53 -9q56 -9 81 -39q15 -18 15 -46q0 -38 -25 -60q-24 -22 -71 -28v-30h-63v29q-44 4 -89 29l25 50q51 -24 94 -24q42 0 56 13q10 7 10 20t-9.5 18.5t-32.5 8.5l-58 9
q-39 5 -60 26q-20 22 -20 53q0 35 23 56q24 21 61 25v29z" />
    <glyph glyph-name="cent.denominator" horiz-adv-x="312" 
d="M140 -38v30q-53 7 -84 47q-31 38 -31 92q0 62 41 101q32 32 74 39v30h61v-28q50 -11 86 -50l-39 -39q-32 32 -77 32q-39 0 -63 -26q-20 -23 -20 -59q0 -31 24 -57t59 -26q46 0 77 32l39 -40q-38 -39 -86 -49v-29h-61z" />
    <glyph glyph-name="parenleft.denominator" horiz-adv-x="149" 
d="M90 132q0 -91 39 -155l-48 -24q-51 81 -51 179q0 99 51 180l48 -25q-39 -62 -39 -155z" />
    <glyph glyph-name="parenright.denominator" horiz-adv-x="149" 
d="M59 133q0 91 -39 155l48 24q51 -81 51 -179q0 -99 -51 -180l-48 25q39 62 39 155z" />
    <glyph glyph-name="hyphen.denominator" horiz-adv-x="184" 
d="M15 183h154v-58h-154v58z" />
    <glyph glyph-name="Cedilla" horiz-adv-x="263" 
d="M69 6h77l-2 -54q30 0 48 -18q21 -21 21 -53q0 -42 -30 -72q-35 -39 -114 -60l-19 50q45 19 62 36q18 18 18 42q0 10 -8 18q-8 6 -21 6h-32v105z" />
    <glyph glyph-name="Ogonek" horiz-adv-x="239" 
d="M109 17l49 -17q-15 -12 -22 -23q-10 -16 -10 -35q0 -25 18 -50q17 -24 45 -41l-26 -44q-49 14 -83 48q-30 32 -30 76q0 33 18 55q16 21 41 31z" />
    <glyph glyph-name="rupiah" horiz-adv-x="516" 
d="M10 105h40v395h244q85 0 140 -58q52 -52 52 -127q0 -72 -50 -125q-57 -59 -142 -59h-137v-26h130v-71h-130v-34h-107v34h-40v71zM297 226q38 0 59 26q23 26 23 63q0 33 -21 61q-24 29 -68 29h-133v-179h140z" />
    <glyph glyph-name="zero.slash" horiz-adv-x="666" 
d="M333 -11q-125 0 -208 80q-45 42 -70 103.5t-25 127.5q0 130 84 220q89 91 219 91t219 -91q84 -90 84 -220q0 -66 -25 -127.5t-70 -103.5q-83 -80 -208 -80zM333 79q77 0 139 62q60 60 60 159q0 68 -33 126l-270 -314q51 -33 104 -33zM134 300q0 -68 29 -118l268 312
q-43 27 -98 27q-87 0 -144 -64q-55 -62 -55 -157z" />
    <glyph glyph-name="zero.slash.fitted" horiz-adv-x="620" 
d="M311 -11q-125 0 -208 80q-45 42 -70 103.5t-25 127.5q0 130 84 220q89 91 219 91t219 -91q84 -90 84 -220q0 -66 -25 -127.5t-70 -103.5q-83 -80 -208 -80zM311 79q77 0 139 62q60 60 60 159q0 68 -33 126l-270 -314q51 -33 104 -33zM112 300q0 -68 29 -118l268 312
q-44 27 -98 27q-87 0 -144 -64q-55 -62 -55 -157z" />
    <glyph glyph-name="zerooldstyle.slash" horiz-adv-x="574" 
d="M544 250q0 -115 -72 -187t-185 -72q-116 0 -188 75q-69 70 -69 184q0 112 70 185q71 74 187 74q119 0 190 -77q67 -73 67 -182zM135 250q0 -48 17 -85l206 238q-33 14 -71 14q-65 0 -107 -42q-45 -45 -45 -125zM439 250q0 51 -16 84l-204 -237q35 -14 68 -14q78 0 115 48
q37 45 37 119z" />
    <glyph glyph-name="zerooldstyle.slash.fitted" 
d="M552 250q0 -115 -72 -187t-185 -72q-116 0 -188 75q-69 70 -69 184q0 112 70 185q71 74 187 74q119 0 190 -77q67 -73 67 -182zM143 250q0 -48 17 -85l206 238q-33 14 -71 14q-65 0 -107 -42q-45 -45 -45 -125zM447 250q0 51 -16 84l-204 -237q35 -14 68 -14q78 0 115 48
q37 45 37 119z" />
    <glyph glyph-name="two.denominator" horiz-adv-x="287" 
d="M39 -3v54l119 80q19 14 29 30q7 10 7 28q0 16 -13 26q-15 11 -40 11q-27 0 -43 -8t-37 -29l-38 38q45 58 118 58q53 0 87 -30q29 -27 29 -68q0 -30 -16 -55q-17 -26 -46 -45l-51 -33h112v-57h-217z" />
    <glyph glyph-name="zero.numerator" horiz-adv-x="341" 
d="M169 274q35 0 61 28q23 29 23 64q0 41 -24 65q-20 23 -60 23q-35 0 -58 -23q-24 -27 -24 -65q0 -37 25 -66q26 -26 57 -26zM169 216q-66 0 -109 46q-40 43 -40 104q0 62 42 104q43 43 107 43q68 0 112 -47q40 -42 40 -100q0 -66 -44 -110q-40 -40 -108 -40z" />
    <glyph glyph-name="one.numerator" horiz-adv-x="172" 
d="M35 416l-20 44l80 41h37v-276h-62v203z" />
    <glyph glyph-name="two.numerator" horiz-adv-x="287" 
d="M39 225v54l119 80q19 14 29 30q7 10 7 28q0 16 -13 26q-15 11 -40 11q-27 0 -43 -8t-37 -29l-38 38q45 58 118 58q53 0 87 -30q29 -27 29 -68q0 -30 -16 -55q-17 -26 -46 -45l-51 -33h112v-57h-217z" />
    <glyph glyph-name="three.numerator" horiz-adv-x="307" 
d="M147 276q39 0 56 17q11 11 11 27q0 12 -9 21q-16 10 -34 10h-82v53h81q13 0 20 7q6 6 6 18q0 13 -9 21q-11 10 -41 10q-40 0 -77 -26l-31 41q26 24 50 33.5t60 9.5q50 0 80 -25q29 -21 29 -60q0 -31 -19 -47q39 -22 39 -66q0 -41 -27 -68q-34 -34 -103 -34q-39 0 -66 11
t-56 40l38 44q40 -37 84 -37z" />
    <glyph glyph-name="four.numerator" horiz-adv-x="297" 
d="M30 264v53l162 184h49v-179h31v-52l-31 -6v-41h-63v41h-148zM178 322v79l-72 -79h72z" />
    <glyph glyph-name="five.numerator" horiz-adv-x="295" 
d="M139 272q37 0 52 15q11 11 11 31q0 15 -10 25q-14 14 -46 14q-36 0 -69 -15l-38 7v152h207v-59h-146v-37q24 9 53 9q56 0 87 -34q25 -27 25 -62q0 -44 -27 -71q-33 -33 -99 -33q-70 0 -114 45l39 42q18 -17 33.5 -23t41.5 -6z" />
    <glyph glyph-name="six.numerator" horiz-adv-x="305" 
d="M234 443q-35 17 -74 17q-26 0 -44 -15q-15 -13 -19 -32q27 13 57 13q56 0 88 -26q33 -27 33 -76q0 -41 -34 -75q-35 -30 -85 -30q-62 0 -95 41q-31 36 -31 106q0 68 33 106q35 45 97 45q53 0 99 -30zM108 298q18 -24 51 -24q21 0 37 13q16 12 16 37q0 16 -9 27
q-17 17 -48 17q-37 0 -62 -14q0 -36 15 -56z" />
    <glyph glyph-name="seven.numerator" horiz-adv-x="273" 
d="M25 444v57h223v-41l-111 -235h-71l108 219h-149z" />
    <glyph glyph-name="eight.numerator" horiz-adv-x="318" 
d="M159 219q-66 0 -100 31q-29 26 -29 69q0 21 14 41q11 14 26 22q-18 18 -18 50q0 39 29 61q29 25 80 25t80 -28q23 -21 23 -56q0 -31 -18 -44q20 -10 30 -27q12 -18 12 -42q0 -44 -33 -72q-37 -30 -96 -30zM159 460q-25 0 -37 -9q-8 -6 -8 -17q0 -14 8 -17q13 -7 37 -7
q23 0 32 -1q10 9 10 26q0 13 -9 18q-10 7 -33 7zM159 355q-33 0 -48 4q-17 -13 -17 -38q0 -21 13 -31q16 -13 52 -13q38 0 53 13q12 10 12 30q0 18 -12 25q-16 10 -53 10z" />
    <glyph glyph-name="nine.numerator" horiz-adv-x="305" 
d="M65 294q41 -18 80 -18q26 0 44 15q15 13 19 32q-27 -13 -57 -13q-56 0 -88 26q-33 27 -33 76q0 41 34 75q35 30 85 30q62 0 95 -41q31 -36 31 -106q0 -68 -33 -106q-35 -45 -97 -45q-55 0 -102 28zM197 438q-18 24 -51 24q-21 0 -37 -13q-16 -12 -16 -37q0 -16 9 -27
q17 -17 48 -17q37 0 62 14q0 36 -15 56z" />
    <glyph glyph-name="parenleft.numerator" horiz-adv-x="149" 
d="M90 362q0 -91 39 -155l-48 -24q-51 81 -51 179q0 99 51 180l48 -25q-39 -62 -39 -155z" />
    <glyph glyph-name="parenright.numerator" horiz-adv-x="149" 
d="M59 363q0 91 -39 155l48 24q51 -81 51 -179q0 -99 -51 -180l-48 25q39 62 39 155z" />
    <glyph glyph-name="cent.numerator" horiz-adv-x="312" 
d="M140 193v30q-53 7 -84 47q-31 38 -31 92q0 62 41 101q32 32 74 39v30h61v-28q50 -11 86 -50l-39 -39q-32 32 -77 32q-39 0 -63 -26q-20 -23 -20 -59q0 -32 24 -57q24 -26 59 -26q46 0 77 32l39 -40q-38 -39 -86 -49v-29h-61z" />
    <glyph glyph-name="dollar.numerator" horiz-adv-x="298" 
d="M114 533h63v-28q47 -5 87 -27l-24 -49q-46 21 -88 21q-36 0 -49 -7q-10 -6 -10 -17q0 -17 31 -23l53 -9q56 -9 81 -39q15 -18 15 -46q0 -38 -25 -60q-24 -22 -71 -28v-30h-63v29q-44 4 -89 29l25 50q51 -24 94 -24q42 0 56 13q10 7 10 20t-9.5 18.5t-32.5 8.5l-58 9
q-39 5 -60 26q-20 22 -20 53q0 35 23 56q24 21 61 25v29z" />
    <glyph glyph-name="hyphen.numerator" horiz-adv-x="184" 
d="M15 407h154v-58h-154v58z" />
    <glyph glyph-name="comma.numerator" horiz-adv-x="120" 
d="M15 256q0 20 12.5 33t32.5 13q19 0 32 -13t13 -33q0 -11 -3 -20l-29 -79l-36 7l7 52q-29 11 -29 40z" />
    <glyph glyph-name="period.numerator" horiz-adv-x="120" 
d="M15 256q0 20 12.5 33t31.5 13q20 0 33 -13t13 -33q0 -19 -13 -31.5t-33 -12.5q-19 0 -31.5 12.5t-12.5 31.5z" />
    <glyph glyph-name="centsuperior" horiz-adv-x="312" 
d="M140 292v30q-53 7 -84 47q-31 38 -31 92q0 62 41 101q32 32 74 39v30h61v-28q50 -11 86 -50l-39 -39q-32 32 -77 32q-39 0 -63 -26q-20 -23 -20 -59q0 -31 24 -57t59 -26q46 0 77 32l39 -40q-38 -39 -86 -49v-29h-61z" />
    <glyph glyph-name="hyphensuperior" horiz-adv-x="184" 
d="M15 506h154v-58h-154v58z" />
    <glyph glyph-name="commasuperior" horiz-adv-x="120" 
d="M15 355q0 20 12.5 33t32.5 13q19 0 32 -13t13 -33q0 -11 -3 -20l-29 -79l-36 7l7 52q-29 11 -29 40z" />
    <glyph glyph-name="periodsuperior" horiz-adv-x="120" 
d="M15 355q0 20 12.5 33t31.5 13q20 0 33 -13t13 -33q0 -19 -13 -31.5t-33 -12.5q-19 0 -31.5 12.5t-12.5 31.5z" />
    <glyph glyph-name="dollarsuperior" horiz-adv-x="298" 
d="M114 632h63v-28q47 -5 87 -27l-24 -49q-46 21 -88 21q-36 0 -49 -7q-10 -6 -10 -17q0 -17 31 -23l53 -9q56 -9 81 -39q15 -18 15 -46q0 -38 -25 -60q-24 -22 -71 -28v-30h-63v29q-44 4 -89 29l25 50q51 -24 94 -24q42 0 56 13q10 7 10 20t-9.5 18.5t-32.5 8.5l-58 9
q-39 5 -60 26q-20 22 -20 53q0 35 23 56q24 21 61 25v29z" />
    <glyph glyph-name="hypheninferior" horiz-adv-x="184" 
d="M15 133h154v-58h-154v58z" />
    <glyph glyph-name="commainferior" horiz-adv-x="120" 
d="M15 -15q0 20 12.5 33t32.5 13q19 0 32 -13t13 -33q0 -11 -3 -20l-29 -79l-36 7l7 52q-29 11 -29 40z" />
    <glyph glyph-name="periodinferior" horiz-adv-x="120" 
d="M15 -15q0 20 12.5 33t31.5 13q20 0 33 -13t13 -33q0 -19 -13 -31.5t-33 -12.5q-19 0 -31.5 12.5t-12.5 31.5z" />
    <glyph glyph-name="centinferior" horiz-adv-x="312" 
d="M140 -88v30q-53 7 -84 47q-31 38 -31 92q0 62 41 101q32 32 74 39v30h61v-28q50 -11 86 -50l-39 -39q-32 32 -77 32q-39 0 -63 -26q-20 -23 -20 -59q0 -31 24 -57t59 -26q46 0 77 32l39 -40q-38 -39 -86 -49v-29h-61z" />
    <glyph glyph-name="dollarinferior" horiz-adv-x="298" 
d="M114 252h63v-28q47 -5 87 -27l-24 -49q-46 21 -88 21q-36 0 -49 -7q-10 -6 -10 -17q0 -17 31 -23l53 -9q56 -9 81 -39q15 -18 15 -46q0 -38 -25 -60q-24 -22 -71 -28v-30h-63v29q-44 4 -89 29l25 50q51 -24 94 -24q42 0 56 13q10 7 10 20t-9.5 18.5t-32.5 8.5l-58 9
q-39 5 -60 26q-20 22 -20 53q0 35 23 56q24 21 61 25v29z" />
    <glyph glyph-name="ampersandsmall" horiz-adv-x="512" 
d="M430 405l-83 -42q-12 22 -28 37q-23 17 -56 17q-28 0 -42 -14q-14 -12 -14 -32t17 -37l155 -154q7 14 10 37l91 -17q-6 -57 -29 -94l46 -47l-74 -67l-40 38q-61 -39 -131 -39q-99 0 -158 48t-59 132q0 55 28 98q18 29 48 51q-10 21 -10 50q0 52 37 91q42 48 125 48
q58 0 100 -24q43 -25 67 -80zM253 86q30 0 62 15l-148 147q-12 -12 -19 -29q-7 -19 -7 -35q0 -42 24 -67q28 -31 88 -31z" />
    <glyph glyph-name="Imacron" horiz-adv-x="205" 
d="M155 600v-600h-105v600h105zM-61 731h329v-81h-329v81z" />
    <glyph glyph-name="ibreve" horiz-adv-x="208" 
d="M50 500h108v-500h-108v500zM104 545q-52 0 -91 29q-37 28 -52 68l75 35q9 -19 21 -31q18 -18 48 -18t48 18q12 12 21 31l75 -35q-15 -41 -50 -67q-39 -30 -95 -30z" />
    <glyph glyph-name="afii10024.alt" horiz-adv-x="919" 
d="M404 368v232h107v-232h95l150 232h128l-184 -275l199 -325h-126l-165 272h-97v-272h-107v272h-94l-166 -272h-125l198 325l-183 275h127l151 -232h92z" />
    <glyph glyph-name="afii10028.alt" horiz-adv-x="605" 
d="M50 600h107v-232h124l164 232h125l-197 -275l212 -325h-123l-179 273h-126v-273h-107v600z" />
    <glyph glyph-name="afii10037.alt" horiz-adv-x="672" 
d="M525 600h122l-316 -600h-114l70 140l-264 460h127l193 -356h6z" />
    <glyph glyph-name="afii10061.alt" horiz-adv-x="605" 
d="M50 600h107v-232h124l164 232h125l-197 -275l212 -325h-123l-179 273h-126v-273h-107v600zM242 674l81 185l85 -42l-96 -177z" />
    <glyph glyph-name="afii10062.alt" horiz-adv-x="672" 
d="M525 600h122l-316 -600h-114l70 140l-264 460h127l193 -356h6zM424 779l73 -35q-15 -42 -54 -71q-42 -31 -96 -31t-94 31q-39 29 -54 71l73 35q11 -23 26 -37q20 -19 50 -19q29 0 49 17q17 14 27 39z" />
    <glyph glyph-name="afii10072.alt" horiz-adv-x="815" 
d="M354 312v188h107v-188h71l126 188h125l-162 -234l174 -266h-127l-133 216h-74v-216h-107v216h-74l-133 -216h-127l174 266l-162 234h125l126 -188h71z" />
    <glyph glyph-name="afii10076.alt" horiz-adv-x="539" 
d="M50 500h107v-190h86l137 190h126l-172 -234l184 -266h-129l-143 214h-89v-214h-107v500z" />
    <glyph glyph-name="afii10085.alt" horiz-adv-x="581" 
d="M438 500h118l-263 -500h-112l59 115l-215 385h124l147 -282h4z" />
    <glyph glyph-name="afii10109.alt" horiz-adv-x="539" 
d="M50 500h107v-190h86l137 190h126l-172 -234l184 -266h-129l-143 214h-89v-214h-107v500zM213 581l68 169l90 -45l-87 -157z" />
    <glyph glyph-name="afii10110.alt" horiz-adv-x="581" 
d="M438 500h118l-263 -500h-112l59 115l-215 385h124l147 -282h4zM297 545q-52 0 -91 29q-37 28 -52 68l75 35q9 -19 21 -31q18 -18 48 -18t48 18q12 12 21 31l75 -35q-15 -41 -50 -67q-39 -30 -95 -30z" />
    </font>
</defs>
</svg>
