<?xml version="1.0" standalone="no"?>
<!DOCTYPE svg PUBLIC "-//W3C//DTD SVG 1.1//EN" "http://www.w3.org/Graphics/SVG/1.1/DTD/svg11.dtd" >
<svg xmlns="http://www.w3.org/2000/svg" xmlns:xlink="http://www.w3.org/1999/xlink" version="1.1">
<metadata>
Created by FontForge 20141024 at Sun Jun 21 17:54:38 2015
 By System Administrator
Copyright (c) 2012 by Glenjan. All rights reserved.
</metadata>
<defs>
<font id="Room" horiz-adv-x="620" >
  <font-face 
    font-family="Room"
    font-weight="400"
    font-stretch="normal"
    units-per-em="1000"
    panose-1="2 0 5 6 0 0 0 2 0 4"
    ascent="822"
    descent="-178"
    x-height="500"
    cap-height="600"
    bbox="-80 -224 1045 833"
    underline-thickness="50"
    underline-position="-50"
    unicode-range="U+0020-2265"
  />
<missing-glyph horiz-adv-x="300" 
 />
    <glyph glyph-name=".notdef" horiz-adv-x="300" 
 />
    <glyph glyph-name=".null" horiz-adv-x="0" 
 />
    <glyph glyph-name="nonmarkingreturn" horiz-adv-x="333" 
 />
    <glyph glyph-name="space" unicode=" " horiz-adv-x="300" 
 />
    <glyph glyph-name="space" unicode="&#xa0;" horiz-adv-x="300" 
 />
    <glyph glyph-name="exclam" unicode="!" horiz-adv-x="184" 
d="M55 646h73v-144l-4 -352h-64l-5 352v144zM37 49q0 24 15 39.5t40 15.5t40 -15.5t15 -39.5t-15 -39.5t-40 -15.5t-40 15.5t-15 39.5z" />
    <glyph glyph-name="quotedbl" unicode="&#x22;" horiz-adv-x="249" 
d="M49 440l-12 160h76l-13 -160h-51zM149 440l-12 160h76l-13 -160h-51z" />
    <glyph glyph-name="numbersign" unicode="#" horiz-adv-x="428" 
d="M112 103l7 88h-82v52h88l6 59h-93v53h97l10 91l50 -3l-8 -88h65l8 91l52 -3l-9 -88h88v-53h-93l-6 -59h99v-52h-104l-9 -91l-50 3l7 88h-63l-10 -91zM182 302l-6 -59h64l6 59h-64z" />
    <glyph glyph-name="dollar" unicode="$" horiz-adv-x="505" 
d="M37 375q0 61 51 96q39 29 116 36v59h79v-59q79 -4 166 -41l-27 -62q-87 35 -169 35q-79 0 -111 -22q-25 -16 -25 -44q0 -24 20 -38q17 -13 61 -21l106 -18q93 -16 131 -52q40 -40 40 -95q0 -70 -54 -112q-47 -38 -138 -44v-59h-79v58q-93 6 -173 43l25 65
q101 -37 178 -37q98 0 134 27q26 20 26 56q0 32 -24 48q-17 12 -76 25l-118 21q-81 14 -114 55q-25 29 -25 80z" />
    <glyph glyph-name="uni0025" unicode="%" horiz-adv-x="647" 
d="M159 508q58 0 99 -41q40 -40 40 -98t-40 -98q-41 -41 -99 -41t-99 41q-40 40 -40 98t40 98q41 41 99 41zM134 18l337 493l52 -33l-340 -492zM159 286q35 0 59 24t24 59t-24 59t-59 24t-59 -24t-24 -59t24 -59t59 -24zM498 269q58 0 99 -41q40 -40 40 -98t-40 -98
q-41 -41 -99 -41t-99 41q-40 40 -40 98t40 98q41 41 99 41zM498 47q35 0 59 24t24 59t-24 59t-59 24t-59 -24t-24 -59t24 -59t59 -24z" />
    <glyph glyph-name="ampersand" unicode="&#x26;" horiz-adv-x="582" 
d="M445 520l-59 -34q-35 59 -99 59q-48 0 -72 -26q-23 -21 -23 -60q0 -42 30 -72l224 -233q19 24 27 68l66 -18q-14 -65 -44 -104l57 -60l-52 -47l-53 56q-72 -60 -180 -60q-96 0 -160 51q-77 57 -77 158q0 66 30 115q22 36 72 72q-19 29 -19 73q0 67 48 109q51 44 126 44
q113 0 158 -91zM269 57q73 0 129 43l-225 235q-31 -21 -48 -56q-16 -31 -16 -80q0 -60 45 -100q45 -42 115 -42z" />
    <glyph glyph-name="quotesingle" unicode="'" horiz-adv-x="151" 
d="M49 440l-12 160h77l-12 -160h-53z" />
    <glyph glyph-name="parenleft" unicode="(" horiz-adv-x="192" 
d="M127 620l57 -32q-37 -56 -58 -145t-21 -171q0 -81 20.5 -165t58.5 -139l-57 -32q-95 142 -95 336q0 209 95 348z" />
    <glyph glyph-name="parenright" unicode=")" horiz-adv-x="192" 
d="M65 -64l-57 32q37 56 58.5 145.5t21.5 170.5q0 80 -21.5 164t-58.5 141l57 31q95 -142 95 -336q0 -209 -95 -348z" />
    <glyph glyph-name="asterisk" unicode="*" horiz-adv-x="260" 
d="M159 596l-7 -74l65 29l16 -1l13 -46l-12 -7l-66 -14l42 -54l4 -16l-32 -25l-14 4l-38 63l-38 -62l-15 -5l-33 25l1 16l48 54l-71 16l-9 9l13 44l15 1l67 -30l-5 73l6 14h44z" />
    <glyph glyph-name="plus" unicode="+" horiz-adv-x="330" 
d="M20 304h113v114h62v-114h115v-62h-115v-114h-62v114h-113v62z" />
    <glyph glyph-name="comma" unicode="," horiz-adv-x="182" 
d="M35 50q0 24 15 39.5t41 15.5t41 -15.5t15 -39.5q0 -14 -5 -27l-45 -109l-43 10l12 75q-31 15 -31 51z" />
    <glyph glyph-name="hyphen" unicode="-" horiz-adv-x="339" 
d="M23 294h293v-62h-293v62z" />
    <glyph glyph-name="period" unicode="." horiz-adv-x="182" 
d="M35 50q0 24 15 39.5t41 15.5t41 -15.5t15 -39.5q0 -25 -15 -40.5t-41 -15.5t-41 15.5t-15 40.5z" />
    <glyph glyph-name="slash" unicode="/" horiz-adv-x="276" 
d="M-3 -13l242 645l62 -23l-243 -644z" />
    <glyph glyph-name="zero" unicode="0" horiz-adv-x="670" 
d="M335 59q90 0 158 68q67 67 67 173q0 105 -63 171q-64 72 -162 72t-162 -72q-63 -66 -63 -171q0 -106 67 -173q68 -68 158 -68zM335 -11q-125 0 -209 81q-96 90 -96 230q0 129 85 219q89 92 220 92t220 -92q85 -90 85 -219q0 -139 -96 -229q-85 -82 -209 -82z" />
    <glyph glyph-name="one" unicode="1" horiz-adv-x="259" 
d="M48 477l-26 54l144 69h43v-600h-76v512z" />
    <glyph glyph-name="two" unicode="2" horiz-adv-x="530" 
d="M44 0v65l269 204q54 41 80 77q26 35 26 81q0 55 -46 88q-45 30 -112 30q-56 0 -96.5 -17.5t-83.5 -59.5l-46 48q91 95 226 95q105 0 168 -51q66 -51 66 -137q0 -65 -41 -118q-37 -49 -100 -95l-191 -144h327v-66h-446z" />
    <glyph glyph-name="three" unicode="3" horiz-adv-x="543" 
d="M258 55q95 0 145 48q35 35 35 88q0 47 -27 74q-30 34 -106 34h-167v64h161q55 0 80 33q19 19 19 58q0 47 -39 71q-34 22 -109 22q-48 0 -83.5 -13t-76.5 -46l-40 46q82 77 207 77q95 0 153 -42q60 -45 60 -115q0 -39 -15 -66q-12 -23 -40 -44v-5q47 -18 72 -55
q26 -41 26 -93q0 -85 -61 -140q-72 -62 -194 -62q-84 0 -136.5 23t-96.5 72l44 49q51 -44 90 -61t99 -17z" />
    <glyph glyph-name="four" unicode="4" horiz-adv-x="563" 
d="M25 93v56l381 451h65v-440h63v-62l-63 -5v-93h-78v93h-368zM393 160v321l-269 -321h269z" />
    <glyph glyph-name="five" unicode="5" horiz-adv-x="535" 
d="M250 55q96 0 145 52q36 39 36 96q0 58 -38 96q-46 46 -126 46q-88 0 -154 -33h-55v288h400v-67h-330v-152q59 29 137 29q105 0 173 -59q67 -57 67 -148q0 -77 -43 -130q-67 -84 -212 -84q-144 0 -225 89l46 51q44 -40 81.5 -57t97.5 -17z" />
    <glyph glyph-name="six" unicode="6" horiz-adv-x="560" 
d="M286 407q114 0 181 -56q63 -53 63 -147q0 -89 -63 -149q-69 -66 -182 -66q-110 0 -176 71q-79 82 -79 237q0 157 84 242q70 72 180 72q112 0 197 -64l-39 -53q-43 29 -77 39.5t-80 10.5q-76 0 -123 -41q-46 -43 -60 -135q68 39 174 39zM285 55q82 0 128 45q42 37 42 104
q0 64 -40 98q-47 39 -129 39q-100 0 -179 -40v-7q0 -128 56 -189q44 -50 122 -50z" />
    <glyph glyph-name="seven" unicode="7" horiz-adv-x="507" 
d="M40 534v66h452v-54l-280 -546h-83l275 534h-364z" />
    <glyph glyph-name="eight" unicode="8" horiz-adv-x="581" 
d="M289 -11q-124 0 -195 56q-64 50 -64 137q0 62 41 109q27 30 68 50q-26 18 -42 45q-17 31 -17 68q0 73 60 116q55 41 152 41q101 0 157 -48q48 -40 48 -106q0 -38 -19 -69q-16 -26 -42 -39q53 -22 82 -60q33 -43 33 -102q0 -87 -64 -140q-74 -58 -198 -58zM289 546
q-68 0 -103 -27q-31 -24 -31 -68q0 -35 26 -53q31 -24 108 -24q43 0 71 -4q29 9 47 32q14 22 14 55q0 43 -34 65q-38 24 -98 24zM289 306q-42 0 -80 5q-47 -14 -77 -48q-25 -26 -25 -76q0 -61 45 -93q55 -38 137 -38q93 0 145 44q40 35 40 87q0 55 -39 85q-45 34 -146 34z
" />
    <glyph glyph-name="nine" unicode="9" horiz-adv-x="560" 
d="M273 193q-115 0 -180 56q-63 53 -63 147q0 90 62 149q69 66 182 66q111 0 177 -71q79 -82 79 -237q0 -156 -86 -242q-70 -72 -182 -72q-116 0 -199 62l37 54q74 -49 161 -49q83 0 127 44q42 41 60 132q-70 -39 -175 -39zM274 545q-81 0 -127 -45q-42 -38 -42 -104
q0 -64 40 -98q45 -39 128 -39q101 0 180 40v7q0 128 -56 189q-45 50 -123 50z" />
    <glyph glyph-name="colon" unicode=":" horiz-adv-x="170" 
d="M35 50q0 24 15 39.5t41 15.5t41 -15.5t15 -39.5q0 -25 -15 -40.5t-41 -15.5t-41 15.5t-15 40.5zM35 336q0 24 15 39.5t41 15.5t41 -15.5t15 -39.5q0 -25 -15 -40.5t-41 -15.5t-41 15.5t-15 40.5z" />
    <glyph glyph-name="semicolon" unicode=";" horiz-adv-x="170" 
d="M35 50q0 24 15 39.5t41 15.5t41 -15.5t15 -39.5q0 -14 -5 -27l-45 -109l-43 10l12 75q-31 15 -31 51zM35 336q0 24 15 39.5t41 15.5t41 -15.5t15 -39.5q0 -25 -15 -40.5t-41 -15.5t-41 15.5t-15 40.5z" />
    <glyph glyph-name="less" unicode="&#x3c;" horiz-adv-x="290" 
d="M231 415l29 -43l-154 -115l154 -115l-29 -43l-211 141v34z" />
    <glyph glyph-name="equal" unicode="=" horiz-adv-x="335" 
d="M23 228h288v-61h-288v61zM23 356h288v-61h-288v61z" />
    <glyph glyph-name="greater" unicode="&#x3e;" horiz-adv-x="290" 
d="M56 99l-29 43l153 115l-153 115l29 43l210 -141v-34z" />
    <glyph glyph-name="question" unicode="?" horiz-adv-x="501" 
d="M251 178v-34h-66v43q0 45 22 73q19 25 68 49l43 19q46 22 60 40q22 25 22 62q0 52 -38 82q-42 33 -118 33q-110 0 -186 -83l-48 43q85 106 233 106q107 0 167 -48q64 -54 64 -129q0 -59 -31 -96q-28 -37 -88 -64l-55 -25q-26 -11 -36 -27q-13 -20 -13 -44zM163 49
q0 24 15.5 39.5t39.5 15.5q25 0 40 -15.5t15 -39.5t-15.5 -39.5t-39.5 -15.5t-39.5 16t-15.5 39z" />
    <glyph glyph-name="at" unicode="@" horiz-adv-x="674" 
d="M519 89q-48 0 -77 35q-57 -41 -112 -41q-69 0 -116 44q-51 46 -51 122q0 64 44 110q52 52 122 52q61 0 101 -29l17 22l41 -7v-200q0 -19 6 -32q11 -17 27 -17q21 0 35 15q21 23 21 88q0 96 -52 159q-66 77 -189 77q-109 0 -178 -69q-64 -64 -64 -167q0 -99 59 -163
q69 -75 183 -75q84 0 171 35l21 -53q-91 -44 -192 -44q-147 0 -232 87q-79 81 -79 213q0 123 82 208q89 89 229 89q150 0 235 -97q73 -83 73 -200q0 -87 -49 -135q-29 -27 -76 -27zM333 144q48 0 88 33q-2 6 -2 32v116q-41 25 -87 25q-43 0 -71 -25q-31 -31 -31 -76
q0 -44 27 -73q32 -32 76 -32z" />
    <glyph glyph-name="A" unicode="A" horiz-adv-x="684" 
d="M291 600h101l267 -600h-88l-52 115h-357l-51 -115h-86zM331 522l-139 -334h297l-140 334h-18z" />
    <glyph glyph-name="B" unicode="B" horiz-adv-x="606" 
d="M372 0h-322v600h309q85 0 132 -51q39 -39 39 -100q0 -39 -16 -67q-17 -30 -46 -47v-5q42 -16 70 -57q28 -40 28 -94q0 -76 -53 -126q-55 -53 -141 -53zM486 180q0 42 -23 71q-32 37 -93 37h-239v-219h234q57 0 93 36q28 31 28 75zM450 443q0 39 -25 62q-27 25 -80 25
h-214v-173h230q47 0 67 27q22 25 22 59z" />
    <glyph glyph-name="C" unicode="C" horiz-adv-x="610" 
d="M111 302q0 -103 65 -170q69 -71 171 -71q99 0 185 74l48 -54q-93 -92 -233 -92q-134 0 -226 90q-91 86 -91 223q0 130 89 219q90 90 228 90q73 0 128 -22t105 -68l-50 -54q-82 72 -183 72q-100 0 -167 -67q-69 -69 -69 -170z" />
    <glyph glyph-name="D" unicode="D" horiz-adv-x="636" 
d="M50 600h247q136 0 225 -91q79 -82 79 -209q0 -135 -89 -219q-84 -81 -215 -81h-247v600zM293 526h-162v-453h162q102 0 164 62t62 165q0 102 -60 163q-63 63 -166 63z" />
    <glyph glyph-name="E" unicode="E" horiz-adv-x="563" 
d="M50 0v600h458v-74h-376v-173h336v-73h-336v-207h391v-73h-473z" />
    <glyph glyph-name="F" unicode="F" horiz-adv-x="527" 
d="M50 600h447v-74h-365v-189h324v-73h-324v-264h-82v600z" />
    <glyph glyph-name="G" unicode="G" horiz-adv-x="643" 
d="M593 340v-335l-48 -9l-15 47q-79 -54 -178 -54q-137 0 -226 87q-91 89 -91 226q0 134 91 220q91 89 228 89q139 0 237 -89l-50 -52q-77 68 -187 68q-103 0 -172 -71q-64 -64 -64 -165q0 -106 69 -175q68 -65 165 -65q90 0 161 50v156l-161 7v65h241z" />
    <glyph glyph-name="H" unicode="H" horiz-adv-x="624" 
d="M494 600h80v-600h-80v288h-363v-288h-81v600h81v-241h363v241z" />
    <glyph glyph-name="I" unicode="I" horiz-adv-x="180" 
d="M130 600v-600h-80v600h80z" />
    <glyph glyph-name="J" unicode="J" horiz-adv-x="523" 
d="M396 600h82v-337q0 -134 -67 -204q-68 -70 -197 -70q-118 0 -199 81l43 55q70 -61 153 -61q90 0 137 46q48 45 48 135v355z" />
    <glyph glyph-name="K" unicode="K" horiz-adv-x="600" 
d="M50 600h82v-243h150l183 243h94l-206 -274l227 -326h-96l-197 286h-155v-286h-82v600z" />
    <glyph glyph-name="L" unicode="L" horiz-adv-x="541" 
d="M516 71v-71h-466v600h81v-529h385z" />
    <glyph glyph-name="M" unicode="M" horiz-adv-x="751" 
d="M50 600h98l230 -322l226 322h97v-600h-81v491h-6l-228 -323h-25l-229 323h-6v-491h-76v600z" />
    <glyph glyph-name="N" unicode="N" horiz-adv-x="657" 
d="M529 600h78v-600h-80l-397 481v-481h-80v600h81l398 -481v481z" />
    <glyph glyph-name="O" unicode="O" horiz-adv-x="694" 
d="M347 611q138 0 227 -89t89 -222q0 -131 -86 -217q-89 -94 -230 -94q-143 0 -235 99q-82 90 -82 212q0 126 84 215q90 96 233 96zM111 300q0 -97 63 -166q68 -74 173 -74q104 0 171 73q63 69 63 167q0 101 -64 168q-69 72 -170 72q-103 0 -173 -73q-63 -69 -63 -167z" />
    <glyph glyph-name="P" unicode="P" horiz-adv-x="591" 
d="M561 384q0 -87 -64 -151q-65 -62 -168 -62h-196v-171h-83v600h279q119 0 183 -79q49 -57 49 -137zM133 243h202q71 0 109 45q35 45 35 96q0 58 -35 96q-41 47 -118 47h-193v-284z" />
    <glyph glyph-name="Q" unicode="Q" horiz-adv-x="694" 
d="M112 300q0 -94 56 -158q67 -79 179 -79q122 0 186 88q48 62 48 149q0 96 -58 160q-68 78 -176 78q-110 0 -179 -79q-56 -64 -56 -159zM738 -67l4 -57q-24 -6 -45 -6q-71 0 -155 54q-15 9 -53 35.5t-62 39.5q-39 -9 -80 -9q-133 0 -225 89t-92 221q0 129 85 216
q90 95 232 95q140 0 231 -94q86 -86 86 -217q0 -106 -61 -187q-33 -45 -92 -81q9 -5 48 -29t62 -35q55 -28 117 -35z" />
    <glyph glyph-name="R" unicode="R" horiz-adv-x="597" 
d="M567 384q0 -72 -41 -125q-36 -49 -98 -73l114 -186h-91l-101 171h-218v-171h-82v600h285q101 0 169 -63q63 -63 63 -153zM132 527v-284h205q71 0 111 42q37 42 37 99q0 56 -34 96q-42 47 -120 47h-199z" />
    <glyph glyph-name="S" unicode="S" horiz-adv-x="579" 
d="M37 445q0 76 69 121q67 45 178 45q125 0 233 -52l-29 -64q-96 44 -198 44q-87 0 -134 -30q-38 -24 -38 -64q0 -35 28 -53q21 -16 74 -25l129 -23q105 -22 144 -52q56 -40 56 -121q0 -84 -67 -132q-70 -50 -215 -50q-131 0 -237 49l23 66q109 -41 213 -41q122 0 168 36
q33 25 33 69q0 41 -24 62q-27 23 -104 37l-140 24q-83 14 -124 52q-38 36 -38 102z" />
    <glyph glyph-name="T" unicode="T" horiz-adv-x="604" 
d="M25 529v71h554v-71h-237v-529h-80v529h-237z" />
    <glyph glyph-name="U" unicode="U" 
d="M570 600v-350q0 -117 -79 -191q-72 -70 -180 -70q-114 0 -186 74q-75 77 -75 187v350h82v-357q0 -77 51 -128q50 -53 128 -53q75 0 128 53q49 49 49 128v357h82z" />
    <glyph glyph-name="V" unicode="V" horiz-adv-x="662" 
d="M386 0h-112l-249 600h88l213 -527h12l213 527h85z" />
    <glyph glyph-name="W" unicode="W" horiz-adv-x="955" 
d="M333 0h-116l-192 600h90l157 -526h8l139 526h115l145 -526h8l155 526h88l-191 -600h-118l-143 512h-8z" />
    <glyph glyph-name="X" unicode="X" horiz-adv-x="635" 
d="M139 600l177 -243l170 243h95l-210 -288l234 -312h-100l-191 264l-191 -264h-94l228 311l-217 289h99z" />
    <glyph glyph-name="Y" unicode="Y" horiz-adv-x="649" 
d="M365 0h-80v138l-261 462h94l204 -375h7l206 375h89l-259 -460v-140z" />
    <glyph glyph-name="Z" unicode="Z" horiz-adv-x="599" 
d="M559 74v-74h-519v56l406 476l-168 -3h-216v71h490v-58l-400 -472l160 4h247z" />
    <glyph glyph-name="bracketleft" unicode="[" horiz-adv-x="204" 
d="M122 576v-593h70v-67h-142v726h142v-66h-70z" />
    <glyph glyph-name="backslash" unicode="\" horiz-adv-x="276" 
d="M59 574l220 -587l-61 -22l-221 586z" />
    <glyph glyph-name="bracketright" unicode="]" horiz-adv-x="204" 
d="M82 -17v593h-70v66h142v-726h-142v67h70z" />
    <glyph glyph-name="asciicircum" unicode="^" horiz-adv-x="344" 
d="M324 442l-39 -34l-113 117l-111 -117l-41 35l137 162h32z" />
    <glyph glyph-name="underscore" unicode="_" horiz-adv-x="327" 
d="M0 -50h327v-60h-327v60z" />
    <glyph glyph-name="grave" unicode="`" horiz-adv-x="230" 
d="M119 727l61 -153l-51 -24l-79 142z" />
    <glyph glyph-name="a" unicode="a" horiz-adv-x="588" 
d="M247 500h93l223 -500h-88l-41 94h-284l-41 -94h-84zM286 417l-106 -252h223l-105 252h-12z" />
    <glyph glyph-name="b" unicode="b" horiz-adv-x="523" 
d="M318 0h-268v500h258q74 0 115 -44q32 -34 32 -86q0 -33 -14 -56q-10 -18 -33 -35v-4q32 -13 52 -45q23 -32 23 -79q0 -64 -45 -107q-46 -44 -120 -44zM405 151q0 33 -18 54q-23 27 -63 27h-194v-164h190q41 0 63 25q22 22 22 58zM376 366q0 29 -19 46q-19 19 -54 19h-173
v-130h185q27 0 45 20q16 19 16 45z" />
    <glyph glyph-name="c" unicode="c" horiz-adv-x="535" 
d="M116 251q0 -82 50 -134q54 -54 135 -54q86 0 151 59l48 -53q-84 -78 -199 -78q-114 0 -189 75q-77 75 -77 185q0 107 76 183q75 75 190 75q117 0 199 -78l-48 -53q-63 59 -151 59q-81 0 -133 -51q-52 -52 -52 -135z" />
    <glyph glyph-name="d" unicode="d" horiz-adv-x="547" 
d="M50 500h199q121 0 193 -72q70 -70 70 -178q0 -109 -70 -179q-71 -71 -193 -71h-199v500zM245 429h-115v-359h115q94 0 142 54q45 48 45 126q0 81 -47 128q-49 51 -140 51z" />
    <glyph glyph-name="e" unicode="e" horiz-adv-x="489" 
d="M50 0v500h389v-71h-309v-133h276v-70h-276v-156h319v-70h-399z" />
    <glyph glyph-name="f" unicode="f" horiz-adv-x="458" 
d="M50 500h378v-71h-298v-143h265v-71h-265v-215h-80v500z" />
    <glyph glyph-name="g" unicode="g" horiz-adv-x="554" 
d="M503 287v-279l-46 -10l-16 36q-60 -43 -142 -43q-114 0 -187 73q-77 75 -77 187q0 108 74 182q76 76 193 76q118 0 199 -80l-49 -50q-66 59 -150 59q-81 0 -133 -52q-53 -53 -53 -135q0 -88 56 -139q52 -50 128 -50q69 0 124 38v119l-130 5v63h209z" />
    <glyph glyph-name="h" unicode="h" horiz-adv-x="543" 
d="M413 500h80v-500h-80v231h-283v-231h-80v500h80v-198h283v198z" />
    <glyph glyph-name="i" unicode="i" horiz-adv-x="181" 
d="M50 500h81v-500h-81v500z" />
    <glyph glyph-name="j" unicode="j" horiz-adv-x="453" 
d="M327 500h81v-280q0 -110 -60 -170q-62 -59 -163 -59q-103 0 -170 73l48 56q58 -57 120 -57q72 0 107 38q37 38 37 108v291z" />
    <glyph glyph-name="k" unicode="k" horiz-adv-x="524" 
d="M50 500h80v-199h114l149 199h94l-176 -231l192 -269h-95l-163 231h-115v-231h-80v500z" />
    <glyph glyph-name="l" unicode="l" horiz-adv-x="473" 
d="M131 70h317v-70h-398v500h81v-430z" />
    <glyph glyph-name="m" unicode="m" horiz-adv-x="645" 
d="M50 500h90l183 -261l182 261h90v-500h-80v386h-4l-175 -252h-29l-177 252h-4v-386h-76v500z" />
    <glyph glyph-name="n" unicode="n" horiz-adv-x="569" 
d="M442 500h77v-500h-76l-315 380v-380h-78v500h77l315 -379v379z" />
    <glyph glyph-name="o" unicode="o" horiz-adv-x="590" 
d="M295 509q116 0 192 -78q72 -75 72 -181q0 -113 -76 -186t-188 -73q-115 0 -190 75t-75 184q0 114 80 188q76 71 185 71zM110 250q0 -83 52 -135q53 -53 133 -53q78 0 130 50q54 51 54 138t-55 139q-50 49 -129 49q-82 0 -133 -54q-52 -52 -52 -134z" />
    <glyph glyph-name="p" unicode="p" horiz-adv-x="509" 
d="M479 319q0 -72 -48 -122q-56 -58 -143 -58h-158v-139h-80v500h238q86 0 141 -57q50 -50 50 -124zM130 209h164q46 0 77 33q28 33 28 77q0 43 -26 75q-31 36 -87 36h-156v-221z" />
    <glyph glyph-name="q" unicode="q" horiz-adv-x="590" 
d="M111 250q0 -75 43 -126q53 -63 140 -63q91 0 148 70q37 50 37 119q0 77 -45 128q-52 61 -140 61q-87 0 -140 -63q-43 -51 -43 -126zM619 -47l5 -56q-26 -7 -44 -7q-58 0 -130 45q-12 8 -42.5 30t-48.5 33q-37 -7 -65 -7q-112 0 -188 75q-76 74 -76 184q0 106 71 180
q76 79 193 79t193 -78q73 -73 73 -181q0 -88 -52 -156q-27 -38 -69 -63q16 -10 44.5 -30t41.5 -26q44 -20 94 -22z" />
    <glyph glyph-name="r" unicode="r" horiz-adv-x="514" 
d="M484 319q0 -58 -33 -104q-32 -41 -77 -60l96 -155h-89l-83 139h-168v-139h-80v500h243q87 0 142 -57q49 -51 49 -124zM130 430v-221h164q51 0 82 34q28 31 28 76q0 43 -28 76q-30 35 -86 35h-160z" />
    <glyph glyph-name="s" unicode="s" horiz-adv-x="505" 
d="M62 295q-25 29 -25 72q0 60 43 97q53 45 169 45q104 0 200 -43l-28 -63q-89 36 -168 36t-111 -22q-25 -17 -25 -43q0 -25 20 -39q17 -13 61 -21l106 -18q91 -17 130 -51q41 -39 41 -96q0 -70 -54 -112q-57 -46 -183 -46q-111 0 -207 44l26 66q96 -38 177 -38q98 0 134 27
q27 21 27 56q0 32 -24 48q-17 11 -77 25l-118 21q-81 14 -114 55z" />
    <glyph glyph-name="t" unicode="t" horiz-adv-x="517" 
d="M25 430v70h467v-70h-194v-430h-80v430h-193z" />
    <glyph glyph-name="u" unicode="u" horiz-adv-x="538" 
d="M488 500v-286q0 -103 -67 -165q-61 -58 -151 -58q-96 0 -158 62q-62 64 -62 161v286h80v-291q0 -64 39 -105q39 -42 101 -42q61 0 100 41q38 40 38 106v291h80z" />
    <glyph glyph-name="v" unicode="v" horiz-adv-x="569" 
d="M333 0h-99l-209 500h88l167 -420h11l167 420h86z" />
    <glyph glyph-name="w" unicode="w" horiz-adv-x="837" 
d="M300 0h-109l-161 500h87l127 -415h6l117 415h103l120 -415h6l126 415h85l-160 -500h-110l-118 404h-5z" />
    <glyph glyph-name="x" unicode="x" horiz-adv-x="542" 
d="M129 500l141 -194l135 194h94l-175 -240l193 -260h-97l-151 210l-151 -210h-93l188 258l-178 242h94z" />
    <glyph glyph-name="y" unicode="y" horiz-adv-x="559" 
d="M320 0h-80v115l-215 385h91l163 -299h4l163 299h88l-214 -384v-116z" />
    <glyph glyph-name="z" unicode="z" horiz-adv-x="516" 
d="M476 71v-71h-436v53l324 380l-124 -2h-183v69h415v-51l-322 -382l117 4h209z" />
    <glyph glyph-name="braceleft" unicode="{" horiz-adv-x="235" 
d="M231 576h-37q-22 0 -32 -10t-10 -33v-165q0 -65 -37 -87v-4q37 -22 37 -87v-165q0 -43 42 -43h37v-66h-36q-114 0 -114 111v172q0 47 -44 47h-21v67h21q44 0 44 46v172q0 111 114 111h36v-66z" />
    <glyph glyph-name="bar" unicode="|" horiz-adv-x="164" 
d="M50 650h64v-800h-64v800z" />
    <glyph glyph-name="braceright" unicode="}" horiz-adv-x="235" 
d="M4 -18h37q41 0 41 44v165q0 66 38 87v5q-38 23 -38 86v164q0 43 -41 43h-37v66h35q115 0 115 -111v-171q0 -47 43 -47h22v-67h-22q-43 0 -43 -46v-173q0 -111 -115 -111h-35v66z" />
    <glyph glyph-name="asciitilde" unicode="~" horiz-adv-x="385" 
d="M192 228q-39 14 -70 14q-38 0 -65 -23l-30 42q45 42 97 42q31 0 70 -14t69 -14q36 0 66 24l29 -43q-44 -41 -97 -41q-34 0 -69 13z" />
    <glyph glyph-name="exclamdown" unicode="&#xa1;" horiz-adv-x="176" 
d="M121 -41h-73v144l4 352h64l5 -352v-144zM139 556q0 -24 -15 -39.5t-40 -15.5t-40 15.5t-15 39.5t15 39.5t40 15.5t40 -15.5t15 -39.5z" />
    <glyph glyph-name="cent" unicode="&#xa2;" horiz-adv-x="535" 
d="M340 566v-59q87 -10 160 -76l-49 -53q-66 60 -150 60q-78 0 -133 -52q-52 -52 -52 -135q0 -82 50 -134q55 -55 135 -55t150 60l49 -53q-68 -64 -160 -76v-59h-79v60q-89 12 -149 72q-77 75 -77 185q0 107 76 183q60 60 150 72v60h79z" />
    <glyph glyph-name="currency" unicode="&#xa4;" horiz-adv-x="408" 
d="M203 95q-49 0 -84 23l-42 -41l-47 49l39 41q-24 38 -24 83q0 48 23 83l-38 42l47 46l42 -38q39 22 84 22t84 -22l42 38l49 -46l-41 -42q25 -40 25 -83q0 -45 -25 -83l40 -42l-48 -48l-42 41q-35 -23 -84 -23zM296 250q0 39 -23 65q-25 28 -70 28q-43 0 -68 -28
q-24 -24 -24 -65t23 -67q26 -27 69 -27q41 0 67 25q26 26 26 69z" />
    <glyph glyph-name="yen" unicode="&#xa5;" horiz-adv-x="566" 
d="M446 165h-324v57h74l-168 278h91l161 -275h7l165 275h86l-168 -278h76v-57zM122 131h324v-57h-122v-74h-81v74h-121v57z" />
    <glyph glyph-name="brokenbar" unicode="&#xa6;" horiz-adv-x="164" 
d="M50 650h64v-377h-64v377zM50 227h64v-377h-64v377z" />
    <glyph glyph-name="section" unicode="&#xa7;" horiz-adv-x="475" 
d="M387 576l-27 -55q-59 25 -123 25q-55 0 -82 -19q-20 -14 -20 -38q0 -28 25 -46q21 -14 66 -21l57 -9q81 -13 125 -57q37 -40 37 -97q0 -36 -20 -71q-18 -28 -50 -51q38 -32 38 -82q0 -57 -45 -91q-52 -40 -135 -40q-94 0 -174 43l27 55q71 -32 147 -32q57 0 82 18
q24 14 24 41q0 23 -14 39q-18 16 -59 24l-87 15q-72 12 -115 56q-34 39 -34 94q0 44 25 79q17 23 49 42q-43 35 -43 88q0 52 41 85q50 40 135 40q77 0 150 -35zM266 348l-64 9q-25 5 -45 10q-28 -15 -42 -34q-15 -23 -15 -49q0 -32 18 -51q21 -23 74 -35l82 -16
q22 -4 48 -13q22 12 36 33q14 23 14 53q0 41 -26 62q-25 22 -80 31z" />
    <glyph glyph-name="dieresis" unicode="&#xa8;" horiz-adv-x="391" 
d="M237 611q0 22 15 37t37 15t37 -15t15 -37t-15 -37t-37 -15t-37 15t-15 37zM50 611q0 22 15 37t37 15t37 -15t15 -37t-15 -37t-37 -15t-37 15t-15 37z" />
    <glyph glyph-name="copyright" unicode="&#xa9;" horiz-adv-x="583" 
d="M291 -9q-108 0 -184 76q-75 75 -75 183t75 183q76 76 184 76t184 -76q75 -75 75 -183t-75 -183q-76 -76 -184 -76zM147 251q0 59 48 104q45 40 103 40q53 0 100 -36l-30 -46q-36 25 -70 25q-36 0 -64 -24q-27 -24 -27 -63q0 -37 26 -63q26 -25 65 -25q38 0 73 25l28 -46
q-44 -36 -101 -36q-65 0 -109 42q-42 39 -42 103zM291 451q-85 0 -142 -59q-59 -59 -59 -142t59 -142q57 -59 142 -59t142 59q59 59 59 142t-59 142q-57 59 -142 59z" />
    <glyph glyph-name="ordfeminine" unicode="&#xaa;" horiz-adv-x="333" 
d="M246 586l19 19l25 -8v-176q0 -31 16 -61l-33 -21q-16 13 -24 29q-41 -29 -83 -29q-63 0 -101 34q-43 34 -43 102q0 63 41 99q40 37 99 37q48 0 84 -25zM238 412v130q-34 21 -76 21q-40 0 -65 -25q-24 -24 -24 -63t27 -64q26 -24 67 -24q37 0 71 25z" />
    <glyph glyph-name="guillemotleft" unicode="&#xab;" horiz-adv-x="355" 
d="M20 246v31l139 142l38 -31l-103 -126l103 -127l-38 -31zM286 104l-138 142v32l138 141l39 -31l-104 -126l104 -127z" />
    <glyph glyph-name="logicalnot" unicode="&#xac;" horiz-adv-x="331" 
d="M253 198l-7 94h-226v60h291v-154h-58z" />
    <glyph glyph-name="uni00AD" unicode="&#xad;" horiz-adv-x="327" 
d="M23 294h293v-62h-293v62z" />
    <glyph glyph-name="registered" unicode="&#xae;" horiz-adv-x="394" 
d="M196 266q-77 0 -126 49q-50 52 -50 127q0 82 54 130q50 47 122 47q82 0 134 -58q44 -49 44 -119q0 -73 -47 -120q-51 -56 -131 -56zM329 442q0 56 -35 93q-36 42 -98 42q-56 0 -91 -35q-41 -36 -41 -100q0 -57 35 -92q36 -41 97 -41q62 0 96 40q37 37 37 93zM244 416
l28 -58h-46l-21 49h-37v-49h-41v174h80q35 0 53 -21q15 -17 15 -42q0 -19 -9 -33q-8 -13 -22 -20zM168 493v-47h39q14 0 20 6q7 7 7 18q0 10 -7 17q-6 6 -20 6h-39z" />
    <glyph glyph-name="overscore" unicode="&#xaf;" horiz-adv-x="387" 
d="M50 624h287v-59h-287v59z" />
    <glyph glyph-name="degree" unicode="&#xb0;" horiz-adv-x="312" 
d="M71 473q0 -36 22 -61q27 -27 63 -27t63 27q22 25 22 61t-22 61q-27 27 -63 27t-63 -27q-22 -25 -22 -61zM295 473q0 -59 -40 -99q-41 -39 -99 -39t-99 39q-40 40 -40 99t40 99q41 39 99 39t99 -39q40 -40 40 -99z" />
    <glyph glyph-name="plusminus" unicode="&#xb1;" horiz-adv-x="330" 
d="M20 368h113v114h62v-114h115v-63h-115v-114h-62v114h-113v63zM20 159h290v-62h-290v62z" />
    <glyph glyph-name="twosuperior" unicode="&#xb2;" horiz-adv-x="278" 
d="M33 327v43l122 85q26 19 33 31q8 14 8 32q0 22 -16 32q-16 11 -44 11q-45 0 -81 -36l-32 34q48 51 113 51q54 0 83 -26q31 -24 31 -68q0 -33 -16 -56q-15 -23 -47 -44l-65 -42h128v-47h-217z" />
    <glyph glyph-name="threesuperior" unicode="&#xb3;" horiz-adv-x="299" 
d="M142 366q43 0 60 17q13 12 13 33q0 16 -11 27q-13 10 -38 10h-85v46h84q17 0 26 11q6 8 6 21q0 14 -12 23q-16 10 -44 10q-42 0 -76 -25l-27 34q46 39 105 39q46 0 78 -23q28 -21 28 -57q0 -32 -23 -48q43 -21 43 -68q0 -43 -29 -69q-34 -30 -98 -30q-74 0 -118 50l34 34
q23 -21 40.5 -28t43.5 -7z" />
    <glyph glyph-name="acute" unicode="&#xb4;" horiz-adv-x="231" 
d="M50 574l61 153l69 -35l-79 -142z" />
    <glyph glyph-name="mu" unicode="&#xb5;" horiz-adv-x="581" 
d="M534 4l-56 -8l-17 64q-66 -69 -186 -69q-55 0 -96 25q-34 20 -60 55l-3 -1l10 -216h-81v646h80v-215q0 -97 32 -151q41 -73 124 -73q55 0 93.5 15t78.5 55v369h81v-496z" />
    <glyph glyph-name="paragraph" unicode="&#xb6;" horiz-adv-x="474" 
d="M204 500h222l3 -38l-70 -12v-381l-15 -160l-23 -24l-19 10v551h-52v-422l-14 -151l-25 -23l-19 10v345q-58 1 -100 43q-47 44 -47 109q0 59 45 102q44 41 114 41z" />
    <glyph glyph-name="middot" unicode="&#xb7;" horiz-adv-x="176" 
d="M35 306q0 24 15 39.5t41 15.5t41 -15.5t15 -39.5q0 -25 -15 -40.5t-41 -15.5t-41 15.5t-15 40.5z" />
    <glyph glyph-name="cedilla" unicode="&#xb8;" horiz-adv-x="233" 
d="M69 14h55l-2 -51q28 0 44 -19q16 -17 16 -43q0 -38 -33 -66q-32 -27 -85 -41l-14 40q32 11 53 26q18 16 18 36q0 10 -7 16q-6 6 -19 6h-26v96z" />
    <glyph glyph-name="onesuperior" unicode="&#xb9;" horiz-adv-x="159" 
d="M33 524l-18 38l73 38h31v-272h-52v209z" />
    <glyph glyph-name="ordmasculine" unicode="&#xba;" horiz-adv-x="298" 
d="M149 359q-55 0 -90 35q-36 34 -36 90q0 54 39 91q34 34 87 34q55 0 92 -39q34 -34 34 -86q0 -53 -35 -88q-37 -37 -91 -37zM219 484q0 29 -18 50q-20 22 -52 22q-31 0 -51 -20q-19 -20 -19 -52q0 -31 19 -51q21 -21 51 -21q31 0 51 23q19 19 19 49z" />
    <glyph glyph-name="guillemotright" unicode="&#xbb;" horiz-adv-x="355" 
d="M335 277v-31l-139 -142l-38 31l103 126l-103 127l38 31zM69 419l138 -141v-32l-138 -142l-39 31l103 126l-103 127z" />
    <glyph glyph-name="questiondown" unicode="&#xbf;" horiz-adv-x="502" 
d="M231 427v34h66v-43q0 -45 -22 -73q-19 -25 -68 -49l-43 -19q-46 -22 -60 -40q-22 -25 -22 -62q0 -52 38 -82q42 -33 118 -33q110 0 186 83l48 -43q-85 -106 -233 -106q-107 0 -167 48q-64 54 -64 129q0 59 31 96q28 37 88 64l55 25q26 10 36 27q13 19 13 44zM319 556
q0 -24 -15.5 -39.5t-39.5 -15.5q-25 0 -40 15.5t-15 39.5t15.5 39.5t39.5 15.5t39.5 -16t15.5 -39z" />
    <glyph glyph-name="Agrave" unicode="&#xc0;" horiz-adv-x="684" 
d="M291 600h101l267 -600h-88l-52 115h-357l-51 -115h-86zM331 522l-139 -334h297l-140 334h-18zM300 828l68 -161l-52 -24l-83 152z" />
    <glyph glyph-name="Aacute" unicode="&#xc1;" horiz-adv-x="684" 
d="M291 600h101l267 -600h-88l-52 115h-357l-51 -115h-86zM331 522l-139 -334h297l-140 334h-18zM318 667l68 161l67 -33l-83 -152z" />
    <glyph glyph-name="Acircumflex" unicode="&#xc2;" horiz-adv-x="684" 
d="M291 600h101l267 -600h-88l-52 115h-357l-51 -115h-86zM331 522l-139 -334h297l-140 334h-18zM231 641l-36 37l129 127h33l129 -127l-36 -37l-109 92z" />
    <glyph glyph-name="Atilde" unicode="&#xc3;" horiz-adv-x="684" 
d="M291 600h101l267 -600h-88l-52 115h-357l-51 -115h-86zM331 522l-139 -334h297l-140 334h-18zM412 648q-38 0 -74 17q-40 19 -72 19q-38 0 -66 -25l-32 40q48 48 101 48q34 0 78 -21q31 -16 68 -16q33 0 64 23l32 -40q-45 -45 -99 -45z" />
    <glyph glyph-name="Adieresis" unicode="&#xc4;" horiz-adv-x="684" 
d="M291 600h101l267 -600h-88l-52 115h-357l-51 -115h-86zM331 522l-139 -334h297l-140 334h-18zM388 703q0 23 16 39.5t39 16.5t40 -16.5t17 -39.5t-17 -39.5t-40 -16.5t-39 16.5t-16 39.5zM183 703q0 23 16.5 39.5t39.5 16.5t40 -16.5t17 -39.5t-17 -39.5t-40 -16.5
t-39.5 16.5t-16.5 39.5z" />
    <glyph glyph-name="Aring" unicode="&#xc5;" horiz-adv-x="684" 
d="M291 600h101l267 -600h-88l-52 115h-357l-51 -115h-86zM331 522l-139 -334h297l-140 334h-18zM341 625q-45 0 -75 30t-30 74t29 73q28 31 76 31t76 -31q29 -29 29 -73t-30 -74t-75 -30zM341 673q27 0 40 16q15 15 15 40q0 24 -15 39q-14 17 -40 17q-25 0 -40 -17
q-15 -15 -15 -39q0 -23 15 -40q13 -16 40 -16z" />
    <glyph glyph-name="AE" unicode="&#xc6;" horiz-adv-x="996" 
d="M493 0v145h-283l-91 -145h-94l386 600h530v-74h-367v-173h327v-72h-327v-208h382v-73h-463zM452 525l-196 -307h237v307h-41z" />
    <glyph glyph-name="Ccedilla" unicode="&#xc7;" horiz-adv-x="610" 
d="M111 302q0 -103 65 -170q69 -71 171 -71q100 0 183 72l50 -52q-91 -88 -225 -92l-1 -22q28 0 48 -17q18 -20 18 -47q0 -45 -37 -76q-35 -30 -93 -42l-14 40q41 14 60 29q22 19 22 45q0 10 -8 18q-8 6 -21 6h-32v70q-99 13 -176 86q-91 86 -91 223q0 130 89 219
q90 90 228 90q73 0 128 -22t105 -68l-50 -54q-82 72 -183 72q-100 0 -167 -67q-69 -69 -69 -170z" />
    <glyph glyph-name="Egrave" unicode="&#xc8;" horiz-adv-x="563" 
d="M50 0v600h458v-74h-376v-173h336v-73h-336v-207h391v-73h-473zM271 828l68 -161l-52 -24l-83 152z" />
    <glyph glyph-name="Eacute" unicode="&#xc9;" horiz-adv-x="563" 
d="M50 0v600h458v-74h-376v-173h336v-73h-336v-207h391v-73h-473zM243 667l68 161l67 -33l-83 -152z" />
    <glyph glyph-name="Ecircumflex" unicode="&#xca;" horiz-adv-x="563" 
d="M50 0v600h458v-74h-376v-173h336v-73h-336v-207h391v-73h-473zM180 641l-36 37l129 127h33l129 -127l-36 -37l-109 92z" />
    <glyph glyph-name="Edieresis" unicode="&#xcb;" horiz-adv-x="563" 
d="M50 0v600h458v-74h-376v-173h336v-73h-336v-207h391v-73h-473zM327 703q0 23 16 39.5t39 16.5t40 -16.5t17 -39.5t-17 -39.5t-40 -16.5t-39 16.5t-16 39.5zM122 703q0 23 16.5 39.5t39.5 16.5t40 -16.5t17 -39.5t-17 -39.5t-40 -16.5t-39.5 16.5t-16.5 39.5z" />
    <glyph glyph-name="Igrave" unicode="&#xcc;" horiz-adv-x="180" 
d="M130 600v-600h-80v600h80zM65 828l68 -161l-52 -24l-83 152z" />
    <glyph glyph-name="Iacute" unicode="&#xcd;" horiz-adv-x="180" 
d="M130 600v-600h-80v600h80zM50 667l68 161l67 -33l-83 -152z" />
    <glyph glyph-name="Icircumflex" unicode="&#xce;" horiz-adv-x="180" 
d="M130 600v-600h-80v600h80zM-18 641l-36 37l129 127h33l129 -127l-36 -37l-109 92z" />
    <glyph glyph-name="Idieresis" unicode="&#xcf;" horiz-adv-x="180" 
d="M130 600v-600h-80v600h80zM138 703q0 23 16 39.5t39 16.5t40 -16.5t17 -39.5t-17 -39.5t-40 -16.5t-39 16.5t-16 39.5zM-67 703q0 23 16.5 39.5t39.5 16.5t40 -16.5t17 -39.5t-17 -39.5t-40 -16.5t-39.5 16.5t-16.5 39.5z" />
    <glyph glyph-name="Eth" unicode="&#xd0;" horiz-adv-x="636" 
d="M2 346h48v254h247q136 0 225 -91q79 -82 79 -209q0 -135 -89 -219q-84 -81 -215 -81h-247v276h-48v70zM293 526h-162v-180h175v-70h-175v-203h162q102 0 164 62t62 165q0 102 -60 163q-63 63 -166 63z" />
    <glyph glyph-name="Ntilde" unicode="&#xd1;" horiz-adv-x="657" 
d="M529 600h78v-600h-80l-397 481v-481h-80v600h81l398 -481v481zM400 648q-38 0 -74 17q-40 19 -72 19q-38 0 -66 -25l-32 40q48 48 101 48q34 0 78 -21q31 -16 68 -16q33 0 64 23l32 -40q-45 -45 -99 -45z" />
    <glyph glyph-name="Ograve" unicode="&#xd2;" horiz-adv-x="694" 
d="M347 611q138 0 227 -89t89 -222q0 -131 -86 -217q-89 -94 -230 -94q-143 0 -235 99q-82 90 -82 212q0 126 84 215q90 96 233 96zM111 300q0 -97 63 -166q68 -74 173 -74q104 0 171 73q63 69 63 167q0 101 -64 168q-69 72 -170 72q-103 0 -173 -73q-63 -69 -63 -167z
M299 828l68 -161l-52 -24l-83 152z" />
    <glyph glyph-name="Oacute" unicode="&#xd3;" horiz-adv-x="694" 
d="M347 611q138 0 227 -89t89 -222q0 -131 -86 -217q-89 -94 -230 -94q-143 0 -235 99q-82 90 -82 212q0 126 84 215q90 96 233 96zM111 300q0 -97 63 -166q68 -74 173 -74q104 0 171 73q63 69 63 167q0 101 -64 168q-69 72 -170 72q-103 0 -173 -73q-63 -69 -63 -167z
M327 667l68 161l67 -33l-83 -152z" />
    <glyph glyph-name="Ocircumflex" unicode="&#xd4;" horiz-adv-x="694" 
d="M347 611q138 0 227 -89t89 -222q0 -131 -86 -217q-89 -94 -230 -94q-143 0 -235 99q-82 90 -82 212q0 126 84 215q90 96 233 96zM111 300q0 -97 63 -166q68 -74 173 -74q104 0 171 73q63 69 63 167q0 101 -64 168q-69 72 -170 72q-103 0 -173 -73q-63 -69 -63 -167z
M237 641l-36 37l129 127h33l129 -127l-36 -37l-109 92z" />
    <glyph glyph-name="Otilde" unicode="&#xd5;" horiz-adv-x="694" 
d="M347 611q138 0 227 -89t89 -222q0 -131 -86 -217q-89 -94 -230 -94q-143 0 -235 99q-82 90 -82 212q0 126 84 215q90 96 233 96zM111 300q0 -97 63 -166q68 -74 173 -74q104 0 171 73q63 69 63 167q0 101 -64 168q-69 72 -170 72q-103 0 -173 -73q-63 -69 -63 -167z
M418 648q-38 0 -74 17q-40 19 -72 19q-38 0 -66 -25l-32 40q48 48 101 48q34 0 78 -21q31 -16 68 -16q33 0 64 23l32 -40q-45 -45 -99 -45z" />
    <glyph glyph-name="Odieresis" unicode="&#xd6;" horiz-adv-x="694" 
d="M347 611q138 0 227 -89t89 -222q0 -131 -86 -217q-89 -94 -230 -94q-143 0 -235 99q-82 90 -82 212q0 126 84 215q90 96 233 96zM111 300q0 -97 63 -166q68 -74 173 -74q104 0 171 73q63 69 63 167q0 101 -64 168q-69 72 -170 72q-103 0 -173 -73q-63 -69 -63 -167z
M393 703q0 23 16 39.5t39 16.5t40 -16.5t17 -39.5t-17 -39.5t-40 -16.5t-39 16.5t-16 39.5zM188 703q0 23 16.5 39.5t39.5 16.5t40 -16.5t17 -39.5t-17 -39.5t-40 -16.5t-39.5 16.5t-16.5 39.5z" />
    <glyph glyph-name="multiply" unicode="&#xd7;" horiz-adv-x="302" 
d="M29 182l81 81l-82 82l42 40l81 -82l82 83l41 -41l-83 -82l82 -82l-41 -41l-81 82l-81 -81z" />
    <glyph glyph-name="Oslash" unicode="&#xd8;" horiz-adv-x="694" 
d="M347 611q75 0 138 -29l25 40l62 -38l-25 -39q54 -42 82 -97q34 -64 34 -148q0 -131 -86 -217q-89 -94 -230 -94q-72 0 -140 30l-32 -50l-61 39l32 49q-55 42 -86 109q-30 65 -30 134q0 126 84 215q90 96 233 96zM581 300q0 56 -19 101q-20 47 -58 79q-10 -15 -126 -197
t-130 -203q48 -20 99 -20q104 0 171 73q63 69 63 167zM111 300q0 -61 22 -109q20 -43 55 -71l255 399q-47 21 -96 21q-103 0 -173 -73q-63 -69 -63 -167z" />
    <glyph glyph-name="Ugrave" unicode="&#xd9;" 
d="M570 600v-350q0 -117 -79 -191q-72 -70 -180 -70q-114 0 -186 74q-75 77 -75 187v350h82v-357q0 -77 51 -128q50 -53 128 -53q75 0 128 53q49 49 49 128v357h82zM287 828l68 -161l-52 -24l-83 152z" />
    <glyph glyph-name="Uacute" unicode="&#xda;" 
d="M570 600v-350q0 -117 -79 -191q-72 -70 -180 -70q-114 0 -186 74q-75 77 -75 187v350h82v-357q0 -77 51 -128q50 -53 128 -53q75 0 128 53q49 49 49 128v357h82zM271 667l68 161l67 -33l-83 -152z" />
    <glyph glyph-name="Ucircumflex" unicode="&#xdb;" 
d="M570 600v-350q0 -117 -79 -191q-72 -70 -180 -70q-114 0 -186 74q-75 77 -75 187v350h82v-357q0 -77 51 -128q50 -53 128 -53q75 0 128 53q49 49 49 128v357h82zM199 641l-36 37l129 127h33l129 -127l-36 -37l-109 92z" />
    <glyph glyph-name="Udieresis" unicode="&#xdc;" 
d="M570 600v-350q0 -117 -79 -191q-72 -70 -180 -70q-114 0 -186 74q-75 77 -75 187v350h82v-357q0 -77 51 -128q50 -53 128 -53q75 0 128 53q49 49 49 128v357h82zM356 703q0 23 16 39.5t39 16.5t40 -16.5t17 -39.5t-17 -39.5t-40 -16.5t-39 16.5t-16 39.5zM151 703
q0 23 16.5 39.5t39.5 16.5t40 -16.5t17 -39.5t-17 -39.5t-40 -16.5t-39.5 16.5t-16.5 39.5z" />
    <glyph glyph-name="Yacute" unicode="&#xdd;" horiz-adv-x="649" 
d="M365 0h-80v138l-261 462h94l204 -375h7l206 375h89l-259 -460v-140zM286 667l68 161l67 -33l-83 -152z" />
    <glyph glyph-name="Thorn" unicode="&#xde;" horiz-adv-x="581" 
d="M551 307q0 -89 -64 -150q-65 -63 -157 -63h-198v-94h-82v600h82v-77h198q108 0 172 -79q49 -57 49 -137zM132 167h199q67 0 104 44q34 40 34 96q0 57 -34 97q-40 46 -113 46h-190v-283z" />
    <glyph glyph-name="germandbls" unicode="&#xdf;" horiz-adv-x="590" 
d="M50 0v471q0 81 55 130q50 41 123 41q92 0 137 -57q27 -36 27 -88q0 -27 -8 -57q-60 -6 -90 -24q-33 -20 -33 -54q0 -21 20 -35q20 -13 59 -21l58 -11q82 -18 121 -55q41 -39 41 -101q0 -50 -37 -91q-54 -57 -165 -57q-116 0 -204 39l28 68q87 -35 175 -35q70 0 102 33
q18 20 18 47q0 26 -18 44q-17 16 -72 30l-69 14q-67 14 -100 43q-37 32 -37 86q0 53 40 90q37 33 97 50q0 34 -20 51q-26 23 -69 23q-48 0 -75 -27t-27 -74v-473h-77z" />
    <glyph glyph-name="agrave" unicode="&#xe0;" horiz-adv-x="588" 
d="M247 500h93l223 -500h-88l-41 94h-284l-41 -94h-84zM286 417l-106 -252h223l-105 252h-12zM255 727l61 -153l-51 -24l-79 142z" />
    <glyph glyph-name="aacute" unicode="&#xe1;" horiz-adv-x="588" 
d="M247 500h93l223 -500h-88l-41 94h-284l-41 -94h-84zM286 417l-106 -252h223l-105 252h-12zM272 574l61 153l69 -35l-79 -142z" />
    <glyph glyph-name="acircumflex" unicode="&#xe2;" horiz-adv-x="588" 
d="M247 500h93l223 -500h-88l-41 94h-284l-41 -94h-84zM286 417l-106 -252h223l-105 252h-12zM432 583l-35 -39l-103 86l-103 -86l-35 39l122 119h32z" />
    <glyph glyph-name="atilde" unicode="&#xe3;" horiz-adv-x="588" 
d="M247 500h93l223 -500h-88l-41 94h-284l-41 -94h-84zM286 417l-106 -252h223l-105 252h-12zM362 561q-34 0 -71 16q-38 18 -68 18q-36 0 -63 -23l-31 38q45 45 96 45q32 0 74 -20q27 -15 65 -15q34 0 61 22l31 -38q-42 -43 -94 -43z" />
    <glyph glyph-name="adieresis" unicode="&#xe4;" horiz-adv-x="588" 
d="M247 500h93l223 -500h-88l-41 94h-284l-41 -94h-84zM286 417l-106 -252h223l-105 252h-12zM335 611q0 22 15 37t37 15t37 -15t15 -37t-15 -37t-37 -15t-37 15t-15 37zM148 611q0 22 15 37t37 15t37 -15t15 -37t-15 -37t-37 -15t-37 15t-15 37z" />
    <glyph glyph-name="aring" unicode="&#xe5;" horiz-adv-x="588" 
d="M247 500h93l223 -500h-88l-41 94h-284l-41 -94h-84zM286 417l-106 -252h223l-105 252h-12zM294 553q-42 0 -70 28q-29 29 -29 70q0 42 29 69q29 29 70 29q42 0 70 -30q28 -28 28 -68q0 -43 -29 -70q-28 -28 -69 -28zM294 601q20 0 35 15q13 14 13 35t-13 35
q-14 14 -35 14q-23 0 -35 -14q-13 -13 -13 -35q0 -21 13 -35q14 -15 35 -15z" />
    <glyph glyph-name="ae" unicode="&#xe6;" horiz-adv-x="845" 
d="M416 0v114h-226l-70 -114h-95l316 500h452v-71h-297v-130h264v-71h-264v-158h309v-70h-389zM384 427l-150 -243h182v243h-32z" />
    <glyph glyph-name="ccedilla" unicode="&#xe7;" horiz-adv-x="535" 
d="M116 251q0 -82 50 -134q54 -54 135 -54q86 0 151 59l48 -53q-79 -73 -181 -77l-1 -23q28 0 44 -19q16 -17 16 -43q0 -38 -33 -66q-32 -27 -85 -41l-14 40q32 11 53 26q18 16 18 36q0 10 -7 16q-6 6 -19 6h-26v69q-90 10 -153 73q-77 75 -77 185q0 107 76 183
q75 75 190 75q117 0 199 -78l-48 -53q-63 59 -151 59q-81 0 -133 -51q-52 -52 -52 -135z" />
    <glyph glyph-name="egrave" unicode="&#xe8;" horiz-adv-x="489" 
d="M50 0v500h389v-71h-309v-133h276v-70h-276v-156h319v-70h-399zM231 727l61 -153l-51 -24l-79 142z" />
    <glyph glyph-name="eacute" unicode="&#xe9;" horiz-adv-x="489" 
d="M50 0v500h389v-71h-309v-133h276v-70h-276v-156h319v-70h-399zM214 574l61 153l69 -35l-79 -142z" />
    <glyph glyph-name="ecircumflex" unicode="&#xea;" horiz-adv-x="489" 
d="M50 0v500h389v-71h-309v-133h276v-70h-276v-156h319v-70h-399zM390 583l-35 -39l-103 86l-103 -86l-35 39l122 119h32z" />
    <glyph glyph-name="edieresis" unicode="&#xeb;" horiz-adv-x="489" 
d="M50 0v500h389v-71h-309v-133h276v-70h-276v-156h319v-70h-399zM286 611q0 22 15 37t37 15t37 -15t15 -37t-15 -37t-37 -15t-37 15t-15 37zM99 611q0 22 15 37t37 15t37 -15t15 -37t-15 -37t-37 -15t-37 15t-15 37z" />
    <glyph glyph-name="igrave" unicode="&#xec;" horiz-adv-x="181" 
d="M50 500h81v-500h-81v500zM71 727l61 -153l-51 -24l-79 142z" />
    <glyph glyph-name="iacute" unicode="&#xed;" horiz-adv-x="181" 
d="M50 500h81v-500h-81v500zM50 574l61 153l69 -35l-79 -142z" />
    <glyph glyph-name="icircumflex" unicode="&#xee;" horiz-adv-x="181" 
d="M50 500h81v-500h-81v500zM230 583l-35 -39l-103 86l-103 -86l-35 39l122 119h32z" />
    <glyph glyph-name="idieresis" unicode="&#xef;" horiz-adv-x="181" 
d="M50 500h81v-500h-81v500zM134 611q0 22 15 37t37 15t37 -15t15 -37t-15 -37t-37 -15t-37 15t-15 37zM-53 611q0 22 15 37t37 15t37 -15t15 -37t-15 -37t-37 -15t-37 15t-15 37z" />
    <glyph glyph-name="eth" unicode="&#xf0;" horiz-adv-x="547" 
d="M10 228v65h40v207h204q116 0 188 -72q70 -70 70 -178q0 -109 -70 -179q-71 -71 -188 -71h-204v228h-40zM250 429h-120v-136h160v-65h-160v-158h120q89 0 137 54q45 48 45 126q0 81 -47 128q-49 51 -135 51z" />
    <glyph glyph-name="ntilde" unicode="&#xf1;" horiz-adv-x="569" 
d="M442 500h77v-500h-76l-315 380v-380h-78v500h77l315 -379v379zM353 561q-34 0 -71 16q-38 18 -68 18q-36 0 -63 -23l-31 38q45 45 96 45q32 0 74 -20q27 -15 65 -15q34 0 61 22l31 -38q-42 -43 -94 -43z" />
    <glyph glyph-name="ograve" unicode="&#xf2;" horiz-adv-x="590" 
d="M295 509q116 0 192 -78q72 -75 72 -181q0 -113 -76 -186t-188 -73q-115 0 -190 75t-75 184q0 114 80 188q76 71 185 71zM110 250q0 -83 52 -135q53 -53 133 -53q78 0 130 50q54 51 54 138t-55 139q-50 49 -129 49q-82 0 -133 -54q-52 -52 -52 -134zM248 727l61 -153
l-51 -24l-79 142z" />
    <glyph glyph-name="oacute" unicode="&#xf3;" horiz-adv-x="590" 
d="M295 509q116 0 192 -78q72 -75 72 -181q0 -113 -76 -186t-188 -73q-115 0 -190 75t-75 184q0 114 80 188q76 71 185 71zM110 250q0 -83 52 -135q53 -53 133 -53q78 0 130 50q54 51 54 138t-55 139q-50 49 -129 49q-82 0 -133 -54q-52 -52 -52 -134zM277 574l61 153
l69 -35l-79 -142z" />
    <glyph glyph-name="ocircumflex" unicode="&#xf4;" horiz-adv-x="590" 
d="M295 509q116 0 192 -78q72 -75 72 -181q0 -113 -76 -186t-188 -73q-115 0 -190 75t-75 184q0 114 80 188q76 71 185 71zM110 250q0 -83 52 -135q53 -53 133 -53q78 0 130 50q54 51 54 138t-55 139q-50 49 -129 49q-82 0 -133 -54q-52 -52 -52 -134zM433 583l-35 -39
l-103 86l-103 -86l-35 39l122 119h32z" />
    <glyph glyph-name="otilde" unicode="&#xf5;" horiz-adv-x="590" 
d="M295 509q116 0 192 -78q72 -75 72 -181q0 -113 -76 -186t-188 -73q-115 0 -190 75t-75 184q0 114 80 188q76 71 185 71zM110 250q0 -83 52 -135q53 -53 133 -53q78 0 130 50q54 51 54 138t-55 139q-50 49 -129 49q-82 0 -133 -54q-52 -52 -52 -134zM364 561q-34 0 -71 16
q-38 18 -68 18q-36 0 -63 -23l-31 38q45 45 96 45q32 0 74 -20q27 -15 65 -15q34 0 61 22l31 -38q-42 -43 -94 -43z" />
    <glyph glyph-name="odieresis" unicode="&#xf6;" horiz-adv-x="590" 
d="M295 509q116 0 192 -78q72 -75 72 -181q0 -113 -76 -186t-188 -73q-115 0 -190 75t-75 184q0 114 80 188q76 71 185 71zM110 250q0 -83 52 -135q53 -53 133 -53q78 0 130 50q54 51 54 138t-55 139q-50 49 -129 49q-82 0 -133 -54q-52 -52 -52 -134zM336 611q0 22 15 37
t37 15t37 -15t15 -37t-15 -37t-37 -15t-37 15t-15 37zM149 611q0 22 15 37t37 15t37 -15t15 -37t-15 -37t-37 -15t-37 15t-15 37z" />
    <glyph glyph-name="divide" unicode="&#xf7;" horiz-adv-x="330" 
d="M20 305h293v-62h-293v62zM108 394q0 24 15 39.5t41 15.5t41 -15.5t15 -39.5q0 -25 -15 -40.5t-41 -15.5t-41 15.5t-15 40.5zM108 153q0 24 15 39.5t41 15.5t41 -15.5t15 -39.5q0 -25 -15 -40.5t-41 -15.5t-41 15.5t-15 40.5z" />
    <glyph glyph-name="oslash" unicode="&#xf8;" horiz-adv-x="590" 
d="M295 509q71 0 130 -32l24 32l55 -40l-24 -32q40 -40 61 -89q19 -49 19 -98q0 -112 -77 -186q-76 -73 -188 -73q-71 0 -127 30l-23 -31l-55 40l21 29q-41 41 -61 88q-20 51 -20 103q0 114 80 188q76 71 185 71zM110 250q0 -37 12 -70q11 -32 36 -60l222 300q-39 19 -85 19
q-81 0 -133 -55q-52 -52 -52 -134zM466 323q-10 30 -31 54l-223 -298q41 -18 83 -18q77 0 130 51q54 51 54 138q0 36 -13 73z" />
    <glyph glyph-name="ugrave" unicode="&#xf9;" horiz-adv-x="539" 
d="M488 500v-286q0 -103 -67 -165q-61 -58 -151 -58q-96 0 -158 62q-62 64 -62 161v286h80v-291q0 -64 39 -105q39 -42 101 -42q61 0 100 41q38 40 38 106v291h80zM242 727l61 -153l-51 -24l-79 142z" />
    <glyph glyph-name="uacute" unicode="&#xfa;" horiz-adv-x="539" 
d="M488 500v-286q0 -103 -67 -165q-61 -58 -151 -58q-96 0 -158 62q-62 64 -62 161v286h80v-291q0 -64 39 -105q39 -42 101 -42q61 0 100 41q38 40 38 106v291h80zM230 574l61 153l69 -35l-79 -142z" />
    <glyph glyph-name="ucircumflex" unicode="&#xfb;" horiz-adv-x="539" 
d="M488 500v-286q0 -103 -67 -165q-61 -58 -151 -58q-96 0 -158 62q-62 64 -62 161v286h80v-291q0 -64 39 -105q39 -42 101 -42q61 0 100 41q38 40 38 106v291h80zM407 583l-35 -39l-103 86l-103 -86l-35 39l122 119h32z" />
    <glyph glyph-name="udieresis" unicode="&#xfc;" horiz-adv-x="539" 
d="M488 500v-286q0 -103 -67 -165q-61 -58 -151 -58q-96 0 -158 62q-62 64 -62 161v286h80v-291q0 -64 39 -105q39 -42 101 -42q61 0 100 41q38 40 38 106v291h80zM311 611q0 22 15 37t37 15t37 -15t15 -37t-15 -37t-37 -15t-37 15t-15 37zM124 611q0 22 15 37t37 15t37 -15
t15 -37t-15 -37t-37 -15t-37 15t-15 37z" />
    <glyph glyph-name="yacute" unicode="&#xfd;" horiz-adv-x="559" 
d="M320 0h-80v115l-215 385h91l163 -299h4l163 299h88l-214 -384v-116zM251 574l61 153l69 -35l-79 -142z" />
    <glyph glyph-name="thorn" unicode="&#xfe;" horiz-adv-x="504" 
d="M474 254q0 -72 -48 -122q-57 -59 -138 -59h-158v-73h-80v500h80v-64h158q78 0 136 -58q50 -50 50 -124zM130 143h152q52 0 84 34q28 33 28 77q0 43 -26 75q-31 36 -86 36h-152v-222z" />
    <glyph glyph-name="ydieresis" unicode="&#xff;" horiz-adv-x="559" 
d="M320 0h-80v115l-215 385h91l163 -299h4l163 299h88l-214 -384v-116zM321 611q0 22 15 37t37 15t37 -15t15 -37t-15 -37t-37 -15t-37 15t-15 37zM134 611q0 22 15 37t37 15t37 -15t15 -37t-15 -37t-37 -15t-37 15t-15 37z" />
    <glyph glyph-name="Amacron" unicode="&#x100;" horiz-adv-x="684" 
d="M291 600h101l267 -600h-88l-52 115h-357l-51 -115h-86zM331 522l-139 -334h297l-140 334h-18zM180 713h322v-63h-322v63z" />
    <glyph glyph-name="amacron" unicode="&#x101;" horiz-adv-x="588" 
d="M247 500h93l223 -500h-88l-41 94h-284l-41 -94h-84zM286 417l-106 -252h223l-105 252h-12zM149 624h287v-59h-287v59z" />
    <glyph glyph-name="Abreve" unicode="&#x102;" horiz-adv-x="684" 
d="M291 600h101l267 -600h-88l-52 115h-357l-51 -115h-86zM331 522l-139 -334h297l-140 334h-18zM421 767l59 -20q-14 -47 -46 -75q-36 -30 -92 -30q-59 0 -94 32q-32 27 -45 73l58 20q8 -29 28 -46q20 -19 53 -19q32 0 52 18q18 17 27 47z" />
    <glyph glyph-name="abreve" unicode="&#x103;" horiz-adv-x="588" 
d="M247 500h93l223 -500h-88l-41 94h-284l-41 -94h-84zM286 417l-106 -252h223l-105 252h-12zM293 551q-52 0 -85 30q-27 25 -37 64l56 21q7 -24 22 -39q16 -16 45 -16q28 0 44 16q11 11 23 39l55 -21q-9 -36 -36 -63q-34 -31 -87 -31z" />
    <glyph glyph-name="Aogonek" unicode="&#x104;" horiz-adv-x="684" 
d="M291 600h101l267 -600q-26 0 -36 -16q-9 -13 -9 -35q0 -26 17 -49q20 -23 48 -38l-20 -37q-51 15 -76 42q-31 31 -31 71q0 37 23 58l-55 119h-359l-51 -115h-85zM331 522l-140 -334h299l-141 334h-18z" />
    <glyph glyph-name="aogonek" unicode="&#x105;" horiz-adv-x="588" 
d="M247 500h93l223 -500q-16 -3 -25 -15q-10 -13 -10 -29q0 -26 16 -45q12 -17 46 -35l-19 -36q-51 18 -74 41q-25 27 -25 63q0 34 26 56h-23l-41 94h-284l-41 -94h-84zM286 417l-106 -252h223l-105 252h-12z" />
    <glyph glyph-name="Cacute" unicode="&#x106;" horiz-adv-x="610" 
d="M111 302q0 -103 65 -170q69 -71 171 -71q99 0 185 74l48 -54q-93 -92 -233 -92q-134 0 -226 90q-91 86 -91 223q0 130 89 219q90 90 228 90q73 0 128 -22t105 -68l-50 -54q-82 72 -183 72q-100 0 -167 -67q-69 -69 -69 -170zM326 667l68 161l67 -33l-83 -152z" />
    <glyph glyph-name="cacute" unicode="&#x107;" horiz-adv-x="535" 
d="M116 251q0 -82 50 -134q54 -54 135 -54q86 0 151 59l48 -53q-84 -78 -199 -78q-114 0 -189 75q-77 75 -77 185q0 107 76 183q75 75 190 75q117 0 199 -78l-48 -53q-63 59 -151 59q-81 0 -133 -51q-52 -52 -52 -135zM280 574l61 153l69 -35l-79 -142z" />
    <glyph glyph-name="Ccircumflex" unicode="&#x108;" horiz-adv-x="610" 
d="M111 302q0 -103 65 -170q69 -71 171 -71q99 0 185 74l48 -54q-93 -92 -233 -92q-134 0 -226 90q-91 86 -91 223q0 130 89 219q90 90 228 90q73 0 128 -22t105 -68l-50 -54q-82 72 -183 72q-100 0 -167 -67q-69 -69 -69 -170zM240 641l-36 37l129 127h33l129 -127l-36 -37
l-109 92z" />
    <glyph glyph-name="ccircumflex" unicode="&#x109;" horiz-adv-x="535" 
d="M116 251q0 -82 50 -134q54 -54 135 -54q86 0 151 59l48 -53q-84 -78 -199 -78q-114 0 -189 75q-77 75 -77 185q0 107 76 183q75 75 190 75q117 0 199 -78l-48 -53q-63 59 -151 59q-81 0 -133 -51q-52 -52 -52 -135zM438 583l-35 -39l-103 86l-103 -86l-35 39l122 119h32z
" />
    <glyph glyph-name="Cdotaccent" unicode="&#x10a;" horiz-adv-x="610" 
d="M111 302q0 -103 65 -170q69 -71 171 -71q99 0 185 74l48 -54q-93 -92 -233 -92q-134 0 -226 90q-91 86 -91 223q0 130 89 219q90 90 228 90q73 0 128 -22t105 -68l-50 -54q-82 72 -183 72q-100 0 -167 -67q-69 -69 -69 -170zM296 697q0 23 16 38.5t39 15.5q22 0 38 -15.5
t16 -38.5t-16 -38t-38 -15q-23 0 -39 15t-16 38z" />
    <glyph glyph-name="cdotaccent" unicode="&#x10b;" horiz-adv-x="535" 
d="M116 251q0 -82 50 -134q54 -54 135 -54q86 0 151 59l48 -53q-84 -78 -199 -78q-114 0 -189 75q-77 75 -77 185q0 107 76 183q75 75 190 75q117 0 199 -78l-48 -53q-63 59 -151 59q-81 0 -133 -51q-52 -52 -52 -135zM249 610q0 21 15 36t36 15t36 -15t15 -36t-15 -36
t-36 -15t-36 15t-15 36z" />
    <glyph glyph-name="Ccaron" unicode="&#x10c;" horiz-adv-x="610" 
d="M111 302q0 -103 65 -170q69 -71 171 -71q99 0 185 74l48 -54q-93 -92 -233 -92q-134 0 -226 90q-91 86 -91 223q0 130 89 219q90 90 228 90q73 0 128 -22t105 -68l-50 -54q-82 72 -183 72q-100 0 -167 -67q-69 -69 -69 -170zM207 769l35 36l111 -91l111 91l34 -36
l-129 -128h-33z" />
    <glyph glyph-name="ccaron" unicode="&#x10d;" horiz-adv-x="535" 
d="M116 251q0 -82 50 -134q54 -54 135 -54q86 0 151 59l48 -53q-84 -78 -199 -78q-114 0 -189 75q-77 75 -77 185q0 107 76 183q75 75 190 75q117 0 199 -78l-48 -53q-63 59 -151 59q-81 0 -133 -51q-52 -52 -52 -135zM165 664l35 38l103 -85l102 85l36 -38l-122 -120h-33z
" />
    <glyph glyph-name="Dcaron" unicode="&#x10e;" horiz-adv-x="636" 
d="M50 600h247q136 0 225 -91q79 -82 79 -209q0 -135 -89 -219q-84 -81 -215 -81h-247v600zM293 526h-162v-453h162q102 0 164 62t62 165q0 102 -60 163q-63 63 -166 63zM126 769l35 36l111 -91l111 91l34 -36l-129 -128h-33z" />
    <glyph glyph-name="dcaron" unicode="&#x10f;" horiz-adv-x="547" 
d="M50 500h199q121 0 193 -72q70 -70 70 -178q0 -109 -70 -179q-71 -71 -193 -71h-199v500zM245 429h-115v-359h115q94 0 142 54q45 48 45 126q0 81 -47 128q-49 51 -140 51zM115 664l35 38l103 -85l102 85l36 -38l-122 -120h-33z" />
    <glyph glyph-name="Dcroat" unicode="&#x110;" horiz-adv-x="636" 
d="M2 346h48v254h247q136 0 225 -91q79 -82 79 -209q0 -135 -89 -219q-84 -81 -215 -81h-247v276h-48v70zM293 526h-162v-180h175v-70h-175v-203h162q102 0 164 62t62 165q0 102 -60 163q-63 63 -166 63z" />
    <glyph glyph-name="dslash" unicode="&#x111;" horiz-adv-x="547" 
d="M10 228v65h40v207h204q116 0 188 -72q70 -70 70 -178q0 -109 -70 -179q-71 -71 -188 -71h-204v228h-40zM250 429h-120v-136h160v-65h-160v-158h120q89 0 137 54q45 48 45 126q0 81 -47 128q-49 51 -135 51z" />
    <glyph glyph-name="Emacron" unicode="&#x112;" horiz-adv-x="563" 
d="M50 0v600h458v-74h-376v-173h336v-73h-336v-207h391v-73h-473zM120 713h322v-63h-322v63z" />
    <glyph glyph-name="emacron" unicode="&#x113;" horiz-adv-x="489" 
d="M50 0v500h389v-71h-309v-133h276v-70h-276v-156h319v-70h-399zM101 624h287v-59h-287v59z" />
    <glyph glyph-name="Ebreve" unicode="&#x114;" horiz-adv-x="563" 
d="M50 0v600h458v-74h-376v-173h336v-73h-336v-207h391v-73h-473zM362 767l59 -20q-14 -47 -46 -75q-36 -30 -92 -30q-59 0 -94 32q-32 27 -45 73l58 20q8 -29 28 -46q20 -19 53 -19t52 18q18 17 27 47z" />
    <glyph glyph-name="ebreve" unicode="&#x115;" horiz-adv-x="489" 
d="M50 0v500h389v-71h-309v-133h276v-70h-276v-156h319v-70h-399zM248 551q-52 0 -85 30q-27 25 -37 64l56 21q7 -24 22 -39q16 -16 45 -16q28 0 44 16q11 11 23 39l55 -21q-9 -36 -36 -63q-34 -31 -87 -31z" />
    <glyph glyph-name="Edotaccent" unicode="&#x116;" horiz-adv-x="563" 
d="M50 0v600h458v-74h-376v-173h336v-73h-336v-207h391v-73h-473zM230 695q0 21 15 36t36 15t36 -15t15 -36t-15 -36t-36 -15t-36 15t-15 36z" />
    <glyph glyph-name="edotaccent" unicode="&#x117;" horiz-adv-x="489" 
d="M50 0v500h389v-71h-309v-133h276v-70h-276v-156h319v-70h-399zM200 605q0 21 15 36t36 15t36 -15t15 -36t-15 -36t-36 -15t-36 15t-15 36z" />
    <glyph glyph-name="Eogonek" unicode="&#x118;" horiz-adv-x="563" 
d="M50 0v600h458v-74h-376v-173h336v-73h-336v-207h391v-73q-20 0 -33 -19q-10 -16 -10 -34q0 -27 19 -49q17 -21 45 -36l-19 -37q-45 13 -73 40q-32 32 -32 72q0 39 34 63h-404z" />
    <glyph glyph-name="eogonek" unicode="&#x119;" horiz-adv-x="489" 
d="M50 0v500h389v-71h-309v-133h276v-70h-276v-156h319v-70q-24 0 -36 -14q-11 -11 -11 -30q0 -24 15 -44t46 -36l-19 -36q-52 18 -72 41q-26 26 -26 64q0 36 28 55h-324z" />
    <glyph glyph-name="Ecaron" unicode="&#x11a;" horiz-adv-x="563" 
d="M50 0v600h458v-74h-376v-173h336v-73h-336v-207h391v-73h-473zM140 769l35 36l111 -91l111 91l34 -36l-129 -128h-33z" />
    <glyph glyph-name="ecaron" unicode="&#x11b;" horiz-adv-x="489" 
d="M50 0v500h389v-71h-309v-133h276v-70h-276v-156h319v-70h-399zM117 664l35 38l103 -85l102 85l36 -38l-122 -120h-33z" />
    <glyph glyph-name="Gcircumflex" unicode="&#x11c;" horiz-adv-x="643" 
d="M593 340v-335l-48 -9l-15 47q-79 -54 -178 -54q-137 0 -226 87q-91 89 -91 226q0 134 91 220q91 89 228 89q139 0 237 -89l-50 -52q-77 68 -187 68q-103 0 -172 -71q-64 -64 -64 -165q0 -106 69 -175q68 -65 165 -65q90 0 161 50v156l-161 7v65h241zM248 641l-36 37
l129 127h33l129 -127l-36 -37l-109 92z" />
    <glyph glyph-name="gcircumflex" unicode="&#x11d;" horiz-adv-x="554" 
d="M503 287v-279l-46 -10l-16 36q-60 -43 -142 -43q-114 0 -187 73q-77 75 -77 187q0 108 74 182q76 76 193 76q118 0 199 -80l-49 -50q-66 59 -150 59q-81 0 -133 -52q-53 -53 -53 -135q0 -88 56 -139q52 -50 128 -50q69 0 124 38v119l-130 5v63h209zM443 583l-35 -39
l-103 86l-103 -86l-35 39l122 119h32z" />
    <glyph glyph-name="Gbreve" unicode="&#x11e;" horiz-adv-x="643" 
d="M593 340v-335l-48 -9l-15 47q-79 -54 -178 -54q-137 0 -226 87q-91 89 -91 226q0 134 91 220q91 89 228 89q139 0 237 -89l-50 -52q-77 68 -187 68q-103 0 -172 -71q-64 -64 -64 -165q0 -106 69 -175q68 -65 165 -65q90 0 161 50v156l-161 7v65h241zM433 767l59 -20
q-14 -47 -46 -75q-36 -30 -92 -30q-59 0 -94 32q-32 27 -45 73l58 20q8 -29 28 -46q20 -19 53 -19q32 0 52 18q18 17 27 47z" />
    <glyph glyph-name="gbreve" unicode="&#x11f;" horiz-adv-x="554" 
d="M503 287v-279l-46 -10l-16 36q-60 -43 -142 -43q-114 0 -187 73q-77 75 -77 187q0 108 74 182q76 76 193 76q118 0 199 -80l-49 -50q-66 59 -150 59q-81 0 -133 -52q-53 -53 -53 -135q0 -88 56 -139q52 -50 128 -50q69 0 124 38v119l-130 5v63h209zM301 551q-52 0 -85 30
q-27 25 -37 64l56 21q7 -24 22 -39q16 -16 45 -16q28 0 44 16q11 11 23 39l55 -21q-9 -36 -36 -63q-34 -31 -87 -31z" />
    <glyph glyph-name="Gdotaccent" unicode="&#x120;" horiz-adv-x="643" 
d="M593 340v-335l-48 -9l-15 47q-79 -54 -178 -54q-137 0 -226 87q-91 89 -91 226q0 134 91 220q91 89 228 89q139 0 237 -89l-50 -52q-77 68 -187 68q-103 0 -172 -71q-64 -64 -64 -165q0 -106 69 -175q68 -65 165 -65q90 0 161 50v156l-161 7v65h241zM302 698
q0 23 16 38.5t39 15.5q22 0 38 -15.5t16 -38.5t-16 -38t-38 -15q-23 0 -39 15t-16 38z" />
    <glyph glyph-name="gdotaccent" unicode="&#x121;" horiz-adv-x="554" 
d="M503 287v-279l-46 -10l-16 36q-60 -43 -142 -43q-114 0 -187 73q-77 75 -77 187q0 108 74 182q76 76 193 76q118 0 199 -80l-49 -50q-66 59 -150 59q-81 0 -133 -52q-53 -53 -53 -135q0 -88 56 -139q52 -50 128 -50q69 0 124 38v119l-130 5v63h209zM251 606q0 21 15 36
t36 15t36 -15t15 -36t-15 -36t-36 -15t-36 15t-15 36z" />
    <glyph glyph-name="Gcommaaccent" unicode="&#x122;" horiz-adv-x="643" 
d="M593 340v-335l-48 -9l-15 47q-79 -54 -178 -54q-137 0 -226 87q-91 89 -91 226q0 134 91 220q91 89 228 89q139 0 237 -89l-50 -52q-77 68 -187 68q-103 0 -172 -71q-64 -64 -64 -165q0 -106 69 -175q68 -65 165 -65q90 0 161 50v156l-161 7v65h241zM354 -41
q25 0 39.5 -14t14.5 -36q0 -14 -5 -26l-37 -96l-38 8l10 66q-35 11 -35 48q0 22 14 36t37 14z" />
    <glyph glyph-name="gcommaaccent" unicode="&#x123;" horiz-adv-x="554" 
d="M503 287v-279l-46 -10l-16 36q-60 -43 -142 -43q-114 0 -187 73q-77 75 -77 187q0 108 74 182q76 76 193 76q118 0 199 -80l-49 -50q-66 59 -150 59q-81 0 -133 -52q-53 -53 -53 -135q0 -88 56 -139q52 -50 128 -50q69 0 124 38v119l-130 5v63h209zM298 -45q25 0 39 -14
t14 -35q0 -13 -5 -25l-39 -99l-42 12l12 64q-32 11 -32 48q0 21 14 35t39 14z" />
    <glyph glyph-name="Hcircumflex" unicode="&#x124;" horiz-adv-x="624" 
d="M494 600h80v-600h-80v288h-363v-288h-81v600h81v-241h363v241zM202 641l-36 37l129 127h33l129 -127l-36 -37l-109 92z" />
    <glyph glyph-name="hcircumflex" unicode="&#x125;" horiz-adv-x="543" 
d="M413 500h80v-500h-80v231h-283v-231h-80v500h80v-198h283v198zM409 583l-35 -39l-103 86l-103 -86l-35 39l122 119h32z" />
    <glyph glyph-name="Hbar" unicode="&#x126;" horiz-adv-x="624" 
d="M494 600h80v-87h37v-65h-37v-448h-80v288h-364v-288h-80v448h-36v65h36v87h80v-87h364v87zM130 359h364v89h-364v-89z" />
    <glyph glyph-name="hbar" unicode="&#x127;" horiz-adv-x="543" 
d="M413 500h80v-69h37v-61h-37v-370h-80v231h-283v-231h-80v370h-37v61h37v69h80v-69h283v69zM130 302h283v68h-283v-68z" />
    <glyph glyph-name="Itilde" unicode="&#x128;" horiz-adv-x="180" 
d="M130 600v-600h-80v600h80zM164 648q-38 0 -74 17q-40 19 -72 19q-38 0 -66 -25l-32 40q48 48 101 48q34 0 78 -21q31 -16 68 -16q33 0 64 23l32 -40q-45 -45 -99 -45z" />
    <glyph glyph-name="itilde" unicode="&#x129;" horiz-adv-x="181" 
d="M50 500h81v-500h-81v500zM161 561q-34 0 -71 16q-38 18 -68 18q-36 0 -63 -23l-31 38q45 45 96 45q32 0 74 -20q27 -15 65 -15q34 0 61 22l31 -38q-42 -43 -94 -43z" />
    <glyph glyph-name="imacron" unicode="&#x12b;" horiz-adv-x="181" 
d="M50 500h81v-500h-81v500zM-52 624h287v-59h-287v59z" />
    <glyph glyph-name="Ibreve" unicode="&#x12c;" horiz-adv-x="180" 
d="M130 600v-600h-80v600h80zM171 767l59 -20q-14 -47 -46 -75q-36 -30 -92 -30q-59 0 -94 32q-32 27 -45 73l58 20q8 -29 28 -46q20 -19 53 -19q32 0 52 18q18 17 27 47z" />
    <glyph glyph-name="Iogonek" unicode="&#x12e;" horiz-adv-x="180" 
d="M130 600v-600q-16 -3 -24 -15q-8 -11 -8 -33q0 -32 18 -53q15 -21 46 -37l-19 -37q-47 13 -75 43q-28 31 -28 70t26 62h-16v600h80z" />
    <glyph glyph-name="iogonek" unicode="&#x12f;" horiz-adv-x="181" 
d="M50 500h81v-500q-16 -5 -24 -17q-8 -11 -8 -27q0 -26 16 -46q15 -18 45 -34l-19 -36q-52 18 -72 41q-26 26 -26 64q0 33 24 55h-17v500z" />
    <glyph glyph-name="Idot" unicode="&#x130;" horiz-adv-x="180" 
d="M130 600v-600h-80v600h80zM37 698q0 23 16 38.5t39 15.5q22 0 38 -15.5t16 -38.5t-16 -38t-38 -15q-23 0 -39 15t-16 38z" />
    <glyph glyph-name="Jcircumflex" unicode="&#x134;" horiz-adv-x="523" 
d="M396 600h82v-337q0 -134 -67 -204q-68 -70 -197 -70q-118 0 -199 81l43 55q70 -61 153 -61q90 0 137 46q48 45 48 135v355zM279 641l-36 37l129 127h33l129 -127l-36 -37l-109 92z" />
    <glyph glyph-name="jcircumflex" unicode="&#x135;" horiz-adv-x="453" 
d="M327 500h81v-280q0 -110 -60 -170q-62 -59 -163 -59q-103 0 -170 73l48 56q58 -57 120 -57q72 0 107 38q37 38 37 108v291zM507 583l-35 -39l-103 86l-103 -86l-35 39l122 119h32z" />
    <glyph glyph-name="Kcommaaccent" unicode="&#x136;" horiz-adv-x="600" 
d="M50 600h82v-243h150l183 243h94l-206 -274l227 -326h-96l-197 286h-155v-286h-82v600zM290 5q25 0 39.5 -14t14.5 -36q0 -14 -5 -26l-37 -96l-38 8l10 66q-35 11 -35 48q0 22 14 36t37 14z" />
    <glyph glyph-name="kcommaaccent" unicode="&#x137;" horiz-adv-x="524" 
d="M50 500h80v-199h114l149 199h94l-176 -231l192 -269h-95l-163 231h-115v-231h-80v500zM253 6q25 0 39 -13.5t14 -35.5q0 -16 -4 -25l-39 -96l-39 10l13 63q-35 8 -35 48q0 21 14 35t37 14z" />
    <glyph glyph-name="kgreenlandic" unicode="&#x138;" horiz-adv-x="524" 
d="M50 500h80v-199h114l149 199h94l-176 -231l192 -269h-95l-163 231h-115v-231h-80v500z" />
    <glyph glyph-name="Lacute" unicode="&#x139;" horiz-adv-x="541" 
d="M516 71v-71h-466v600h81v-529h385zM72 667l68 161l67 -33l-83 -152z" />
    <glyph glyph-name="lacute" unicode="&#x13a;" horiz-adv-x="473" 
d="M131 70h317v-70h-398v500h81v-430zM72 574l61 153l69 -35l-79 -142z" />
    <glyph glyph-name="Lcommaaccent" unicode="&#x13b;" horiz-adv-x="541" 
d="M516 71v-71h-466v600h81v-529h385zM289 -30q25 0 39.5 -14t14.5 -36q0 -14 -5 -26l-37 -96l-38 8l10 66q-35 11 -35 48q0 22 14 36t37 14z" />
    <glyph glyph-name="lcommaaccent" unicode="&#x13c;" horiz-adv-x="473" 
d="M131 70h317v-70h-398v500h81v-430zM250 -35q25 0 39 -13.5t14 -35.5q0 -16 -4 -25l-39 -96l-39 10l13 63q-35 8 -35 48q0 21 14 35t37 14z" />
    <glyph glyph-name="Lcaron" unicode="&#x13d;" horiz-adv-x="541" 
d="M516 71v-71h-466v600h81v-529h385zM-56 769l35 36l111 -91l111 91l34 -36l-129 -128h-33z" />
    <glyph glyph-name="lcaron" unicode="&#x13e;" horiz-adv-x="587" 
d="M131 70h317v-70h-398v500h81v-430zM-46 664l35 38l103 -85l102 85l36 -38l-122 -120h-33z" />
    <glyph glyph-name="Ldot" unicode="&#x13f;" horiz-adv-x="541" 
d="M516 71v-71h-466v600h81v-529h385zM245 303q0 23 16 38.5t39 15.5q22 0 38 -15.5t16 -38.5t-16 -38t-38 -15q-23 0 -39 15t-16 38z" />
    <glyph glyph-name="ldot" unicode="&#x140;" horiz-adv-x="473" 
d="M131 70h317v-70h-398v500h81v-430zM246 301q0 21 15 36t36 15t36 -15t15 -36t-15 -36t-36 -15t-36 15t-15 36z" />
    <glyph glyph-name="Lslash" unicode="&#x141;" horiz-adv-x="541" 
d="M21 252l-19 67l48 13v268h80v-246l122 34l19 -67l-141 -39v-211h386v-71h-466v259z" />
    <glyph glyph-name="lslash" unicode="&#x142;" horiz-adv-x="473" 
d="M24 190l-27 57l53 24v229h81v-192l104 50l26 -58l-130 -61v-169h317v-70h-398v202z" />
    <glyph glyph-name="Nacute" unicode="&#x143;" horiz-adv-x="657" 
d="M529 600h78v-600h-80l-397 481v-481h-80v600h81l398 -481v481zM298 667l68 161l67 -33l-83 -152z" />
    <glyph glyph-name="nacute" unicode="&#x144;" horiz-adv-x="569" 
d="M442 500h77v-500h-76l-315 380v-380h-78v500h77l315 -379v379zM255 574l61 153l69 -35l-79 -142z" />
    <glyph glyph-name="Ncommaaccent" unicode="&#x145;" horiz-adv-x="657" 
d="M529 600h78v-600h-80l-397 481v-481h-80v600h81l398 -481v481zM321 10q25 0 39.5 -14t14.5 -36q0 -14 -5 -26l-37 -96l-38 8l10 66q-35 11 -35 48q0 22 14 36t37 14z" />
    <glyph glyph-name="ncommaaccent" unicode="&#x146;" horiz-adv-x="569" 
d="M442 500h77v-500h-76l-315 380v-380h-78v500h77l315 -379v379zM277 9q25 0 39 -13.5t14 -35.5q0 -16 -4 -25l-39 -96l-39 10l13 63q-35 8 -35 48q0 21 14 35t37 14z" />
    <glyph glyph-name="Ncaron" unicode="&#x147;" horiz-adv-x="657" 
d="M529 600h78v-600h-80l-397 481v-481h-80v600h81l398 -481v481zM189 769l35 36l111 -91l111 91l34 -36l-129 -128h-33z" />
    <glyph glyph-name="ncaron" unicode="&#x148;" horiz-adv-x="569" 
d="M442 500h77v-500h-76l-315 380v-380h-78v500h77l315 -379v379zM147 664l35 38l103 -85l102 85l36 -38l-122 -120h-33z" />
    <glyph glyph-name="napostrophe" unicode="&#x149;" horiz-adv-x="650" 
d="M522 500h77v-500h-76l-315 380v-380h-78v500h77l315 -379v379zM47 602q25 0 39 -13.5t14 -35.5q0 -16 -4 -25l-39 -96l-39 10l13 63q-35 8 -35 48q0 21 14 35t37 14z" />
    <glyph glyph-name="Omacron" unicode="&#x14c;" horiz-adv-x="694" 
d="M347 611q138 0 227 -89t89 -222q0 -131 -86 -217q-89 -94 -230 -94q-143 0 -235 99q-82 90 -82 212q0 126 84 215q90 96 233 96zM111 300q0 -97 63 -166q68 -74 173 -74q104 0 171 73q63 69 63 167q0 101 -64 168q-69 72 -170 72q-103 0 -173 -73q-63 -69 -63 -167z
M186 713h322v-63h-322v63z" />
    <glyph glyph-name="omacron" unicode="&#x14d;" horiz-adv-x="590" 
d="M295 509q116 0 192 -78q72 -75 72 -181q0 -113 -76 -186t-188 -73q-115 0 -190 75t-75 184q0 114 80 188q76 71 185 71zM110 250q0 -83 52 -135q53 -53 133 -53q78 0 130 50q54 51 54 138t-55 139q-50 49 -129 49q-82 0 -133 -54q-52 -52 -52 -134zM151 624h287v-59h-287
v59z" />
    <glyph glyph-name="Obreve" unicode="&#x14e;" horiz-adv-x="694" 
d="M347 611q138 0 227 -89t89 -222q0 -131 -86 -217q-89 -94 -230 -94q-143 0 -235 99q-82 90 -82 212q0 126 84 215q90 96 233 96zM111 300q0 -97 63 -166q68 -74 173 -74q104 0 171 73q63 69 63 167q0 101 -64 168q-69 72 -170 72q-103 0 -173 -73q-63 -69 -63 -167z
M426 767l59 -20q-14 -47 -46 -75q-36 -30 -92 -30q-59 0 -94 32q-32 27 -45 73l58 20q8 -29 28 -46q20 -19 53 -19t52 18q18 17 27 47z" />
    <glyph glyph-name="obreve" unicode="&#x14f;" horiz-adv-x="590" 
d="M295 509q116 0 192 -78q72 -75 72 -181q0 -113 -76 -186t-188 -73q-115 0 -190 75t-75 184q0 114 80 188q76 71 185 71zM110 250q0 -83 52 -135q53 -53 133 -53q78 0 130 50q54 51 54 138t-55 139q-50 49 -129 49q-82 0 -133 -54q-52 -52 -52 -134zM294 551q-52 0 -85 30
q-27 25 -37 64l56 21q7 -24 22 -39q16 -16 45 -16q28 0 44 16q11 11 23 39l55 -21q-9 -36 -36 -63q-34 -31 -87 -31z" />
    <glyph glyph-name="Ohungarumlaut" unicode="&#x150;" horiz-adv-x="694" 
d="M347 611q138 0 227 -89t89 -222q0 -131 -86 -217q-89 -94 -230 -94q-143 0 -235 99q-82 90 -82 212q0 126 84 215q90 96 233 96zM111 300q0 -97 63 -166q68 -74 173 -74q104 0 171 73q63 69 63 167q0 101 -64 168q-69 72 -170 72q-103 0 -173 -73q-63 -69 -63 -167z
M269 665l48 163l71 -28l-67 -155zM374 668l73 160l66 -33l-88 -151z" />
    <glyph glyph-name="ohungarumlaut" unicode="&#x151;" horiz-adv-x="590" 
d="M295 509q116 0 192 -78q72 -75 72 -181q0 -113 -76 -186t-188 -73q-115 0 -190 75t-75 184q0 114 80 188q76 71 185 71zM110 250q0 -83 52 -135q53 -53 133 -53q78 0 130 50q54 51 54 138t-55 139q-50 49 -129 49q-82 0 -133 -54q-52 -52 -52 -134zM225 572l47 153
l68 -28l-66 -145zM329 573l67 152l65 -33l-82 -142z" />
    <glyph glyph-name="OE" unicode="&#x152;" horiz-adv-x="1085" 
d="M347 611q143 0 235 -101v90h448v-74h-366v-173h326v-73h-326v-207h381v-73h-463v91q-85 -102 -235 -102q-143 0 -235 99q-82 90 -82 212q0 126 84 215q90 96 233 96zM111 300q0 -98 62 -166q68 -74 174 -74q105 0 172 73q63 66 63 167q0 99 -65 169q-68 71 -170 71
q-106 0 -173 -73q-63 -69 -63 -167z" />
    <glyph glyph-name="oe" unicode="&#x153;" horiz-adv-x="908" 
d="M295 509q115 0 184 -75v66h379v-71h-299v-133h266v-70h-266v-156h309v-70h-389v65q-70 -74 -184 -74q-115 0 -190 75t-75 184q0 114 80 188q76 71 185 71zM110 250q0 -83 52 -135q54 -54 133 -54q78 0 130 52q54 52 54 137q0 87 -55 139q-52 50 -129 50q-81 0 -133 -55
q-52 -52 -52 -134z" />
    <glyph glyph-name="Racute" unicode="&#x154;" horiz-adv-x="597" 
d="M567 384q0 -72 -41 -125q-36 -49 -98 -73l114 -186h-91l-101 171h-218v-171h-82v600h285q101 0 169 -63q63 -63 63 -153zM132 527v-284h205q71 0 111 42q37 42 37 99q0 56 -34 96q-42 47 -120 47h-199zM239 667l68 161l67 -33l-83 -152z" />
    <glyph glyph-name="racute" unicode="&#x155;" horiz-adv-x="514" 
d="M484 319q0 -58 -33 -104q-32 -41 -77 -60l96 -155h-89l-83 139h-168v-139h-80v500h243q87 0 142 -57q49 -51 49 -124zM130 430v-221h164q51 0 82 34q28 31 28 76q0 43 -28 76q-30 35 -86 35h-160zM213 574l61 153l69 -35l-79 -142z" />
    <glyph glyph-name="Rcommaaccent" unicode="&#x156;" horiz-adv-x="597" 
d="M567 384q0 -72 -41 -125q-36 -49 -98 -73l114 -186h-91l-101 171h-218v-171h-82v600h285q101 0 169 -63q63 -63 63 -153zM132 527v-284h205q71 0 111 42q37 42 37 99q0 56 -34 96q-42 47 -120 47h-199zM281 9q25 0 39 -13.5t14 -35.5q0 -16 -4 -25l-39 -96l-39 10l13 63
q-35 8 -35 48q0 21 14 35t37 14z" />
    <glyph glyph-name="rcommaaccent" unicode="&#x157;" horiz-adv-x="514" 
d="M484 319q0 -58 -33 -104q-32 -41 -77 -60l96 -155h-89l-83 139h-168v-139h-80v500h243q87 0 142 -57q49 -51 49 -124zM130 430v-221h164q51 0 82 34q28 31 28 76q0 43 -28 76q-30 35 -86 35h-160zM244 -2q25 0 39 -13.5t14 -35.5q0 -16 -4 -25l-39 -96l-39 10l13 63
q-35 8 -35 48q0 21 14 35t37 14z" />
    <glyph glyph-name="Rcaron" unicode="&#x158;" horiz-adv-x="597" 
d="M567 384q0 -72 -41 -125q-36 -49 -98 -73l114 -186h-91l-101 171h-218v-171h-82v600h285q101 0 169 -63q63 -63 63 -153zM132 527v-284h205q71 0 111 42q37 42 37 99q0 56 -34 96q-42 47 -120 47h-199zM135 769l35 36l111 -91l111 91l34 -36l-129 -128h-33z" />
    <glyph glyph-name="rcaron" unicode="&#x159;" horiz-adv-x="514" 
d="M484 319q0 -58 -33 -104q-32 -41 -77 -60l96 -155h-89l-83 139h-168v-139h-80v500h243q87 0 142 -57q49 -51 49 -124zM130 430v-221h164q51 0 82 34q28 31 28 76q0 43 -28 76q-30 35 -86 35h-160zM111 664l35 38l103 -85l102 85l36 -38l-122 -120h-33z" />
    <glyph glyph-name="Sacute" unicode="&#x15a;" horiz-adv-x="579" 
d="M37 445q0 76 69 121q67 45 178 45q125 0 233 -52l-29 -64q-96 44 -198 44q-87 0 -134 -30q-38 -24 -38 -64q0 -35 28 -53q21 -16 74 -25l129 -23q105 -22 144 -52q56 -40 56 -121q0 -84 -67 -132q-70 -50 -215 -50q-131 0 -237 49l23 66q109 -41 213 -41q122 0 168 36
q33 25 33 69q0 41 -24 62q-27 23 -104 37l-140 24q-83 14 -124 52q-38 36 -38 102zM257 667l68 161l67 -33l-83 -152z" />
    <glyph glyph-name="sacute" unicode="&#x15b;" horiz-adv-x="505" 
d="M62 295q-25 29 -25 72q0 60 43 97q53 45 169 45q104 0 200 -43l-28 -63q-89 36 -168 36t-111 -22q-25 -17 -25 -43q0 -25 20 -39q17 -13 61 -21l106 -18q91 -17 130 -51q41 -39 41 -96q0 -70 -54 -112q-57 -46 -183 -46q-111 0 -207 44l26 66q96 -38 177 -38q98 0 134 27
q27 21 27 56q0 32 -24 48q-17 11 -77 25l-118 21q-81 14 -114 55zM225 574l61 153l69 -35l-79 -142z" />
    <glyph glyph-name="Scircumflex" unicode="&#x15c;" horiz-adv-x="579" 
d="M37 445q0 76 69 121q67 45 178 45q125 0 233 -52l-29 -64q-96 44 -198 44q-87 0 -134 -30q-38 -24 -38 -64q0 -35 28 -53q21 -16 74 -25l129 -23q105 -22 144 -52q56 -40 56 -121q0 -84 -67 -132q-70 -50 -215 -50q-131 0 -237 49l23 66q109 -41 213 -41q122 0 168 36
q33 25 33 69q0 41 -24 62q-27 23 -104 37l-140 24q-83 14 -124 52q-38 36 -38 102zM177 641l-36 37l129 127h33l129 -127l-36 -37l-109 92z" />
    <glyph glyph-name="scircumflex" unicode="&#x15d;" horiz-adv-x="505" 
d="M62 295q-25 29 -25 72q0 60 43 97q53 45 169 45q104 0 200 -43l-28 -63q-89 36 -168 36t-111 -22q-25 -17 -25 -43q0 -25 20 -39q17 -13 61 -21l106 -18q91 -17 130 -51q41 -39 41 -96q0 -70 -54 -112q-57 -46 -183 -46q-111 0 -207 44l26 66q96 -38 177 -38q98 0 134 27
q27 21 27 56q0 32 -24 48q-17 11 -77 25l-118 21q-81 14 -114 55zM392 583l-35 -39l-103 86l-103 -86l-35 39l122 119h32z" />
    <glyph glyph-name="Scedilla" unicode="&#x15e;" horiz-adv-x="579" 
d="M37 445q0 76 69 121q67 45 178 45q125 0 233 -52l-29 -64q-96 44 -198 44q-87 0 -134 -30q-38 -24 -38 -64q0 -35 28 -53q21 -16 74 -25l129 -23q105 -22 144 -52q56 -40 56 -121q0 -84 -67 -132q-65 -45 -195 -50l-1 -25q28 0 48 -17q18 -20 18 -47q0 -45 -37 -76
q-35 -30 -93 -42l-14 40q41 14 60 29q22 19 22 45q0 10 -8 18q-8 6 -21 6h-32v70q-106 6 -199 48l23 66q109 -41 213 -41q122 0 168 36q33 25 33 69q0 41 -24 62q-27 23 -104 37l-140 24q-83 14 -124 52q-38 36 -38 102z" />
    <glyph glyph-name="scedilla" unicode="&#x15f;" horiz-adv-x="505" 
d="M62 295q-25 29 -25 72q0 60 43 97q53 45 169 45q104 0 200 -43l-28 -63q-89 36 -168 36t-111 -22q-25 -17 -25 -43q0 -25 20 -39q17 -13 61 -21l106 -18q91 -17 130 -51q41 -39 41 -96q0 -70 -54 -112q-52 -41 -167 -46l-1 -23q28 0 44 -19q16 -17 16 -43q0 -38 -33 -66
q-32 -27 -85 -41l-14 40q32 11 53 26q18 17 18 36q0 10 -7 16q-6 6 -19 6h-26v69q-92 6 -169 43l26 66q96 -38 177 -38q98 0 134 27q27 21 27 56q0 32 -24 48q-17 11 -77 25l-118 21q-81 14 -114 55z" />
    <glyph glyph-name="Scaron" unicode="&#x160;" horiz-adv-x="579" 
d="M37 445q0 76 69 121q67 45 178 45q125 0 233 -52l-29 -64q-96 44 -198 44q-87 0 -134 -30q-38 -24 -38 -64q0 -35 28 -53q21 -16 74 -25l129 -23q105 -22 144 -52q56 -40 56 -121q0 -84 -67 -132q-70 -50 -215 -50q-131 0 -237 49l23 66q109 -41 213 -41q122 0 168 36
q33 25 33 69q0 41 -24 62q-27 23 -104 37l-140 24q-83 14 -124 52q-38 36 -38 102zM149 769l35 36l111 -91l111 91l34 -36l-129 -128h-33z" />
    <glyph glyph-name="scaron" unicode="&#x161;" horiz-adv-x="505" 
d="M62 295q-25 29 -25 72q0 60 43 97q53 45 169 45q104 0 200 -43l-28 -63q-89 36 -168 36t-111 -22q-25 -17 -25 -43q0 -25 20 -39q17 -13 61 -21l106 -18q91 -17 130 -51q41 -39 41 -96q0 -70 -54 -112q-57 -46 -183 -46q-111 0 -207 44l26 66q96 -38 177 -38q98 0 134 27
q27 21 27 56q0 32 -24 48q-17 11 -77 25l-118 21q-81 14 -114 55zM114 664l35 38l103 -85l102 85l36 -38l-122 -120h-33z" />
    <glyph glyph-name="Tcommaaccent" unicode="&#x162;" horiz-adv-x="604" 
d="M25 529v71h554v-71h-237v-529h-80v529h-237zM301 -39q25 0 39 -13.5t14 -35.5q0 -16 -4 -25l-39 -96l-39 10l13 63q-35 8 -35 48q0 21 14 35t37 14z" />
    <glyph glyph-name="tcommaaccent" unicode="&#x163;" horiz-adv-x="517" 
d="M25 430v70h467v-70h-194v-430h-80v430h-193zM257 -31q25 0 39 -13.5t14 -35.5q0 -16 -4 -25l-39 -96l-39 10l13 63q-35 8 -35 48q0 21 14 35t37 14z" />
    <glyph glyph-name="Tcaron" unicode="&#x164;" horiz-adv-x="604" 
d="M25 529v71h554v-71h-237v-529h-80v529h-237zM156 769l35 36l111 -91l111 91l34 -36l-129 -128h-33z" />
    <glyph glyph-name="tcaron" unicode="&#x165;" horiz-adv-x="517" 
d="M25 430v70h467v-70h-194v-430h-80v430h-193zM120 664l35 38l103 -85l102 85l36 -38l-122 -120h-33z" />
    <glyph glyph-name="Tbar" unicode="&#x166;" horiz-adv-x="604" 
d="M122 298v64h140v167h-237v71h554v-71h-237v-167h140v-64h-140v-298h-80v298h-140z" />
    <glyph glyph-name="tbar" unicode="&#x167;" horiz-adv-x="517" 
d="M110 233v65h108v132h-193v70h467v-70h-194v-132h108v-65h-108v-233h-80v233h-108z" />
    <glyph glyph-name="Utilde" unicode="&#x168;" 
d="M570 600v-350q0 -117 -79 -191q-72 -70 -180 -70q-114 0 -186 74q-75 77 -75 187v350h82v-357q0 -77 51 -128q50 -53 128 -53q75 0 128 53q49 49 49 128v357h82zM382 648q-38 0 -74 17q-40 19 -72 19q-38 0 -66 -25l-32 40q48 48 101 48q34 0 78 -21q31 -16 68 -16
q33 0 64 23l32 -40q-45 -45 -99 -45z" />
    <glyph glyph-name="utilde" unicode="&#x169;" horiz-adv-x="539" 
d="M488 500v-286q0 -103 -67 -165q-61 -58 -151 -58q-96 0 -158 62q-62 64 -62 161v286h80v-291q0 -64 39 -105q39 -42 101 -42q61 0 100 41q38 40 38 106v291h80zM338 561q-34 0 -71 16q-38 18 -68 18q-36 0 -63 -23l-31 38q45 45 96 45q32 0 74 -20q27 -15 65 -15
q34 0 61 22l31 -38q-42 -43 -94 -43z" />
    <glyph glyph-name="Umacron" unicode="&#x16a;" 
d="M570 600v-350q0 -117 -79 -191q-72 -70 -180 -70q-114 0 -186 74q-75 77 -75 187v350h82v-357q0 -77 51 -128q50 -53 128 -53q75 0 128 53q49 49 49 128v357h82zM148 713h322v-63h-322v63z" />
    <glyph glyph-name="umacron" unicode="&#x16b;" horiz-adv-x="539" 
d="M488 500v-286q0 -103 -67 -165q-61 -58 -151 -58q-96 0 -158 62q-62 64 -62 161v286h80v-291q0 -64 39 -105q39 -42 101 -42q61 0 100 41q38 40 38 106v291h80zM125 624h287v-59h-287v59z" />
    <glyph glyph-name="Ubreve" unicode="&#x16c;" 
d="M570 600v-350q0 -117 -79 -191q-72 -70 -180 -70q-114 0 -186 74q-75 77 -75 187v350h82v-357q0 -77 51 -128q50 -53 128 -53q75 0 128 53q49 49 49 128v357h82zM389 767l59 -20q-14 -47 -46 -75q-36 -30 -92 -30q-59 0 -94 32q-32 27 -45 73l58 20q8 -29 28 -46
q20 -19 53 -19q32 0 52 18q18 17 27 47z" />
    <glyph glyph-name="ubreve" unicode="&#x16d;" horiz-adv-x="539" 
d="M488 500v-286q0 -103 -67 -165q-61 -58 -151 -58q-96 0 -158 62q-62 64 -62 161v286h80v-291q0 -64 39 -105q39 -42 101 -42q61 0 100 41q38 40 38 106v291h80zM268 551q-52 0 -85 30q-27 25 -37 64l56 21q7 -24 22 -39q16 -16 45 -16q28 0 44 16q11 11 23 39l55 -21
q-9 -36 -36 -63q-34 -31 -87 -31z" />
    <glyph glyph-name="Uring" unicode="&#x16e;" 
d="M570 600v-350q0 -117 -79 -191q-72 -70 -180 -70q-114 0 -186 74q-75 77 -75 187v350h82v-357q0 -77 51 -128q50 -53 128 -53q75 0 128 53q49 49 49 128v357h82zM309 625q-45 0 -75 30t-30 74t29 73q28 31 76 31t76 -31q29 -29 29 -73t-30 -74t-75 -30zM309 673
q27 0 40 16q15 15 15 40q0 24 -15 39q-14 17 -40 17q-25 0 -40 -17q-15 -15 -15 -39q0 -23 15 -40q13 -16 40 -16z" />
    <glyph glyph-name="uring" unicode="&#x16f;" horiz-adv-x="539" 
d="M488 500v-286q0 -103 -67 -165q-61 -58 -151 -58q-96 0 -158 62q-62 64 -62 161v286h80v-291q0 -64 39 -105q39 -42 101 -42q61 0 100 41q38 40 38 106v291h80zM270 553q-42 0 -70 28q-29 29 -29 70q0 42 29 69q29 29 70 29q42 0 70 -30q28 -28 28 -68q0 -43 -29 -70
q-28 -28 -69 -28zM270 601q20 0 35 15q13 14 13 35t-13 35q-14 14 -35 14q-23 0 -35 -14q-13 -13 -13 -35q0 -21 13 -35q13 -15 35 -15z" />
    <glyph glyph-name="Uhungarumlaut" unicode="&#x170;" 
d="M570 600v-350q0 -117 -79 -191q-72 -70 -180 -70q-114 0 -186 74q-75 77 -75 187v350h82v-357q0 -77 51 -128q50 -53 128 -53q75 0 128 53q49 49 49 128v357h82zM221 665l48 163l71 -28l-67 -155zM326 668l73 160l66 -33l-88 -151z" />
    <glyph glyph-name="uhungarumlaut" unicode="&#x171;" horiz-adv-x="539" 
d="M488 500v-286q0 -103 -67 -165q-61 -58 -151 -58q-96 0 -158 62q-62 64 -62 161v286h80v-291q0 -64 39 -105q39 -42 101 -42q61 0 100 41q38 40 38 106v291h80zM188 572l47 153l68 -28l-66 -145zM292 573l67 152l65 -33l-82 -142z" />
    <glyph glyph-name="Uogonek" unicode="&#x172;" 
d="M570 600v-350q0 -117 -79 -191q-53 -53 -127 -65q-15 -1 -26 -18q-9 -16 -9 -34q0 -27 17 -50q18 -21 48 -36l-20 -37q-52 15 -78 44q-27 32 -27 70q0 30 23 57q-100 6 -167 73q-75 77 -75 187v350h82v-357q0 -77 51 -128q50 -53 128 -53q75 0 128 53q49 49 49 128v357
h82z" />
    <glyph glyph-name="uogonek" unicode="&#x173;" horiz-adv-x="538" 
d="M488 500v-286q0 -103 -67 -165q-47 -46 -116 -55q-22 -15 -22 -42q0 -23 14 -43q15 -19 47 -36l-20 -36q-49 14 -72 40q-26 28 -26 65q0 28 20 50q-82 7 -134 61q-62 64 -62 161v286h80v-291q0 -64 39 -105q39 -42 101 -42q61 0 100 41q38 40 38 106v291h80z" />
    <glyph glyph-name="Wcircumflex" unicode="&#x174;" horiz-adv-x="955" 
d="M333 0h-116l-192 600h90l157 -526h8l139 526h115l145 -526h8l155 526h88l-191 -600h-118l-143 512h-8zM367 641l-36 37l129 127h33l129 -127l-36 -37l-109 92z" />
    <glyph glyph-name="wcircumflex" unicode="&#x175;" horiz-adv-x="837" 
d="M300 0h-109l-161 500h87l127 -415h6l117 415h103l120 -415h6l126 415h85l-160 -500h-110l-118 404h-5zM556 583l-35 -39l-103 86l-103 -86l-35 39l122 119h32z" />
    <glyph glyph-name="Ycircumflex" unicode="&#x176;" horiz-adv-x="649" 
d="M365 0h-80v138l-261 462h94l204 -375h7l206 375h89l-259 -460v-140zM214 641l-36 37l129 127h33l129 -127l-36 -37l-109 92z" />
    <glyph glyph-name="ycircumflex" unicode="&#x177;" horiz-adv-x="559" 
d="M320 0h-80v115l-215 385h91l163 -299h4l163 299h88l-214 -384v-116zM417 583l-35 -39l-103 86l-103 -86l-35 39l122 119h32z" />
    <glyph glyph-name="Ydieresis" unicode="&#x178;" horiz-adv-x="649" 
d="M365 0h-80v138l-261 462h94l204 -375h7l206 375h89l-259 -460v-140zM370 703q0 23 16 39.5t39 16.5t40 -16.5t17 -39.5t-17 -39.5t-40 -16.5t-39 16.5t-16 39.5zM165 703q0 23 16.5 39.5t39.5 16.5t40 -16.5t17 -39.5t-17 -39.5t-40 -16.5t-39.5 16.5t-16.5 39.5z" />
    <glyph glyph-name="Zacute" unicode="&#x179;" horiz-adv-x="599" 
d="M559 74v-74h-519v56l406 476l-168 -3h-216v71h490v-58l-400 -472l160 4h247zM251 667l68 161l67 -33l-83 -152z" />
    <glyph glyph-name="zacute" unicode="&#x17a;" horiz-adv-x="516" 
d="M476 71v-71h-436v53l324 380l-124 -2h-183v69h415v-51l-322 -382l117 4h209zM213 574l61 153l69 -35l-79 -142z" />
    <glyph glyph-name="Zdotaccent" unicode="&#x17b;" horiz-adv-x="599" 
d="M559 74v-74h-519v56l406 476l-168 -3h-216v71h490v-58l-400 -472l160 4h247zM247 697q0 23 16 38.5t39 15.5q22 0 38 -15.5t16 -38.5t-16 -38t-38 -15q-23 0 -39 15t-16 38z" />
    <glyph glyph-name="zdotaccent" unicode="&#x17c;" horiz-adv-x="516" 
d="M476 71v-71h-436v53l324 380l-124 -2h-183v69h415v-51l-322 -382l117 4h209zM207 593q0 21 15 36t36 15t36 -15t15 -36t-15 -36t-36 -15t-36 15t-15 36z" />
    <glyph glyph-name="Zcaron" unicode="&#x17d;" horiz-adv-x="599" 
d="M559 74v-74h-519v56l406 476l-168 -3h-216v71h490v-58l-400 -472l160 4h247zM161 769l35 36l111 -91l111 91l34 -36l-129 -128h-33z" />
    <glyph glyph-name="zcaron" unicode="&#x17e;" horiz-adv-x="516" 
d="M476 71v-71h-436v53l324 380l-124 -2h-183v69h415v-51l-322 -382l117 4h209zM128 664l35 38l103 -85l102 85l36 -38l-122 -120h-33z" />
    <glyph glyph-name="florin" unicode="&#x192;" horiz-adv-x="390" 
d="M43 -175l-29 59q39 12 60 40q23 29 23 76v432h-72v68h72v8q0 73 52 120q50 46 128 46q88 0 155 -63l-41 -45q-50 42 -114 42q-50 0 -80 -33q-23 -25 -23 -67v-8h195v-68h-195v-435q0 -70 -44 -121q-29 -33 -87 -51z" />
    <glyph glyph-name="AEacute" unicode="&#x1fc;" horiz-adv-x="996" 
d="M493 0v145h-283l-91 -145h-94l386 600h530v-74h-367v-173h327v-72h-327v-208h382v-73h-463zM452 525l-196 -307h237v307h-41zM498 667l68 161l67 -33l-83 -152z" />
    <glyph glyph-name="aeacute" unicode="&#x1fd;" horiz-adv-x="845" 
d="M416 0v114h-226l-70 -114h-95l316 500h452v-71h-297v-130h264v-71h-264v-158h309v-70h-389zM384 427l-150 -243h182v243h-32zM422 574l61 153l69 -35l-79 -142z" />
    <glyph glyph-name="Oslashacute" unicode="&#x1fe;" horiz-adv-x="694" 
d="M347 611q75 0 138 -29l25 40l62 -38l-25 -39q54 -42 82 -97q34 -64 34 -148q0 -131 -86 -217q-89 -94 -230 -94q-72 0 -140 30l-32 -50l-61 39l32 49q-55 42 -86 109q-30 65 -30 134q0 126 84 215q90 96 233 96zM581 300q0 56 -19 101q-20 47 -58 79q-10 -15 -126 -197
t-130 -203q48 -20 99 -20q104 0 171 73q63 69 63 167zM111 300q0 -61 22 -109q20 -43 55 -71l255 399q-47 21 -96 21q-103 0 -173 -73q-63 -69 -63 -167zM333 667l68 161l67 -33l-83 -152z" />
    <glyph glyph-name="oslashacute" unicode="&#x1ff;" horiz-adv-x="590" 
d="M295 509q71 0 130 -32l24 32l55 -40l-24 -32q40 -40 61 -89q19 -49 19 -98q0 -112 -77 -186q-76 -73 -188 -73q-71 0 -127 30l-23 -31l-55 40l21 29q-41 41 -61 88q-20 51 -20 103q0 114 80 188q76 71 185 71zM110 250q0 -37 12 -70q11 -32 36 -60l222 300q-39 19 -85 19
q-81 0 -133 -55q-52 -52 -52 -134zM466 323q-10 30 -31 54l-223 -298q41 -18 83 -18q77 0 130 51q54 51 54 138q0 36 -13 73zM291 574l61 153l69 -35l-79 -142z" />
    <glyph glyph-name="Scommaaccent" unicode="&#x218;" horiz-adv-x="579" 
d="M37 445q0 76 69 121q67 45 178 45q125 0 233 -52l-29 -64q-96 44 -198 44q-87 0 -134 -30q-38 -24 -38 -64q0 -35 28 -53q21 -16 74 -25l129 -23q105 -22 144 -52q56 -40 56 -121q0 -84 -67 -132q-70 -50 -215 -50q-131 0 -237 49l23 66q109 -41 213 -41q122 0 168 36
q33 25 33 69q0 41 -24 62q-27 23 -104 37l-140 24q-83 14 -124 52q-38 36 -38 102zM272 -41q25 0 39.5 -14t14.5 -36q0 -14 -5 -26l-37 -96l-38 8l10 66q-35 11 -35 48q0 22 14 36t37 14z" />
    <glyph glyph-name="scommaaccent" unicode="&#x219;" horiz-adv-x="505" 
d="M62 295q-25 29 -25 72q0 60 43 97q53 45 169 45q104 0 200 -43l-28 -63q-89 36 -168 36t-111 -22q-25 -17 -25 -43q0 -25 20 -39q17 -13 61 -21l106 -18q91 -17 130 -51q41 -39 41 -96q0 -70 -54 -112q-57 -46 -183 -46q-111 0 -207 44l26 66q96 -38 177 -38q98 0 134 27
q27 21 27 56q0 32 -24 48q-17 11 -77 25l-118 21q-81 14 -114 55zM249 -42q25 0 39 -13.5t14 -35.5q0 -16 -4 -25l-39 -96l-39 10l13 63q-35 8 -35 48q0 21 14 35t37 14z" />
    <glyph glyph-name="uni021A" unicode="&#x21a;" horiz-adv-x="604" 
d="M25 529v71h554v-71h-237v-529h-19q35 -19 35 -62q0 -37 -27 -69q-25 -30 -76 -44l-20 37q32 17 47 37q17 20 17 48q0 43 -37 53v529h-237z" />
    <glyph glyph-name="uni021B" unicode="&#x21b;" horiz-adv-x="517" 
d="M25 430v70h467v-70h-194v-430h-18q27 -17 27 -55q0 -36 -26 -64q-23 -24 -73 -41l-19 36q32 16 46 36q15 20 15 44q0 35 -32 44v430h-193z" />
    <glyph glyph-name="circumflex" unicode="&#x2c6;" horiz-adv-x="376" 
d="M326 583l-35 -39l-103 86l-103 -86l-35 39l122 119h32z" />
    <glyph glyph-name="caron" unicode="&#x2c7;" horiz-adv-x="376" 
d="M50 664l35 38l103 -85l102 85l36 -38l-122 -120h-33z" />
    <glyph glyph-name="uni02C9" unicode="&#x2c9;" horiz-adv-x="327" 
d="M0 608h327v-60h-327v60z" />
    <glyph glyph-name="breve" unicode="&#x2d8;" horiz-adv-x="345" 
d="M172 551q-52 0 -85 30q-27 25 -37 64l56 21q7 -24 22 -39q16 -16 45 -16q28 0 44 16q11 11 23 39l55 -21q-9 -36 -36 -63q-34 -31 -87 -31z" />
    <glyph glyph-name="dotaccent" unicode="&#x2d9;" horiz-adv-x="202" 
d="M50 45q0 21 15 36t36 15t36 -15t15 -36t-15 -36t-36 -15t-36 15t-15 36z" />
    <glyph glyph-name="ring" unicode="&#x2da;" horiz-adv-x="297" 
d="M149 553q-42 0 -70 28q-29 29 -29 70q0 42 29 69q29 29 70 29t70 -30q28 -28 28 -68q0 -43 -29 -70q-28 -28 -69 -28zM149 601q20 0 35 15q13 14 13 35t-13 35q-14 14 -35 14q-23 0 -35 -14q-13 -13 -13 -35q0 -21 13 -35q13 -15 35 -15z" />
    <glyph glyph-name="ogonek" unicode="&#x2db;" horiz-adv-x="218" 
d="M102 13l33 -16q-13 -7 -21 -18q-7 -10 -7 -27q0 -23 14 -43q15 -19 47 -36l-20 -36q-49 14 -72 40q-26 28 -26 65q0 26 15 44q16 17 37 27z" />
    <glyph glyph-name="tilde" unicode="&#x2dc;" horiz-adv-x="427" 
d="M283 561q-34 0 -71 16q-38 18 -68 18q-36 0 -63 -23l-31 38q45 45 96 45q32 0 74 -20q27 -15 65 -15q34 0 61 22l31 -38q-42 -43 -94 -43z" />
    <glyph glyph-name="hungarumlaut" unicode="&#x2dd;" horiz-adv-x="336" 
d="M50 572l47 153l68 -28l-66 -145zM154 573l67 152l65 -33l-82 -142z" />
    <glyph glyph-name="afii10023" unicode="&#x401;" horiz-adv-x="559" 
d="M50 0v600h458v-74h-376v-173h336v-73h-336v-207h391v-73h-473zM325 703q0 23 16 39.5t39 16.5t40 -16.5t17 -39.5t-17 -39.5t-40 -16.5t-39 16.5t-16 39.5zM120 703q0 23 16.5 39.5t39.5 16.5t40 -16.5t17 -39.5t-17 -39.5t-40 -16.5t-39.5 16.5t-16.5 39.5z" />
    <glyph glyph-name="afii10051" unicode="&#x402;" horiz-adv-x="751" 
d="M20 530v70h496v-70h-213v-130q77 56 173 56q110 0 171 -70q53 -62 53 -163v-154q0 -71 -21 -121t-74 -97l-43 41q33 39 46.5 79t13.5 96v156q0 80 -38 124q-37 42 -108 42q-94 0 -173 -61v-328h-81v530h-202z" />
    <glyph glyph-name="afii10052" unicode="&#x403;" horiz-adv-x="529" 
d="M131 529v-529h-81v600h454v-71h-373zM246 667l68 161l67 -33l-83 -152z" />
    <glyph glyph-name="afii10053" unicode="&#x404;" horiz-adv-x="610" 
d="M451 349v-72h-338q6 -81 54 -135q32 -38 80 -59t100 -21q104 0 184 71l49 -54q-94 -90 -233 -90q-135 0 -228 90q-89 87 -89 223q0 137 89 221q93 88 227 88q75 0 129 -21t105 -67l-50 -55q-76 70 -184 70q-105 0 -172 -69q-48 -52 -58 -120h335z" />
    <glyph glyph-name="afii10054" unicode="&#x405;" horiz-adv-x="579" 
d="M37 445q0 76 69 121q67 45 178 45q125 0 233 -52l-29 -64q-96 44 -198 44q-87 0 -134 -30q-38 -24 -38 -64q0 -35 28 -53q21 -16 74 -25l129 -23q105 -22 144 -52q56 -40 56 -121q0 -84 -67 -132q-70 -50 -215 -50q-131 0 -237 49l23 66q109 -41 213 -41q122 0 168 36
q33 25 33 69q0 41 -24 62q-27 23 -104 37l-140 24q-83 14 -124 52q-38 36 -38 102z" />
    <glyph glyph-name="afii10055" unicode="&#x406;" horiz-adv-x="180" 
d="M130 600v-600h-80v600h80z" />
    <glyph glyph-name="afii10056" unicode="&#x407;" horiz-adv-x="180" 
d="M130 600v-600h-80v600h80zM138 703q0 23 16 39.5t39 16.5t40 -16.5t17 -39.5t-17 -39.5t-40 -16.5t-39 16.5t-16 39.5zM-67 703q0 23 16.5 39.5t39.5 16.5t40 -16.5t17 -39.5t-17 -39.5t-40 -16.5t-39.5 16.5t-16.5 39.5z" />
    <glyph glyph-name="afii10057" unicode="&#x408;" horiz-adv-x="523" 
d="M396 600h82v-337q0 -134 -67 -204q-68 -70 -197 -70q-118 0 -199 81l43 55q70 -61 153 -61q90 0 137 46q48 45 48 135v355z" />
    <glyph glyph-name="afii10058" unicode="&#x409;" horiz-adv-x="1055" 
d="M224 600h396v-169h174q107 0 173 -69q57 -60 57 -145q0 -91 -62 -153q-64 -64 -168 -64h-255v529h-243l-57 -404q-7 -57 -46 -93t-98 -36q-43 0 -80 12l15 65q24 -5 47 -5q39 0 62 24q18 20 24 59zM943 217q0 59 -38 97q-41 46 -116 46h-169v-289h175q65 0 107 40
q41 38 41 106z" />
    <glyph glyph-name="afii10059" unicode="&#x40a;" horiz-adv-x="990" 
d="M474 600h81v-169h174q107 0 173 -69q57 -60 57 -145q0 -91 -62 -153q-64 -64 -168 -64h-255v288h-344v-288h-80v600h80v-241h344v241zM878 217q0 55 -37 97q-41 46 -117 46h-169v-289h175q65 0 107 40q41 38 41 106z" />
    <glyph glyph-name="afii10060" unicode="&#x40b;" horiz-adv-x="751" 
d="M20 530v70h496v-70h-213v-130q77 56 173 56q110 0 171 -70q53 -62 53 -163v-223h-78v223q0 80 -38 124q-37 42 -108 42q-94 0 -173 -61v-328h-81v530h-202z" />
    <glyph glyph-name="afii10061" unicode="&#x40c;" horiz-adv-x="608" 
d="M50 600h80v-244h104q33 0 52 10q17 11 33 37l72 125q21 37 53 57q34 22 84 22q26 0 50 -5l-8 -68h-17q-36 0 -57 -10q-24 -13 -37 -35l-71 -122q-13 -23 -33 -42l222 -325h-94l-194 290q-19 -6 -52 -6h-107v-284h-80v600zM244 667l68 161l67 -33l-83 -152z" />
    <glyph glyph-name="afii10062" unicode="&#x40e;" horiz-adv-x="655" 
d="M537 600h91l-264 -497q-29 -56 -59 -80q-34 -28 -87 -28q-28 0 -53 4l9 64h22q38 0 57 13q20 14 30 35l11 21l-270 468h96l216 -387h6zM419 767l59 -20q-14 -47 -46 -75q-36 -30 -92 -30q-59 0 -94 32q-32 27 -45 73l58 20q8 -29 28 -46q20 -19 53 -19q32 0 52 18
q18 17 27 47z" />
    <glyph glyph-name="afii10145" unicode="&#x40f;" 
d="M131 71h358v529h81v-600h-221l-5 -123h-69l-5 123h-220v600h81v-529z" />
    <glyph glyph-name="afii10017" unicode="&#x410;" horiz-adv-x="684" 
d="M291 600h101l267 -600h-88l-52 115h-357l-51 -115h-86zM331 522l-139 -334h297l-140 334h-18z" />
    <glyph glyph-name="afii10018" unicode="&#x411;" horiz-adv-x="596" 
d="M131 402h219q101 0 158 -63q53 -56 53 -137q0 -84 -58 -142q-57 -60 -153 -60h-300v600h446v-71h-365v-127zM481 202q0 54 -33 88q-36 41 -103 41h-214v-260h219q63 0 99 42q32 35 32 89z" />
    <glyph glyph-name="afii10019" unicode="&#x412;" horiz-adv-x="606" 
d="M372 0h-322v600h309q85 0 132 -51q39 -39 39 -100q0 -39 -16 -67q-17 -30 -46 -47v-5q42 -16 70 -57q28 -40 28 -94q0 -76 -53 -126q-55 -53 -141 -53zM486 180q0 42 -23 71q-32 37 -93 37h-239v-219h234q57 0 93 36q28 31 28 75zM450 443q0 39 -25 62q-27 25 -80 25
h-214v-173h230q47 0 67 27q22 25 22 59z" />
    <glyph glyph-name="afii10020" unicode="&#x413;" horiz-adv-x="529" 
d="M131 529v-529h-81v600h454v-71h-373z" />
    <glyph glyph-name="afii10021" unicode="&#x414;" horiz-adv-x="697" 
d="M203 600h406v-529h63v-193h-66l-13 122h-492l-12 -122h-64v193q52 0 86 41q25 31 37 100zM529 529h-257l-49 -336q-11 -79 -53 -122h359v458z" />
    <glyph glyph-name="afii10022" unicode="&#x415;" horiz-adv-x="563" 
d="M50 0v600h458v-74h-376v-173h336v-73h-336v-207h391v-73h-473z" />
    <glyph glyph-name="afii10024" unicode="&#x416;" horiz-adv-x="932" 
d="M359 356h67v244h79v-244h67q36 0 55 12q15 8 26 30l63 131q19 39 54 59q34 19 79 19q28 0 52 -5l-8 -67h-18q-41 0 -61 -13q-18 -11 -29 -32l-60 -122q-10 -21 -33 -42l203 -326h-96l-172 290q-23 -6 -48 -6h-74v-284h-79v284h-74q-26 0 -48 6l-172 -290h-96l203 326
q-23 21 -33 42l-60 122q-11 21 -29 32q-20 13 -61 13h-18l-8 67q24 5 52 5q45 0 79 -19q35 -20 54 -59l63 -131q11 -22 26 -30q20 -12 55 -12z" />
    <glyph glyph-name="afii10025" unicode="&#x417;" horiz-adv-x="597" 
d="M285 62q100 0 151 39q44 33 44 92q0 40 -26 71q-28 34 -85 34h-216v70h198q45 0 71 28q19 22 19 53q0 40 -35 63q-46 30 -132 30q-93 0 -185 -39l-27 58q97 50 219 50q119 0 185 -48q56 -42 56 -111q0 -37 -19 -65q-12 -22 -43 -42v-4q47 -21 69 -49q33 -40 33 -99
q0 -89 -70 -146q-71 -58 -207 -58q-150 0 -252 61l30 63q101 -51 222 -51z" />
    <glyph glyph-name="afii10026" unicode="&#x418;" horiz-adv-x="641" 
d="M128 600v-487l383 487h80v-600h-77v487l-385 -487h-79v600h78z" />
    <glyph glyph-name="afii10027" unicode="&#x419;" horiz-adv-x="639" 
d="M128 600v-487l383 487h80v-600h-77v487l-385 -487h-79v600h78zM402 767l59 -20q-14 -47 -46 -75q-36 -30 -92 -30q-59 0 -94 32q-32 27 -45 73l58 20q8 -29 28 -46q20 -19 53 -19t52 18q18 17 27 47z" />
    <glyph glyph-name="afii10028" unicode="&#x41a;" horiz-adv-x="608" 
d="M50 600h80v-244h104q33 0 52 10q17 11 33 37l72 125q21 37 53 57q34 22 84 22q26 0 50 -5l-8 -68h-17q-36 0 -57 -10q-24 -13 -37 -35l-71 -122q-13 -23 -33 -42l222 -325h-94l-194 290q-19 -6 -52 -6h-107v-284h-80v600z" />
    <glyph glyph-name="afii10029" unicode="&#x41b;" horiz-adv-x="691" 
d="M225 600h415v-600h-80v529h-265l-56 -404q-7 -57 -45 -93t-98 -36q-44 0 -81 12l15 65q24 -5 47 -5q38 0 59 21q23 23 27 62z" />
    <glyph glyph-name="afii10030" unicode="&#x41c;" horiz-adv-x="751" 
d="M50 600h98l230 -322l226 322h97v-600h-81v491h-6l-228 -323h-25l-229 323h-6v-491h-76v600z" />
    <glyph glyph-name="afii10031" unicode="&#x41d;" horiz-adv-x="624" 
d="M494 600h80v-600h-80v288h-363v-288h-81v600h81v-241h363v241z" />
    <glyph glyph-name="afii10032" unicode="&#x41e;" horiz-adv-x="694" 
d="M347 611q138 0 227 -89t89 -222q0 -131 -86 -217q-89 -94 -230 -94q-143 0 -235 99q-82 90 -82 212q0 126 84 215q90 96 233 96zM111 300q0 -97 63 -166q68 -74 173 -74q104 0 171 73q63 69 63 167q0 101 -64 168q-69 72 -170 72q-103 0 -173 -73q-63 -69 -63 -167z" />
    <glyph glyph-name="afii10033" unicode="&#x41f;" horiz-adv-x="616" 
d="M50 600h516v-600h-81v529h-354v-529h-81v600z" />
    <glyph glyph-name="afii10034" unicode="&#x420;" horiz-adv-x="591" 
d="M561 384q0 -87 -64 -151q-65 -62 -168 -62h-196v-171h-83v600h279q119 0 183 -79q49 -57 49 -137zM133 243h202q71 0 109 45q35 45 35 96q0 58 -35 96q-41 47 -118 47h-193v-284z" />
    <glyph glyph-name="afii10035" unicode="&#x421;" horiz-adv-x="610" 
d="M111 302q0 -103 65 -170q69 -71 171 -71q99 0 185 74l48 -54q-93 -92 -233 -92q-134 0 -226 90q-91 86 -91 223q0 130 89 219q90 90 228 90q73 0 128 -22t105 -68l-50 -54q-82 72 -183 72q-100 0 -167 -67q-69 -69 -69 -170z" />
    <glyph glyph-name="afii10036" unicode="&#x422;" horiz-adv-x="604" 
d="M25 529v71h554v-71h-237v-529h-80v529h-237z" />
    <glyph glyph-name="afii10037" unicode="&#x423;" horiz-adv-x="653" 
d="M537 600h91l-264 -497q-29 -56 -59 -80q-34 -28 -87 -28q-28 0 -53 4l9 64h22q38 0 57 13q20 14 30 35l11 21l-270 468h96l216 -387h6z" />
    <glyph glyph-name="afii10038" unicode="&#x424;" horiz-adv-x="807" 
d="M443 611v-64h88q111 0 182 -74q63 -69 63 -163q0 -102 -73 -172q-70 -65 -172 -65h-88v-73h-79v73h-88q-109 0 -179 70q-67 67 -67 167q0 89 56 155q69 82 190 82h88v64h79zM524 474h-81v-327h81q80 0 126 45q48 43 48 118q0 69 -46 117q-47 47 -128 47zM153 197
q50 -50 130 -50h81v327h-81q-89 0 -138 -58q-37 -43 -37 -106q0 -68 45 -113z" />
    <glyph glyph-name="afii10039" unicode="&#x425;" horiz-adv-x="635" 
d="M139 600l177 -243l170 243h95l-210 -288l234 -312h-100l-191 264l-191 -264h-94l228 311l-217 289h99z" />
    <glyph glyph-name="afii10040" unicode="&#x426;" horiz-adv-x="653" 
d="M131 71h358v529h81v-529h58v-194h-65l-12 123h-501v600h81v-529z" />
    <glyph glyph-name="afii10041" unicode="&#x427;" horiz-adv-x="630" 
d="M580 0h-81v201q-90 -56 -187 -56q-131 0 -200 72q-67 69 -67 212v171h80v-166q0 -117 50 -167q48 -49 142 -49q99 0 182 53v329h81v-600z" />
    <glyph glyph-name="afii10042" unicode="&#x428;" horiz-adv-x="849" 
d="M465 600v-529h253v529h81v-600h-749v600h81v-529h253v529h81z" />
    <glyph glyph-name="afii10043" unicode="&#x429;" horiz-adv-x="883" 
d="M465 600v-529h253v529h81v-529h58v-194h-65l-12 123h-730v600h81v-529h253v529h81z" />
    <glyph glyph-name="afii10044" unicode="&#x42a;" horiz-adv-x="691" 
d="M660 217q0 -91 -62 -153q-62 -64 -168 -64h-274v528l-136 8v64h217v-169h193q109 0 173 -69q57 -60 57 -145zM579 217q0 58 -37 98q-42 45 -117 45h-188v-289h194q67 0 107 40q41 38 41 106z" />
    <glyph glyph-name="afii10045" unicode="&#x42b;" horiz-adv-x="746" 
d="M555 217q0 -91 -63 -154t-167 -63h-275v600h81v-169h194q108 0 172 -69q58 -60 58 -145zM473 217q0 58 -37 98q-42 45 -116 45h-189v-289h195q66 0 106 40q41 38 41 106zM696 600v-600h-81v600h81z" />
    <glyph glyph-name="afii10046" unicode="&#x42c;" horiz-adv-x="585" 
d="M555 217q0 -91 -63 -154t-168 -63h-274v600h81v-169h193q111 0 174 -68q57 -64 57 -146zM473 217q0 61 -36 98q-42 45 -118 45h-188v-289h194q67 0 107 40q41 38 41 106z" />
    <glyph glyph-name="afii10047" unicode="&#x42d;" horiz-adv-x="610" 
d="M158 277v72h338q-12 71 -58 121q-67 69 -173 69q-107 0 -186 -70l-49 55q94 87 235 87q136 0 228 -87q86 -83 86 -220q0 -138 -87 -225q-87 -90 -228 -90q-138 0 -235 90l50 54q82 -72 185 -72q108 0 167 59q57 56 67 157h-340z" />
    <glyph glyph-name="afii10048" unicode="&#x42e;" horiz-adv-x="872" 
d="M536 611q132 0 221 -92q85 -90 85 -219q0 -139 -96 -230q-84 -81 -210 -81q-130 0 -220 93q-71 74 -82 191h-104v-273h-80v600h80v-256h105q13 102 82 175q86 92 219 92zM760 300q0 105 -62 170q-61 69 -162 69q-104 0 -167 -75q-55 -64 -55 -164t61 -166q64 -72 161 -72
q93 0 158 65q66 66 66 173z" />
    <glyph glyph-name="afii10049" unicode="&#x42f;" horiz-adv-x="596" 
d="M31 384q0 84 58 147q69 69 178 69h279v-600h-80v170h-223l-112 -170h-92l127 186q-60 25 -98 77q-37 52 -37 121zM114 384q0 -48 26 -86q40 -57 127 -57h199v288h-199q-82 0 -124 -56q-29 -37 -29 -89z" />
    <glyph glyph-name="afii10065" unicode="&#x430;" horiz-adv-x="588" 
d="M247 500h93l223 -500h-88l-41 94h-284l-41 -94h-84zM286 417l-106 -252h223l-105 252h-12z" />
    <glyph glyph-name="afii10066" unicode="&#x431;" horiz-adv-x="514" 
d="M131 338h169q83 0 136 -56q43 -46 43 -112q0 -68 -44 -115q-50 -55 -135 -55h-250v500h376v-68h-295v-94zM131 267v-197h168q53 0 81 33q21 27 21 67q0 42 -24 69q-28 28 -80 28h-166z" />
    <glyph glyph-name="afii10067" unicode="&#x432;" horiz-adv-x="523" 
d="M318 0h-268v500h258q74 0 115 -44q32 -34 32 -86q0 -33 -14 -56q-10 -18 -33 -35v-4q32 -13 52 -45q23 -32 23 -79q0 -64 -45 -107q-46 -44 -120 -44zM405 151q0 33 -18 54q-23 27 -63 27h-194v-164h190q41 0 63 25q22 22 22 58zM376 366q0 29 -19 46q-19 19 -54 19h-173
v-130h185q27 0 45 20q16 19 16 45z" />
    <glyph glyph-name="afii10068" unicode="&#x433;" horiz-adv-x="468" 
d="M130 430v-430h-80v500h383v-70h-303z" />
    <glyph glyph-name="afii10069" unicode="&#x434;" horiz-adv-x="601" 
d="M172 500h345v-430h54v-170h-67l-10 100h-393l-10 -100h-66v170h17q35 0 57 32q20 31 27 78zM437 430h-197l-39 -268q-9 -62 -39 -92h275v360z" />
    <glyph glyph-name="afii10070" unicode="&#x435;" horiz-adv-x="489" 
d="M50 0v500h389v-71h-309v-133h276v-70h-276v-156h319v-70h-399z" />
    <glyph glyph-name="afii10072" unicode="&#x436;" horiz-adv-x="794" 
d="M303 301h55v199h77v-199h55q23 0 37 8q13 7 21 23l52 108q16 33 45 50q25 16 68 16q25 0 49 -5l-7 -65h-20q-26 0 -44 -8q-16 -7 -24 -26l-49 -99q-10 -21 -25 -34l167 -269h-94l-137 235q-13 -4 -36 -4h-58v-231h-77v231h-58q-23 0 -36 4l-137 -235h-94l167 269
q-15 13 -25 34l-49 99q-8 19 -24 26q-18 8 -44 8h-20l-7 65q24 5 49 5q43 0 68 -16q29 -17 45 -50l52 -108q8 -16 21 -23q14 -8 37 -8z" />
    <glyph glyph-name="afii10073" unicode="&#x437;" horiz-adv-x="512" 
d="M244 62q79 0 118 30q35 26 35 70q0 35 -19 54q-24 26 -76 26h-171v68h156q45 0 63 21q15 15 15 39q0 30 -27 49q-31 22 -103 22q-73 0 -157 -32l-24 58q81 42 187 42q102 0 155 -41q48 -36 48 -96q0 -29 -14 -52q-12 -20 -33 -33v-4q34 -15 53 -40q27 -35 27 -81
q0 -78 -61 -123q-65 -48 -172 -48q-121 0 -214 49l26 62q95 -40 188 -40z" />
    <glyph glyph-name="afii10074" unicode="&#x438;" horiz-adv-x="554" 
d="M127 500v-383l302 383h75v-500h-76v383l-303 -383h-75v500h77z" />
    <glyph glyph-name="afii10075" unicode="&#x439;" horiz-adv-x="552" 
d="M127 500v-383l302 383h75v-500h-76v383l-303 -383h-75v500h77zM275 551q-52 0 -85 30q-27 25 -37 64l56 21q7 -24 22 -39q16 -16 45 -16q28 0 44 16q11 11 23 39l55 -21q-9 -36 -36 -63q-34 -31 -87 -31z" />
    <glyph glyph-name="afii10076" unicode="&#x43a;" horiz-adv-x="528" 
d="M50 500h79v-199h80q26 0 40 9q12 7 22 25l57 104q18 34 44 49q28 18 73 18q28 0 49 -5l-9 -66h-20q-30 0 -46 -10q-13 -8 -23 -25l-54 -97q-14 -22 -26 -33l182 -270h-94l-153 235q-13 -4 -37 -4h-85v-231h-79v500z" />
    <glyph glyph-name="afii10077" unicode="&#x43b;" horiz-adv-x="594" 
d="M191 500h353v-500h-80v429h-203l-46 -323q-8 -52 -40 -81q-35 -29 -85 -29q-42 0 -75 12l17 64q19 -6 42 -6q30 0 44 14q17 15 21 49z" />
    <glyph glyph-name="afii10078" unicode="&#x43c;" horiz-adv-x="645" 
d="M50 500h90l183 -261l182 261h90v-500h-80v386h-4l-175 -252h-29l-177 252h-4v-386h-76v500z" />
    <glyph glyph-name="afii10079" unicode="&#x43d;" horiz-adv-x="539" 
d="M413 500h80v-500h-80v231h-283v-231h-80v500h80v-198h283v198z" />
    <glyph glyph-name="afii10080" unicode="&#x43e;" horiz-adv-x="590" 
d="M295 509q116 0 192 -78q72 -75 72 -181q0 -113 -76 -186t-188 -73q-115 0 -190 75t-75 184q0 114 80 188q76 71 185 71zM110 250q0 -83 52 -135q53 -53 133 -53q78 0 130 50q54 51 54 138t-55 139q-50 49 -129 49q-82 0 -133 -54q-52 -52 -52 -134z" />
    <glyph glyph-name="afii10081" unicode="&#x43f;" horiz-adv-x="547" 
d="M131 429v-429h-80v500h445v-500h-80v429h-285z" />
    <glyph glyph-name="afii10082" unicode="&#x440;" horiz-adv-x="509" 
d="M479 319q0 -72 -48 -122q-56 -58 -143 -58h-158v-139h-80v500h238q86 0 141 -57q50 -50 50 -124zM130 209h164q46 0 77 33q28 33 28 77q0 43 -26 75q-31 36 -87 36h-156v-221z" />
    <glyph glyph-name="afii10083" unicode="&#x441;" horiz-adv-x="535" 
d="M116 251q0 -82 50 -134q54 -54 135 -54q86 0 151 59l48 -53q-84 -78 -199 -78q-114 0 -189 75q-77 75 -77 185q0 107 76 183q75 75 190 75q117 0 199 -78l-48 -53q-63 59 -151 59q-81 0 -133 -51q-52 -52 -52 -135z" />
    <glyph glyph-name="afii10084" unicode="&#x442;" horiz-adv-x="517" 
d="M25 430v70h467v-70h-194v-430h-80v430h-193z" />
    <glyph glyph-name="afii10085" unicode="&#x443;" horiz-adv-x="563" 
d="M449 500h89l-217 -413q-24 -46 -53 -68q-28 -22 -73 -22q-22 0 -50 5l6 60h23q25 0 40 9q16 8 26 28l8 14l-223 387h94l171 -310h5z" />
    <glyph glyph-name="afii10086" unicode="&#x444;" horiz-adv-x="682" 
d="M380 509v-53h68q97 0 157 -70q47 -57 47 -128q0 -82 -58 -140q-60 -58 -146 -58h-68v-60h-78v60h-68q-89 0 -148 61q-56 59 -56 137q0 81 54 137q56 61 150 61h68v53h78zM142 169q36 -38 98 -38h62v255h-62q-60 0 -97 -37q-36 -36 -36 -91q0 -54 35 -89zM442 386h-62
v-255h62q63 0 97 37q36 36 36 90q0 46 -32 85q-37 43 -101 43z" />
    <glyph glyph-name="afii10087" unicode="&#x445;" horiz-adv-x="542" 
d="M129 500l141 -194l135 194h94l-175 -240l193 -260h-97l-151 210l-151 -210h-93l188 258l-178 242h94z" />
    <glyph glyph-name="afii10088" unicode="&#x446;" horiz-adv-x="561" 
d="M130 71h276v429h81v-429h49v-172h-66l-10 101h-410v500h80v-429z" />
    <glyph glyph-name="afii10089" unicode="&#x447;" horiz-adv-x="543" 
d="M493 0h-81v159q-64 -40 -145 -40q-109 0 -170 64q-29 31 -43 69.5t-14 100.5v147h81v-143q0 -90 37 -130q38 -38 112 -38q80 0 142 42v269h81v-500z" />
    <glyph glyph-name="afii10090" unicode="&#x448;" horiz-adv-x="725" 
d="M402 500v-430h193v430h80v-500h-625v500h80v-430h192v430h80z" />
    <glyph glyph-name="afii10091" unicode="&#x449;" horiz-adv-x="748" 
d="M676 500v-430h47v-170h-65l-11 100h-597v500h80v-430h193v430h80v-430h193v430h80z" />
    <glyph glyph-name="afii10092" unicode="&#x44a;" horiz-adv-x="587" 
d="M557 182q0 -79 -54 -130q-55 -52 -137 -52h-235v429l-111 7v64h191v-138h155q82 0 138 -53q53 -51 53 -127zM477 182q0 45 -28 76q-33 33 -87 33h-151v-220h156q50 0 81 31q29 32 29 80z" />
    <glyph glyph-name="afii10093" unicode="&#x44b;" horiz-adv-x="656" 
d="M476 182q0 -79 -54 -130q-54 -52 -142 -52h-230v500h80v-138h155q85 0 141 -56q50 -52 50 -124zM396 182q0 43 -27 73q-33 36 -87 36h-152v-220h155q52 0 84 34q27 30 27 77zM525 500h81v-500h-81v500z" />
    <glyph glyph-name="afii10094" unicode="&#x44c;" horiz-adv-x="506" 
d="M476 182q0 -72 -46 -123q-56 -59 -145 -59h-235v500h80v-138h155q91 0 148 -63q43 -49 43 -117zM396 182q0 39 -23 70q-32 39 -91 39h-152v-220h160q47 0 78 33q28 31 28 78z" />
    <glyph glyph-name="afii10095" unicode="&#x44d;" horiz-adv-x="534" 
d="M142 222v71h278q-6 61 -52 102q-50 44 -126 44q-88 0 -154 -60l-47 50q80 80 203 80q114 0 186 -70q74 -71 74 -189q0 -119 -76 -191q-71 -68 -184 -68q-121 0 -204 79l47 53q67 -61 155 -61q84 0 132 50q44 44 48 110h-280z" />
    <glyph glyph-name="afii10096" unicode="&#x44e;" horiz-adv-x="745" 
d="M459 509q114 0 187 -79q68 -74 68 -180q0 -109 -70 -182q-74 -77 -185 -77q-106 0 -177 68q-65 62 -76 162h-75v-221h-81v500h81v-208h76q13 94 81 154q71 63 171 63zM634 250q0 79 -43 128q-48 61 -132 61q-69 0 -116 -44q-60 -55 -60 -145q0 -83 48 -133
q50 -55 128 -55t129 56q46 52 46 132z" />
    <glyph glyph-name="afii10097" unicode="&#x44f;" horiz-adv-x="511" 
d="M28 319q0 73 48 123q56 58 148 58h237v-500h-80v138h-171l-88 -138h-91l104 155q-48 23 -76 64q-31 47 -31 100zM109 319q0 -43 26 -75q31 -36 89 -36h157v221h-158q-55 0 -86 -33q-28 -33 -28 -77z" />
    <glyph glyph-name="afii10071" unicode="&#x451;" horiz-adv-x="485" 
d="M50 0v500h389v-71h-309v-133h276v-70h-276v-156h319v-70h-399zM283 611q0 22 15 37t37 15t37 -15t15 -37t-15 -37t-37 -15t-37 15t-15 37zM96 611q0 22 15 37t37 15t37 -15t15 -37t-15 -37t-37 -15t-37 15t-15 37z" />
    <glyph glyph-name="afii10099" unicode="&#x452;" horiz-adv-x="691" 
d="M23 430v70h471v-70h-196v-98q58 38 135 38q93 0 151 -49q70 -59 70 -172v-87q0 -66 -28 -112q-24 -41 -73 -76l-41 42q34 34 46 64q15 34 15 86v89q0 77 -37 110q-38 35 -106 35q-76 0 -132 -39v-261h-80v430h-195z" />
    <glyph glyph-name="afii10100" unicode="&#x453;" horiz-adv-x="468" 
d="M130 430v-430h-80v500h383v-70h-303zM223 574l61 153l69 -35l-79 -142z" />
    <glyph glyph-name="afii10101" unicode="&#x454;" horiz-adv-x="534" 
d="M389 293v-71h-276q4 -70 52 -114q49 -46 127 -46q91 0 155 61l47 -54q-84 -78 -202 -78q-109 0 -178 61q-84 72 -84 198q0 117 74 188q71 71 188 71q122 0 201 -79l-47 -51q-66 60 -154 60q-77 0 -126 -44q-44 -41 -51 -102h274z" />
    <glyph glyph-name="afii10102" unicode="&#x455;" horiz-adv-x="505" 
d="M62 295q-25 29 -25 72q0 60 43 97q53 45 169 45q104 0 200 -43l-28 -63q-89 36 -168 36t-111 -22q-25 -17 -25 -43q0 -25 20 -39q17 -13 61 -21l106 -18q91 -17 130 -51q41 -39 41 -96q0 -70 -54 -112q-57 -46 -183 -46q-111 0 -207 44l26 66q96 -38 177 -38q98 0 134 27
q27 21 27 56q0 32 -24 48q-17 11 -77 25l-118 21q-81 14 -114 55z" />
    <glyph glyph-name="afii10103" unicode="&#x456;" horiz-adv-x="181" 
d="M50 500h81v-500h-81v500z" />
    <glyph glyph-name="afii10104" unicode="&#x457;" horiz-adv-x="181" 
d="M50 500h81v-500h-81v500zM134 611q0 22 15 37t37 15t37 -15t15 -37t-15 -37t-37 -15t-37 15t-15 37zM-53 611q0 22 15 37t37 15t37 -15t15 -37t-15 -37t-37 -15t-37 15t-15 37z" />
    <glyph glyph-name="afii10105" unicode="&#x458;" horiz-adv-x="453" 
d="M327 500h81v-280q0 -110 -60 -170q-62 -59 -163 -59q-103 0 -170 73l48 56q58 -57 120 -57q72 0 107 38q37 38 37 108v291z" />
    <glyph glyph-name="afii10106" unicode="&#x459;" horiz-adv-x="905" 
d="M191 500h345v-138h143q93 0 149 -59q47 -50 47 -121q0 -74 -50 -126q-54 -56 -146 -56h-224v429h-193l-46 -323q-7 -52 -40 -82q-34 -28 -87 -28q-41 0 -74 12l15 64q23 -6 43 -6q33 0 46 15q17 13 21 48zM795 182q0 44 -26 73q-31 36 -93 36h-140v-220h148q55 0 86 37
q25 32 25 74z" />
    <glyph glyph-name="afii10107" unicode="&#x45a;" horiz-adv-x="856" 
d="M406 500h81v-138h143q97 0 153 -62q43 -49 43 -118q0 -73 -47 -123q-56 -59 -149 -59h-224v231h-276v-231h-80v500h80v-198h276v198zM746 182q0 38 -24 70q-32 39 -95 39h-140v-220h148q52 0 83 33q28 31 28 78z" />
    <glyph glyph-name="afii10108" unicode="&#x45b;" horiz-adv-x="689" 
d="M23 430v70h471v-70h-196v-98q58 38 135 38q93 0 151 -49q70 -59 70 -172v-149h-81v155q0 77 -37 110q-38 35 -106 35q-76 0 -132 -39v-261h-80v430h-195z" />
    <glyph glyph-name="afii10109" unicode="&#x45c;" horiz-adv-x="528" 
d="M50 500h79v-199h80q26 0 40 9q12 7 22 25l57 104q18 34 44 49q28 18 73 18q28 0 49 -5l-9 -66h-20q-30 0 -46 -10q-13 -8 -23 -25l-54 -97q-14 -22 -26 -33l182 -270h-94l-153 235q-13 -4 -37 -4h-85v-231h-79v500zM207 574l61 153l69 -35l-79 -142z" />
    <glyph glyph-name="afii10110" unicode="&#x45e;" horiz-adv-x="563" 
d="M449 500h89l-217 -413q-24 -46 -53 -68q-28 -22 -73 -22q-22 0 -50 5l6 60h23q25 0 40 9q16 8 26 28l8 14l-223 387h94l171 -310h5zM291 551q-52 0 -85 30q-27 25 -37 64l56 21q7 -24 22 -39q16 -16 45 -16q28 0 44 16q11 11 23 39l55 -21q-9 -36 -36 -63
q-34 -31 -87 -31z" />
    <glyph glyph-name="afii10193" unicode="&#x45f;" horiz-adv-x="546" 
d="M130 71h285v429h81v-500h-185l-5 -101h-66l-5 101h-185v500h80v-429z" />
    <glyph glyph-name="afii10146" unicode="&#x462;" horiz-adv-x="584" 
d="M0 483v68h49v49h81v-49h160v-68h-160v-55h193q111 0 176 -71q55 -57 55 -142q0 -90 -64 -154q-63 -61 -167 -61h-274v483h-49zM472 215q0 58 -35 96q-40 45 -118 45h-189v-285h194q69 0 110 41q38 41 38 103z" />
    <glyph glyph-name="afii10194" unicode="&#x463;" horiz-adv-x="506" 
d="M1 432v68h49v97h80v-97h134v-68h-134v-70h150q96 0 153 -63q43 -49 43 -117q0 -73 -47 -123q-56 -59 -149 -59h-230v432h-49zM396 182q0 39 -23 70q-32 39 -96 39h-147v-220h155q52 0 83 33q28 31 28 78z" />
    <glyph glyph-name="afii10147" unicode="&#x472;" horiz-adv-x="694" 
d="M347 611q138 0 229 -91q87 -89 87 -220q0 -136 -89 -222q-89 -89 -227 -89q-137 0 -230 93q-87 89 -87 218q0 135 91 221q90 90 226 90zM467 235q-65 0 -128 36q-58 33 -116 33q-60 0 -109 -38q10 -82 63 -135q68 -70 170 -70q100 0 167 67q54 54 66 146
q-58 -39 -113 -39zM176 469q-53 -58 -63 -134q58 39 117 39q69 0 130 -34q58 -33 113 -33q59 0 104 34q-10 79 -64 133q-65 65 -166 65q-103 0 -171 -70z" />
    <glyph glyph-name="afii10195" unicode="&#x473;" horiz-adv-x="590" 
d="M295 509q116 0 192 -78q73 -73 73 -181q0 -112 -77 -186q-76 -73 -188 -73q-115 0 -190 75t-75 184q0 114 80 188q76 71 185 71zM388 194q-52 0 -103 28q-50 26 -91 26q-43 0 -81 -29q7 -62 49 -104q54 -54 133 -54q78 0 130 52q41 42 52 106q-40 -25 -89 -25zM162 384
q-38 -38 -48 -96q43 26 89 26q55 0 110 -29q43 -24 87 -24q39 0 76 26q-11 64 -52 102q-52 50 -129 50q-81 0 -133 -55z" />
    <glyph glyph-name="afii10148" unicode="&#x474;" horiz-adv-x="664" 
d="M376 0h-105l-253 600h87l209 -516h17l56 165q43 121 102 218q49 83 121 154l54 -47q-65 -71 -114 -151q-56 -95 -94 -201z" />
    <glyph glyph-name="afii10196" unicode="&#x475;" horiz-adv-x="569" 
d="M336 0h-100l-211 500h87l171 -421h10l42 131q33 102 82 182q45 70 103 128l54 -46q-59 -60 -97 -127q-41 -71 -75 -163z" />
    <glyph glyph-name="afii10050" unicode="&#x490;" horiz-adv-x="532" 
d="M131 529v-529h-81v600h382l9 94l66 -3v-162h-376z" />
    <glyph glyph-name="afii10098" unicode="&#x491;" horiz-adv-x="468" 
d="M130 430v-430h-80v500h311l6 79h66v-149h-303z" />
    <glyph glyph-name="uni04D8" unicode="&#x4d8;" horiz-adv-x="682" 
d="M149 472l-47 56q90 83 233 83q69 0 130 -25t104 -68q83 -83 83 -218q0 -141 -88 -223q-90 -88 -223 -88q-140 0 -229 94q-82 87 -82 217q0 35 4 56h530q-15 76 -65 123q-63 60 -164 60q-110 0 -186 -67zM505 125q59 62 65 160h-458q8 -102 63 -157q69 -67 166 -67
q95 0 164 64z" />
    <glyph glyph-name="afii10846" unicode="&#x4d9;" horiz-adv-x="581" 
d="M130 381l-45 55q79 73 200 73q119 0 193 -74q73 -73 73 -185q0 -114 -75 -186q-76 -73 -186 -73q-112 0 -187 75q-73 73 -73 184q0 26 4 51h429q-13 61 -50 92q-51 46 -128 46q-91 0 -155 -58zM418 113q46 44 52 118h-359q6 -75 49 -116q54 -54 130 -54t128 52z" />
    <glyph glyph-name="Wgrave" unicode="&#x1e80;" horiz-adv-x="955" 
d="M333 0h-116l-192 600h90l157 -526h8l139 526h115l145 -526h8l155 526h88l-191 -600h-118l-143 512h-8zM447 828l68 -161l-52 -24l-83 152z" />
    <glyph glyph-name="wgrave" unicode="&#x1e81;" horiz-adv-x="837" 
d="M300 0h-109l-161 500h87l127 -415h6l117 415h103l120 -415h6l126 415h85l-160 -500h-110l-118 404h-5zM389 727l61 -153l-51 -24l-79 142z" />
    <glyph glyph-name="Wacute" unicode="&#x1e82;" horiz-adv-x="955" 
d="M333 0h-116l-192 600h90l157 -526h8l139 526h115l145 -526h8l155 526h88l-191 -600h-118l-143 512h-8zM450 667l68 161l67 -33l-83 -152z" />
    <glyph glyph-name="wacute" unicode="&#x1e83;" horiz-adv-x="837" 
d="M300 0h-109l-161 500h87l127 -415h6l117 415h103l120 -415h6l126 415h85l-160 -500h-110l-118 404h-5zM391 574l61 153l69 -35l-79 -142z" />
    <glyph glyph-name="Wdieresis" unicode="&#x1e84;" horiz-adv-x="955" 
d="M333 0h-116l-192 600h90l157 -526h8l139 526h115l145 -526h8l155 526h88l-191 -600h-118l-143 512h-8zM524 703q0 23 16 39.5t39 16.5t40 -16.5t17 -39.5t-17 -39.5t-40 -16.5t-39 16.5t-16 39.5zM319 703q0 23 16.5 39.5t39.5 16.5t40 -16.5t17 -39.5t-17 -39.5
t-40 -16.5t-39.5 16.5t-16.5 39.5z" />
    <glyph glyph-name="wdieresis" unicode="&#x1e85;" horiz-adv-x="837" 
d="M300 0h-109l-161 500h87l127 -415h6l117 415h103l120 -415h6l126 415h85l-160 -500h-110l-118 404h-5zM460 611q0 22 15 37t37 15t37 -15t15 -37t-15 -37t-37 -15t-37 15t-15 37zM273 611q0 22 15 37t37 15t37 -15t15 -37t-15 -37t-37 -15t-37 15t-15 37z" />
    <glyph glyph-name="Ygrave" unicode="&#x1ef2;" horiz-adv-x="649" 
d="M365 0h-80v138l-261 462h94l204 -375h7l206 375h89l-259 -460v-140zM309 828l68 -161l-52 -24l-83 152z" />
    <glyph glyph-name="ygrave" unicode="&#x1ef3;" horiz-adv-x="559" 
d="M320 0h-80v115l-215 385h91l163 -299h4l163 299h88l-214 -384v-116zM242 727l61 -153l-51 -24l-79 142z" />
    <glyph glyph-name="endash" unicode="&#x2013;" horiz-adv-x="429" 
d="M23 294h382v-62h-382v62z" />
    <glyph glyph-name="emdash" unicode="&#x2014;" horiz-adv-x="507" 
d="M23 294h460v-62h-460v62z" />
    <glyph glyph-name="quoteleft" unicode="&#x2018;" horiz-adv-x="173" 
d="M86 502q-25 0 -39 14t-14 35q0 13 5 25l39 99l42 -12l-12 -64q32 -11 32 -48q0 -21 -14 -35t-39 -14z" />
    <glyph glyph-name="quoteright" unicode="&#x2019;" horiz-adv-x="173" 
d="M86 605q25 0 39 -14t14 -35q0 -13 -5 -25l-39 -99l-42 12l12 64q-32 11 -32 48q0 21 14 35t39 14z" />
    <glyph glyph-name="quotesinglbase" unicode="&#x201a;" horiz-adv-x="173" 
d="M86 93q25 0 39 -14t14 -35q0 -13 -5 -25l-39 -99l-42 12l12 64q-32 11 -32 48q0 21 14 35t39 14z" />
    <glyph glyph-name="quotedblleft" unicode="&#x201c;" horiz-adv-x="298" 
d="M211 502q-25 0 -39 14t-14 35q0 13 5 25l39 99l42 -12l-12 -64q32 -11 32 -48q0 -21 -14 -35t-39 -14zM86 502q-25 0 -39 14t-14 35q0 13 5 25l39 99l42 -12l-12 -64q32 -11 32 -48q0 -21 -14 -35t-39 -14z" />
    <glyph glyph-name="quotedblright" unicode="&#x201d;" horiz-adv-x="298" 
d="M210 605q25 0 39 -14t14 -35q0 -13 -5 -25l-39 -99l-42 12l12 64q-32 11 -32 48q0 21 14 35t39 14zM86 605q25 0 39 -14t14 -35q0 -13 -5 -25l-39 -99l-42 12l12 64q-32 11 -32 48q0 21 14 35t39 14z" />
    <glyph glyph-name="quotedblbase" unicode="&#x201e;" horiz-adv-x="298" 
d="M86 93q25 0 39 -14t14 -35q0 -13 -5 -25l-39 -99l-42 12l12 64q-32 11 -32 48q0 21 14 35t39 14zM210 93q25 0 39 -14t14 -35q0 -13 -5 -25l-39 -99l-42 12l12 64q-32 11 -32 48q0 21 14 35t39 14z" />
    <glyph glyph-name="dagger" unicode="&#x2020;" horiz-adv-x="302" 
d="M126 112l-6 98v62l5 69l-51 -5h-33l-24 23v11l24 23h33l51 -4l-5 47v40l25 24h12l25 -24v-40l-5 -48l50 5h34l25 -23v-11l-25 -23h-34l-50 5l5 -69v-62l-6 -98l-19 -148h-12z" />
    <glyph glyph-name="daggerdbl" unicode="&#x2021;" horiz-adv-x="302" 
d="M177 213l5 -44l-25 -205h-12l-25 205l5 44l-51 -5h-33l-24 24v10l24 24h33l51 -5l-5 40l5 39l-51 -4h-33l-24 23v11l24 23h33l51 -4l-5 47v40l25 24h12l25 -24v-40l-5 -48l50 5h34l25 -23v-11l-25 -23h-34l-50 4l5 -39l-5 -40l50 5h34l25 -24v-10l-25 -24h-34z" />
    <glyph glyph-name="bullet" unicode="&#x2022;" horiz-adv-x="202" 
d="M38 299q0 26 18.5 44.5t44.5 18.5t44.5 -18.5t18.5 -44.5t-18.5 -44.5t-44.5 -18.5t-44.5 18.5t-18.5 44.5z" />
    <glyph glyph-name="onedotenleader" unicode="&#x2024;" horiz-adv-x="182" 
d="M35 50q0 24 15 39.5t41 15.5t41 -15.5t15 -39.5q0 -25 -15 -40.5t-41 -15.5t-41 15.5t-15 40.5z" />
    <glyph glyph-name="twodotenleader" unicode="&#x2025;" horiz-adv-x="348" 
d="M35 50q0 24 15 39.5t41 15.5t41 -15.5t15 -39.5q0 -25 -15 -40.5t-41 -15.5t-41 15.5t-15 40.5zM200 50q0 24 15 39.5t41 15.5t41 -15.5t15 -39.5q0 -25 -15 -40.5t-41 -15.5t-41 15.5t-15 40.5z" />
    <glyph glyph-name="ellipsis" unicode="&#x2026;" horiz-adv-x="514" 
d="M35 50q0 24 15 39.5t41 15.5t41 -15.5t15 -39.5q0 -25 -15 -40.5t-41 -15.5t-41 15.5t-15 40.5zM200 50q0 24 15 39.5t41 15.5t41 -15.5t15 -39.5q0 -25 -15 -40.5t-41 -15.5t-41 15.5t-15 40.5zM366 50q0 24 15 39.5t41 15.5t41 -15.5t15 -39.5q0 -25 -15 -40.5
t-41 -15.5t-41 15.5t-15 40.5z" />
    <glyph glyph-name="perthousand" unicode="&#x2030;" horiz-adv-x="967" 
d="M159 508q58 0 99 -41q40 -40 40 -98t-40 -98q-41 -41 -99 -41t-99 41q-40 40 -40 98t40 98q41 41 99 41zM134 18l337 493l52 -33l-340 -492zM159 286q35 0 59 24t24 59t-24 59t-59 24t-59 -24t-24 -59t24 -59t59 -24zM498 269q58 0 99 -41q40 -40 40 -98t-40 -98
q-41 -41 -99 -41t-99 41q-40 40 -40 98t40 98q41 41 99 41zM498 47q35 0 59 24t24 59t-24 59t-59 24t-59 -24t-24 -59t24 -59t59 -24zM807 269q58 0 99 -41q40 -40 40 -98t-40 -98q-41 -41 -99 -41t-99 41q-40 40 -40 98t40 98q41 41 99 41zM807 47q35 0 59 24t24 59t-24 59
t-59 24t-59 -24t-24 -59t24 -59t59 -24z" />
    <glyph glyph-name="guilsinglleft" unicode="&#x2039;" horiz-adv-x="290" 
d="M231 409l29 -43l-154 -115l154 -115l-29 -43l-211 141v34z" />
    <glyph glyph-name="guilsinglright" unicode="&#x203a;" horiz-adv-x="290" 
d="M56 93l-29 43l153 115l-153 115l29 43l210 -141v-34z" />
    <glyph glyph-name="exclamdbl" unicode="&#x203c;" horiz-adv-x="330" 
d="M55 646h73v-144l-4 -352h-64l-5 352v144zM37 49q0 24 15 39.5t40 15.5t40 -15.5t15 -39.5t-15 -39.5t-40 -15.5t-40 15.5t-15 39.5zM201 646h73v-144l-4 -352h-64l-5 352v144zM183 49q0 24 15 39.5t40 15.5t40 -15.5t15 -39.5t-15 -39.5t-40 -15.5t-40 15.5t-15 39.5z
" />
    <glyph glyph-name="fraction" unicode="&#x2044;" horiz-adv-x="198" 
d="M-60 -7l276 535l42 -21l-277 -536z" />
    <glyph glyph-name="zerosuperior" unicode="&#x2070;" horiz-adv-x="336" 
d="M313 466q0 -64 -44 -105q-44 -39 -102 -39q-59 0 -103 39q-44 41 -44 105q0 63 44 105q44 39 103 39q58 0 102 -39q44 -42 44 -105zM78 466q0 -42 22 -67q24 -27 66 -27q43 0 67 27q22 25 22 67t-22 67q-24 27 -67 27q-42 0 -66 -27q-22 -25 -22 -67z" />
    <glyph glyph-name="foursuperior" unicode="&#x2074;" horiz-adv-x="292" 
d="M23 368v40l170 192h42v-182h32v-44l-32 -6v-41h-54v41h-158zM181 418v97l-89 -97h89z" />
    <glyph glyph-name="fivesuperior" unicode="&#x2075;" horiz-adv-x="292" 
d="M138 366q37 0 55 15q15 13 15 38q0 22 -13 34q-17 15 -49 15q-36 0 -71 -15l-34 6v141h202v-50h-150v-45q23 11 60 11q55 0 84 -33q25 -27 25 -64q0 -42 -27 -69q-31 -33 -97 -33q-70 0 -113 46l34 36q33 -33 79 -33z" />
    <glyph glyph-name="sixsuperior" unicode="&#x2076;" horiz-adv-x="300" 
d="M256 579l-25 -37q-35 22 -73 22q-33 0 -50 -17q-16 -13 -22 -43q33 14 70 14q52 0 83 -27q31 -26 31 -71q0 -40 -33 -73q-35 -30 -84 -30q-52 0 -86 34q-37 37 -37 112q0 66 32 105q33 43 96 43q49 0 98 -32zM84 453q0 -40 17 -64q18 -25 56 -25q26 0 40 14q19 13 19 42
q0 24 -14 36q-16 14 -50 14q-37 0 -68 -17z" />
    <glyph glyph-name="sevensuperior" unicode="&#x2077;" horiz-adv-x="268" 
d="M25 552v48h218v-35l-119 -237h-60l117 224h-156z" />
    <glyph glyph-name="eightsuperior" unicode="&#x2078;" horiz-adv-x="313" 
d="M156 317q-66 0 -98 31q-28 25 -28 66q0 26 13 42q11 14 30 24q-20 19 -20 51q0 35 27 57q30 24 78 24q50 0 79 -28q22 -20 22 -52q0 -26 -22 -45q20 -8 32 -24q14 -20 14 -47q0 -42 -32 -69q-36 -30 -95 -30zM156 564q-28 0 -41 -11q-9 -6 -9 -23q0 -13 10 -19
q13 -6 40 -6q16 0 34 -2q15 11 15 31q0 13 -8 19q-13 11 -41 11zM156 457q-30 0 -45 4q-26 -12 -26 -45q0 -22 15 -35q22 -15 56 -15q38 0 58 15q15 13 15 35q0 18 -14 29q-17 12 -59 12z" />
    <glyph glyph-name="ninesuperior" unicode="&#x2079;" horiz-adv-x="300" 
d="M44 349l25 37q35 -22 73 -22q33 0 50 17q16 13 22 43q-33 -14 -70 -14q-52 0 -83 27q-31 26 -31 71q0 40 33 73q34 30 84 30q52 0 86 -34q37 -37 37 -112q0 -66 -32 -105q-33 -43 -96 -43q-49 0 -98 32zM216 475q0 40 -17 64q-18 25 -56 25q-26 0 -40 -14
q-19 -13 -19 -42q0 -24 14 -36q16 -14 50 -14q37 0 68 17z" />
    <glyph glyph-name="parenleftsuperior" unicode="&#x207d;" horiz-adv-x="138" 
d="M80 461q0 -91 38 -156l-40 -20q-48 73 -48 176t48 177l40 -21q-38 -65 -38 -156z" />
    <glyph glyph-name="parenrightsuperior" unicode="&#x207e;" horiz-adv-x="138" 
d="M58 461q0 92 -38 157l40 20q48 -74 48 -177t-48 -176l-40 20q38 65 38 156z" />
    <glyph glyph-name="zeroinferior" unicode="&#x2080;" horiz-adv-x="336" 
d="M313 89q0 -64 -44 -105q-44 -39 -102 -39q-59 0 -103 39q-44 41 -44 105q0 63 44 105q44 39 103 39q58 0 102 -39q44 -42 44 -105zM78 89q0 -42 22 -67q24 -27 66 -27q43 0 67 27q22 25 22 67t-22 67q-24 27 -67 27q-42 0 -66 -27q-22 -25 -22 -67z" />
    <glyph glyph-name="oneinferior" unicode="&#x2081;" horiz-adv-x="159" 
d="M33 145l-18 38l73 38h31v-272h-52v209z" />
    <glyph glyph-name="twoinferior" unicode="&#x2082;" horiz-adv-x="278" 
d="M33 -50v43l122 85q26 19 33 31q8 14 8 32q0 22 -16 32q-16 11 -44 11q-45 0 -81 -36l-32 34q48 51 113 51q54 0 83 -26q31 -24 31 -68q0 -33 -16 -56q-15 -23 -47 -44l-65 -42h128v-47h-217z" />
    <glyph glyph-name="threeinferior" unicode="&#x2083;" horiz-adv-x="299" 
d="M142 -11q43 0 60 17q13 12 13 33q0 16 -11 27q-13 10 -38 10h-85v46h84q17 0 26 11q6 7 6 21t-12 23q-16 10 -44 10q-42 0 -76 -25l-27 34q46 39 105 39q46 0 78 -23q28 -21 28 -57q0 -32 -23 -48q43 -21 43 -68q0 -43 -29 -69q-34 -30 -98 -30q-74 0 -118 50l34 34
q23 -21 40.5 -28t43.5 -7z" />
    <glyph glyph-name="fourinferior" unicode="&#x2084;" horiz-adv-x="292" 
d="M23 -11v40l170 192h42v-182h32v-44l-32 -6v-41h-54v41h-158zM181 39v97l-89 -97h89z" />
    <glyph glyph-name="fiveinferior" unicode="&#x2085;" horiz-adv-x="292" 
d="M138 -13q37 0 55 15q15 14 15 38q0 22 -13 34q-16 15 -49 15q-36 0 -71 -15l-34 6v141h202v-50h-150v-45q23 11 60 11q55 0 84 -33q25 -27 25 -64q0 -42 -27 -69q-31 -33 -97 -33q-70 0 -113 46l34 36q33 -33 79 -33z" />
    <glyph glyph-name="sixinferior" unicode="&#x2086;" horiz-adv-x="300" 
d="M256 202l-25 -37q-35 22 -73 22q-33 0 -50 -17q-16 -13 -22 -43q33 14 70 14q52 0 83 -27q31 -26 31 -71q0 -40 -33 -73q-35 -30 -84 -30q-52 0 -86 34q-37 37 -37 112q0 66 32 105q33 43 96 43q49 0 98 -32zM84 76q0 -40 17 -64q18 -25 56 -25q26 0 40 14q19 13 19 42
q0 24 -14 36q-16 14 -50 14q-37 0 -68 -17z" />
    <glyph glyph-name="seveninferior" unicode="&#x2087;" horiz-adv-x="268" 
d="M25 173v48h218v-35l-119 -237h-60l117 224h-156z" />
    <glyph glyph-name="eightinferior" unicode="&#x2088;" horiz-adv-x="313" 
d="M156 -60q-66 0 -98 31q-28 25 -28 66q0 26 13 42q11 13 30 24q-20 19 -20 51q0 35 27 57q30 24 78 24q50 0 79 -28q22 -20 22 -52q0 -26 -22 -45q20 -8 32 -24q14 -20 14 -47q0 -42 -32 -69q-36 -30 -95 -30zM156 187q-28 0 -41 -11q-9 -6 -9 -23q0 -13 10 -19
q13 -6 40 -6q16 0 34 -2q15 10 15 31q0 13 -8 19q-13 11 -41 11zM156 80q-30 0 -45 4q-26 -12 -26 -45q0 -22 15 -35q22 -15 56 -15q38 0 58 15q15 14 15 35q0 18 -14 29q-17 12 -59 12z" />
    <glyph glyph-name="nineinferior" unicode="&#x2089;" horiz-adv-x="300" 
d="M44 -28l25 37q35 -22 73 -22q33 0 50 17q16 13 22 43q-33 -14 -70 -14q-52 0 -83 27q-31 26 -31 71q0 40 33 73q35 30 84 30q52 0 86 -34q37 -37 37 -112q0 -66 -32 -105q-33 -43 -96 -43q-49 0 -98 32zM216 98q0 40 -17 64q-18 25 -56 25q-26 0 -40 -14q-19 -13 -19 -42
q0 -24 14 -36q16 -14 50 -14q37 0 68 17z" />
    <glyph glyph-name="parenleftinferior" unicode="&#x208d;" horiz-adv-x="138" 
d="M80 82q0 -91 38 -156l-40 -20q-48 73 -48 176t48 177l40 -21q-38 -65 -38 -156z" />
    <glyph glyph-name="parenrightinferior" unicode="&#x208e;" horiz-adv-x="138" 
d="M58 82q0 92 -38 157l40 20q48 -73 48 -177q0 -103 -48 -176l-40 20q38 65 38 156z" />
    <glyph glyph-name="Euro" unicode="&#x20ac;" horiz-adv-x="533" 
d="M10 233h347l-11 -58h-217q13 -38 43 -65q51 -48 128 -48q81 0 150 59l48 -52q-86 -78 -198 -78q-110 0 -187 71q-51 49 -68 113h-35v58zM364 270h-354v58h36q25 73 71 114q77 67 183 67q114 0 198 -78l-48 -52q-69 59 -150 59q-74 0 -125 -45q-29 -25 -46 -65h246z" />
    <glyph glyph-name="afii61352" unicode="&#x2116;" horiz-adv-x="820" 
d="M675 177q-48 0 -82 34q-32 32 -32 80q0 49 35 83q31 31 79 31q50 0 83 -35q32 -32 32 -79q0 -46 -32 -78q-36 -36 -83 -36zM733 291q0 23 -15 41q-19 19 -43 19q-25 0 -42 -18q-16 -16 -16 -42q0 -25 17 -42t41 -17t42 18q16 16 16 41zM577 143h196v-50h-196v50zM442 500
h77v-500h-76l-315 380v-380h-78v500h77l315 -379v379z" />
    <glyph glyph-name="trademark" unicode="&#x2122;" horiz-adv-x="621" 
d="M170 551v-204h-51v204h-94v49h240v-49h-95zM335 528v-181h-50v253h57l92 -114l92 114h55v-253h-51v181l-89 -108h-19z" />
    <glyph glyph-name="minus" unicode="&#x2212;" horiz-adv-x="334" 
d="M23 304h287v-62h-287v62z" />
    <glyph glyph-name="approxequal" unicode="&#x2248;" horiz-adv-x="370" 
d="M184 180q-42 14 -71 14q-38 0 -61 -23l-32 40q46 43 98 43q38 0 69 -14q32 -14 70 -14q37 0 62 24l31 -41q-43 -43 -97 -43q-32 0 -69 14zM184 291q-42 14 -71 14q-37 0 -61 -24l-32 40q47 44 98 44q32 0 69 -14q34 -15 70 -15q35 0 62 23l31 -40q-43 -43 -97 -43
q-36 0 -69 15z" />
    <glyph glyph-name="notequal" unicode="&#x2260;" horiz-adv-x="338" 
d="M23 228h103l18 66h-121v61h137l13 47l58 -15l-9 -32h93v-61h-110l-17 -66h127v-61h-144l-13 -49l-57 15l9 34h-87v61z" />
    <glyph glyph-name="lessequal" unicode="&#x2264;" horiz-adv-x="293" 
d="M263 180l-29 -43l-214 142v33l214 141l29 -43l-157 -115zM20 220l10 7l184 -121l-29 -42l-165 103v53z" />
    <glyph glyph-name="greaterequal" unicode="&#x2265;" horiz-adv-x="293" 
d="M59 137l-29 43l157 115l-157 115l29 43l214 -141v-33zM263 227l10 -7v-53l-165 -103l-29 42z" />
    <glyph glyph-name="NULL" horiz-adv-x="0" 
 />
    <glyph glyph-name="CR" horiz-adv-x="300" 
 />
    <glyph glyph-name="percent" horiz-adv-x="658" 
d="M159 508q58 0 99 -41q40 -40 40 -98t-40 -98q-41 -41 -99 -41t-99 41q-40 40 -40 98t40 98q41 41 99 41zM134 18l337 493l52 -33l-340 -492zM159 286q35 0 59 24t24 59t-24 59t-59 24t-59 -24t-24 -59t24 -59t59 -24zM498 269q58 0 99 -41q40 -40 40 -98t-40 -98
q-41 -41 -99 -41t-99 41q-40 40 -40 98t40 98q41 41 99 41zM498 47q35 0 59 24t24 59t-24 59t-59 24t-59 -24t-24 -59t24 -59t59 -24z" />
    <glyph glyph-name="Breve" horiz-adv-x="377" 
d="M268 767l59 -20q-14 -47 -46 -75q-36 -30 -92 -30q-59 0 -94 32q-32 27 -45 73l58 20q8 -29 28 -46q20 -19 53 -19t52 18q18 17 27 47z" />
    <glyph glyph-name="Dieresis" horiz-adv-x="417" 
d="M255 703q0 23 16 39.5t39 16.5t40 -16.5t17 -39.5t-17 -39.5t-40 -16.5t-39 16.5t-16 39.5zM50 703q0 23 16.5 39.5t39.5 16.5t40 -16.5t17 -39.5t-17 -39.5t-40 -16.5t-39.5 16.5t-16.5 39.5z" />
    <glyph glyph-name="commaaccent" horiz-adv-x="204" 
d="M101 92q25 0 39 -13.5t14 -35.5q0 -16 -4 -25l-39 -96l-39 10l13 63q-35 8 -35 48q0 21 14 35t37 14z" />
    <glyph glyph-name="dblgrave" horiz-adv-x="336" 
d="M240 725l46 -153l-48 -20l-66 145zM115 725l68 -152l-50 -23l-83 142z" />
    <glyph glyph-name="Acute" horiz-adv-x="235" 
d="M50 667l68 161l67 -33l-83 -152z" />
    <glyph glyph-name="Grave" horiz-adv-x="235" 
d="M117 828l68 -161l-52 -24l-83 152z" />
    <glyph glyph-name="Caron" horiz-adv-x="391" 
d="M50 769l35 36l111 -91l111 91l34 -36l-129 -128h-33z" />
    <glyph glyph-name="Circumflex" horiz-adv-x="391" 
d="M86 641l-36 37l129 127h33l129 -127l-36 -37l-109 92z" />
    <glyph glyph-name="commaaccent.cap" horiz-adv-x="205" 
d="M101 93q25 0 39.5 -14t14.5 -36q0 -14 -5 -26l-37 -96l-38 8l10 66q-35 11 -35 48q0 22 14 36t37 14z" />
    <glyph glyph-name="Dotaccent" horiz-adv-x="209" 
d="M50 47q0 23 16 38.5t39 15.5q22 0 38 -15.5t16 -38.5t-16 -38t-38 -15q-23 0 -39 15t-16 38z" />
    <glyph glyph-name="Hungarumlaut" horiz-adv-x="344" 
d="M50 665l48 163l71 -28l-67 -155zM155 668l73 160l66 -33l-88 -151z" />
    <glyph glyph-name="dblGrave" horiz-adv-x="344" 
d="M246 828l48 -163l-51 -20l-68 155zM117 828l72 -160l-51 -24l-88 151z" />
    <glyph glyph-name="Macron" horiz-adv-x="422" 
d="M50 713h322v-63h-322v63z" />
    <glyph glyph-name="Ring" horiz-adv-x="310" 
d="M155 625q-45 0 -75 30t-30 74t29 73q28 31 76 31t76 -31q29 -29 29 -73t-30 -74t-75 -30zM155 673q27 0 40 16q15 15 15 40q0 24 -15 39q-14 17 -40 17q-25 0 -40 -17q-15 -15 -15 -39q0 -23 15 -40q13 -16 40 -16z" />
    <glyph glyph-name="Tilde" horiz-adv-x="443" 
d="M294 648q-38 0 -74 17q-40 19 -72 19q-38 0 -66 -25l-32 40q48 48 101 48q34 0 78 -21q31 -16 68 -16q33 0 64 23l32 -40q-45 -45 -99 -45z" />
    <glyph glyph-name="zero.fitted" 
d="M311 59q90 0 158 68q67 67 67 173q0 105 -63 171q-64 72 -162 72t-162 -72q-63 -66 -63 -171q0 -106 67 -173q68 -68 158 -68zM311 -11q-125 0 -209 81q-96 90 -96 230q0 129 85 219q89 92 220 92t220 -92q85 -90 85 -219q0 -139 -96 -229q-85 -82 -209 -82z" />
    <glyph glyph-name="one.fitted" 
d="M219 477l-26 54l144 69h43v-600h-76v512z" />
    <glyph glyph-name="two.fitted" 
d="M79 0v65l269 204q54 41 80 77q26 35 26 81q0 55 -46 88q-45 30 -112 30q-56 0 -96.5 -17.5t-83.5 -59.5l-46 48q91 95 226 95q105 0 168 -51q66 -51 66 -137q0 -65 -41 -118q-37 -49 -100 -95l-191 -144h327v-66h-446z" />
    <glyph glyph-name="three.fitted" 
d="M299 55q95 0 145 48q35 35 35 88q0 47 -27 74q-30 34 -106 34h-167v64h161q54 0 80 33q19 19 19 58q0 47 -39 71q-34 22 -109 22q-48 0 -83.5 -13t-76.5 -46l-40 46q82 77 207 77q95 0 153 -42q60 -45 60 -115q0 -39 -15 -66q-12 -23 -40 -44v-5q47 -18 72 -55
q26 -41 26 -93q0 -85 -61 -140q-72 -62 -194 -62q-84 0 -136.5 23t-96.5 72l44 49q51 -44 90 -61t99 -17z" />
    <glyph glyph-name="four.fitted" 
d="M55 93v56l381 451h65v-440h63v-62l-63 -5v-93h-78v93h-368zM423 160v321l-269 -321h269z" />
    <glyph glyph-name="five.fitted" 
d="M295 55q96 0 145 52q36 39 36 96q0 58 -38 96q-46 46 -126 46q-88 0 -154 -33h-55v288h400v-67h-330v-152q59 29 137 29q105 0 173 -59q67 -57 67 -148q0 -77 -43 -130q-67 -84 -212 -84q-144 0 -225 89l46 51q44 -40 81.5 -57t97.5 -17z" />
    <glyph glyph-name="six.fitted" 
d="M316 407q114 0 181 -56q63 -53 63 -147q0 -89 -63 -149q-69 -66 -182 -66q-110 0 -176 71q-79 82 -79 237q0 157 84 242q70 72 180 72q112 0 197 -64l-39 -53q-43 29 -77 39.5t-80 10.5q-76 0 -123 -41q-46 -43 -60 -135q68 39 174 39zM315 55q82 0 128 45q42 37 42 104
q0 64 -40 98q-47 39 -129 39q-100 0 -179 -40v-7q0 -128 56 -189q44 -50 122 -50z" />
    <glyph glyph-name="seven.fitted" 
d="M84 534v66h452v-54l-280 -546h-83l275 534h-364z" />
    <glyph glyph-name="eight.fitted" 
d="M309 -11q-124 0 -195 56q-64 50 -64 137q0 62 41 109q27 30 68 50q-26 18 -42 45q-17 31 -17 68q0 73 60 116q55 41 152 41q101 0 157 -48q48 -40 48 -106q0 -38 -19 -69q-16 -26 -42 -39q53 -22 82 -60q33 -43 33 -102q0 -87 -64 -140q-74 -58 -198 -58zM309 546
q-68 0 -103 -27q-31 -24 -31 -68q0 -35 26 -53q31 -24 108 -24q43 0 71 -4q29 9 47 32q14 22 14 55q0 43 -34 65q-38 24 -98 24zM309 306q-42 0 -80 5q-47 -14 -77 -48q-25 -26 -25 -76q0 -61 45 -93q55 -38 137 -38q93 0 145 44q40 35 40 87q0 55 -39 85q-45 34 -146 34z
" />
    <glyph glyph-name="nine.fitted" 
d="M303 193q-115 0 -180 56q-63 53 -63 147q0 90 62 149q69 66 182 66q111 0 177 -71q79 -82 79 -237q0 -156 -86 -242q-70 -72 -182 -72q-116 0 -199 62l37 54q74 -49 161 -49q83 0 127 44q42 41 60 132q-70 -39 -175 -39zM304 545q-81 0 -127 -45q-42 -38 -42 -104
q0 -64 40 -98q45 -39 128 -39q101 0 180 40v7q0 128 -56 189q-45 50 -123 50z" />
    <glyph glyph-name="zerooldstyle" horiz-adv-x="571" 
d="M541 250q0 -116 -72 -188q-71 -71 -184 -71q-116 0 -187 74q-69 71 -69 185q0 113 70 186t186 73q118 0 189 -76q67 -73 67 -183zM107 250q0 -90 52 -142q50 -50 126 -50q84 0 134 56q44 50 44 136q0 90 -49 142q-48 50 -129 50q-76 0 -125 -49q-53 -53 -53 -143z" />
    <glyph glyph-name="oneoldstyle" horiz-adv-x="253" 
d="M45 378l-26 54l140 68h44v-500h-78v410z" />
    <glyph glyph-name="twooldstyle" horiz-adv-x="482" 
d="M54 0v62l255 183q37 26 52 54q13 23 13 55q0 41 -28 63q-32 25 -104 25q-49 0 -84 -15t-72 -50l-45 50q79 82 201 82q104 0 160 -49q47 -41 47 -110q0 -48 -25 -87q-24 -40 -83 -80l-166 -116h271v-67h-392z" />
    <glyph glyph-name="threeoldstyle" horiz-adv-x="489" 
d="M237 58q74 0 116 33q30 25 30 66q0 34 -23 57q-25 22 -78 22h-153v70h150q38 0 56 19q15 15 15 46q0 34 -25 49q-31 22 -94 22q-48 0 -80.5 -10.5t-69.5 -37.5l-36 52q78 63 191 63q85 0 139 -39q50 -36 50 -99q0 -34 -14 -57q-15 -22 -33 -33v-5q36 -14 59 -46
q22 -32 22 -73q0 -72 -60 -119q-61 -47 -163 -47q-127 0 -211 78l43 52q75 -63 169 -63z" />
    <glyph glyph-name="fouroldstyle" horiz-adv-x="493" 
d="M25 83v64l323 353h68v-349h57v-63l-57 -5v-83h-77v83h-314zM339 151v239l-219 -239h219z" />
    <glyph glyph-name="fiveoldstyle" horiz-adv-x="471" 
d="M210 57q72 0 113 37q31 28 31 76q0 54 -35 81q-38 27 -106 27q-65 0 -121 -30l-44 12v240h344v-67h-274v-106q50 18 103 18q83 0 140 -39q70 -50 70 -136q0 -77 -57 -128q-58 -51 -164 -51q-118 0 -195 70l41 52q36 -30 70.5 -43t83.5 -13z" />
    <glyph glyph-name="sixoldstyle" horiz-adv-x="495" 
d="M255 342q106 0 163 -54q47 -45 47 -118q0 -82 -61 -130q-59 -49 -154 -49q-109 0 -166 73q-54 69 -54 185q0 126 72 198q62 62 158 62t174 -54l-38 -52q-60 41 -135 41q-58 0 -101 -37q-38 -32 -49 -94q56 29 144 29zM250 56q64 0 104 31q37 31 37 83q0 48 -31 75
q-34 31 -105 31q-89 0 -150 -30v-5q0 -84 32 -131q39 -54 113 -54z" />
    <glyph glyph-name="sevenoldstyle" horiz-adv-x="441" 
d="M20 433v67h401v-52l-239 -448h-83l234 433h-313z" />
    <glyph glyph-name="eightoldstyle" horiz-adv-x="518" 
d="M259 509q99 0 152 -50q35 -35 35 -85q0 -58 -48 -86v-5q41 -18 65 -50q25 -32 25 -77q0 -75 -56 -118q-61 -47 -173 -47q-125 0 -184 54q-45 45 -45 111q0 35 21 72q23 32 61 49v5q-40 32 -40 92q0 52 38 87q56 48 149 48zM259 242q-45 0 -85 8q-36 -12 -53 -37
q-16 -23 -16 -58q0 -40 32 -67q41 -32 122 -32q85 0 124 34q30 24 30 65t-29 62q-23 15 -47.5 20t-77.5 5zM147 372q0 -42 26.5 -53.5t85.5 -11.5q48 0 67 -3q47 20 47 70q0 32 -25 50q-30 21 -89 21q-60 0 -89 -24q-23 -17 -23 -49z" />
    <glyph glyph-name="nineoldstyle" horiz-adv-x="495" 
d="M239 159q-106 0 -162 53q-47 45 -47 117q0 78 60 130q61 50 153 50q107 0 167 -71q55 -70 55 -187q0 -131 -78 -203q-60 -57 -152 -57q-59 0 -99.5 10.5t-82.5 40.5l33 53q62 -39 148 -39q59 0 100 35q42 36 51 99q-64 -31 -146 -31zM243 444q-65 0 -105 -34
q-35 -32 -35 -80q0 -47 31 -75q34 -31 105 -31q88 0 151 31v4q0 82 -33 131q-39 54 -114 54z" />
    <glyph glyph-name="one.taboldstyle" horiz-adv-x="560" 
d="M178 378l-26 54l140 68h44v-500h-78v410z" />
    <glyph glyph-name="two.taboldstyle" horiz-adv-x="560" 
d="M86 0v62l255 183q37 26 52 54q13 23 13 55q0 41 -28 63q-32 25 -104 25q-49 0 -84 -15t-72 -50l-45 50q79 82 201 82q104 0 160 -49q47 -41 47 -110q0 -48 -25 -87q-24 -40 -83 -80l-166 -116h271v-67h-392z" />
    <glyph glyph-name="zero.taboldstyle" horiz-adv-x="560" 
d="M538 250q0 -116 -72 -188q-71 -71 -184 -71q-116 0 -187 74q-69 71 -69 185q0 113 70 186t186 73q118 0 189 -76q67 -73 67 -183zM104 250q0 -90 52 -142q50 -50 126 -50q84 0 134 56q44 50 44 136q0 90 -49 142q-48 50 -129 50q-76 0 -125 -49q-53 -53 -53 -143z" />
    <glyph glyph-name="three.taboldstyle" horiz-adv-x="560" 
d="M278 58q74 0 116 33q30 25 30 66q0 34 -23 57q-25 22 -78 22h-153v70h150q38 0 56 19q15 15 15 46q0 34 -25 49q-31 22 -94 22q-48 0 -80.5 -10.5t-69.5 -37.5l-36 52q78 63 191 63q85 0 139 -39q50 -36 50 -99q0 -34 -14 -57q-15 -22 -33 -33v-5q36 -14 59 -46
q22 -32 22 -73q0 -72 -60 -119q-61 -47 -163 -47q-127 0 -211 78l43 52q75 -63 169 -63z" />
    <glyph glyph-name="four.taboldstyle" horiz-adv-x="560" 
d="M57 83v64l323 353h68v-349h57v-63l-57 -5v-83h-77v83h-314zM371 151v239l-219 -239h219z" />
    <glyph glyph-name="five.taboldstyle" horiz-adv-x="560" 
d="M269 57q72 0 113 37q31 28 31 76q0 54 -35 81q-38 27 -106 27q-66 0 -121 -30l-44 12v240h344v-67h-274v-106q50 18 103 18q83 0 140 -39q70 -50 70 -136q0 -77 -57 -128q-58 -51 -164 -51q-118 0 -195 70l41 52q36 -30 70.5 -43t83.5 -13z" />
    <glyph glyph-name="six.taboldstyle" horiz-adv-x="560" 
d="M289 342q106 0 163 -54q47 -45 47 -118q0 -82 -61 -130q-59 -49 -154 -49q-109 0 -166 73q-54 69 -54 185q0 126 72 198q62 62 158 62t174 -54l-38 -52q-60 41 -135 41q-58 0 -101 -37q-38 -32 -49 -94q56 29 144 29zM284 56q64 0 104 31q37 31 37 83q0 48 -31 75
q-34 31 -105 31q-89 0 -150 -30v-5q0 -84 32 -131q39 -54 113 -54z" />
    <glyph glyph-name="seven.taboldstyle" horiz-adv-x="560" 
d="M82 433v67h401v-52l-239 -448h-83l234 433h-313z" />
    <glyph glyph-name="eight.taboldstyle" horiz-adv-x="560" 
d="M282 509q99 0 152 -50q35 -35 35 -85q0 -58 -48 -86v-5q41 -18 65 -50q25 -32 25 -77q0 -75 -56 -118q-61 -47 -173 -47q-125 0 -184 54q-45 45 -45 111q0 35 21 72q23 32 61 49v5q-40 32 -40 92q0 52 38 87q55 48 149 48zM282 242q-45 0 -85 8q-36 -12 -53 -37
q-16 -23 -16 -58q0 -40 32 -67q41 -32 122 -32q85 0 124 34q30 24 30 65t-29 62q-23 15 -47.5 20t-77.5 5zM170 372q0 -42 26.5 -53.5t85.5 -11.5q48 0 67 -3q47 20 47 70q0 32 -25 50q-30 21 -89 21q-60 0 -89 -24q-23 -17 -23 -49z" />
    <glyph glyph-name="nine.taboldstyle" horiz-adv-x="560" 
d="M273 159q-106 0 -162 53q-47 45 -47 117q0 78 60 130q61 50 153 50q107 0 167 -71q55 -70 55 -187q0 -131 -78 -203q-60 -57 -152 -57q-59 0 -99.5 10.5t-82.5 40.5l33 53q62 -39 148 -39q59 0 100 35q42 36 51 99q-64 -31 -146 -31zM277 444q-65 0 -105 -34
q-35 -32 -35 -80q0 -47 31 -75q34 -31 105 -31q88 0 151 31v4q0 82 -33 131q-39 54 -114 54z" />
    <glyph glyph-name="currency.taboldstyle" horiz-adv-x="560" 
d="M279 95q-49 0 -84 23l-42 -41l-47 49l39 41q-24 38 -24 83q0 48 23 83l-38 42l47 46l42 -38q39 22 84 22t84 -22l42 38l49 -46l-41 -42q25 -40 25 -83q0 -45 -25 -83l40 -42l-48 -48l-42 41q-35 -23 -84 -23zM372 250q0 39 -23 65q-25 28 -70 28q-43 0 -68 -28
q-24 -24 -24 -65t23 -67q26 -27 69 -27q41 0 67 25q26 26 26 69z" />
    <glyph glyph-name="centoldstyle" horiz-adv-x="535" 
d="M340 566v-59q87 -10 160 -76l-49 -53q-66 60 -150 60q-78 0 -133 -52q-52 -52 -52 -135q0 -82 50 -134q55 -55 135 -55t150 60l49 -53q-68 -64 -160 -76v-59h-79v60q-89 12 -149 72q-77 75 -77 185q0 107 76 183q60 60 150 72v60h79z" />
    <glyph glyph-name="dollaroldstyle" horiz-adv-x="505" 
d="M37 375q0 61 51 96q39 29 116 36v59h79v-59q79 -4 166 -41l-27 -62q-87 35 -169 35q-79 0 -111 -22q-25 -16 -25 -44q0 -24 20 -38q17 -13 61 -21l106 -18q93 -16 131 -52q40 -40 40 -95q0 -70 -54 -112q-47 -38 -138 -44v-59h-79v58q-93 6 -173 43l25 65
q101 -37 178 -37q98 0 134 27q26 20 26 56q0 32 -24 48q-17 12 -76 25l-118 21q-81 14 -114 55q-25 29 -25 80z" />
    <glyph glyph-name="cent.taboldstyle" horiz-adv-x="560" 
d="M356 566v-59q87 -10 160 -76l-49 -53q-66 60 -150 60q-78 0 -133 -52q-52 -52 -52 -135q0 -82 50 -134q55 -55 135 -55t150 60l49 -53q-68 -64 -160 -76v-59h-79v60q-89 12 -149 72q-77 75 -77 185q0 107 76 183q60 60 150 72v60h79z" />
    <glyph glyph-name="dollar.taboldstyle" horiz-adv-x="560" 
d="M64 375q0 61 51 96q39 29 116 36v59h79v-59q79 -4 166 -41l-27 -62q-87 35 -169 35q-79 0 -111 -22q-25 -16 -25 -44q0 -24 20 -38q17 -13 61 -21l106 -18q93 -16 131 -52q40 -40 40 -95q0 -70 -54 -112q-47 -38 -138 -44v-59h-79v58q-93 6 -173 43l25 65
q101 -37 178 -37q98 0 134 27q26 20 26 56q0 32 -24 48q-17 12 -76 25l-118 21q-81 14 -114 55q-25 29 -25 80z" />
    <glyph glyph-name="Euro.taboldstyle" horiz-adv-x="560" 
d="M33 233h347l-11 -58h-217q13 -38 43 -65q51 -48 128 -48q81 0 150 59l48 -52q-86 -78 -198 -78q-110 0 -187 71q-51 49 -68 113h-35v58zM387 270h-354v58h36q25 73 71 114q77 67 183 67q114 0 198 -78l-48 -52q-69 59 -150 59q-74 0 -125 -45q-29 -25 -46 -65h246z" />
    <glyph glyph-name="yen.taboldstyle" horiz-adv-x="560" 
d="M441 165h-324v57h74l-168 278h91l161 -275h7l165 275h86l-168 -278h76v-57zM117 131h324v-57h-122v-74h-81v74h-121v57z" />
    <glyph glyph-name="numbersign.taboldstyle" horiz-adv-x="570" 
d="M162 41l7 88h-82v52h88l6 59h-93v53h97l10 91l50 -3l-8 -88h65l8 91l52 -3l-9 -88h88v-53h-93l-6 -59h99v-52h-104l-9 -91l-50 3l7 88h-63l-10 -91zM232 240l-6 -59h64l6 59h-64z" />
    <glyph glyph-name="zero.denominator" horiz-adv-x="336" 
d="M313 139q0 -64 -44 -105q-44 -39 -102 -39q-59 0 -103 39q-44 41 -44 105q0 63 44 105q44 39 103 39q58 0 102 -39q44 -42 44 -105zM78 139q0 -42 22 -67q24 -27 66 -27q43 0 67 27q22 25 22 67t-22 67q-24 27 -67 27q-42 0 -66 -27q-22 -25 -22 -67z" />
    <glyph glyph-name="one.denominator" horiz-adv-x="159" 
d="M33 195l-18 38l73 38h31v-272h-52v209z" />
    <glyph glyph-name="three.denominator" horiz-adv-x="299" 
d="M142 39q43 0 60 17q13 12 13 33q0 16 -11 27q-13 10 -38 10h-85v46h84q17 0 26 11q6 7 6 21t-12 23q-16 10 -44 10q-42 0 -76 -25l-27 34q46 39 105 39q46 0 78 -23q28 -21 28 -57q0 -32 -23 -48q43 -21 43 -68q0 -43 -29 -69q-34 -30 -98 -30q-74 0 -118 50l34 34
q23 -21 40.5 -28t43.5 -7z" />
    <glyph glyph-name="four.denominator" horiz-adv-x="292" 
d="M23 39v40l170 192h42v-182h32v-44l-32 -6v-41h-54v41h-158zM181 89v97l-89 -97h89z" />
    <glyph glyph-name="five.denominator" horiz-adv-x="292" 
d="M138 37q37 0 55 15q15 13 15 38q0 22 -13 34q-17 15 -49 15q-36 0 -71 -15l-34 6v141h202v-50h-150v-45q23 11 60 11q55 0 84 -33q25 -27 25 -64q0 -42 -27 -69q-31 -33 -97 -33q-70 0 -113 46l34 36q33 -33 79 -33z" />
    <glyph glyph-name="six.denominator" horiz-adv-x="300" 
d="M256 252l-25 -37q-35 22 -73 22q-33 0 -50 -17q-16 -13 -22 -43q33 14 70 14q52 0 83 -27q31 -26 31 -71q0 -40 -33 -73q-35 -30 -84 -30q-52 0 -86 34q-37 37 -37 112q0 66 32 105q33 43 96 43q49 0 98 -32zM84 126q0 -40 17 -64q18 -25 56 -25q26 0 40 14q19 13 19 42
q0 24 -14 36q-16 14 -50 14q-37 0 -68 -17z" />
    <glyph glyph-name="seven.denominator" horiz-adv-x="268" 
d="M25 223v48h218v-35l-119 -237h-60l117 224h-156z" />
    <glyph glyph-name="eight.denominator" horiz-adv-x="313" 
d="M156 -10q-66 0 -98 31q-28 25 -28 66q0 26 13 42q11 13 30 24q-20 19 -20 51q0 35 27 57q30 24 78 24q50 0 79 -28q22 -20 22 -52q0 -26 -22 -45q20 -8 32 -24q14 -20 14 -47q0 -42 -32 -69q-36 -30 -95 -30zM156 237q-28 0 -41 -11q-9 -6 -9 -23q0 -13 10 -19
q13 -6 40 -6q16 0 34 -2q15 10 15 31q0 13 -8 19q-13 11 -41 11zM156 130q-30 0 -45 4q-26 -12 -26 -45q0 -21 15 -35q22 -15 56 -15q38 0 58 15q15 14 15 35q0 18 -14 29q-17 12 -59 12z" />
    <glyph glyph-name="nine.denominator" horiz-adv-x="300" 
d="M44 22l25 37q35 -22 73 -22q33 0 50 17q16 13 22 43q-33 -14 -70 -14q-52 0 -83 27q-31 26 -31 71q0 40 33 73q35 30 84 30q52 0 86 -34q37 -37 37 -112q0 -66 -32 -105q-33 -43 -96 -43q-49 0 -98 32zM216 148q0 40 -17 64q-18 25 -56 25q-26 0 -40 -14q-19 -13 -19 -42
q0 -24 14 -36q16 -14 50 -14q37 0 68 17z" />
    <glyph glyph-name="period.denominator" horiz-adv-x="113" 
d="M15 36q0 17 12 29.5t29 12.5t29.5 -12.5t12.5 -29.5t-12.5 -29t-29.5 -12t-29 12t-12 29z" />
    <glyph glyph-name="comma.denominator" horiz-adv-x="113" 
d="M15 36q0 17 12 29.5t29 12.5t29.5 -12.5t12.5 -29.5q0 -12 -3 -19l-30 -80l-31 8l7 53q-26 11 -26 38z" />
    <glyph glyph-name="dollar.denominator" horiz-adv-x="291" 
d="M114 301h54v-28q45 -3 87 -25l-20 -41q-44 20 -89 20q-35 0 -52 -8q-13 -7 -13 -22q0 -21 36 -26l55 -9q51 -7 75 -31q19 -19 19 -51q0 -37 -30 -61q-25 -21 -68 -24v-30h-54v29q-47 4 -89 28l20 41q50 -23 92 -23q48 0 64 14q12 11 12 25q0 27 -48 33l-60 9
q-38 5 -59 27q-18 20 -18 48q0 32 22 51q24 21 64 25v29z" />
    <glyph glyph-name="cent.denominator" horiz-adv-x="305" 
d="M143 -35v30q-47 7 -81 42q-37 40 -37 96q0 59 40 99q33 33 78 39v30h51v-28q48 -8 86 -46l-33 -34q-36 33 -78 33q-40 0 -66 -28q-25 -27 -25 -65t26 -64q26 -28 65 -28q42 0 78 33l33 -34q-39 -39 -86 -46v-29h-51z" />
    <glyph glyph-name="parenleft.denominator" horiz-adv-x="138" 
d="M80 132q0 -91 38 -156l-40 -20q-48 73 -48 176t48 177l40 -21q-38 -65 -38 -156z" />
    <glyph glyph-name="parenright.denominator" horiz-adv-x="138" 
d="M58 132q0 92 -38 157l40 20q48 -73 48 -177q0 -103 -48 -176l-40 20q38 65 38 156z" />
    <glyph glyph-name="hyphen.denominator" horiz-adv-x="184" 
d="M15 176h154v-51h-154v51z" />
    <glyph glyph-name="Cedilla" horiz-adv-x="248" 
d="M74 12h59l-2 -54q28 0 48 -17q18 -20 18 -47q0 -45 -37 -76q-35 -30 -93 -42l-14 40q41 14 60 29q22 19 22 45q0 10 -8 18q-7 6 -21 6h-32v98z" />
    <glyph glyph-name="Ogonek" horiz-adv-x="222" 
d="M104 18l33 -17q-13 -12 -20 -21q-8 -18 -8 -33q0 -28 17 -48q15 -21 46 -37l-19 -37q-51 14 -76 44q-27 32 -27 69q0 31 16 50q13 19 38 30z" />
    <glyph glyph-name="rupiah" horiz-adv-x="509" 
d="M17 102h33v398h239q85 0 140 -57q50 -50 50 -122q0 -70 -48 -120q-56 -58 -142 -58h-159v-41h162v-57h-162v-45h-80v45h-33v57zM130 213h163q47 0 78 33q28 33 28 75q0 41 -26 73q-31 36 -88 36h-155v-217z" />
    <glyph glyph-name="zero.slash" horiz-adv-x="670" 
d="M335 -11q-125 0 -209 81q-96 90 -96 230q0 129 85 219q89 92 220 92t220 -92q85 -90 85 -219q0 -140 -96 -230q-84 -81 -209 -81zM335 57q89 0 158 69q67 67 67 174q0 108 -60 167l-284 -370q52 -40 119 -40zM110 300q0 -94 56 -158l282 370q-50 31 -113 31
q-98 0 -162 -72q-63 -66 -63 -171z" />
    <glyph glyph-name="zero.slash.fitted" 
d="M311 -11q-125 0 -209 81q-96 90 -96 230q0 129 85 219q89 92 220 92t220 -92q85 -90 85 -219q0 -140 -96 -230q-84 -81 -209 -81zM311 57q89 0 158 69q67 67 67 174q0 108 -60 167l-284 -370q52 -40 119 -40zM86 300q0 -94 56 -158l282 370q-50 31 -113 31
q-98 0 -162 -72q-63 -66 -63 -171z" />
    <glyph glyph-name="zerooldstyle.slash" horiz-adv-x="571" 
d="M541 250q0 -116 -72 -188q-71 -71 -184 -71q-116 0 -187 74q-69 71 -69 185q0 113 70 186t186 73q118 0 189 -76q67 -73 67 -183zM107 250q0 -71 32 -118l246 284q-41 26 -100 26q-75 0 -126 -49q-52 -52 -52 -143zM463 250q0 70 -31 117l-244 -283q46 -26 97 -26
q86 0 134 56q44 50 44 136z" />
    <glyph glyph-name="zerooldstyle.slash.fitted" horiz-adv-x="560" 
d="M541 250q0 -116 -72 -188q-71 -71 -184 -71q-116 0 -187 74q-69 71 -69 185q0 113 70 186t186 73q118 0 189 -76q67 -73 67 -183zM107 250q0 -71 32 -118l246 284q-41 26 -100 26q-75 0 -126 -49q-52 -52 -52 -143zM463 250q0 70 -31 117l-244 -283q46 -26 97 -26
q86 0 134 56q44 50 44 136z" />
    <glyph glyph-name="two.denominator" horiz-adv-x="278" 
d="M33 0v43l122 85q26 19 33 31q8 14 8 32q0 22 -16 32q-16 11 -44 11q-45 0 -81 -36l-32 34q48 51 113 51q54 0 83 -26q31 -24 31 -68q0 -33 -16 -56q-15 -23 -47 -44l-65 -42h128v-47h-217z" />
    <glyph glyph-name="zero.numerator" horiz-adv-x="336" 
d="M313 367q0 -64 -44 -105q-44 -39 -102 -39q-59 0 -103 39q-44 41 -44 105q0 63 44 105q44 39 103 39q58 0 102 -39q44 -42 44 -105zM78 367q0 -42 22 -67q24 -27 66 -27q43 0 67 27q22 25 22 67t-22 67q-24 27 -67 27q-42 0 -66 -27q-22 -25 -22 -67z" />
    <glyph glyph-name="one.numerator" horiz-adv-x="159" 
d="M33 425l-18 38l73 38h31v-272h-52v209z" />
    <glyph glyph-name="two.numerator" horiz-adv-x="278" 
d="M33 228v43l122 85q26 19 33 31q8 14 8 32q0 22 -16 32q-16 11 -44 11q-45 0 -81 -36l-32 34q48 51 113 51q54 0 83 -26q31 -24 31 -68q0 -33 -16 -56q-15 -23 -47 -44l-65 -42h128v-47h-217z" />
    <glyph glyph-name="three.numerator" horiz-adv-x="299" 
d="M142 267q43 0 60 17q13 12 13 33q0 16 -11 27q-13 10 -38 10h-85v46h84q17 0 26 11q6 7 6 21t-12 23q-16 10 -44 10q-42 0 -76 -25l-27 34q46 39 105 39q46 0 78 -23q28 -21 28 -57q0 -32 -23 -48q43 -21 43 -68q0 -43 -29 -69q-34 -30 -98 -30q-74 0 -118 50l34 34
q23 -21 40.5 -28t43.5 -7z" />
    <glyph glyph-name="four.numerator" horiz-adv-x="292" 
d="M23 269v40l170 192h42v-182h32v-44l-32 -6v-41h-54v41h-158zM181 319v97l-89 -97h89z" />
    <glyph glyph-name="five.numerator" horiz-adv-x="292" 
d="M138 267q37 0 55 15q15 14 15 38q0 22 -13 34q-17 15 -49 15q-36 0 -71 -15l-34 6v141h202v-50h-150v-45q23 11 60 11q55 0 84 -33q25 -27 25 -64q0 -42 -27 -69q-31 -33 -97 -33q-70 0 -113 46l34 36q33 -33 79 -33z" />
    <glyph glyph-name="six.numerator" horiz-adv-x="300" 
d="M256 480l-25 -37q-35 22 -73 22q-33 0 -50 -17q-16 -13 -22 -43q33 14 70 14q52 0 83 -27q31 -26 31 -71q0 -40 -33 -73q-35 -30 -84 -30q-52 0 -86 34q-37 37 -37 112q0 66 32 105q33 43 96 43q49 0 98 -32zM84 354q0 -40 17 -64q18 -25 56 -25q26 0 40 14q19 13 19 42
q0 24 -14 36q-16 14 -50 14q-37 0 -68 -17z" />
    <glyph glyph-name="seven.numerator" horiz-adv-x="268" 
d="M25 453v48h218v-35l-119 -237h-60l117 224h-156z" />
    <glyph glyph-name="eight.numerator" horiz-adv-x="313" 
d="M156 218q-66 0 -98 31q-28 25 -28 66q0 26 13 42q11 13 30 24q-20 19 -20 51q0 35 27 57q30 24 78 24q50 0 79 -28q22 -20 22 -52q0 -26 -22 -45q20 -8 32 -24q14 -20 14 -47q0 -42 -32 -69q-36 -30 -95 -30zM156 465q-28 0 -41 -11q-9 -6 -9 -23q0 -13 10 -19
q13 -6 40 -6q16 0 34 -2q15 10 15 31q0 13 -8 19q-13 11 -41 11zM156 358q-30 0 -45 4q-26 -12 -26 -45q0 -21 15 -35q22 -15 56 -15q38 0 58 15q15 14 15 35q0 18 -14 29q-17 12 -59 12z" />
    <glyph glyph-name="nine.numerator" horiz-adv-x="300" 
d="M44 250l25 37q35 -22 73 -22q33 0 50 17q16 13 22 43q-33 -14 -70 -14q-52 0 -83 27q-31 26 -31 71q0 40 33 73q35 30 84 30q52 0 86 -34q37 -37 37 -112q0 -66 -32 -105q-33 -43 -96 -43q-49 0 -98 32zM216 376q0 40 -17 64q-18 25 -56 25q-26 0 -40 -14
q-19 -13 -19 -42q0 -24 14 -36q16 -14 50 -14q37 0 68 17z" />
    <glyph glyph-name="parenleft.numerator" horiz-adv-x="138" 
d="M80 362q0 -91 38 -156l-40 -20q-48 73 -48 176t48 177l40 -21q-38 -65 -38 -156z" />
    <glyph glyph-name="parenright.numerator" horiz-adv-x="138" 
d="M58 362q0 92 -38 157l40 20q48 -73 48 -177q0 -103 -48 -176l-40 20q38 65 38 156z" />
    <glyph glyph-name="cent.numerator" horiz-adv-x="305" 
d="M143 196v30q-47 7 -81 42q-37 40 -37 96q0 59 40 99q33 33 78 39v30h51v-28q48 -8 86 -46l-33 -34q-36 33 -78 33q-40 0 -66 -28q-25 -27 -25 -65t26 -64q26 -28 65 -28q42 0 78 33l33 -34q-39 -39 -86 -46v-29h-51z" />
    <glyph glyph-name="dollar.numerator" horiz-adv-x="291" 
d="M114 532h54v-28q45 -3 87 -25l-20 -41q-44 20 -89 20q-35 0 -52 -8q-13 -7 -13 -22q0 -21 36 -26l55 -9q51 -7 75 -31q19 -19 19 -51q0 -37 -30 -61q-25 -21 -68 -24v-30h-54v29q-47 4 -89 28l20 41q50 -23 92 -23q48 0 64 14q12 11 12 25q0 27 -48 33l-60 9
q-38 5 -59 27q-18 19 -18 48q0 32 22 51q24 21 64 25v29z" />
    <glyph glyph-name="hyphen.numerator" horiz-adv-x="184" 
d="M15 400h154v-51h-154v51z" />
    <glyph glyph-name="comma.numerator" horiz-adv-x="113" 
d="M15 257q0 17 12 29.5t29 12.5t29.5 -12.5t12.5 -29.5q0 -11 -3 -19l-30 -80l-31 8l7 53q-26 11 -26 38z" />
    <glyph glyph-name="period.numerator" horiz-adv-x="113" 
d="M15 257q0 17 12 29.5t29 12.5t29.5 -12.5t12.5 -29.5t-12.5 -29t-29.5 -12t-29 12t-12 29z" />
    <glyph glyph-name="centsuperior" horiz-adv-x="305" 
d="M143 295v30q-47 7 -81 42q-37 40 -37 96q0 59 40 99q33 33 78 39v30h51v-28q48 -8 86 -46l-33 -34q-36 33 -78 33q-40 0 -66 -28q-25 -27 -25 -65t26 -64q26 -28 65 -28q42 0 78 33l33 -34q-39 -39 -86 -46v-29h-51z" />
    <glyph glyph-name="hyphensuperior" horiz-adv-x="184" 
d="M15 499h154v-51h-154v51z" />
    <glyph glyph-name="commasuperior" horiz-adv-x="113" 
d="M15 356q0 17 12 29.5t29 12.5t29.5 -12.5t12.5 -29.5q0 -12 -3 -19l-30 -80l-31 8l7 53q-26 11 -26 38z" />
    <glyph glyph-name="periodsuperior" horiz-adv-x="113" 
d="M15 356q0 17 12 29.5t29 12.5t29.5 -12.5t12.5 -29.5t-12.5 -29t-29.5 -12t-29 12t-12 29z" />
    <glyph glyph-name="dollarsuperior" horiz-adv-x="291" 
d="M114 631h54v-28q45 -3 87 -25l-20 -41q-44 20 -89 20q-35 0 -52 -8q-13 -7 -13 -22q0 -21 36 -26l55 -9q51 -7 75 -31q19 -19 19 -51q0 -37 -30 -61q-25 -21 -68 -24v-30h-54v29q-47 4 -89 28l20 41q50 -23 92 -23q48 0 64 14q12 10 12 25q0 27 -48 33l-60 9
q-38 5 -59 27q-18 20 -18 48q0 32 22 51q24 21 64 25v29z" />
    <glyph glyph-name="hypheninferior" horiz-adv-x="184" 
d="M15 126h154v-51h-154v51z" />
    <glyph glyph-name="commainferior" horiz-adv-x="113" 
d="M15 -14q0 17 12 29.5t29 12.5t29.5 -12.5t12.5 -29.5q0 -12 -3 -19l-30 -80l-31 8l7 53q-26 11 -26 38z" />
    <glyph glyph-name="periodinferior" horiz-adv-x="113" 
d="M15 -14q0 17 12 29.5t29 12.5t29.5 -12.5t12.5 -29.5t-12.5 -29t-29.5 -12t-29 12t-12 29z" />
    <glyph glyph-name="centinferior" horiz-adv-x="305" 
d="M143 -85v30q-47 7 -81 42q-37 40 -37 96q0 59 40 99q33 33 78 39v30h51v-28q48 -8 86 -46l-33 -34q-36 33 -78 33q-40 0 -66 -28q-25 -27 -25 -65t26 -64q26 -28 65 -28q42 0 78 33l33 -34q-39 -39 -86 -46v-29h-51z" />
    <glyph glyph-name="dollarinferior" horiz-adv-x="291" 
d="M114 251h54v-28q45 -3 87 -25l-20 -41q-44 20 -89 20q-35 0 -52 -8q-13 -7 -13 -22q0 -21 36 -26l55 -9q51 -7 75 -31q19 -19 19 -51q0 -37 -30 -61q-25 -21 -68 -24v-30h-54v29q-47 4 -89 28l20 41q50 -23 92 -23q48 0 64 14q12 11 12 25q0 27 -48 33l-60 9
q-38 5 -59 27q-18 20 -18 48q0 32 22 51q24 21 64 25v29z" />
    <glyph glyph-name="ampersandsmall" horiz-adv-x="505" 
d="M409 421l-59 -34q-14 25 -36 40q-24 15 -54 15q-38 0 -58 -20q-18 -15 -18 -44q0 -26 23 -49l180 -180q10 17 17 48l67 -13q-9 -54 -32 -89l51 -52l-54 -51l-46 45q-68 -46 -141 -46q-95 0 -152 45q-62 48 -62 130q0 56 26 97q20 31 58 57q-14 25 -14 57q0 50 34 87
q43 45 121 45q50 0 90 -23q40 -26 59 -65zM250 61q49 0 90 29l-180 179q-21 -14 -34 -39q-12 -22 -12 -50q0 -52 34 -83q36 -36 102 -36z" />
    <glyph glyph-name="Imacron" horiz-adv-x="180" 
d="M130 600v-600h-80v600h80zM-69 713h322v-63h-322v63z" />
    <glyph glyph-name="ibreve" horiz-adv-x="181" 
d="M50 500h81v-500h-81v500zM92 551q-52 0 -85 30q-27 25 -37 64l56 21q7 -24 22 -39q16 -16 45 -16q28 0 44 16q11 11 23 39l55 -21q-9 -36 -36 -63q-34 -31 -87 -31z" />
    <glyph glyph-name="afii10024.alt" horiz-adv-x="910" 
d="M413 357v243h82v-243h108l171 243h95l-195 -274l216 -326h-94l-190 285h-111v-285h-82v285h-110l-190 -285h-93l215 326l-195 274h95l171 -243h107z" />
    <glyph glyph-name="afii10028.alt" horiz-adv-x="600" 
d="M50 600h82v-243h150l183 243h94l-206 -274l227 -326h-96l-197 286h-155v-286h-82v600z" />
    <glyph glyph-name="afii10037.alt" horiz-adv-x="653" 
d="M536 600h92l-316 -600h-88l69 132l-269 468h97l215 -387h6z" />
    <glyph glyph-name="afii10061.alt" horiz-adv-x="600" 
d="M50 600h82v-243h150l183 243h94l-206 -274l227 -326h-96l-197 286h-155v-286h-82v600zM239 667l68 161l67 -33l-83 -152z" />
    <glyph glyph-name="afii10062.alt" horiz-adv-x="653" 
d="M536 600h92l-316 -600h-88l69 132l-269 468h97l215 -387h6zM420 767l59 -20q-14 -47 -46 -75q-36 -30 -92 -30q-59 0 -94 32q-32 27 -45 73l58 20q8 -29 28 -46q20 -19 53 -19t52 18q18 17 27 47z" />
    <glyph glyph-name="afii10072.alt" horiz-adv-x="795" 
d="M357 301v199h81v-199h89l139 199h92l-166 -231l183 -269h-93l-154 231h-90v-231h-81v231h-90l-154 -231h-93l183 269l-166 231h92l139 -199h89z" />
    <glyph glyph-name="afii10076.alt" horiz-adv-x="524" 
d="M50 500h80v-199h114l149 199h94l-176 -231l192 -269h-95l-163 231h-115v-231h-80v500z" />
    <glyph glyph-name="afii10085.alt" horiz-adv-x="563" 
d="M449 500h89l-266 -500h-84l59 111l-222 389h94l170 -311h5z" />
    <glyph glyph-name="afii10109.alt" horiz-adv-x="524" 
d="M50 500h80v-199h114l149 199h94l-176 -231l192 -269h-95l-163 231h-115v-231h-80v500zM216 574l61 153l69 -35l-79 -142z" />
    <glyph glyph-name="afii10110.alt" horiz-adv-x="563" 
d="M449 500h89l-266 -500h-84l59 111l-222 389h94l170 -311h5zM291 551q-52 0 -85 30q-27 25 -37 64l56 21q7 -24 22 -39q16 -16 45 -16q28 0 44 16q11 11 23 39l55 -21q-9 -36 -36 -63q-34 -31 -87 -31z" />
    </font>
</defs>
</svg>
