<?xml version="1.0" standalone="no"?>
<!DOCTYPE svg PUBLIC "-//W3C//DTD SVG 1.1//EN" "http://www.w3.org/Graphics/SVG/1.1/DTD/svg11.dtd" >
<svg xmlns="http://www.w3.org/2000/svg" xmlns:xlink="http://www.w3.org/1999/xlink" version="1.1">
<metadata>
Created by FontForge 20141024 at Sun Jun 21 17:54:38 2015
 By System Administrator
Copyright (c) 2012 by Glenjan. All rights reserved.
</metadata>
<defs>
<font id="Room-Thin" horiz-adv-x="560" >
  <font-face 
    font-family="Room"
    font-weight="100"
    font-stretch="normal"
    units-per-em="1000"
    panose-1="2 0 5 6 0 0 0 2 0 4"
    ascent="825"
    descent="-175"
    x-height="500"
    cap-height="600"
    bbox="-81 -218 1063 829"
    underline-thickness="50"
    underline-position="-50"
    unicode-range="U+0020-2265"
  />
<missing-glyph horiz-adv-x="300" 
 />
    <glyph glyph-name=".notdef" horiz-adv-x="300" 
 />
    <glyph glyph-name=".null" horiz-adv-x="0" 
 />
    <glyph glyph-name="nonmarkingreturn" horiz-adv-x="333" 
 />
    <glyph glyph-name="space" unicode=" " horiz-adv-x="300" 
 />
    <glyph glyph-name="space" unicode="&#xa0;" horiz-adv-x="300" 
 />
    <glyph glyph-name="exclam" unicode="!" horiz-adv-x="168" 
d="M59 654h51v-138l-6 -378h-40l-5 378v138zM39 39q0 20 12.5 32.5t32.5 12.5t32.5 -12.5t12.5 -32.5t-12.5 -32.5t-32.5 -12.5t-32.5 12.5t-12.5 32.5z" />
    <glyph glyph-name="quotedbl" unicode="&#x22;" horiz-adv-x="229" 
d="M55 448l-12 152h58l-11 -152h-35zM139 448l-12 152h58l-11 -152h-35z" />
    <glyph glyph-name="numbersign" unicode="#" horiz-adv-x="428" 
d="M123 114l6 89h-84v39h89l6 62h-95v40h98l8 92l41 -3l-7 -89h68l7 92l42 -3l-8 -89h90v-40h-94l-6 -62h100v-39h-104l-7 -92l-40 3l6 89h-67l-8 -92zM181 304l-6 -62h68l6 62h-68z" />
    <glyph glyph-name="dollar" unicode="$" horiz-adv-x="495" 
d="M34 381q0 60 52 92q43 29 122 34v59h55v-57q90 -5 172 -39l-17 -38q-86 31 -171 31q-83 0 -127 -24q-35 -23 -35 -60q0 -33 32 -52q24 -14 67 -21l114 -20q92 -16 129 -52q38 -35 38 -91q0 -67 -62 -112q-45 -34 -140 -40v-57h-55v58q-97 5 -179 37l14 43
q104 -33 183 -33q115 0 154 36q31 29 31 65q0 39 -28 64q-20 15 -91 29l-124 23q-65 13 -95 38q-39 31 -39 87z" />
    <glyph glyph-name="uni0025" unicode="%" horiz-adv-x="647" 
d="M298 373q0 -56 -38 -96q-37 -40 -100 -40t-100 40q-38 40 -38 96t38 96q37 40 100 40t100 -40q38 -40 38 -96zM123 12l341 495l36 -23l-340 -496zM64 373q0 -38 23 -64q30 -32 73 -32t73 32q23 26 23 64t-23 64q-29 32 -73 32t-73 -32q-23 -26 -23 -64zM613 126
q0 -56 -38 -96q-37 -40 -100 -40t-100 40q-38 40 -38 96t38 96q37 40 100 40t100 -40q38 -40 38 -96zM379 126q0 -38 23 -64q29 -32 73 -32q43 0 73 32q23 26 23 64t-23 64q-30 32 -73 32q-44 0 -73 -32q-23 -26 -23 -64z" />
    <glyph glyph-name="ampersand" unicode="&#x26;" horiz-adv-x="576" 
d="M435 537l-35 -27q-43 57 -113 57q-54 0 -86 -26q-30 -25 -30 -70t37 -84l248 -261q23 26 35 78l44 -10q-16 -65 -46 -102l57 -62l-34 -31l-55 58q-75 -68 -192 -68q-96 0 -160 51q-75 60 -75 156q0 66 30 115q27 44 82 78q-24 37 -24 76q0 61 40 99q47 47 129 47
q97 0 148 -74zM267 35q93 0 157 57l-255 265q-43 -25 -65 -67q-19 -37 -19 -93q0 -66 53 -114q51 -48 129 -48z" />
    <glyph glyph-name="quotesingle" unicode="'" horiz-adv-x="143" 
d="M55 448l-12 152h57l-12 -152h-33z" />
    <glyph glyph-name="parenleft" unicode="(" horiz-adv-x="168" 
d="M160 604q-38 -56 -60.5 -149t-22.5 -181q0 -87 22.5 -175.5t60.5 -142.5l-37 -18q-91 132 -91 336q0 219 91 348z" />
    <glyph glyph-name="parenright" unicode=")" horiz-adv-x="168" 
d="M8 -44q38 55 60 149t22 181q0 86 -22 172.5t-60 144.5l37 19q91 -132 91 -336q0 -219 -91 -348z" />
    <glyph glyph-name="asterisk" unicode="*" horiz-adv-x="252" 
d="M149 604l-9 -84l75 33l10 -1l11 -38l-6 -5l-78 -16l50 -62l2 -12l-26 -21l-10 4l-44 71l-42 -70l-11 -5l-27 23l1 10l54 62l-81 18l-5 5l11 38l9 1l77 -34l-7 85l4 6h38z" />
    <glyph glyph-name="plus" unicode="+" horiz-adv-x="320" 
d="M20 294h119v120h40v-120h121v-40h-121v-120h-40v120h-119v40z" />
    <glyph glyph-name="comma" unicode="," horiz-adv-x="158" 
d="M35 38q0 19 12 32t32 13t32 -13t12 -32q0 -9 -5 -21l-39 -95l-27 4l8 73q-25 8 -25 39z" />
    <glyph glyph-name="hyphen" unicode="-" horiz-adv-x="315" 
d="M17 284h281v-40h-281v40z" />
    <glyph glyph-name="period" unicode="." horiz-adv-x="158" 
d="M35 38q0 20 12 32.5t32 12.5t32 -12.5t12 -32.5t-12 -32t-32 -12t-32 12t-12 32z" />
    <glyph glyph-name="slash" unicode="/" horiz-adv-x="250" 
d="M3 -15l244 649l42 -15l-245 -650z" />
    <glyph glyph-name="zero" unicode="0" horiz-adv-x="674" 
d="M337 37q103 0 176 73q75 75 75 190q0 109 -70 186q-69 77 -181 77t-181 -77q-70 -77 -70 -186q0 -115 75 -190q73 -73 176 -73zM337 -11q-127 0 -211 81q-95 93 -95 230q0 129 84 219q89 92 222 92t222 -92q85 -91 85 -219q0 -136 -96 -230q-84 -81 -211 -81z" />
    <glyph glyph-name="one" unicode="1" horiz-adv-x="235" 
d="M46 503l-18 34l130 63h27v-600h-52v540z" />
    <glyph glyph-name="two" unicode="2" horiz-adv-x="522" 
d="M36 0v45l288 219q62 48 81 74q30 39 30 93q0 71 -64 108q-49 28 -116 28q-64 0 -102.5 -16t-91.5 -55l-26 34q91 81 220 81q98 0 160 -45q72 -51 72 -139q0 -65 -41 -118q-25 -34 -102 -91l-231 -174h369v-44h-446z" />
    <glyph glyph-name="three" unicode="3" horiz-adv-x="537" 
d="M254 33q103 0 159 54q43 40 43 102q0 49 -29 84q-36 42 -121 42h-170v42h170q63 0 91 43q15 26 15 62q0 57 -51 83q-47 24 -117 24q-88 0 -173 -57l-24 32q46 37 92.5 52t109.5 15q81 0 141 -33q72 -39 72 -116q0 -44 -21 -76q-19 -27 -46 -40v-4q54 -18 80 -56
q32 -44 32 -97q0 -83 -61 -138q-72 -62 -192 -62q-136 0 -229 87l30 35q46 -41 88.5 -59.5t110.5 -18.5z" />
    <glyph glyph-name="four" unicode="4" horiz-adv-x="555" 
d="M25 97v42l387 461h47v-458h65v-40l-65 -5v-97h-54v97h-380zM405 142v383l-317 -383h317z" />
    <glyph glyph-name="five" unicode="5" horiz-adv-x="527" 
d="M242 33q108 0 164 57q41 44 41 111q0 68 -43 111q-54 51 -143 51q-94 0 -164 -33h-43v270h394v-45h-348v-182q67 33 157 33q104 0 171 -56q69 -56 69 -149q0 -85 -57 -142q-70 -70 -198 -70q-78 0 -127 20t-90 59l29 36q44 -38 83 -54.5t105 -16.5z" />
    <glyph glyph-name="six" unicode="6" horiz-adv-x="558" 
d="M286 403q109 0 173 -48q69 -50 69 -153q0 -90 -63 -147q-72 -66 -180 -66q-97 0 -161 56q-94 81 -94 256q0 157 95 245q68 65 169 65q114 0 189 -58l-25 -37q-46 29 -81 40.5t-82 11.5q-82 0 -135 -45q-56 -49 -76 -169q74 49 202 49zM285 33q93 0 148 55q44 44 44 114
q0 74 -46 114q-49 43 -145 43q-67 0 -111 -10.5t-92 -35.5v-9q0 -161 70 -225q51 -46 132 -46z" />
    <glyph glyph-name="seven" unicode="7" horiz-adv-x="499" 
d="M40 556v44h444v-40l-286 -560h-55l285 556h-388z" />
    <glyph glyph-name="eight" unicode="8" horiz-adv-x="581" 
d="M289 -11q-117 0 -191 54q-68 53 -68 137q0 70 51 121q30 27 70 44q-37 28 -50 49q-17 31 -17 68q0 67 56 108q54 41 152 41q101 0 157 -45q44 -37 44 -101q0 -40 -23 -73q-18 -29 -48 -41q61 -21 92 -60q37 -45 37 -106q0 -85 -64 -136q-73 -60 -198 -60zM289 568
q-74 0 -117 -31q-37 -27 -37 -80q0 -35 26 -59q37 -30 128 -30q40 0 71 -4q46 9 65 40q18 26 18 63q0 51 -44 75q-42 26 -110 26zM289 322q-46 0 -78 7q-60 -20 -97 -60q-31 -32 -31 -84q0 -71 54 -110q58 -42 152 -42q104 0 161 49q48 40 48 103t-47 99q-49 38 -162 38z
" />
    <glyph glyph-name="nine" unicode="9" horiz-adv-x="558" 
d="M273 197q-109 0 -174 48q-69 50 -69 153q0 90 64 147q72 66 180 66q96 0 160 -56q92 -79 92 -256q0 -159 -96 -248q-68 -62 -174 -62q-113 0 -191 60l27 36q47 -30 82 -41.5t81 -11.5q92 0 145 50q58 57 75 164q-74 -49 -202 -49zM274 567q-94 0 -149 -55
q-44 -46 -44 -114q0 -74 46 -114q50 -43 146 -43q114 0 203 46v9q0 158 -71 225q-51 46 -131 46z" />
    <glyph glyph-name="colon" unicode=":" horiz-adv-x="170" 
d="M35 38q0 20 12 32.5t32 12.5t32 -12.5t12 -32.5t-12 -32t-32 -12t-32 12t-12 32zM35 324q0 20 12 32.5t32 12.5t32 -12.5t12 -32.5t-12 -32t-32 -12t-32 12t-12 32z" />
    <glyph glyph-name="semicolon" unicode=";" horiz-adv-x="170" 
d="M35 38q0 19 12 32t32 13t32 -13t12 -32q0 -9 -5 -21l-39 -95l-27 4l8 73q-25 8 -25 39zM35 324q0 20 12 32.5t32 12.5t32 -12.5t12 -32.5t-12 -32t-32 -12t-32 12t-12 32z" />
    <glyph glyph-name="less" unicode="&#x3c;" horiz-adv-x="282" 
d="M233 413l19 -29l-170 -121l170 -121l-19 -29l-213 139v22z" />
    <glyph glyph-name="equal" unicode="=" horiz-adv-x="321" 
d="M17 227h288v-41h-288v41zM17 343h288v-42h-288v42z" />
    <glyph glyph-name="greater" unicode="&#x3e;" horiz-adv-x="282" 
d="M52 113l-19 29l171 121l-171 121l19 29l214 -139v-22z" />
    <glyph glyph-name="question" unicode="?" horiz-adv-x="503" 
d="M237 176l-2 -36h-46v39q0 43 22 71q21 26 68 46l45 19q48 22 66 40q28 31 28 77q0 62 -44 99q-44 34 -136 34q-114 0 -196 -78l-32 34q91 90 227 90q110 0 165 -44q68 -54 68 -129q0 -70 -45 -116q-29 -30 -106 -61l-23 -9q-28 -10 -42 -29q-15 -18 -17 -47zM169 39
q0 20 12 32.5t33 12.5q20 0 32.5 -12.5t12.5 -32.5t-12.5 -32.5t-32.5 -12.5q-21 0 -33 12.5t-12 32.5z" />
    <glyph glyph-name="at" unicode="@" horiz-adv-x="672" 
d="M521 89q-48 0 -79 39q-58 -45 -118 -45q-67 0 -114 44q-51 46 -51 120q0 63 42 108q51 54 122 54q64 0 109 -31l19 22l31 -7v-198q0 -23 8 -36q12 -21 33 -21q22 0 41 19q24 28 24 94q0 100 -56 166q-68 82 -200 82q-116 0 -185 -72q-69 -69 -69 -176q0 -105 62 -172
q69 -78 192 -78q92 0 173 33l17 -43q-89 -42 -190 -42q-149 0 -232 89q-79 81 -79 213q0 123 82 208q86 91 229 91q163 0 250 -112q60 -77 60 -187q0 -91 -47 -133q-32 -29 -74 -29zM327 134q55 0 100 37q-2 7 -2 36v122q-48 29 -99 29q-48 0 -77 -29q-33 -31 -33 -82
q0 -50 29 -79q32 -34 82 -34z" />
    <glyph glyph-name="A" unicode="A" horiz-adv-x="670" 
d="M291 600h87l267 -600h-60l-54 121h-395l-53 -121h-58zM323 552l-167 -382h355l-164 382h-24z" />
    <glyph glyph-name="B" unicode="B" horiz-adv-x="600" 
d="M362 0h-312v600h299q89 0 138 -49q37 -37 37 -96q0 -39 -19 -71q-15 -27 -51 -50v-4q52 -24 76 -60q30 -43 30 -97q0 -73 -49 -122q-57 -51 -149 -51zM506 174q0 52 -27 83q-36 44 -110 44h-262v-255h256q73 0 109 41q34 37 34 87zM468 449q0 45 -29 74q-35 30 -96 30
h-236v-204h253q57 0 82 31q26 32 26 69z" />
    <glyph glyph-name="C" unicode="C" horiz-adv-x="602" 
d="M87 302q0 -112 72 -187q74 -77 190 -77q115 0 189 68l34 -37q-93 -80 -223 -80q-135 0 -228 91q-90 90 -90 222q0 129 90 219t228 90q134 0 223 -80l-34 -37q-78 68 -189 68q-116 0 -188 -74q-74 -77 -74 -186z" />
    <glyph glyph-name="D" unicode="D" horiz-adv-x="632" 
d="M50 600h235q148 0 233 -91q79 -82 79 -209q0 -137 -87 -219q-84 -81 -225 -81h-235v600zM281 550h-174v-501h174q123 0 191 70q69 71 69 181q0 109 -68 179q-68 71 -192 71z" />
    <glyph glyph-name="E" unicode="E" horiz-adv-x="555" 
d="M50 0v600h450v-50h-394v-207h352v-49h-352v-245h409v-49h-465z" />
    <glyph glyph-name="F" unicode="F" horiz-adv-x="519" 
d="M50 600h439v-50h-383v-225h340v-49h-340v-276h-56v600z" />
    <glyph glyph-name="G" unicode="G" horiz-adv-x="639" 
d="M589 332v-329l-24 -5l-19 57q-86 -66 -192 -66q-118 0 -206 69q-112 92 -112 244q0 129 90 219q92 90 230 90t231 -79l-30 -36q-81 66 -201 66q-117 0 -192 -77q-72 -77 -72 -183q0 -114 77 -191q75 -73 185 -73q101 0 181 58v190l-170 6v40h224z" />
    <glyph glyph-name="H" unicode="H" horiz-adv-x="620" 
d="M514 600h56v-600h-56v303h-409v-303h-55v600h55v-249h409v249z" />
    <glyph glyph-name="I" unicode="I" horiz-adv-x="156" 
d="M106 600v-600h-56v600h56z" />
    <glyph glyph-name="J" unicode="J" horiz-adv-x="511" 
d="M410 600h56v-334q0 -139 -70 -205q-74 -72 -192 -72q-111 0 -189 73l30 41q79 -65 156 -65q99 0 150 51q59 59 59 164v347z" />
    <glyph glyph-name="K" unicode="K" horiz-adv-x="594" 
d="M50 600h56v-255h179l200 255h64l-216 -274l241 -326h-64l-224 298h-180v-298h-56v600z" />
    <glyph glyph-name="L" unicode="L" horiz-adv-x="541" 
d="M516 47v-47h-466v600h55v-553h411z" />
    <glyph glyph-name="M" unicode="M" horiz-adv-x="751" 
d="M50 600h80l248 -346l246 346h77v-600h-55v541h-8l-258 -365h-11l-261 365h-8v-541h-50v600z" />
    <glyph glyph-name="N" unicode="N" horiz-adv-x="657" 
d="M555 600h52v-600h-62l-441 530v-530h-54v600h63l442 -528v528z" />
    <glyph glyph-name="O" unicode="O" horiz-adv-x="694" 
d="M347 611q136 0 228 -90q89 -89 89 -221q0 -130 -87 -217q-89 -94 -230 -94q-144 0 -236 98q-81 89 -81 213q0 126 84 215q90 96 233 96zM86 300q0 -104 68 -182q76 -82 193 -82q116 0 191 81q69 75 69 183q0 111 -72 186q-73 76 -188 76q-118 0 -191 -79
q-70 -77 -70 -183z" />
    <glyph glyph-name="P" unicode="P" horiz-adv-x="585" 
d="M555 388q0 -86 -61 -147q-64 -62 -165 -62h-222v-179h-57v600h279q113 0 179 -77q47 -56 47 -135zM335 228q81 0 125 51q39 44 39 109t-39 110q-47 53 -134 53h-219v-323h228z" />
    <glyph glyph-name="Q" unicode="Q" horiz-adv-x="694" 
d="M347 611q136 0 228 -90q89 -89 89 -221q0 -130 -87 -217q-38 -39 -89 -64q26 -13 72.5 -41t66.5 -38q59 -30 115 -37l4 -35q-12 -4 -33 -4q-65 0 -153 54q-94 63 -127 82q-44 -11 -86 -11q-144 0 -236 98q-81 89 -81 213q0 126 84 215q90 96 233 96zM86 300
q0 -104 68 -182q76 -82 193 -82q116 0 191 81q69 75 69 183q0 111 -72 186q-73 76 -188 76q-118 0 -191 -79q-70 -77 -70 -183z" />
    <glyph glyph-name="R" unicode="R" horiz-adv-x="591" 
d="M561 388q0 -73 -42 -127t-109 -73l114 -188h-59l-105 179h-254v-179h-56v600h285q101 0 165 -62q61 -61 61 -150zM106 551v-324h231q83 0 126 49q42 46 42 112q0 64 -39 109q-46 54 -135 54h-225z" />
    <glyph glyph-name="S" unicode="S" horiz-adv-x="571" 
d="M35 450q0 83 69 123q63 38 174 38q114 0 225 -44l-18 -44q-102 40 -201 40q-93 0 -143 -27q-53 -29 -53 -85q0 -44 34 -67q31 -21 88 -29l135 -23q111 -20 155 -63q41 -39 41 -103q0 -77 -65 -127q-64 -50 -215 -50q-116 0 -231 45l15 46q131 -41 215 -41q137 0 186 38
q40 32 40 86q0 50 -38 80q-39 25 -109 36l-139 23q-81 13 -121 46q-44 36 -44 102z" />
    <glyph glyph-name="T" unicode="T" horiz-adv-x="608" 
d="M25 553v47h558v-47h-251v-553h-56v553h-251z" />
    <glyph glyph-name="U" unicode="U" horiz-adv-x="614" 
d="M564 258q0 -127 -77 -201q-71 -68 -178 -68q-111 0 -184 73q-75 75 -75 196v342h56v-349q0 -97 57 -154q56 -61 146 -61q87 0 144 59q55 57 55 156v349h56v-342z" />
    <glyph glyph-name="V" unicode="V" horiz-adv-x="648" 
d="M366 0h-84l-257 600h62l229 -557h18l231 557h59z" />
    <glyph glyph-name="W" unicode="W" horiz-adv-x="957" 
d="M313 0h-86l-202 600h64l177 -556h12l159 556h83l165 -556h12l175 556h60l-199 -600h-88l-163 551h-12z" />
    <glyph glyph-name="X" unicode="X" horiz-adv-x="613" 
d="M109 600l197 -265l190 265h65l-216 -288l238 -312h-66l-211 286l-213 -286h-62l232 311l-219 289h65z" />
    <glyph glyph-name="Y" unicode="Y" horiz-adv-x="629" 
d="M343 0h-56v134l-261 466h64l224 -405h5l224 405h61l-261 -462v-138z" />
    <glyph glyph-name="Z" unicode="Z" horiz-adv-x="603" 
d="M563 50v-50h-523v30l450 528l-208 -5h-212v47h484v-40l-436 -516l200 6h245z" />
    <glyph glyph-name="bracketleft" unicode="[" horiz-adv-x="180" 
d="M98 606v-651h70v-43h-118v738h118v-44h-70z" />
    <glyph glyph-name="backslash" unicode="\" horiz-adv-x="250" 
d="M45 518l201 -533l-40 -16l-203 534z" />
    <glyph glyph-name="bracketright" unicode="]" horiz-adv-x="180" 
d="M82 -45v651h-70v44h118v-738h-118v43h70z" />
    <glyph glyph-name="asciicircum" unicode="^" horiz-adv-x="311" 
d="M291 456l-22 -20l-113 123l-115 -123l-21 19l123 154h24z" />
    <glyph glyph-name="underscore" unicode="_" horiz-adv-x="327" 
d="M0 -66h327v-40h-327v40z" />
    <glyph glyph-name="grave" unicode="`" horiz-adv-x="202" 
d="M97 703l55 -137l-31 -14l-71 128z" />
    <glyph glyph-name="a" unicode="a" horiz-adv-x="572" 
d="M247 500h77l223 -500h-58l-45 100h-320l-45 -100h-54zM276 453l-132 -308h281l-133 308h-16z" />
    <glyph glyph-name="b" unicode="b" horiz-adv-x="517" 
d="M313 0h-263v500h253q72 0 112 -40q32 -34 32 -82q0 -32 -15 -59q-15 -24 -38 -38v-4q30 -15 56 -47q27 -39 27 -85q0 -58 -43 -101q-46 -44 -121 -44zM425 147q0 43 -22 68q-30 35 -84 35h-215v-206h211q55 0 86 36q24 28 24 67zM394 374q0 35 -23 58t-73 23h-194v-161
h210q42 0 61 24q19 22 19 56z" />
    <glyph glyph-name="c" unicode="c" horiz-adv-x="523" 
d="M88 251q0 -91 58 -152q61 -61 153 -61q94 0 159 57l30 -36q-74 -68 -189 -68q-114 0 -189 75q-75 73 -75 185q0 107 75 182q78 76 189 76q115 0 189 -68l-31 -35q-64 56 -158 56q-91 0 -151 -60t-60 -151z" />
    <glyph glyph-name="d" unicode="d" horiz-adv-x="543" 
d="M50 500h200q116 0 188 -72q70 -70 70 -178q0 -109 -70 -179q-71 -71 -188 -71h-200v500zM246 453h-142v-407h142q103 0 157 60q51 57 51 144q0 90 -55 146q-55 57 -153 57z" />
    <glyph glyph-name="e" unicode="e" horiz-adv-x="481" 
d="M50 0v500h379v-47h-325v-163h290v-46h-290v-198h337v-46h-391z" />
    <glyph glyph-name="f" unicode="f" horiz-adv-x="448" 
d="M50 500h368v-47h-314v-173h279v-45h-279v-235h-54v500z" />
    <glyph glyph-name="g" unicode="g" horiz-adv-x="546" 
d="M497 279v-277l-30 -6l-10 44q-68 -49 -156 -49q-119 0 -191 74q-75 78 -75 186q0 107 71 181q77 77 196 77q118 0 192 -65l-31 -36q-66 54 -161 54q-93 0 -152 -59q-60 -60 -60 -152q0 -96 64 -158q60 -57 146 -57q81 0 146 48v151l-141 5v39h192z" />
    <glyph glyph-name="h" unicode="h" horiz-adv-x="537" 
d="M433 500h54v-500h-54v245h-329v-245h-54v500h54v-209h329v209z" />
    <glyph glyph-name="i" unicode="i" horiz-adv-x="153" 
d="M50 500h53v-500h-53v500z" />
    <glyph glyph-name="j" unicode="j" horiz-adv-x="439" 
d="M341 500h53v-288q0 -105 -59 -164q-59 -57 -160 -57q-99 0 -160 63l30 38q63 -54 128 -54q76 0 119 39q49 48 49 124v299z" />
    <glyph glyph-name="k" unicode="k" horiz-adv-x="508" 
d="M50 500h54v-209h140l163 209h60l-180 -229l202 -271h-61l-185 247h-139v-247h-54v500z" />
    <glyph glyph-name="l" unicode="l" horiz-adv-x="475" 
d="M103 46h347v-46h-400v500h53v-454z" />
    <glyph glyph-name="m" unicode="m" horiz-adv-x="645" 
d="M50 500h72l201 -281l200 281h72v-500h-54v442h-4l-209 -294h-15l-211 294h-4v-442h-48v500z" />
    <glyph glyph-name="n" unicode="n" horiz-adv-x="565" 
d="M464 500h51v-500h-56l-357 432v-432h-52v500h57l357 -431v431z" />
    <glyph glyph-name="o" unicode="o" horiz-adv-x="590" 
d="M295 509q117 0 193 -78q70 -70 70 -181q0 -114 -75 -186q-76 -73 -188 -73q-115 0 -190 75t-75 184q0 114 80 188q76 71 185 71zM84 250q0 -93 59 -152q60 -60 152 -60q91 0 148 57q63 63 63 155q0 96 -64 157q-57 55 -147 55q-94 0 -152 -61q-59 -59 -59 -151z" />
    <glyph glyph-name="p" unicode="p" horiz-adv-x="503" 
d="M473 323q0 -67 -46 -118q-56 -58 -141 -58h-182v-147h-54v500h236q85 0 137 -55q50 -50 50 -122zM292 193q56 0 93 39q34 39 34 91q0 54 -32 89q-36 42 -103 42h-180v-261h188z" />
    <glyph glyph-name="q" unicode="q" horiz-adv-x="588" 
d="M295 509q117 0 193 -78q70 -70 70 -181q0 -114 -75 -186q-32 -30 -65 -46q25 -14 59.5 -34t47.5 -27q53 -26 98 -28l3 -34q-14 -3 -30 -3q-56 0 -128 45q-11 7 -31.5 20t-38.5 24t-34 19q-33 -9 -69 -9q-115 0 -190 75t-75 184q0 114 80 188q76 71 185 71zM84 250
q0 -93 59 -152q60 -60 152 -60q91 0 148 57q63 63 63 155q0 96 -64 157q-57 55 -147 55q-94 0 -152 -61q-59 -59 -59 -151z" />
    <glyph glyph-name="r" unicode="r" horiz-adv-x="508" 
d="M478 323q0 -56 -33 -102q-35 -47 -89 -66l103 -155h-58l-96 147h-201v-147h-54v500h241q77 0 130 -47q57 -52 57 -130zM104 454v-261h190q60 0 96 39q34 37 34 92q0 50 -30 85q-37 45 -106 45h-184z" />
    <glyph glyph-name="s" unicode="s" horiz-adv-x="495" 
d="M34 380q0 61 52 93q56 36 155 36q102 0 194 -39l-18 -41q-86 34 -170 34q-83 0 -127 -24q-32 -20 -32 -60q0 -28 19 -44q20 -19 76 -29l115 -20q94 -16 132 -55q35 -37 35 -88q0 -68 -47 -105q-59 -47 -191 -47q-114 0 -198 38l19 46q90 -36 178 -36q114 0 156 37
q29 24 29 64q0 38 -28 63q-22 16 -91 30l-124 23q-61 13 -89 34q-45 33 -45 90z" />
    <glyph glyph-name="t" unicode="t" horiz-adv-x="519" 
d="M25 454v46h469v-46h-208v-454h-54v454h-207z" />
    <glyph glyph-name="u" unicode="u" horiz-adv-x="532" 
d="M482 211q0 -102 -66 -162q-60 -58 -150 -58q-93 0 -154 61q-62 64 -62 159v289h54v-295q0 -73 45 -120q46 -49 117 -49q72 0 118 48q44 46 44 121v295h54v-289z" />
    <glyph glyph-name="v" unicode="v" horiz-adv-x="553" 
d="M315 0h-77l-213 500h58l189 -452h11l189 452h56z" />
    <glyph glyph-name="w" unicode="w" horiz-adv-x="829" 
d="M282 0h-87l-165 500h59l147 -457h8l127 457h85l134 -457h8l144 457h57l-164 -500h-88l-132 456h-5z" />
    <glyph glyph-name="x" unicode="x" horiz-adv-x="520" 
d="M97 500l161 -214l155 214h62l-181 -240l201 -260h-63l-175 232l-171 -232h-61l196 260l-186 240h62z" />
    <glyph glyph-name="y" unicode="y" horiz-adv-x="537" 
d="M296 0h-54v117l-217 383h61l181 -327h4l183 327h58l-216 -380v-120z" />
    <glyph glyph-name="z" unicode="z" horiz-adv-x="518" 
d="M478 47v-47h-438v29l368 428l-164 -2h-179v45h413v-29l-362 -428l157 4h205z" />
    <glyph glyph-name="braceleft" unicode="{" horiz-adv-x="229" 
d="M194 606q-58 0 -58 -61v-163q0 -75 -41 -99v-4q41 -27 41 -99v-163q0 -32 14 -46.5t44 -14.5h31v-44h-28q-106 0 -106 103v188q0 57 -54 57h-21v43h21q54 0 54 56v188q0 103 106 103h28v-44h-31z" />
    <glyph glyph-name="bar" unicode="|" horiz-adv-x="146" 
d="M50 650h46v-800h-46v800z" />
    <glyph glyph-name="braceright" unicode="}" horiz-adv-x="229" 
d="M35 -44q30 0 44.5 14t14.5 46v163q0 74 40 99v3q-40 26 -40 100v164q0 61 -59 61h-31v44h29q47 0 76 -24.5t29 -78.5v-189q0 -57 55 -57h20v-43h-20q-55 0 -55 -56v-187q0 -103 -105 -103h-29v44h31z" />
    <glyph glyph-name="asciitilde" unicode="~" horiz-adv-x="357" 
d="M178 238q-39 14 -70 14q-38 0 -65 -23l-20 32q44 34 87 34q31 0 70 -14t69 -14q36 0 66 24l19 -33q-44 -33 -87 -33q-34 0 -69 13z" />
    <glyph glyph-name="exclamdown" unicode="&#xa1;" horiz-adv-x="176" 
d="M117 -49h-51v138l6 378h40l5 -378v-138zM137 566q0 -20 -12.5 -32.5t-32.5 -12.5t-32.5 12.5t-12.5 32.5t12.5 32.5t32.5 12.5t32.5 -12.5t12.5 -32.5z" />
    <glyph glyph-name="cent" unicode="&#xa2;" horiz-adv-x="523" 
d="M326 566v-57q93 -9 161 -69l-30 -34q-64 56 -158 56q-91 0 -151 -60t-60 -151q0 -89 58 -150q63 -63 153 -63q96 0 158 57l31 -35q-70 -64 -162 -69v-57h-55v58q-94 10 -161 72q-75 73 -75 187q0 109 75 182q65 65 161 75v58h55z" />
    <glyph glyph-name="currency" unicode="&#xa4;" horiz-adv-x="378" 
d="M189 101q-48 0 -88 27l-42 -39l-29 29l39 43q-28 40 -28 89q0 51 29 89l-40 42l29 30l42 -40q41 28 88 28t88 -28l42 40l29 -30l-39 -42q29 -41 29 -89q0 -46 -29 -89l40 -42l-30 -30l-42 39q-40 -27 -88 -27zM286 250q0 43 -23 69q-27 30 -74 30q-44 0 -72 -28
q-24 -27 -24 -71q0 -45 23 -71q24 -29 73 -29q45 0 69 25q28 28 28 75z" />
    <glyph glyph-name="yen" unicode="&#xa5;" horiz-adv-x="550" 
d="M432 167h-312v45h90l-178 288h61l179 -291h9l181 291h56l-178 -288h92v-45zM120 123h312v-45h-130v-78h-53v78h-129v45z" />
    <glyph glyph-name="brokenbar" unicode="&#xa6;" horiz-adv-x="146" 
d="M50 650h46v-383h-46v383zM50 233h46v-383h-46v383z" />
    <glyph glyph-name="section" unicode="&#xa7;" horiz-adv-x="467" 
d="M365 586l-13 -34q-63 21 -119 21q-62 0 -93 -20q-31 -18 -31 -52t29 -54q26 -18 82 -26l59 -8q74 -10 117 -53q41 -38 41 -103q0 -35 -18 -63q-21 -35 -63 -61q48 -32 48 -92q0 -44 -33 -75q-45 -44 -138 -44q-88 0 -160 37l15 35q68 -33 139 -33q76 0 109 30
q23 20 23 48q0 33 -20 51q-19 18 -71 27l-77 12q-79 12 -125 58q-36 35 -36 92q0 50 31 85q23 27 60 42q-58 34 -58 90q0 50 42 82q47 33 128 33q67 0 132 -25zM204 383q-30 5 -44 10q-43 -17 -63 -39q-25 -26 -25 -66q0 -41 26 -69q32 -35 108 -47l76 -12q15 -3 37 -10
q34 18 52 40q23 29 23 65q0 50 -34 82q-34 29 -92 37z" />
    <glyph glyph-name="dieresis" unicode="&#xa8;" horiz-adv-x="365" 
d="M231 611q0 17 12.5 29.5t29.5 12.5t29.5 -12.5t12.5 -29.5t-12.5 -29.5t-29.5 -12.5t-29.5 12.5t-12.5 29.5zM50 611q0 17 12.5 29.5t29.5 12.5t29.5 -12.5t12.5 -29.5t-12.5 -29.5t-29.5 -12.5t-29.5 12.5t-12.5 29.5z" />
    <glyph glyph-name="copyright" unicode="&#xa9;" horiz-adv-x="579" 
d="M30 250q0 107 75 182q75 77 184 77q119 0 198 -92q61 -70 61 -167q0 -107 -74 -181q-76 -78 -185 -78q-102 0 -177 69q-82 76 -82 190zM71 250q0 -96 71 -161q64 -57 147 -57q92 0 157 67q61 61 61 151q0 83 -54 143q-64 75 -164 75q-90 0 -154 -64t-64 -154zM371 186
l27 -26q-42 -48 -106 -48q-59 0 -100 41t-41 100q0 58 44 102q41 39 97 39q64 0 108 -50l-29 -27q-29 37 -79 37q-39 0 -70 -28q-31 -31 -31 -73t31 -73q31 -28 70 -28q45 0 79 34z" />
    <glyph glyph-name="ordfeminine" unicode="&#xaa;" horiz-adv-x="307" 
d="M242 584l21 19l17 -6v-174q0 -36 14 -61l-23 -15q-16 13 -24 29q-42 -31 -85 -31q-65 0 -105 37q-39 37 -39 97t41 96q37 36 97 36q49 0 86 -27zM240 550q-39 25 -84 25q-42 0 -71 -27q-28 -28 -28 -69q0 -45 29 -72q29 -26 75 -26q42 0 79 29v140z" />
    <glyph glyph-name="guillemotleft" unicode="&#xab;" horiz-adv-x="317" 
d="M20 250v25l135 138l26 -21l-107 -130l107 -129l-26 -21zM262 112l-136 138v24l136 139l25 -21l-106 -130l106 -129z" />
    <glyph glyph-name="logicalnot" unicode="&#xac;" horiz-adv-x="323" 
d="M261 206l-5 98h-236v42h283v-140h-42z" />
    <glyph glyph-name="uni00AD" unicode="&#xad;" horiz-adv-x="327" 
d="M17 284h281v-40h-281v40z" />
    <glyph glyph-name="registered" unicode="&#xae;" horiz-adv-x="390" 
d="M20 444q0 71 50 123q52 52 125 52q83 0 134 -62q41 -51 41 -113q0 -72 -49 -121q-52 -54 -126 -54q-73 0 -125 52q-50 52 -50 123zM54 444q0 -59 41 -100t100 -41q61 0 102 44q39 41 39 97q0 53 -34 92q-43 49 -107 49q-61 0 -102 -44q-39 -41 -39 -97zM238 418l26 -58
h-34l-21 51h-51v-51h-31v174h74q36 0 56 -20q17 -17 17 -41q0 -19 -9 -32q-11 -14 -27 -23zM158 505v-65h46q21 0 29 8q10 7 10 24q0 11 -8 22q-9 11 -34 11h-43z" />
    <glyph glyph-name="overscore" unicode="&#xaf;" horiz-adv-x="387" 
d="M50 614h287v-43h-287v43z" />
    <glyph glyph-name="degree" unicode="&#xb0;" horiz-adv-x="298" 
d="M13 475q0 56 40 96q42 40 96 40q57 0 97 -40q39 -41 39 -96t-39 -96q-40 -40 -97 -40t-97 40q-39 41 -39 96zM52 475q0 -42 28 -70q27 -27 69 -27q41 0 70 29q27 27 27 68t-28 69t-69 28t-69 -28t-28 -69z" />
    <glyph glyph-name="plusminus" unicode="&#xb1;" horiz-adv-x="320" 
d="M20 340h119v120h40v-120h121v-39h-121v-120h-40v120h-119v39zM20 147h280v-40h-280v40z" />
    <glyph glyph-name="twosuperior" unicode="&#xb2;" horiz-adv-x="268" 
d="M27 329v33l126 88q27 23 33 32q12 19 12 38q0 25 -22 38q-17 11 -44 11q-45 0 -86 -34l-23 28q48 45 109 45q48 0 77 -22q33 -26 33 -68q0 -29 -18 -57q-18 -25 -45 -43l-76 -50h141v-39h-217z" />
    <glyph glyph-name="threesuperior" unicode="&#xb3;" horiz-adv-x="291" 
d="M139 357q41 0 63 19q16 14 16 38q0 20 -14 31q-15 12 -42 12h-89v38h86q18 0 28 10t10 26q0 19 -15 27q-14 10 -47 10q-41 0 -76 -25l-21 30q43 33 99 33q48 0 78 -21q26 -19 26 -55q0 -32 -23 -48q44 -21 44 -68q0 -45 -32 -71q-34 -26 -91 -26q-68 0 -114 46l26 30
q41 -36 88 -36z" />
    <glyph glyph-name="acute" unicode="&#xb4;" horiz-adv-x="201" 
d="M50 566l55 137l47 -23l-71 -128z" />
    <glyph glyph-name="mu" unicode="&#xb5;" horiz-adv-x="571" 
d="M526 2l-36 -4l-17 78q-39 -46 -87 -65.5t-117 -19.5q-73 0 -120 37q-36 26 -62 75l-3 -1l10 -256h-53v654h52v-207q0 -108 36 -173q46 -83 146 -83q66 0 108 17t90 65v381h53v-498z" />
    <glyph glyph-name="paragraph" unicode="&#xb6;" horiz-adv-x="441" 
d="M200 500h193l3 -22l-73 -12v-389l-15 -164l-19 -16l-7 4v563h-44v-434l-14 -153l-19 -17l-7 4v349q-61 0 -103 39q-50 44 -50 111q0 55 41 96q43 41 114 41z" />
    <glyph glyph-name="middot" unicode="&#xb7;" horiz-adv-x="176" 
d="M35 294q0 20 12 32.5t32 12.5t32 -12.5t12 -32.5t-12 -32t-32 -12t-32 12t-12 32z" />
    <glyph glyph-name="cedilla" unicode="&#xb8;" horiz-adv-x="221" 
d="M77 16h37l-2 -53q23 0 40 -17q16 -17 16 -45q0 -36 -35 -60q-25 -18 -73 -29l-10 30q35 10 55 24q24 14 24 40q0 10 -6 16t-20 6h-26v88z" />
    <glyph glyph-name="onesuperior" unicode="&#xb9;" horiz-adv-x="147" 
d="M31 534l-16 32l67 34h25v-268h-44v215z" />
    <glyph glyph-name="ordmasculine" unicode="&#xba;" horiz-adv-x="298" 
d="M149 369q-53 0 -88 35q-35 33 -35 86t38 89q34 34 85 34q46 0 85 -32q37 -37 37 -91q0 -49 -33 -84q-37 -37 -89 -37zM229 490q0 33 -22 58q-23 24 -58 24t-57 -22q-23 -23 -23 -60q0 -34 23 -57t57 -23q39 0 58 24q22 22 22 56z" />
    <glyph glyph-name="guillemotright" unicode="&#xbb;" horiz-adv-x="317" 
d="M297 275v-25l-135 -138l-26 21l107 130l-107 129l26 21zM55 413l136 -139v-24l-136 -138l-25 21l107 130l-107 129z" />
    <glyph glyph-name="questiondown" unicode="&#xbf;" horiz-adv-x="502" 
d="M245 429l2 36h46v-39q0 -43 -22 -71q-21 -26 -68 -46l-45 -19q-48 -22 -66 -40q-28 -31 -28 -77q0 -62 44 -99q44 -34 136 -34q114 0 196 78l32 -34q-91 -90 -227 -90q-110 0 -165 44q-68 54 -68 129q0 69 45 116q29 30 106 61l23 9q28 10 42 29q15 18 17 47zM313 566
q0 -20 -12 -32.5t-33 -12.5q-20 0 -32.5 12.5t-12.5 32.5t12.5 32.5t32.5 12.5q21 0 33 -12.5t12 -32.5z" />
    <glyph glyph-name="Agrave" unicode="&#xc0;" horiz-adv-x="670" 
d="M291 600h87l267 -600h-60l-54 121h-395l-53 -121h-58zM323 552l-167 -382h355l-164 382h-24zM299 796l56 -135l-34 -16l-71 128z" />
    <glyph glyph-name="Aacute" unicode="&#xc1;" horiz-adv-x="670" 
d="M291 600h87l267 -600h-60l-54 121h-395l-53 -121h-58zM323 552l-167 -382h355l-164 382h-24zM318 661l56 135l49 -23l-71 -128z" />
    <glyph glyph-name="Acircumflex" unicode="&#xc2;" horiz-adv-x="670" 
d="M291 600h87l267 -600h-60l-54 121h-395l-53 -121h-58zM323 552l-167 -382h355l-164 382h-24zM224 647l-24 23l123 121h23l123 -121l-24 -23l-111 94z" />
    <glyph glyph-name="Atilde" unicode="&#xc3;" horiz-adv-x="670" 
d="M291 600h87l267 -600h-60l-54 121h-395l-53 -121h-58zM323 552l-167 -382h355l-164 382h-24zM405 650q-40 0 -78 21q-36 21 -70 21q-36 0 -66 -25l-20 26q46 40 91 40q36 0 84 -25q25 -16 64 -16q21 0 33 4.5t29 18.5l22 -26q-42 -39 -89 -39z" />
    <glyph glyph-name="Adieresis" unicode="&#xc4;" horiz-adv-x="670" 
d="M291 600h87l267 -600h-60l-54 121h-395l-53 -121h-58zM323 552l-167 -382h355l-164 382h-24zM389 695q0 20 14 34t33 14t33 -14t14 -34q0 -19 -14 -32.5t-33 -13.5t-33 13.5t-14 32.5zM186 695q0 20 13.5 34t32.5 14q20 0 33.5 -14t13.5 -34q0 -19 -13.5 -32.5
t-33.5 -13.5q-19 0 -32.5 13.5t-13.5 32.5z" />
    <glyph glyph-name="Aring" unicode="&#xc5;" horiz-adv-x="670" 
d="M291 600h87l267 -600h-60l-54 121h-395l-53 -121h-58zM323 552l-167 -382h355l-164 382h-24zM334 629q-42 0 -72 30q-29 29 -29 70q0 44 30 71q29 29 71 29t71 -29q30 -27 30 -71q0 -41 -29 -70q-30 -30 -72 -30zM334 669q28 0 42 18q15 15 15 42q0 28 -15 43
q-14 17 -42 17q-27 0 -42 -17q-15 -18 -15 -43q0 -27 15 -42q14 -18 42 -18z" />
    <glyph glyph-name="AE" unicode="&#xc6;" horiz-adv-x="998" 
d="M503 0v151h-317l-95 -151h-66l386 600h532v-50h-383v-207h341v-50h-341v-244h398v-49h-455zM438 549l-220 -349h285v349h-65z" />
    <glyph glyph-name="Ccedilla" unicode="&#xc7;" horiz-adv-x="602" 
d="M87 302q0 -112 72 -187q75 -78 190 -78q114 0 189 69l34 -37q-89 -80 -226 -80l-1 -29q28 0 47 -17q16 -15 16 -40q0 -48 -44 -79q-29 -19 -72 -25l-8 30q38 10 57 22q26 18 26 48q0 10 -8 18q-8 6 -22 6h-32v69q-106 11 -183 88q-91 89 -91 222q0 129 90 219t228 90
q134 0 223 -80l-34 -37q-79 69 -189 69q-115 0 -188 -75q-74 -77 -74 -186z" />
    <glyph glyph-name="Egrave" unicode="&#xc8;" horiz-adv-x="555" 
d="M50 0v600h450v-50h-394v-207h352v-49h-352v-245h409v-49h-465zM286 796l56 -135l-34 -16l-71 128z" />
    <glyph glyph-name="Eacute" unicode="&#xc9;" horiz-adv-x="555" 
d="M50 0v600h450v-50h-394v-207h352v-49h-352v-245h409v-49h-465zM238 661l56 135l49 -23l-71 -128z" />
    <glyph glyph-name="Ecircumflex" unicode="&#xca;" horiz-adv-x="555" 
d="M50 0v600h450v-50h-394v-207h352v-49h-352v-245h409v-49h-465zM183 647l-24 23l123 121h23l123 -121l-24 -23l-111 94z" />
    <glyph glyph-name="Edieresis" unicode="&#xcb;" horiz-adv-x="555" 
d="M50 0v600h450v-50h-394v-207h352v-49h-352v-245h409v-49h-465zM332 695q0 20 14 34t33 14t33 -14t14 -34q0 -19 -14 -32.5t-33 -13.5t-33 13.5t-14 32.5zM129 695q0 20 13.5 34t32.5 14q20 0 33.5 -14t13.5 -34q0 -19 -13.5 -32.5t-33.5 -13.5q-19 0 -32.5 13.5
t-13.5 32.5z" />
    <glyph glyph-name="Igrave" unicode="&#xcc;" horiz-adv-x="156" 
d="M106 600v-600h-56v600h56zM56 796l56 -135l-34 -16l-71 128z" />
    <glyph glyph-name="Iacute" unicode="&#xcd;" horiz-adv-x="156" 
d="M106 600v-600h-56v600h56zM47 661l56 135l49 -23l-71 -128z" />
    <glyph glyph-name="Icircumflex" unicode="&#xce;" horiz-adv-x="156" 
d="M106 600v-600h-56v600h56zM-31 647l-24 23l123 121h23l123 -121l-24 -23l-111 94z" />
    <glyph glyph-name="Idieresis" unicode="&#xcf;" horiz-adv-x="156" 
d="M106 600v-600h-56v600h56zM135 695q0 20 14 34t33 14t33 -14t14 -34q0 -19 -14 -32.5t-33 -13.5t-33 13.5t-14 32.5zM-68 695q0 20 13.5 34t32.5 14q20 0 33.5 -14t13.5 -34q0 -19 -13.5 -32.5t-33.5 -13.5q-19 0 -32.5 13.5t-13.5 32.5z" />
    <glyph glyph-name="Eth" unicode="&#xd0;" horiz-adv-x="632" 
d="M2 336h48v264h235q148 0 233 -91q79 -82 79 -209q0 -137 -87 -219q-84 -81 -225 -81h-235v285h-48v51zM281 550h-174v-214h165v-51h-165v-236h174q123 0 191 70q69 71 69 181q0 109 -68 179q-68 71 -192 71z" />
    <glyph glyph-name="Ntilde" unicode="&#xd1;" horiz-adv-x="657" 
d="M555 600h52v-600h-62l-441 530v-530h-54v600h63l442 -528v528zM401 650q-40 0 -78 21q-36 21 -70 21q-36 0 -66 -25l-20 26q46 40 91 40q36 0 84 -25q25 -16 64 -16q21 0 33 4.5t29 18.5l22 -26q-42 -39 -89 -39z" />
    <glyph glyph-name="Ograve" unicode="&#xd2;" horiz-adv-x="694" 
d="M347 611q136 0 228 -90q89 -89 89 -221q0 -130 -87 -217q-89 -94 -230 -94q-144 0 -236 98q-81 89 -81 213q0 126 84 215q90 96 233 96zM86 300q0 -104 68 -182q76 -82 193 -82q116 0 191 81q69 75 69 183q0 111 -72 186q-73 76 -188 76q-118 0 -191 -79
q-70 -77 -70 -183zM304 796l56 -135l-34 -16l-71 128z" />
    <glyph glyph-name="Oacute" unicode="&#xd3;" horiz-adv-x="694" 
d="M347 611q136 0 228 -90q89 -89 89 -221q0 -130 -87 -217q-89 -94 -230 -94q-144 0 -236 98q-81 89 -81 213q0 126 84 215q90 96 233 96zM86 300q0 -104 68 -182q76 -82 193 -82q116 0 191 81q69 75 69 183q0 111 -72 186q-73 76 -188 76q-118 0 -191 -79
q-70 -77 -70 -183zM334 661l56 135l49 -23l-71 -128z" />
    <glyph glyph-name="Ocircumflex" unicode="&#xd4;" horiz-adv-x="694" 
d="M347 611q136 0 228 -90q89 -89 89 -221q0 -130 -87 -217q-89 -94 -230 -94q-144 0 -236 98q-81 89 -81 213q0 126 84 215q90 96 233 96zM86 300q0 -104 68 -182q76 -82 193 -82q116 0 191 81q69 75 69 183q0 111 -72 186q-73 76 -188 76q-118 0 -191 -79
q-70 -77 -70 -183zM236 647l-24 23l123 121h23l123 -121l-24 -23l-111 94z" />
    <glyph glyph-name="Otilde" unicode="&#xd5;" horiz-adv-x="694" 
d="M347 611q136 0 228 -90q89 -89 89 -221q0 -130 -87 -217q-89 -94 -230 -94q-144 0 -236 98q-81 89 -81 213q0 126 84 215q90 96 233 96zM86 300q0 -104 68 -182q76 -82 193 -82q116 0 191 81q69 75 69 183q0 111 -72 186q-73 76 -188 76q-118 0 -191 -79
q-70 -77 -70 -183zM417 650q-40 0 -78 21q-36 21 -70 21q-36 0 -66 -25l-20 26q46 40 91 40q36 0 84 -25q25 -16 64 -16q21 0 33 4.5t29 18.5l22 -26q-42 -39 -89 -39z" />
    <glyph glyph-name="Odieresis" unicode="&#xd6;" horiz-adv-x="694" 
d="M347 611q136 0 228 -90q89 -89 89 -221q0 -130 -87 -217q-89 -94 -230 -94q-144 0 -236 98q-81 89 -81 213q0 126 84 215q90 96 233 96zM86 300q0 -104 68 -182q76 -82 193 -82q116 0 191 81q69 75 69 183q0 111 -72 186q-73 76 -188 76q-118 0 -191 -79
q-70 -77 -70 -183zM402 695q0 20 14 34t33 14t33 -14t14 -34q0 -19 -14 -32.5t-33 -13.5t-33 13.5t-14 32.5zM199 695q0 20 13.5 34t32.5 14q20 0 33.5 -14t13.5 -34q0 -19 -13.5 -32.5t-33.5 -13.5q-19 0 -32.5 13.5t-13.5 32.5z" />
    <glyph glyph-name="multiply" unicode="&#xd7;" horiz-adv-x="296" 
d="M33 180l83 83l-84 84l32 32l83 -84l86 85l31 -33l-85 -84l84 -84l-31 -31l-85 84l-83 -83z" />
    <glyph glyph-name="Oslash" unicode="&#xd8;" horiz-adv-x="694" 
d="M347 611q75 0 142 -31l23 38l44 -24l-23 -39q52 -34 87 -92q44 -68 44 -163q0 -131 -87 -218q-88 -93 -230 -93q-76 0 -144 30l-32 -52l-43 23l32 53q-70 48 -105 133q-24 56 -24 124q0 127 83 215q90 96 233 96zM607 300q0 57 -23 112q-25 56 -78 100l-278 -450
q57 -26 119 -26q116 0 191 81q69 75 69 183zM87 300q0 -61 21 -111q33 -70 78 -101l277 449q-56 27 -116 27q-116 0 -191 -81q-69 -75 -69 -183z" />
    <glyph glyph-name="Ugrave" unicode="&#xd9;" horiz-adv-x="614" 
d="M564 258q0 -127 -77 -201q-71 -68 -178 -68q-111 0 -184 73q-75 75 -75 196v342h56v-349q0 -97 57 -154q56 -61 146 -61q87 0 144 59q55 57 55 156v349h56v-342zM286 796l56 -135l-34 -16l-71 128z" />
    <glyph glyph-name="Uacute" unicode="&#xda;" horiz-adv-x="614" 
d="M564 258q0 -127 -77 -201q-71 -68 -178 -68q-111 0 -184 73q-75 75 -75 196v342h56v-349q0 -97 57 -154q56 -61 146 -61q87 0 144 59q55 57 55 156v349h56v-342zM276 661l56 135l49 -23l-71 -128z" />
    <glyph glyph-name="Ucircumflex" unicode="&#xdb;" horiz-adv-x="614" 
d="M564 258q0 -127 -77 -201q-71 -68 -178 -68q-111 0 -184 73q-75 75 -75 196v342h56v-349q0 -97 57 -154q56 -61 146 -61q87 0 144 59q55 57 55 156v349h56v-342zM196 647l-24 23l123 121h23l123 -121l-24 -23l-111 94z" />
    <glyph glyph-name="Udieresis" unicode="&#xdc;" horiz-adv-x="614" 
d="M564 258q0 -127 -77 -201q-71 -68 -178 -68q-111 0 -184 73q-75 75 -75 196v342h56v-349q0 -97 57 -154q56 -61 146 -61q87 0 144 59q55 57 55 156v349h56v-342zM361 695q0 20 14 34t33 14t33 -14t14 -34q0 -19 -14 -32.5t-33 -13.5t-33 13.5t-14 32.5zM158 695
q0 20 13.5 34t32.5 14q20 0 33.5 -14t13.5 -34q0 -19 -13.5 -32.5t-33.5 -13.5q-19 0 -32.5 13.5t-13.5 32.5z" />
    <glyph glyph-name="Yacute" unicode="&#xdd;" horiz-adv-x="629" 
d="M343 0h-56v134l-261 466h64l224 -405h5l224 405h61l-261 -462v-138zM277 661l56 135l49 -23l-71 -128z" />
    <glyph glyph-name="Thorn" unicode="&#xde;" horiz-adv-x="575" 
d="M545 309q0 -89 -62 -148q-61 -61 -165 -61h-210v-100h-58v600h58v-79h210q114 0 180 -77q47 -56 47 -135zM325 149q80 0 124 50q40 46 40 110q0 68 -40 109q-47 53 -133 53h-208v-322h217z" />
    <glyph glyph-name="germandbls" unicode="&#xdf;" horiz-adv-x="588" 
d="M50 0v483q0 83 53 128q46 39 121 39q89 0 131 -55q25 -32 25 -84q0 -27 -4 -47q-52 -4 -88 -24q-47 -30 -47 -76q0 -30 26 -47q16 -11 71 -23l62 -13q78 -16 113 -47q45 -42 45 -101q0 -49 -35 -87q-52 -55 -163 -55q-131 0 -218 43l20 44q92 -39 197 -39q82 0 120 38
q22 22 22 60q0 34 -22 56q-25 24 -84 37l-73 15q-69 14 -100 41q-33 27 -33 80q0 54 40 88q42 37 105 52q0 50 -26 73q-31 28 -85 28q-57 0 -89 -32q-33 -33 -33 -90v-485h-51z" />
    <glyph glyph-name="agrave" unicode="&#xe0;" horiz-adv-x="572" 
d="M247 500h77l223 -500h-58l-45 100h-320l-45 -100h-54zM276 453l-132 -308h281l-133 308h-16zM242 703l55 -137l-31 -14l-71 128z" />
    <glyph glyph-name="aacute" unicode="&#xe1;" horiz-adv-x="572" 
d="M247 500h77l223 -500h-58l-45 100h-320l-45 -100h-54zM276 453l-132 -308h281l-133 308h-16zM267 566l55 137l47 -23l-71 -128z" />
    <glyph glyph-name="acircumflex" unicode="&#xe2;" horiz-adv-x="572" 
d="M247 500h77l223 -500h-58l-45 100h-320l-45 -100h-54zM276 453l-132 -308h281l-133 308h-16zM413 573l-21 -23l-107 88l-107 -88l-21 23l116 113h24z" />
    <glyph glyph-name="atilde" unicode="&#xe3;" horiz-adv-x="572" 
d="M247 500h77l223 -500h-58l-45 100h-320l-45 -100h-54zM276 453l-132 -308h281l-133 308h-16zM353 563q-38 0 -73 20t-66 20q-32 0 -61 -25l-19 24q43 39 86 39q39 0 78 -24q24 -15 61 -15q30 0 57 22l21 -24q-40 -37 -84 -37z" />
    <glyph glyph-name="adieresis" unicode="&#xe4;" horiz-adv-x="572" 
d="M247 500h77l223 -500h-58l-45 100h-320l-45 -100h-54zM276 453l-132 -308h281l-133 308h-16zM334 611q0 17 12.5 29.5t29.5 12.5t29.5 -12.5t12.5 -29.5t-12.5 -29.5t-29.5 -12.5t-29.5 12.5t-12.5 29.5zM153 611q0 17 12.5 29.5t29.5 12.5t29.5 -12.5t12.5 -29.5
t-12.5 -29.5t-29.5 -12.5t-29.5 12.5t-12.5 29.5z" />
    <glyph glyph-name="aring" unicode="&#xe5;" horiz-adv-x="572" 
d="M247 500h77l223 -500h-58l-45 100h-320l-45 -100h-54zM276 453l-132 -308h281l-133 308h-16zM285 567q-40 0 -68 28q-27 27 -27 66q0 38 27 67q27 27 68 27q39 0 68 -26q28 -28 28 -68q0 -37 -27 -66q-28 -28 -69 -28zM285 601q29 0 43 17q15 15 15 43q0 27 -15 43
q-15 18 -43 18q-27 0 -43 -18q-15 -18 -15 -43q0 -28 15 -43q15 -17 43 -17z" />
    <glyph glyph-name="ae" unicode="&#xe6;" horiz-adv-x="835" 
d="M414 0v130h-244l-82 -130h-63l326 500h430v-47h-313v-166h280v-45h-280v-196h327v-46h-381zM380 449l-178 -273h212v273h-34z" />
    <glyph glyph-name="ccedilla" unicode="&#xe7;" horiz-adv-x="523" 
d="M88 251q0 -91 58 -152q61 -61 153 -61q94 0 158 56l31 -35q-70 -64 -176 -68l-1 -29q25 0 41 -16q16 -17 16 -44q0 -39 -36 -62q-28 -21 -73 -30l-10 31q38 11 55 23q24 13 24 40q0 11 -5 16q-6 6 -19 6h-28v66q-101 9 -166 74q-75 73 -75 185q0 108 74 182q78 76 190 76
q115 0 189 -68l-31 -35q-64 56 -158 56q-91 0 -151 -60t-60 -151z" />
    <glyph glyph-name="egrave" unicode="&#xe8;" horiz-adv-x="481" 
d="M50 0v500h379v-47h-325v-163h290v-46h-290v-198h337v-46h-391zM216 703l55 -137l-31 -14l-71 128z" />
    <glyph glyph-name="eacute" unicode="&#xe9;" horiz-adv-x="481" 
d="M50 0v500h379v-47h-325v-163h290v-46h-290v-198h337v-46h-391zM227 566l55 137l47 -23l-71 -128z" />
    <glyph glyph-name="ecircumflex" unicode="&#xea;" horiz-adv-x="481" 
d="M50 0v500h379v-47h-325v-163h290v-46h-290v-198h337v-46h-391zM381 573l-21 -23l-107 88l-107 -88l-21 23l116 113h24z" />
    <glyph glyph-name="edieresis" unicode="&#xeb;" horiz-adv-x="481" 
d="M50 0v500h379v-47h-325v-163h290v-46h-290v-198h337v-46h-391zM287 611q0 17 12.5 29.5t29.5 12.5t29.5 -12.5t12.5 -29.5t-12.5 -29.5t-29.5 -12.5t-29.5 12.5t-12.5 29.5zM106 611q0 17 12.5 29.5t29.5 12.5t29.5 -12.5t12.5 -29.5t-12.5 -29.5t-29.5 -12.5t-29.5 12.5
t-12.5 29.5z" />
    <glyph glyph-name="igrave" unicode="&#xec;" horiz-adv-x="153" 
d="M50 500h53v-500h-53v500zM49 703l55 -137l-31 -14l-71 128z" />
    <glyph glyph-name="iacute" unicode="&#xed;" horiz-adv-x="153" 
d="M50 500h53v-500h-53v500zM48 566l55 137l47 -23l-71 -128z" />
    <glyph glyph-name="icircumflex" unicode="&#xee;" horiz-adv-x="153" 
d="M50 500h53v-500h-53v500zM207 573l-21 -23l-107 88l-107 -88l-21 23l116 113h24z" />
    <glyph glyph-name="idieresis" unicode="&#xef;" horiz-adv-x="153" 
d="M50 500h53v-500h-53v500zM127 611q0 17 12.5 29.5t29.5 12.5t29.5 -12.5t12.5 -29.5t-12.5 -29.5t-29.5 -12.5t-29.5 12.5t-12.5 29.5zM-54 611q0 17 12.5 29.5t29.5 12.5t29.5 -12.5t12.5 -29.5t-12.5 -29.5t-29.5 -12.5t-29.5 12.5t-12.5 29.5z" />
    <glyph glyph-name="eth" unicode="&#xf0;" horiz-adv-x="543" 
d="M12 240v49h38v211h195q121 0 193 -72q70 -70 70 -178q0 -109 -70 -179q-71 -71 -193 -71h-195v240h-38zM241 453h-137v-164h184v-49h-184v-194h137q108 0 162 60q51 57 51 144q0 90 -55 146q-55 57 -158 57z" />
    <glyph glyph-name="ntilde" unicode="&#xf1;" horiz-adv-x="565" 
d="M464 500h51v-500h-56l-357 432v-432h-52v500h57l357 -431v431zM350 563q-38 0 -73 20t-66 20q-32 0 -61 -25l-19 24q43 39 86 39q39 0 78 -24q24 -15 61 -15q30 0 57 22l21 -24q-40 -37 -84 -37z" />
    <glyph glyph-name="ograve" unicode="&#xf2;" horiz-adv-x="590" 
d="M295 509q117 0 193 -78q70 -70 70 -181q0 -114 -75 -186q-76 -73 -188 -73q-115 0 -190 75t-75 184q0 114 80 188q76 71 185 71zM84 250q0 -93 59 -152q60 -60 152 -60q91 0 148 57q63 63 63 155q0 96 -64 157q-57 55 -147 55q-94 0 -152 -61q-59 -59 -59 -151zM243 703
l55 -137l-31 -14l-71 128z" />
    <glyph glyph-name="oacute" unicode="&#xf3;" horiz-adv-x="590" 
d="M295 509q117 0 193 -78q70 -70 70 -181q0 -114 -75 -186q-76 -73 -188 -73q-115 0 -190 75t-75 184q0 114 80 188q76 71 185 71zM84 250q0 -93 59 -152q60 -60 152 -60q91 0 148 57q63 63 63 155q0 96 -64 157q-57 55 -147 55q-94 0 -152 -61q-59 -59 -59 -151zM286 566
l55 137l47 -23l-71 -128z" />
    <glyph glyph-name="ocircumflex" unicode="&#xf4;" horiz-adv-x="590" 
d="M295 509q117 0 193 -78q70 -70 70 -181q0 -114 -75 -186q-76 -73 -188 -73q-115 0 -190 75t-75 184q0 114 80 188q76 71 185 71zM84 250q0 -93 59 -152q60 -60 152 -60q91 0 148 57q63 63 63 155q0 96 -64 157q-57 55 -147 55q-94 0 -152 -61q-59 -59 -59 -151zM422 573
l-21 -23l-107 88l-107 -88l-21 23l116 113h24z" />
    <glyph glyph-name="otilde" unicode="&#xf5;" horiz-adv-x="590" 
d="M295 509q117 0 193 -78q70 -70 70 -181q0 -114 -75 -186q-76 -73 -188 -73q-115 0 -190 75t-75 184q0 114 80 188q76 71 185 71zM84 250q0 -93 59 -152q60 -60 152 -60q91 0 148 57q63 63 63 155q0 96 -64 157q-57 55 -147 55q-94 0 -152 -61q-59 -59 -59 -151zM361 563
q-38 0 -73 20t-66 20q-32 0 -61 -25l-19 24q43 39 86 39q39 0 78 -24q24 -15 61 -15q30 0 57 22l21 -24q-40 -37 -84 -37z" />
    <glyph glyph-name="odieresis" unicode="&#xf6;" horiz-adv-x="590" 
d="M295 509q117 0 193 -78q70 -70 70 -181q0 -114 -75 -186q-76 -73 -188 -73q-115 0 -190 75t-75 184q0 114 80 188q76 71 185 71zM84 250q0 -93 59 -152q60 -60 152 -60q91 0 148 57q63 63 63 155q0 96 -64 157q-57 55 -147 55q-94 0 -152 -61q-59 -59 -59 -151zM343 611
q0 17 12.5 29.5t29.5 12.5t29.5 -12.5t12.5 -29.5t-12.5 -29.5t-29.5 -12.5t-29.5 12.5t-12.5 29.5zM162 611q0 17 12.5 29.5t29.5 12.5t29.5 -12.5t12.5 -29.5t-12.5 -29.5t-29.5 -12.5t-29.5 12.5t-12.5 29.5z" />
    <glyph glyph-name="divide" unicode="&#xf7;" horiz-adv-x="324" 
d="M21 306h281v-40h-281v40zM117 387q0 20 12 32.5t32 12.5t32 -12.5t12 -32.5t-12 -32t-32 -12t-32 12t-12 32zM117 186q0 20 12 32.5t32 12.5t32 -12.5t12 -32.5t-12 -32t-32 -12t-32 12t-12 32z" />
    <glyph glyph-name="oslash" unicode="&#xf8;" horiz-adv-x="590" 
d="M295 509q64 0 126 -30l20 30l47 -30l-20 -30q36 -31 58 -70q32 -59 32 -129q0 -114 -75 -186q-76 -73 -188 -73q-70 0 -125 28l-19 -27l-45 28l19 27q-47 41 -73 96q-22 47 -22 107q0 114 80 188q76 71 185 71zM84 250q0 -49 16 -88q20 -46 52 -74l244 352
q-42 23 -101 23q-93 0 -152 -62q-59 -59 -59 -151zM486 347q-16 36 -45 62l-245 -350q43 -22 99 -22q90 0 148 58q62 62 62 155q0 55 -19 97z" />
    <glyph glyph-name="ugrave" unicode="&#xf9;" horiz-adv-x="533" 
d="M482 211q0 -102 -66 -162q-60 -58 -150 -58q-93 0 -154 61q-62 64 -62 159v289h54v-295q0 -73 45 -120q46 -49 117 -49q72 0 118 48q44 46 44 121v295h54v-289zM233 703l55 -137l-31 -14l-71 128z" />
    <glyph glyph-name="uacute" unicode="&#xfa;" horiz-adv-x="533" 
d="M482 211q0 -102 -66 -162q-60 -58 -150 -58q-93 0 -154 61q-62 64 -62 159v289h54v-295q0 -73 45 -120q46 -49 117 -49q72 0 118 48q44 46 44 121v295h54v-289zM233 566l55 137l47 -23l-71 -128z" />
    <glyph glyph-name="ucircumflex" unicode="&#xfb;" horiz-adv-x="533" 
d="M482 211q0 -102 -66 -162q-60 -58 -150 -58q-93 0 -154 61q-62 64 -62 159v289h54v-295q0 -73 45 -120q46 -49 117 -49q72 0 118 48q44 46 44 121v295h54v-289zM394 573l-21 -23l-107 88l-107 -88l-21 23l116 113h24z" />
    <glyph glyph-name="udieresis" unicode="&#xfc;" horiz-adv-x="533" 
d="M482 211q0 -102 -66 -162q-60 -58 -150 -58q-93 0 -154 61q-62 64 -62 159v289h54v-295q0 -73 45 -120q46 -49 117 -49q72 0 118 48q44 46 44 121v295h54v-289zM314 611q0 17 12.5 29.5t29.5 12.5t29.5 -12.5t12.5 -29.5t-12.5 -29.5t-29.5 -12.5t-29.5 12.5t-12.5 29.5z
M133 611q0 17 12.5 29.5t29.5 12.5t29.5 -12.5t12.5 -29.5t-12.5 -29.5t-29.5 -12.5t-29.5 12.5t-12.5 29.5z" />
    <glyph glyph-name="yacute" unicode="&#xfd;" horiz-adv-x="537" 
d="M296 0h-54v117l-217 383h61l181 -327h4l183 327h58l-216 -380v-120zM246 566l55 137l47 -23l-71 -128z" />
    <glyph glyph-name="thorn" unicode="&#xfe;" horiz-adv-x="498" 
d="M468 252q0 -67 -46 -118q-57 -59 -146 -59h-172v-75h-54v500h54v-70h172q89 0 142 -56q50 -50 50 -122zM282 121q60 0 98 40q34 39 34 91q0 51 -32 89q-37 44 -109 44h-169v-264h178z" />
    <glyph glyph-name="ydieresis" unicode="&#xff;" horiz-adv-x="537" 
d="M296 0h-54v117l-217 383h61l181 -327h4l183 327h58l-216 -380v-120zM316 611q0 17 12.5 29.5t29.5 12.5t29.5 -12.5t12.5 -29.5t-12.5 -29.5t-29.5 -12.5t-29.5 12.5t-12.5 29.5zM135 611q0 17 12.5 29.5t29.5 12.5t29.5 -12.5t12.5 -29.5t-12.5 -29.5t-29.5 -12.5
t-29.5 12.5t-12.5 29.5z" />
    <glyph glyph-name="Amacron" unicode="&#x100;" horiz-adv-x="670" 
d="M291 600h87l267 -600h-60l-54 121h-395l-53 -121h-58zM323 552l-167 -382h355l-164 382h-24zM177 695h316v-45h-316v45z" />
    <glyph glyph-name="amacron" unicode="&#x101;" horiz-adv-x="572" 
d="M247 500h77l223 -500h-58l-45 100h-320l-45 -100h-54zM276 453l-132 -308h281l-133 308h-16zM142 614h287v-43h-287v43z" />
    <glyph glyph-name="Abreve" unicode="&#x102;" horiz-adv-x="670" 
d="M291 600h87l267 -600h-60l-54 121h-395l-53 -121h-58zM323 552l-167 -382h355l-164 382h-24zM418 755l43 -6q-12 -53 -38 -77q-34 -31 -88 -31q-58 0 -94 33q-24 24 -35 75l42 6q8 -38 29 -56q23 -19 58 -19q37 0 57 20q17 19 26 55z" />
    <glyph glyph-name="abreve" unicode="&#x103;" horiz-adv-x="572" 
d="M247 500h77l223 -500h-58l-45 100h-320l-45 -100h-54zM276 453l-132 -308h281l-133 308h-16zM286 557q-49 0 -79 32q-20 26 -23 58l36 7q8 -30 24 -45q16 -14 41 -14q26 0 42 14q17 17 23 45l37 -7q-3 -34 -24 -59q-29 -31 -77 -31z" />
    <glyph glyph-name="Aogonek" unicode="&#x104;" horiz-adv-x="670" 
d="M291 600h87l267 -600q-30 0 -42 -16q-11 -14 -11 -33q0 -27 17 -47q12 -14 46 -32l-12 -29q-47 13 -70 42q-21 28 -21 61q0 39 29 60l-51 115h-393l-53 -121h-59zM323 552l-166 -382h353l-163 382h-24z" />
    <glyph glyph-name="aogonek" unicode="&#x105;" horiz-adv-x="572" 
d="M247 500h77l223 -500q-13 -3 -21 -11q-10 -13 -10 -33q0 -25 14 -45q13 -18 46 -37l-15 -26q-38 15 -62 39q-25 26 -25 63q0 31 22 50h-7l-45 100h-320l-45 -100h-54zM276 453l-132 -308h281l-133 308h-16z" />
    <glyph glyph-name="Cacute" unicode="&#x106;" horiz-adv-x="602" 
d="M87 302q0 -112 72 -187q74 -77 190 -77q115 0 189 68l34 -37q-93 -80 -223 -80q-135 0 -228 91q-90 90 -90 222q0 129 90 219t228 90q134 0 223 -80l-34 -37q-78 68 -189 68q-116 0 -188 -74q-74 -77 -74 -186zM335 661l56 135l49 -23l-71 -128z" />
    <glyph glyph-name="cacute" unicode="&#x107;" horiz-adv-x="523" 
d="M88 251q0 -91 58 -152q61 -61 153 -61q94 0 159 57l30 -36q-74 -68 -189 -68q-114 0 -189 75q-75 73 -75 185q0 107 75 182q78 76 189 76q115 0 189 -68l-31 -35q-64 56 -158 56q-91 0 -151 -60t-60 -151zM293 566l55 137l47 -23l-71 -128z" />
    <glyph glyph-name="Ccircumflex" unicode="&#x108;" horiz-adv-x="602" 
d="M87 302q0 -112 72 -187q74 -77 190 -77q115 0 189 68l34 -37q-93 -80 -223 -80q-135 0 -228 91q-90 90 -90 222q0 129 90 219t228 90q134 0 223 -80l-34 -37q-78 68 -189 68q-116 0 -188 -74q-74 -77 -74 -186zM243 647l-24 23l123 121h23l123 -121l-24 -23l-111 94z" />
    <glyph glyph-name="ccircumflex" unicode="&#x109;" horiz-adv-x="523" 
d="M88 251q0 -91 58 -152q61 -61 153 -61q94 0 159 57l30 -36q-74 -68 -189 -68q-114 0 -189 75q-75 73 -75 185q0 107 75 182q78 76 189 76q115 0 189 -68l-31 -35q-64 56 -158 56q-91 0 -151 -60t-60 -151zM425 573l-21 -23l-107 88l-107 -88l-21 23l116 113h24z" />
    <glyph glyph-name="Cdotaccent" unicode="&#x10a;" horiz-adv-x="602" 
d="M87 302q0 -112 72 -187q74 -77 190 -77q115 0 189 68l34 -37q-93 -80 -223 -80q-135 0 -228 91q-90 90 -90 222q0 129 90 219t228 90q134 0 223 -80l-34 -37q-78 68 -189 68q-116 0 -188 -74q-74 -77 -74 -186zM311 685q0 17 12 28.5t29 11.5t29.5 -11.5t12.5 -28.5
t-12.5 -29t-29.5 -12t-29 12t-12 29z" />
    <glyph glyph-name="cdotaccent" unicode="&#x10b;" horiz-adv-x="523" 
d="M88 251q0 -91 58 -152q61 -61 153 -61q94 0 159 57l30 -36q-74 -68 -189 -68q-114 0 -189 75q-75 73 -75 185q0 107 75 182q78 76 189 76q115 0 189 -68l-31 -35q-64 56 -158 56q-91 0 -151 -60t-60 -151zM256 598q0 17 11 28t28 11t28 -11t11 -28t-11 -28t-28 -11
t-28 11t-11 28z" />
    <glyph glyph-name="Ccaron" unicode="&#x10c;" horiz-adv-x="602" 
d="M87 302q0 -112 72 -187q74 -77 190 -77q115 0 189 68l34 -37q-93 -80 -223 -80q-135 0 -228 91q-90 90 -90 222q0 129 90 219t228 90q134 0 223 -80l-34 -37q-78 68 -189 68q-116 0 -188 -74q-74 -77 -74 -186zM222 763l21 22l113 -93l113 93l22 -22l-123 -120h-23z" />
    <glyph glyph-name="ccaron" unicode="&#x10d;" horiz-adv-x="523" 
d="M88 251q0 -91 58 -152q61 -61 153 -61q94 0 159 57l30 -36q-74 -68 -189 -68q-114 0 -189 75q-75 73 -75 185q0 107 75 182q78 76 189 76q115 0 189 -68l-31 -35q-64 56 -158 56q-91 0 -151 -60t-60 -151zM178 662l21 24l107 -89l108 89l20 -24l-116 -112h-23z" />
    <glyph glyph-name="Dcaron" unicode="&#x10e;" horiz-adv-x="632" 
d="M50 600h235q148 0 233 -91q79 -82 79 -209q0 -137 -87 -219q-84 -81 -225 -81h-235v600zM281 550h-174v-501h174q123 0 191 70q69 71 69 181q0 109 -68 179q-68 71 -192 71zM126 763l21 22l113 -93l113 93l22 -22l-123 -120h-23z" />
    <glyph glyph-name="dcaron" unicode="&#x10f;" horiz-adv-x="543" 
d="M50 500h200q116 0 188 -72q70 -70 70 -178q0 -109 -70 -179q-71 -71 -188 -71h-200v500zM246 453h-142v-407h142q103 0 157 60q51 57 51 144q0 90 -55 146q-55 57 -153 57zM120 662l21 24l107 -89l108 89l20 -24l-116 -112h-23z" />
    <glyph glyph-name="Dcroat" unicode="&#x110;" horiz-adv-x="632" 
d="M2 336h48v264h235q148 0 233 -91q79 -82 79 -209q0 -137 -87 -219q-84 -81 -225 -81h-235v285h-48v51zM281 550h-174v-214h165v-51h-165v-236h174q123 0 191 70q69 71 69 181q0 109 -68 179q-68 71 -192 71z" />
    <glyph glyph-name="dslash" unicode="&#x111;" horiz-adv-x="543" 
d="M12 240v49h38v211h195q121 0 193 -72q70 -70 70 -178q0 -109 -70 -179q-71 -71 -193 -71h-195v240h-38zM241 453h-137v-164h184v-49h-184v-194h137q108 0 162 60q51 57 51 144q0 90 -55 146q-55 57 -158 57z" />
    <glyph glyph-name="Emacron" unicode="&#x112;" horiz-adv-x="555" 
d="M50 0v600h450v-50h-394v-207h352v-49h-352v-245h409v-49h-465zM119 695h316v-45h-316v45z" />
    <glyph glyph-name="emacron" unicode="&#x113;" horiz-adv-x="481" 
d="M50 0v500h379v-47h-325v-163h290v-46h-290v-198h337v-46h-391zM96 614h287v-43h-287v43z" />
    <glyph glyph-name="Ebreve" unicode="&#x114;" horiz-adv-x="555" 
d="M50 0v600h450v-50h-394v-207h352v-49h-352v-245h409v-49h-465zM365 755l43 -6q-12 -53 -38 -77q-34 -31 -88 -31q-58 0 -94 33q-24 24 -35 75l42 6q8 -38 29 -56q23 -19 58 -19q37 0 57 20q17 19 26 55z" />
    <glyph glyph-name="ebreve" unicode="&#x115;" horiz-adv-x="481" 
d="M50 0v500h379v-47h-325v-163h290v-46h-290v-198h337v-46h-391zM235 557q-49 0 -79 32q-20 26 -23 58l36 7q8 -30 24 -45q16 -14 41 -14q26 0 42 14q17 17 23 45l37 -7q-3 -34 -24 -59q-29 -31 -77 -31z" />
    <glyph glyph-name="Edotaccent" unicode="&#x116;" horiz-adv-x="555" 
d="M50 0v600h450v-50h-394v-207h352v-49h-352v-245h409v-49h-465zM237 683q0 17 11 28t28 11t28 -11t11 -28t-11 -28t-28 -11t-28 11t-11 28z" />
    <glyph glyph-name="edotaccent" unicode="&#x117;" horiz-adv-x="481" 
d="M50 0v500h379v-47h-325v-163h290v-46h-290v-198h337v-46h-391zM213 593q0 17 11 28t28 11t28 -11t11 -28t-11 -28t-28 -11t-28 11t-11 28z" />
    <glyph glyph-name="Eogonek" unicode="&#x118;" horiz-adv-x="555" 
d="M50 0v600h450v-50h-394v-207h352v-49h-352v-245h409v-49q-23 0 -33 -19q-8 -16 -8 -28q0 -25 19 -49q15 -18 45 -32l-11 -25q-43 13 -59 28q-36 29 -36 68q0 36 30 57h-412z" />
    <glyph glyph-name="eogonek" unicode="&#x119;" horiz-adv-x="481" 
d="M50 0v500h379v-47h-325v-163h290v-46h-290v-198h337v-46q-22 0 -38 -16q-9 -13 -9 -28q0 -27 15 -46q12 -17 46 -36l-15 -26q-42 16 -64 39q-24 27 -24 62q0 28 28 51h-330z" />
    <glyph glyph-name="Ecaron" unicode="&#x11a;" horiz-adv-x="555" 
d="M50 0v600h450v-50h-394v-207h352v-49h-352v-245h409v-49h-465zM151 763l21 22l113 -93l113 93l22 -22l-123 -120h-23z" />
    <glyph glyph-name="ecaron" unicode="&#x11b;" horiz-adv-x="481" 
d="M50 0v500h379v-47h-325v-163h290v-46h-290v-198h337v-46h-391zM117 662l21 24l107 -89l108 89l20 -24l-116 -112h-23z" />
    <glyph glyph-name="Gcircumflex" unicode="&#x11c;" horiz-adv-x="639" 
d="M589 332v-329l-24 -5l-19 57q-86 -66 -192 -66q-118 0 -206 69q-112 92 -112 244q0 129 90 219q92 90 230 90t231 -79l-30 -36q-81 66 -201 66q-117 0 -192 -77q-72 -77 -72 -183q0 -114 77 -191q75 -73 185 -73q101 0 181 58v190l-170 6v40h224zM247 647l-24 23l123 121
h23l123 -121l-24 -23l-111 94z" />
    <glyph glyph-name="gcircumflex" unicode="&#x11d;" horiz-adv-x="546" 
d="M497 279v-277l-30 -6l-10 44q-68 -49 -156 -49q-119 0 -191 74q-75 78 -75 186q0 107 71 181q77 77 196 77q118 0 192 -65l-31 -36q-66 54 -161 54q-93 0 -152 -59q-60 -60 -60 -152q0 -96 64 -158q60 -57 146 -57q81 0 146 48v151l-141 5v39h192zM434 573l-21 -23
l-107 88l-107 -88l-21 23l116 113h24z" />
    <glyph glyph-name="Gbreve" unicode="&#x11e;" horiz-adv-x="639" 
d="M589 332v-329l-24 -5l-19 57q-86 -66 -192 -66q-118 0 -206 69q-112 92 -112 244q0 129 90 219q92 90 230 90t231 -79l-30 -36q-81 66 -201 66q-117 0 -192 -77q-72 -77 -72 -183q0 -114 77 -191q75 -73 185 -73q101 0 181 58v190l-170 6v40h224zM438 755l43 -6
q-12 -53 -38 -77q-34 -31 -88 -31q-58 0 -94 33q-24 24 -35 75l42 6q8 -38 29 -56q23 -19 58 -19q37 0 57 20q17 19 26 55z" />
    <glyph glyph-name="gbreve" unicode="&#x11f;" horiz-adv-x="546" 
d="M497 279v-277l-30 -6l-10 44q-68 -49 -156 -49q-119 0 -191 74q-75 78 -75 186q0 107 71 181q77 77 196 77q118 0 192 -65l-31 -36q-66 54 -161 54q-93 0 -152 -59q-60 -60 -60 -152q0 -96 64 -158q60 -57 146 -57q81 0 146 48v151l-141 5v39h192zM300 557q-49 0 -79 32
q-20 26 -23 58l36 7q8 -30 24 -45q16 -14 41 -14q26 0 42 14q17 17 23 45l37 -7q-3 -34 -24 -59q-29 -31 -77 -31z" />
    <glyph glyph-name="Gdotaccent" unicode="&#x120;" horiz-adv-x="639" 
d="M589 332v-329l-24 -5l-19 57q-86 -66 -192 -66q-118 0 -206 69q-112 92 -112 244q0 129 90 219q92 90 230 90t231 -79l-30 -36q-81 66 -201 66q-117 0 -192 -77q-72 -77 -72 -183q0 -114 77 -191q75 -73 185 -73q101 0 181 58v190l-170 6v40h224zM315 683q0 17 12 28.5
t29 11.5t29.5 -11.5t12.5 -28.5t-12.5 -29t-29.5 -12t-29 12t-12 29z" />
    <glyph glyph-name="gdotaccent" unicode="&#x121;" horiz-adv-x="546" 
d="M497 279v-277l-30 -6l-10 44q-68 -49 -156 -49q-119 0 -191 74q-75 78 -75 186q0 107 71 181q77 77 196 77q118 0 192 -65l-31 -36q-66 54 -161 54q-93 0 -152 -59q-60 -60 -60 -152q0 -96 64 -158q60 -57 146 -57q81 0 146 48v151l-141 5v39h192zM264 594q0 17 11 28
t28 11t28 -11t11 -28t-11 -28t-28 -11t-28 11t-11 28z" />
    <glyph glyph-name="Gcommaaccent" unicode="&#x122;" horiz-adv-x="639" 
d="M589 332v-329l-24 -5l-19 57q-86 -66 -192 -66q-118 0 -206 69q-112 92 -112 244q0 129 90 219q92 90 230 90t231 -79l-30 -36q-81 66 -201 66q-117 0 -192 -77q-72 -77 -72 -183q0 -114 77 -191q75 -73 185 -73q101 0 181 58v190l-170 6v40h224zM357 -44q21 0 32.5 -11
t11.5 -29q0 -12 -3 -20l-37 -88l-32 10l14 58q-29 6 -29 40q0 18 11.5 29t31.5 11z" />
    <glyph glyph-name="gcommaaccent" unicode="&#x123;" horiz-adv-x="546" 
d="M497 279v-277l-30 -6l-10 44q-68 -49 -156 -49q-119 0 -191 74q-75 78 -75 186q0 107 71 181q77 77 196 77q118 0 192 -65l-31 -36q-66 54 -161 54q-93 0 -152 -59q-60 -60 -60 -152q0 -96 64 -158q60 -57 146 -57q81 0 146 48v151l-141 5v39h192zM293 -55q23 0 36 -12.5
t13 -32.5q0 -11 -5 -23l-39 -95l-30 8l12 66q-34 7 -34 44q0 20 12.5 32.5t34.5 12.5z" />
    <glyph glyph-name="Hcircumflex" unicode="&#x124;" horiz-adv-x="620" 
d="M514 600h56v-600h-56v303h-409v-303h-55v600h55v-249h409v249zM199 647l-24 23l123 121h23l123 -121l-24 -23l-111 94z" />
    <glyph glyph-name="hcircumflex" unicode="&#x125;" horiz-adv-x="537" 
d="M433 500h54v-500h-54v245h-329v-245h-54v500h54v-209h329v209zM396 573l-21 -23l-107 88l-107 -88l-21 23l116 113h24z" />
    <glyph glyph-name="Hbar" unicode="&#x126;" horiz-adv-x="620" 
d="M514 600h56v-95h39v-47h-39v-458h-56v304h-408v-304h-56v458h-40v47h40v95h56v-95h408v95zM106 351h408v107h-408v-107z" />
    <glyph glyph-name="hbar" unicode="&#x127;" horiz-adv-x="537" 
d="M433 500h54v-81h35v-45h-35v-374h-54v245h-329v-245h-54v374h-35v45h35v81h54v-81h329v81zM104 290h329v84h-329v-84z" />
    <glyph glyph-name="Itilde" unicode="&#x128;" horiz-adv-x="156" 
d="M106 600v-600h-56v600h56zM153 650q-40 0 -78 21q-36 21 -70 21q-36 0 -66 -25l-20 26q46 40 91 40q36 0 84 -25q25 -16 64 -16q21 0 33 4.5t29 18.5l22 -26q-42 -39 -89 -39z" />
    <glyph glyph-name="itilde" unicode="&#x129;" horiz-adv-x="153" 
d="M50 500h53v-500h-53v500zM146 563q-38 0 -73 20t-66 20q-32 0 -61 -25l-19 24q43 39 86 39q39 0 78 -24q24 -15 61 -15q30 0 57 22l21 -24q-40 -37 -84 -37z" />
    <glyph glyph-name="imacron" unicode="&#x12b;" horiz-adv-x="153" 
d="M50 500h53v-500h-53v500zM-65 614h287v-43h-287v43z" />
    <glyph glyph-name="Ibreve" unicode="&#x12c;" horiz-adv-x="156" 
d="M106 600v-600h-56v600h56zM164 755l43 -6q-12 -53 -38 -77q-34 -31 -88 -31q-58 0 -94 33q-24 24 -35 75l42 6q8 -38 29 -56q23 -19 58 -19q37 0 57 20q17 19 26 55z" />
    <glyph glyph-name="Iogonek" unicode="&#x12e;" horiz-adv-x="156" 
d="M106 600v-600q-16 -4 -26 -19q-6 -12 -6 -27q0 -29 16 -49q12 -14 48 -33l-13 -29q-42 12 -65 37q-28 31 -28 66t22 54h-4v600h56z" />
    <glyph glyph-name="iogonek" unicode="&#x12f;" horiz-adv-x="153" 
d="M50 500h53v-500q-12 -8 -18 -23q-4 -8 -4 -21q0 -25 14 -44q15 -21 47 -38l-15 -26q-42 16 -64 39q-24 27 -24 62q0 28 22 51h-11v500z" />
    <glyph glyph-name="Idot" unicode="&#x130;" horiz-adv-x="156" 
d="M106 600v-600h-56v600h56zM38 683q0 17 12 28.5t29 11.5t29.5 -11.5t12.5 -28.5t-12.5 -29t-29.5 -12t-29 12t-12 29z" />
    <glyph glyph-name="Jcircumflex" unicode="&#x134;" horiz-adv-x="511" 
d="M410 600h56v-334q0 -139 -70 -205q-74 -72 -192 -72q-111 0 -189 73l30 41q79 -65 156 -65q99 0 150 51q59 59 59 164v347zM293 632l-24 23l123 121h23l123 -121l-24 -23l-111 94z" />
    <glyph glyph-name="jcircumflex" unicode="&#x135;" horiz-adv-x="439" 
d="M341 500h53v-288q0 -105 -59 -164q-59 -57 -160 -57q-99 0 -160 63l30 38q63 -54 128 -54q76 0 119 39q49 48 49 124v299zM500 573l-21 -23l-107 88l-107 -88l-21 23l116 113h24z" />
    <glyph glyph-name="Kcommaaccent" unicode="&#x136;" horiz-adv-x="594" 
d="M50 600h56v-255h179l200 255h64l-216 -274l241 -326h-64l-224 298h-180v-298h-56v600zM273 18q21 0 32.5 -11t11.5 -29q0 -12 -3 -20l-37 -88l-32 10l14 58q-29 6 -29 40q0 18 11.5 29t31.5 11z" />
    <glyph glyph-name="kcommaaccent" unicode="&#x137;" horiz-adv-x="508" 
d="M50 500h54v-209h140l163 209h60l-180 -229l202 -271h-61l-185 247h-139v-247h-54v500zM240 -3q21 0 33 -11.5t12 -29.5q0 -12 -4 -21l-35 -88l-31 8l11 61q-29 8 -29 40q0 18 11.5 29.5t31.5 11.5z" />
    <glyph glyph-name="kgreenlandic" unicode="&#x138;" horiz-adv-x="508" 
d="M50 500h54v-209h140l163 209h60l-180 -229l202 -271h-61l-185 247h-139v-247h-54v500z" />
    <glyph glyph-name="Lacute" unicode="&#x139;" horiz-adv-x="541" 
d="M516 47v-47h-466v600h55v-553h411zM72 661l56 135l49 -23l-71 -128z" />
    <glyph glyph-name="lacute" unicode="&#x13a;" horiz-adv-x="475" 
d="M103 46h347v-46h-400v500h53v-454zM72 566l55 137l47 -23l-71 -128z" />
    <glyph glyph-name="Lcommaaccent" unicode="&#x13b;" horiz-adv-x="541" 
d="M516 47v-47h-466v600h55v-553h411zM290 -23q21 0 32.5 -11t11.5 -29q0 -13 -3 -20l-37 -88l-32 10l14 58q-29 6 -29 40q0 18 11.5 29t31.5 11z" />
    <glyph glyph-name="lcommaaccent" unicode="&#x13c;" horiz-adv-x="475" 
d="M103 46h347v-46h-400v500h53v-454zM251 -44q21 0 33 -11.5t12 -29.5q0 -12 -4 -21l-35 -88l-31 8l11 61q-29 8 -29 40q0 18 11.5 29.5t31.5 11.5z" />
    <glyph glyph-name="Lcaron" unicode="&#x13d;" horiz-adv-x="541" 
d="M516 47v-47h-466v600h55v-553h411zM-56 763l21 22l113 -93l113 93l22 -22l-123 -120h-23z" />
    <glyph glyph-name="lcaron" unicode="&#x13e;" horiz-adv-x="703" 
d="M103 46h347v-46h-400v500h53v-454zM-49 662l21 24l107 -89l108 89l20 -24l-116 -112h-23z" />
    <glyph glyph-name="Ldot" unicode="&#x13f;" horiz-adv-x="541" 
d="M516 47v-47h-466v600h55v-553h411zM245 291q0 17 12 28.5t29 11.5t29.5 -11.5t12.5 -28.5t-12.5 -29t-29.5 -12t-29 12t-12 29z" />
    <glyph glyph-name="ldot" unicode="&#x140;" horiz-adv-x="475" 
d="M103 46h347v-46h-400v500h53v-454zM246 298q0 17 11 28t28 11t28 -11t11 -28t-11 -28t-28 -11t-28 11t-11 28z" />
    <glyph glyph-name="Lslash" unicode="&#x141;" horiz-adv-x="541" 
d="M25 255l-13 44l38 11v290h56v-274l138 40l13 -46l-151 -43v-230h410v-47h-466v262z" />
    <glyph glyph-name="lslash" unicode="&#x142;" horiz-adv-x="475" 
d="M20 199l-17 40l47 24v237h53v-208l134 66l18 -41l-152 -76v-195h347v-46h-400v214z" />
    <glyph glyph-name="Nacute" unicode="&#x143;" horiz-adv-x="657" 
d="M555 600h52v-600h-62l-441 530v-530h-54v600h63l442 -528v528zM305 661l56 135l49 -23l-71 -128z" />
    <glyph glyph-name="nacute" unicode="&#x144;" horiz-adv-x="565" 
d="M464 500h51v-500h-56l-357 432v-432h-52v500h57l357 -431v431zM262 566l55 137l47 -23l-71 -128z" />
    <glyph glyph-name="Ncommaaccent" unicode="&#x145;" horiz-adv-x="657" 
d="M555 600h52v-600h-62l-441 530v-530h-54v600h63l442 -528v528zM334 -8q21 0 32.5 -11t11.5 -29q0 -13 -3 -20l-37 -88l-32 10l14 58q-29 6 -29 40q0 18 11.5 29t31.5 11z" />
    <glyph glyph-name="ncommaaccent" unicode="&#x146;" horiz-adv-x="565" 
d="M464 500h51v-500h-56l-357 432v-432h-52v500h57l357 -431v431zM272 -7q21 0 33 -11.5t12 -29.5q0 -12 -4 -21l-35 -88l-31 8l11 61q-29 8 -29 40q0 18 11.5 29.5t31.5 11.5z" />
    <glyph glyph-name="Ncaron" unicode="&#x147;" horiz-adv-x="657" 
d="M555 600h52v-600h-62l-441 530v-530h-54v600h63l442 -528v528zM186 763l21 22l113 -93l113 93l22 -22l-123 -120h-23z" />
    <glyph glyph-name="ncaron" unicode="&#x148;" horiz-adv-x="565" 
d="M464 500h51v-500h-56l-357 432v-432h-52v500h57l357 -431v431zM152 662l21 24l107 -89l108 89l20 -24l-116 -112h-23z" />
    <glyph glyph-name="napostrophe" unicode="&#x149;" horiz-adv-x="644" 
d="M543 500h51v-500h-56l-357 432v-432h-52v500h57l357 -431v431zM38 586q21 0 33 -11.5t12 -29.5q0 -12 -4 -21l-35 -88l-31 8l11 61q-29 8 -29 40q0 18 11.5 29.5t31.5 11.5z" />
    <glyph glyph-name="Omacron" unicode="&#x14c;" horiz-adv-x="694" 
d="M347 611q136 0 228 -90q89 -89 89 -221q0 -130 -87 -217q-89 -94 -230 -94q-144 0 -236 98q-81 89 -81 213q0 126 84 215q90 96 233 96zM86 300q0 -104 68 -182q76 -82 193 -82q116 0 191 81q69 75 69 183q0 111 -72 186q-73 76 -188 76q-118 0 -191 -79
q-70 -77 -70 -183zM189 695h316v-45h-316v45z" />
    <glyph glyph-name="omacron" unicode="&#x14d;" horiz-adv-x="590" 
d="M295 509q117 0 193 -78q70 -70 70 -181q0 -114 -75 -186q-76 -73 -188 -73q-115 0 -190 75t-75 184q0 114 80 188q76 71 185 71zM84 250q0 -93 59 -152q60 -60 152 -60q91 0 148 57q63 63 63 155q0 96 -64 157q-57 55 -147 55q-94 0 -152 -61q-59 -59 -59 -151zM150 614
h287v-43h-287v43z" />
    <glyph glyph-name="Obreve" unicode="&#x14e;" horiz-adv-x="694" 
d="M347 611q136 0 228 -90q89 -89 89 -221q0 -130 -87 -217q-89 -94 -230 -94q-144 0 -236 98q-81 89 -81 213q0 126 84 215q90 96 233 96zM86 300q0 -104 68 -182q76 -82 193 -82q116 0 191 81q69 75 69 183q0 111 -72 186q-73 76 -188 76q-118 0 -191 -79
q-70 -77 -70 -183zM431 755l43 -6q-12 -53 -38 -77q-34 -31 -88 -31q-58 0 -94 33q-24 24 -35 75l42 6q8 -38 29 -56q23 -19 58 -19q37 0 57 20q17 19 26 55z" />
    <glyph glyph-name="obreve" unicode="&#x14f;" horiz-adv-x="590" 
d="M295 509q117 0 193 -78q70 -70 70 -181q0 -114 -75 -186q-76 -73 -188 -73q-115 0 -190 75t-75 184q0 114 80 188q76 71 185 71zM84 250q0 -93 59 -152q60 -60 152 -60q91 0 148 57q63 63 63 155q0 96 -64 157q-57 55 -147 55q-94 0 -152 -61q-59 -59 -59 -151zM295 557
q-49 0 -79 32q-20 26 -23 58l36 7q8 -30 24 -45q16 -14 41 -14q26 0 42 14q17 17 23 45l37 -7q-3 -34 -24 -59q-29 -31 -77 -31z" />
    <glyph glyph-name="Ohungarumlaut" unicode="&#x150;" horiz-adv-x="694" 
d="M347 611q136 0 228 -90q89 -89 89 -221q0 -130 -87 -217q-89 -94 -230 -94q-144 0 -236 98q-81 89 -81 213q0 126 84 215q90 96 233 96zM86 300q0 -104 68 -182q76 -82 193 -82q116 0 191 81q69 75 69 183q0 111 -72 186q-73 76 -188 76q-118 0 -191 -79
q-70 -77 -70 -183zM280 669l42 147l55 -22l-59 -139zM371 672l67 142l50 -23l-82 -135z" />
    <glyph glyph-name="ohungarumlaut" unicode="&#x151;" horiz-adv-x="590" 
d="M295 509q117 0 193 -78q70 -70 70 -181q0 -114 -75 -186q-76 -73 -188 -73q-115 0 -190 75t-75 184q0 114 80 188q76 71 185 71zM84 250q0 -93 59 -152q60 -60 152 -60q91 0 148 57q63 63 63 155q0 96 -64 157q-57 55 -147 55q-94 0 -152 -61q-59 -59 -59 -151zM244 568
l43 137l50 -20l-60 -131zM336 567l63 136l45 -23l-76 -126z" />
    <glyph glyph-name="OE" unicode="&#x152;" horiz-adv-x="1103" 
d="M347 611q158 0 261 -125v114h440v-50h-384v-207h342v-49h-342v-245h399v-49h-455v115q-43 -61 -112 -93.5t-149 -32.5q-144 0 -236 98q-81 89 -81 213q0 126 84 215q90 96 233 96zM87 300q0 -106 68 -180q76 -82 192 -82q117 0 190 79q69 74 69 183t-71 185
q-74 77 -188 77q-118 0 -191 -79q-69 -75 -69 -183z" />
    <glyph glyph-name="oe" unicode="&#x153;" horiz-adv-x="926" 
d="M295 509q136 0 210 -97v88h369v-47h-315v-163h280v-46h-280v-198h327v-46h-381v87q-84 -96 -210 -96q-115 0 -190 75t-75 184q0 114 80 188q76 71 185 71zM84 250q0 -93 59 -152q61 -61 152 -61q90 0 148 58q62 60 62 155q0 97 -63 157q-58 56 -147 56q-93 0 -152 -62
q-59 -59 -59 -151z" />
    <glyph glyph-name="Racute" unicode="&#x154;" horiz-adv-x="591" 
d="M561 388q0 -73 -42 -127t-109 -73l114 -188h-59l-105 179h-254v-179h-56v600h285q101 0 165 -62q61 -61 61 -150zM106 551v-324h231q83 0 126 49q42 46 42 112q0 64 -39 109q-46 54 -135 54h-225zM239 661l56 135l49 -23l-71 -128z" />
    <glyph glyph-name="racute" unicode="&#x155;" horiz-adv-x="508" 
d="M478 323q0 -56 -33 -102q-35 -47 -89 -66l103 -155h-58l-96 147h-201v-147h-54v500h241q77 0 130 -47q57 -52 57 -130zM104 454v-261h190q60 0 96 39q34 37 34 92q0 50 -30 85q-37 45 -106 45h-184zM220 566l55 137l47 -23l-71 -128z" />
    <glyph glyph-name="Rcommaaccent" unicode="&#x156;" horiz-adv-x="591" 
d="M561 388q0 -73 -42 -127t-109 -73l114 -188h-59l-105 179h-254v-179h-56v600h285q101 0 165 -62q61 -61 61 -150zM106 551v-324h231q83 0 126 49q42 46 42 112q0 64 -39 109q-46 54 -135 54h-225zM282 -7q21 0 33 -11.5t12 -29.5q0 -12 -4 -21l-35 -88l-31 8l11 61
q-29 8 -29 40q0 18 11.5 29.5t31.5 11.5z" />
    <glyph glyph-name="rcommaaccent" unicode="&#x157;" horiz-adv-x="508" 
d="M478 323q0 -56 -33 -102q-35 -47 -89 -66l103 -155h-58l-96 147h-201v-147h-54v500h241q77 0 130 -47q57 -52 57 -130zM104 454v-261h190q60 0 96 39q34 37 34 92q0 50 -30 85q-37 45 -106 45h-184zM236 5q21 0 33 -11.5t12 -29.5q0 -12 -4 -21l-35 -88l-31 8l11 61
q-29 8 -29 40q0 18 11.5 29.5t31.5 11.5z" />
    <glyph glyph-name="Rcaron" unicode="&#x158;" horiz-adv-x="591" 
d="M561 388q0 -73 -42 -127t-109 -73l114 -188h-59l-105 179h-254v-179h-56v600h285q101 0 165 -62q61 -61 61 -150zM106 551v-324h231q83 0 126 49q42 46 42 112q0 64 -39 109q-46 54 -135 54h-225zM144 763l21 22l113 -93l113 93l22 -22l-123 -120h-23z" />
    <glyph glyph-name="rcaron" unicode="&#x159;" horiz-adv-x="508" 
d="M478 323q0 -56 -33 -102q-35 -47 -89 -66l103 -155h-58l-96 147h-201v-147h-54v500h241q77 0 130 -47q57 -52 57 -130zM104 454v-261h190q60 0 96 39q34 37 34 92q0 50 -30 85q-37 45 -106 45h-184zM111 662l21 24l107 -89l108 89l20 -24l-116 -112h-23z" />
    <glyph glyph-name="Sacute" unicode="&#x15a;" horiz-adv-x="571" 
d="M35 450q0 83 69 123q63 38 174 38q114 0 225 -44l-18 -44q-102 40 -201 40q-93 0 -143 -27q-53 -29 -53 -85q0 -44 34 -67q31 -21 88 -29l135 -23q111 -20 155 -63q41 -39 41 -103q0 -77 -65 -127q-64 -50 -215 -50q-116 0 -231 45l15 46q131 -41 215 -41q137 0 186 38
q40 32 40 86q0 50 -38 80q-39 25 -109 36l-139 23q-81 13 -121 46q-44 36 -44 102zM252 661l56 135l49 -23l-71 -128z" />
    <glyph glyph-name="sacute" unicode="&#x15b;" horiz-adv-x="495" 
d="M34 380q0 61 52 93q56 36 155 36q102 0 194 -39l-18 -41q-86 34 -170 34q-83 0 -127 -24q-32 -20 -32 -60q0 -28 19 -44q20 -19 76 -29l115 -20q94 -16 132 -55q35 -37 35 -88q0 -68 -47 -105q-59 -47 -191 -47q-114 0 -198 38l19 46q90 -36 178 -36q114 0 156 37
q29 24 29 64q0 38 -28 63q-22 16 -91 30l-124 23q-61 13 -89 34q-45 33 -45 90zM222 566l55 137l47 -23l-71 -128z" />
    <glyph glyph-name="Scircumflex" unicode="&#x15c;" horiz-adv-x="571" 
d="M35 450q0 83 69 123q63 38 174 38q114 0 225 -44l-18 -44q-102 40 -201 40q-93 0 -143 -27q-53 -29 -53 -85q0 -44 34 -67q31 -21 88 -29l135 -23q111 -20 155 -63q41 -39 41 -103q0 -77 -65 -127q-64 -50 -215 -50q-116 0 -231 45l15 46q131 -41 215 -41q137 0 186 38
q40 32 40 86q0 50 -38 80q-39 25 -109 36l-139 23q-81 13 -121 46q-44 36 -44 102zM172 647l-24 23l123 121h23l123 -121l-24 -23l-111 94z" />
    <glyph glyph-name="scircumflex" unicode="&#x15d;" horiz-adv-x="495" 
d="M34 380q0 61 52 93q56 36 155 36q102 0 194 -39l-18 -41q-86 34 -170 34q-83 0 -127 -24q-32 -20 -32 -60q0 -28 19 -44q20 -19 76 -29l115 -20q94 -16 132 -55q35 -37 35 -88q0 -68 -47 -105q-59 -47 -191 -47q-114 0 -198 38l19 46q90 -36 178 -36q114 0 156 37
q29 24 29 64q0 38 -28 63q-22 16 -91 30l-124 23q-61 13 -89 34q-45 33 -45 90zM373 573l-21 -23l-107 88l-107 -88l-21 23l116 113h24z" />
    <glyph glyph-name="Scedilla" unicode="&#x15e;" horiz-adv-x="571" 
d="M35 450q0 83 69 123q63 38 174 38q117 0 225 -44l-19 -45q-104 41 -200 41q-93 0 -143 -27q-53 -29 -53 -85q0 -44 34 -67q31 -21 88 -29l135 -23q111 -20 155 -63q41 -39 41 -103q0 -77 -65 -127q-60 -46 -198 -50l-1 -28q26 0 46 -17q16 -15 16 -41q0 -51 -43 -78
q-33 -19 -73 -26l-8 32q41 10 56 21q26 16 26 47q0 10 -8 18q-7 6 -21 6h-32v67q-101 4 -206 44l16 47q124 -42 214 -42q137 0 186 38q40 32 40 86q0 50 -38 80q-39 25 -109 36l-139 23q-81 13 -121 46q-44 36 -44 102z" />
    <glyph glyph-name="scedilla" unicode="&#x15f;" horiz-adv-x="495" 
d="M34 380q0 61 52 93q56 36 155 36q102 0 194 -39l-18 -41q-86 34 -170 34q-83 0 -127 -24q-32 -20 -32 -60q0 -28 19 -44q20 -19 76 -29l115 -20q94 -16 132 -55q35 -37 35 -88q0 -68 -47 -105q-51 -41 -178 -47l-1 -22q29 0 44 -22q12 -17 12 -40q0 -36 -35 -60
q-25 -18 -73 -29l-10 30q35 10 55 24q24 14 24 40q0 10 -6 16t-20 6h-26v58q-103 5 -175 37l19 46q90 -36 178 -36q114 0 156 37q29 24 29 64q0 38 -28 63q-22 16 -91 30l-124 23q-61 13 -89 34q-45 33 -45 90z" />
    <glyph glyph-name="Scaron" unicode="&#x160;" horiz-adv-x="571" 
d="M35 450q0 83 69 123q63 38 174 38q114 0 225 -44l-18 -44q-102 40 -201 40q-93 0 -143 -27q-53 -29 -53 -85q0 -44 34 -67q31 -21 88 -29l135 -23q111 -20 155 -63q41 -39 41 -103q0 -77 -65 -127q-64 -50 -215 -50q-116 0 -231 45l15 46q131 -41 215 -41q137 0 186 38
q40 32 40 86q0 50 -38 80q-39 25 -109 36l-139 23q-81 13 -121 46q-44 36 -44 102zM158 763l21 22l113 -93l113 93l22 -22l-123 -120h-23z" />
    <glyph glyph-name="scaron" unicode="&#x161;" horiz-adv-x="495" 
d="M34 380q0 61 52 93q56 36 155 36q102 0 194 -39l-18 -41q-86 34 -170 34q-83 0 -127 -24q-32 -20 -32 -60q0 -28 19 -44q20 -19 76 -29l115 -20q94 -16 132 -55q35 -37 35 -88q0 -68 -47 -105q-59 -47 -191 -47q-114 0 -198 38l19 46q90 -36 178 -36q114 0 156 37
q29 24 29 64q0 38 -28 63q-22 16 -91 30l-124 23q-61 13 -89 34q-45 33 -45 90zM119 662l21 24l107 -89l108 89l20 -24l-116 -112h-23z" />
    <glyph glyph-name="Tcommaaccent" unicode="&#x162;" horiz-adv-x="608" 
d="M25 553v47h558v-47h-251v-553h-56v553h-251zM302 -28q21 0 33 -11.5t12 -29.5q0 -12 -4 -21l-35 -88l-31 8l11 61q-29 8 -29 40q0 18 11.5 29.5t31.5 11.5z" />
    <glyph glyph-name="tcommaaccent" unicode="&#x163;" horiz-adv-x="519" 
d="M25 454v46h469v-46h-208v-454h-54v454h-207zM258 -38q21 0 33 -11.5t12 -29.5q0 -12 -4 -21l-35 -88l-31 8l11 61q-29 8 -29 40q0 18 11.5 29.5t31.5 11.5z" />
    <glyph glyph-name="Tcaron" unicode="&#x164;" horiz-adv-x="608" 
d="M25 553v47h558v-47h-251v-553h-56v553h-251zM169 763l21 22l113 -93l113 93l22 -22l-123 -120h-23z" />
    <glyph glyph-name="tcaron" unicode="&#x165;" horiz-adv-x="519" 
d="M25 454v46h469v-46h-208v-454h-54v454h-207zM131 662l21 24l107 -89l108 89l20 -24l-116 -112h-23z" />
    <glyph glyph-name="Tbar" unicode="&#x166;" horiz-adv-x="608" 
d="M136 309v47h140v197h-251v47h558v-47h-251v-197h140v-47h-140v-309h-56v309h-140z" />
    <glyph glyph-name="tbar" unicode="&#x167;" horiz-adv-x="519" 
d="M120 251v43h112v160h-207v46h469v-46h-208v-160h112v-43h-112v-251h-54v251h-112z" />
    <glyph glyph-name="Utilde" unicode="&#x168;" horiz-adv-x="614" 
d="M564 258q0 -127 -77 -201q-71 -68 -178 -68q-111 0 -184 73q-75 75 -75 196v342h56v-349q0 -97 57 -154q56 -61 146 -61q87 0 144 59q55 57 55 156v349h56v-342zM379 650q-40 0 -78 21q-36 21 -70 21q-36 0 -66 -25l-20 26q46 40 91 40q36 0 84 -25q25 -16 64 -16
q21 0 33 4.5t29 18.5l22 -26q-42 -39 -89 -39z" />
    <glyph glyph-name="utilde" unicode="&#x169;" horiz-adv-x="533" 
d="M482 211q0 -102 -66 -162q-60 -58 -150 -58q-93 0 -154 61q-62 64 -62 159v289h54v-295q0 -73 45 -120q46 -49 117 -49q72 0 118 48q44 46 44 121v295h54v-289zM333 563q-38 0 -73 20t-66 20q-32 0 -61 -25l-19 24q43 39 86 39q39 0 78 -24q24 -15 61 -15q30 0 57 22
l21 -24q-40 -37 -84 -37z" />
    <glyph glyph-name="Umacron" unicode="&#x16a;" horiz-adv-x="614" 
d="M564 258q0 -127 -77 -201q-71 -68 -178 -68q-111 0 -184 73q-75 75 -75 196v342h56v-349q0 -97 57 -154q56 -61 146 -61q87 0 144 59q55 57 55 156v349h56v-342zM149 695h316v-45h-316v45z" />
    <glyph glyph-name="umacron" unicode="&#x16b;" horiz-adv-x="533" 
d="M482 211q0 -102 -66 -162q-60 -58 -150 -58q-93 0 -154 61q-62 64 -62 159v289h54v-295q0 -73 45 -120q46 -49 117 -49q72 0 118 48q44 46 44 121v295h54v-289zM122 614h287v-43h-287v43z" />
    <glyph glyph-name="Ubreve" unicode="&#x16c;" horiz-adv-x="614" 
d="M564 258q0 -127 -77 -201q-71 -68 -178 -68q-111 0 -184 73q-75 75 -75 196v342h56v-349q0 -97 57 -154q56 -61 146 -61q87 0 144 59q55 57 55 156v349h56v-342zM390 755l43 -6q-12 -53 -38 -77q-34 -31 -88 -31q-58 0 -94 33q-24 24 -35 75l42 6q8 -38 29 -56
q23 -19 58 -19q37 0 57 20q17 19 26 55z" />
    <glyph glyph-name="ubreve" unicode="&#x16d;" horiz-adv-x="533" 
d="M482 211q0 -102 -66 -162q-60 -58 -150 -58q-93 0 -154 61q-62 64 -62 159v289h54v-295q0 -73 45 -120q46 -49 117 -49q72 0 118 48q44 46 44 121v295h54v-289zM267 557q-49 0 -79 32q-20 26 -23 58l36 7q8 -30 24 -45q16 -14 41 -14q26 0 42 14q17 17 23 45l37 -7
q-3 -34 -24 -59q-29 -31 -77 -31z" />
    <glyph glyph-name="Uring" unicode="&#x16e;" horiz-adv-x="614" 
d="M564 258q0 -127 -77 -201q-71 -68 -178 -68q-111 0 -184 73q-75 75 -75 196v342h56v-349q0 -97 57 -154q56 -61 146 -61q87 0 144 59q55 57 55 156v349h56v-342zM306 629q-42 0 -72 30q-29 29 -29 70q0 44 30 71q29 29 71 29t71 -29q30 -27 30 -71q0 -41 -29 -70
q-30 -30 -72 -30zM306 669q28 0 42 18q15 15 15 42q0 28 -15 43q-14 17 -42 17q-27 0 -42 -17q-15 -18 -15 -43q0 -27 15 -42q14 -18 42 -18z" />
    <glyph glyph-name="uring" unicode="&#x16f;" horiz-adv-x="533" 
d="M482 211q0 -102 -66 -162q-60 -58 -150 -58q-93 0 -154 61q-62 64 -62 159v289h54v-295q0 -73 45 -120q46 -49 117 -49q72 0 118 48q44 46 44 121v295h54v-289zM266 567q-40 0 -68 28q-27 27 -27 66q0 38 27 67q27 27 68 27q39 0 68 -26q28 -28 28 -68q0 -37 -27 -66
q-28 -28 -69 -28zM266 601q29 0 43 17q15 15 15 43q0 27 -15 43q-15 18 -43 18q-26 0 -43 -18q-15 -18 -15 -43q0 -28 15 -43q15 -17 43 -17z" />
    <glyph glyph-name="Uhungarumlaut" unicode="&#x170;" horiz-adv-x="614" 
d="M564 258q0 -127 -77 -201q-71 -68 -178 -68q-111 0 -184 73q-75 75 -75 196v342h56v-349q0 -97 57 -154q56 -61 146 -61q87 0 144 59q55 57 55 156v349h56v-342zM230 669l42 147l55 -22l-59 -139zM321 672l67 142l50 -23l-82 -135z" />
    <glyph glyph-name="uhungarumlaut" unicode="&#x171;" horiz-adv-x="533" 
d="M482 211q0 -102 -66 -162q-60 -58 -150 -58q-93 0 -154 61q-62 64 -62 159v289h54v-295q0 -73 45 -120q46 -49 117 -49q72 0 118 48q44 46 44 121v295h54v-289zM199 568l43 137l50 -20l-60 -131zM291 567l63 136l45 -23l-76 -126z" />
    <glyph glyph-name="Uogonek" unicode="&#x172;" horiz-adv-x="614" 
d="M564 258q0 -127 -77 -201q-64 -61 -147 -67q-14 -2 -20 -14q-7 -15 -7 -36q0 -26 17 -46q11 -15 46 -34l-12 -29q-45 12 -68 40q-23 25 -23 62q0 28 23 57q-104 4 -172 72q-74 74 -74 196v342h56v-349q0 -97 57 -154q56 -61 146 -61q87 0 144 59q55 57 55 156v349h56
v-342z" />
    <glyph glyph-name="uogonek" unicode="&#x173;" horiz-adv-x="533" 
d="M482 211q0 -100 -65 -163q-48 -45 -118 -55q-23 -14 -23 -43q0 -26 16 -46q11 -18 45 -37l-14 -26q-42 16 -64 40q-24 25 -24 62q0 23 18 48q-84 4 -141 61q-62 64 -62 159v289h54v-295q0 -73 45 -120q46 -49 117 -49q72 0 118 48q44 46 44 121v295h54v-289z" />
    <glyph glyph-name="Wcircumflex" unicode="&#x174;" horiz-adv-x="957" 
d="M313 0h-86l-202 600h64l177 -556h12l159 556h83l165 -556h12l175 556h60l-199 -600h-88l-163 551h-12zM368 647l-24 23l123 121h23l123 -121l-24 -23l-111 94z" />
    <glyph glyph-name="wcircumflex" unicode="&#x175;" horiz-adv-x="829" 
d="M282 0h-87l-165 500h59l147 -457h8l127 457h85l134 -457h8l144 457h57l-164 -500h-88l-132 456h-5zM541 573l-21 -23l-107 88l-107 -88l-21 23l116 113h24z" />
    <glyph glyph-name="Ycircumflex" unicode="&#x176;" horiz-adv-x="629" 
d="M343 0h-56v134l-261 466h64l224 -405h5l224 405h61l-261 -462v-138zM203 647l-24 23l123 121h23l123 -121l-24 -23l-111 94z" />
    <glyph glyph-name="ycircumflex" unicode="&#x177;" horiz-adv-x="537" 
d="M296 0h-54v117l-217 383h61l181 -327h4l183 327h58l-216 -380v-120zM396 573l-21 -23l-107 88l-107 -88l-21 23l116 113h24z" />
    <glyph glyph-name="Ydieresis" unicode="&#x178;" horiz-adv-x="629" 
d="M343 0h-56v134l-261 466h64l224 -405h5l224 405h61l-261 -462v-138zM369 695q0 20 14 34t33 14t33 -14t14 -34q0 -19 -14 -32.5t-33 -13.5t-33 13.5t-14 32.5zM166 695q0 20 13.5 34t32.5 14q20 0 33.5 -14t13.5 -34q0 -19 -13.5 -32.5t-33.5 -13.5q-19 0 -32.5 13.5
t-13.5 32.5z" />
    <glyph glyph-name="Zacute" unicode="&#x179;" horiz-adv-x="603" 
d="M563 50v-50h-523v30l450 528l-208 -5h-212v47h484v-40l-436 -516l200 6h245zM260 661l56 135l49 -23l-71 -128z" />
    <glyph glyph-name="zacute" unicode="&#x17a;" horiz-adv-x="518" 
d="M478 47v-47h-438v29l368 428l-164 -2h-179v45h413v-29l-362 -428l157 4h205zM218 566l55 137l47 -23l-71 -128z" />
    <glyph glyph-name="Zdotaccent" unicode="&#x17b;" horiz-adv-x="603" 
d="M563 50v-50h-523v30l450 528l-208 -5h-212v47h484v-40l-436 -516l200 6h245zM262 685q0 17 12 28.5t29 11.5t29.5 -11.5t12.5 -28.5t-12.5 -29t-29.5 -12t-29 12t-12 29z" />
    <glyph glyph-name="zdotaccent" unicode="&#x17c;" horiz-adv-x="518" 
d="M478 47v-47h-438v29l368 428l-164 -2h-179v45h413v-29l-362 -428l157 4h205zM218 581q0 17 11 28t28 11t28 -11t11 -28t-11 -28t-28 -11t-28 11t-11 28z" />
    <glyph glyph-name="Zcaron" unicode="&#x17d;" horiz-adv-x="603" 
d="M563 50v-50h-523v30l450 528l-208 -5h-212v47h484v-40l-436 -516l200 6h245zM172 763l21 22l113 -93l113 93l22 -22l-123 -120h-23z" />
    <glyph glyph-name="zcaron" unicode="&#x17e;" horiz-adv-x="518" 
d="M478 47v-47h-438v29l368 428l-164 -2h-179v45h413v-29l-362 -428l157 4h205zM147 662l21 24l107 -89l108 89l20 -24l-116 -112h-23z" />
    <glyph glyph-name="florin" unicode="&#x192;" horiz-adv-x="390" 
d="M47 -183l-17 37q46 19 64 51q17 27 17 81v470h-76v44h76v10q0 77 46 123q45 45 129 45q91 0 144 -53l-28 -29q-48 41 -107 41q-77 0 -110 -42q-23 -31 -23 -85v-10h207v-44h-207v-473q0 -70 -34 -113q-28 -36 -81 -53z" />
    <glyph glyph-name="AEacute" unicode="&#x1fc;" horiz-adv-x="998" 
d="M503 0v151h-317l-95 -151h-66l386 600h532v-50h-383v-207h341v-50h-341v-244h398v-49h-455zM438 549l-220 -349h285v349h-65zM493 661l56 135l49 -23l-71 -128z" />
    <glyph glyph-name="aeacute" unicode="&#x1fd;" horiz-adv-x="835" 
d="M414 0v130h-244l-82 -130h-63l326 500h430v-47h-313v-166h280v-45h-280v-196h327v-46h-381zM380 449l-178 -273h212v273h-34zM431 566l55 137l47 -23l-71 -128z" />
    <glyph glyph-name="Oslashacute" unicode="&#x1fe;" horiz-adv-x="694" 
d="M347 611q75 0 142 -31l23 38l44 -24l-23 -39q52 -34 87 -92q44 -68 44 -163q0 -131 -87 -218q-88 -93 -230 -93q-76 0 -144 30l-32 -52l-43 23l32 53q-70 48 -105 133q-24 56 -24 124q0 127 83 215q90 96 233 96zM607 300q0 57 -23 112q-25 56 -78 100l-278 -450
q57 -26 119 -26q116 0 191 81q69 75 69 183zM87 300q0 -61 21 -111q33 -70 78 -101l277 449q-56 27 -116 27q-116 0 -191 -81q-69 -75 -69 -183zM344 661l56 135l49 -23l-71 -128z" />
    <glyph glyph-name="oslashacute" unicode="&#x1ff;" horiz-adv-x="590" 
d="M295 509q64 0 126 -30l20 30l47 -30l-20 -30q36 -31 58 -70q32 -59 32 -129q0 -114 -75 -186q-76 -73 -188 -73q-70 0 -125 28l-19 -27l-45 28l19 27q-47 41 -73 96q-22 47 -22 107q0 114 80 188q76 71 185 71zM84 250q0 -49 16 -88q20 -46 52 -74l244 352
q-42 23 -101 23q-93 0 -152 -62q-59 -59 -59 -151zM486 347q-16 36 -45 62l-245 -350q43 -22 99 -22q90 0 148 58q62 62 62 155q0 55 -19 97zM308 566l55 137l47 -23l-71 -128z" />
    <glyph glyph-name="Scommaaccent" unicode="&#x218;" horiz-adv-x="571" 
d="M35 450q0 83 69 123q63 38 174 38q114 0 225 -44l-18 -44q-102 40 -201 40q-93 0 -143 -27q-53 -29 -53 -85q0 -44 34 -67q31 -21 88 -29l135 -23q111 -20 155 -63q41 -39 41 -103q0 -77 -65 -127q-64 -50 -215 -50q-116 0 -231 45l15 46q131 -41 215 -41q137 0 186 38
q40 32 40 86q0 50 -38 80q-39 25 -109 36l-139 23q-81 13 -121 46q-44 36 -44 102zM264 -34q21 0 32.5 -11t11.5 -29q0 -12 -3 -20l-37 -88l-32 10l14 58q-29 6 -29 40q0 18 11.5 29t31.5 11z" />
    <glyph glyph-name="scommaaccent" unicode="&#x219;" horiz-adv-x="495" 
d="M34 380q0 61 52 93q56 36 155 36q102 0 194 -39l-18 -41q-86 34 -170 34q-83 0 -127 -24q-32 -20 -32 -60q0 -28 19 -44q20 -19 76 -29l115 -20q94 -16 132 -55q35 -37 35 -88q0 -68 -47 -105q-59 -47 -191 -47q-114 0 -198 38l19 46q90 -36 178 -36q114 0 156 37
q29 24 29 64q0 38 -28 63q-22 16 -91 30l-124 23q-61 13 -89 34q-45 33 -45 90zM248 -49q21 0 33 -11.5t12 -29.5q0 -12 -4 -21l-35 -88l-31 8l11 61q-29 8 -29 40q0 18 11.5 29.5t31.5 11.5z" />
    <glyph glyph-name="uni021A" unicode="&#x21a;" horiz-adv-x="608" 
d="M25 553v47h558v-47h-251v-553h-13q33 -12 33 -54q0 -37 -23 -63q-22 -26 -70 -40l-12 29q34 18 47 33q17 20 17 48q0 40 -35 47v553h-251z" />
    <glyph glyph-name="uni021B" unicode="&#x21b;" horiz-adv-x="519" 
d="M25 454v46h469v-46h-208v-454h-6q21 -15 21 -51t-24 -62q-23 -24 -63 -39l-15 26q31 17 46 36q15 20 15 46q0 38 -28 44v454h-207z" />
    <glyph glyph-name="circumflex" unicode="&#x2c6;" horiz-adv-x="356" 
d="M306 573l-21 -23l-107 88l-107 -88l-21 23l116 113h24z" />
    <glyph glyph-name="caron" unicode="&#x2c7;" horiz-adv-x="356" 
d="M50 662l21 24l107 -89l108 89l20 -24l-116 -112h-23z" />
    <glyph glyph-name="uni02C9" unicode="&#x2c9;" horiz-adv-x="327" 
d="M0 592h327v-40h-327v40z" />
    <glyph glyph-name="breve" unicode="&#x2d8;" horiz-adv-x="303" 
d="M152 557q-49 0 -79 32q-20 26 -23 58l36 7q8 -30 24 -45q16 -14 41 -14q26 0 42 14q17 17 23 45l37 -7q-3 -34 -24 -59q-29 -31 -77 -31z" />
    <glyph glyph-name="dotaccent" unicode="&#x2d9;" horiz-adv-x="178" 
d="M50 33q0 17 11 28t28 11t28 -11t11 -28t-11 -28t-28 -11t-28 11t-11 28z" />
    <glyph glyph-name="ring" unicode="&#x2da;" horiz-adv-x="291" 
d="M145 567q-40 0 -68 28q-27 27 -27 66q0 38 27 67q27 27 68 27q39 0 68 -26q28 -28 28 -68q0 -37 -27 -66q-28 -28 -69 -28zM145 601q29 0 43 17q15 15 15 43q0 27 -15 43q-15 18 -43 18q-27 0 -43 -18q-15 -18 -15 -43q0 -28 15 -43q15 -17 43 -17z" />
    <glyph glyph-name="ogonek" unicode="&#x2db;" horiz-adv-x="202" 
d="M96 9l19 -16q-13 -8 -17 -18q-7 -10 -7 -25q0 -28 16 -47q13 -18 45 -36l-14 -26q-42 16 -64 40q-24 25 -24 61q0 21 13 40q11 16 33 27z" />
    <glyph glyph-name="tilde" unicode="&#x2dc;" horiz-adv-x="403" 
d="M269 563q-38 0 -73 20t-66 20q-32 0 -61 -25l-19 24q43 39 86 39q39 0 78 -24q24 -15 61 -15q30 0 57 22l21 -24q-40 -37 -84 -37z" />
    <glyph glyph-name="hungarumlaut" unicode="&#x2dd;" horiz-adv-x="300" 
d="M50 568l43 137l50 -20l-60 -131zM142 567l63 136l45 -23l-76 -126z" />
    <glyph glyph-name="afii10023" unicode="&#x401;" horiz-adv-x="559" 
d="M50 0v600h450v-50h-394v-207h352v-49h-352v-245h409v-49h-465zM334 695q0 20 14 34t33 14t33 -14t14 -34q0 -19 -14 -32.5t-33 -13.5t-33 13.5t-14 32.5zM131 695q0 20 13.5 34t32.5 14q20 0 33.5 -14t13.5 -34q0 -19 -13.5 -32.5t-33.5 -13.5q-19 0 -32.5 13.5
t-13.5 32.5z" />
    <glyph glyph-name="afii10051" unicode="&#x402;" horiz-adv-x="753" 
d="M20 554v46h490v-46h-223v-148q90 70 197 70q105 0 167 -68q53 -62 53 -161v-188q0 -71 -19 -118.5t-66 -89.5l-27 25q32 40 45 80t13 99v192q0 86 -44 136q-42 48 -122 48q-59 0 -103.5 -17t-93.5 -56v-358h-55v554h-212z" />
    <glyph glyph-name="afii10052" unicode="&#x403;" horiz-adv-x="527" 
d="M105 553v-553h-55v600h452v-47h-397zM253 661l56 135l49 -23l-71 -128z" />
    <glyph glyph-name="afii10053" unicode="&#x404;" horiz-adv-x="602" 
d="M443 337v-46h-356q4 -101 60 -167q75 -87 202 -87q110 0 190 68l33 -36q-93 -80 -223 -80q-137 0 -230 90q-89 87 -89 223q0 137 89 221q93 88 229 88q132 0 222 -78l-32 -37q-82 67 -190 67q-118 0 -192 -76q-58 -61 -68 -150h355z" />
    <glyph glyph-name="afii10054" unicode="&#x405;" horiz-adv-x="571" 
d="M35 450q0 83 69 123q63 38 174 38q114 0 225 -44l-18 -44q-102 40 -201 40q-93 0 -143 -27q-53 -29 -53 -85q0 -44 34 -67q31 -21 88 -29l135 -23q111 -20 155 -63q41 -39 41 -103q0 -77 -65 -127q-64 -50 -215 -50q-116 0 -231 45l15 46q131 -41 215 -41q137 0 186 38
q40 32 40 86q0 50 -38 80q-39 25 -109 36l-139 23q-81 13 -121 46q-44 36 -44 102z" />
    <glyph glyph-name="afii10055" unicode="&#x406;" horiz-adv-x="156" 
d="M106 600v-600h-56v600h56z" />
    <glyph glyph-name="afii10056" unicode="&#x407;" horiz-adv-x="156" 
d="M106 600v-600h-56v600h56zM135 695q0 20 14 34t33 14t33 -14t14 -34q0 -19 -14 -32.5t-33 -13.5t-33 13.5t-14 32.5zM-68 695q0 20 13.5 34t32.5 14q20 0 33.5 -14t13.5 -34q0 -19 -13.5 -32.5t-33.5 -13.5q-19 0 -32.5 13.5t-13.5 32.5z" />
    <glyph glyph-name="afii10057" unicode="&#x408;" horiz-adv-x="511" 
d="M410 600h56v-334q0 -139 -70 -205q-74 -72 -192 -72q-111 0 -189 73l30 41q79 -65 156 -65q99 0 150 51q59 59 59 164v347z" />
    <glyph glyph-name="afii10058" unicode="&#x409;" horiz-adv-x="1069" 
d="M230 600h386v-177h205q98 0 162 -67q57 -60 57 -143q0 -89 -62 -151t-157 -62h-260v553h-283l-61 -434q-8 -56 -43 -88q-37 -35 -91 -35q-36 0 -68 8l9 41q18 -3 39 -3q45 0 72 27q26 26 32 74zM983 213q0 68 -42 113q-47 49 -125 49h-200v-327h206q68 0 114 43
q47 47 47 122z" />
    <glyph glyph-name="afii10059" unicode="&#x40a;" horiz-adv-x="1002" 
d="M494 600h55v-177h204q99 0 163 -67q57 -60 57 -143q0 -89 -61 -150q-63 -63 -159 -63h-259v303h-388v-303h-56v600h56v-249h388v249zM916 213q0 70 -43 113q-44 49 -125 49h-199v-327h205q69 0 115 43q47 47 47 122z" />
    <glyph glyph-name="afii10060" unicode="&#x40b;" horiz-adv-x="753" 
d="M20 554v46h490v-46h-223v-148q90 70 197 70q105 0 167 -68q53 -62 53 -161v-247h-54v247q0 88 -44 138q-40 46 -122 46q-59 0 -103.5 -17t-93.5 -56v-358h-55v554h-212z" />
    <glyph glyph-name="afii10061" unicode="&#x40c;" horiz-adv-x="604" 
d="M50 600h56v-256h124q39 0 60 12q16 9 37 41l78 135q24 39 52 55q31 19 79 19q20 0 38 -3l-7 -43h-8q-40 0 -65 -12q-27 -12 -45 -43l-71 -128q-23 -35 -39 -49l232 -328h-64l-213 303q-24 -5 -56 -5h-132v-298h-56v600zM245 661l56 135l49 -23l-71 -128z" />
    <glyph glyph-name="afii10062" unicode="&#x40e;" horiz-adv-x="637" 
d="M547 600h61l-264 -501q-26 -48 -56 -73q-38 -31 -86 -31q-24 0 -39 3l4 39h13q33 0 59 14q30 20 44 46l15 27l-272 476h65l239 -419h6zM414 755l43 -6q-12 -53 -38 -77q-34 -31 -88 -31q-58 0 -94 33q-24 24 -35 75l42 6q8 -38 29 -56q23 -19 58 -19q37 0 57 20
q17 19 26 55z" />
    <glyph glyph-name="afii10145" unicode="&#x40f;" horiz-adv-x="614" 
d="M105 47h404v553h55v-600h-229l-5 -129h-45l-5 129h-230v600h55v-553z" />
    <glyph glyph-name="afii10017" unicode="&#x410;" horiz-adv-x="670" 
d="M291 600h87l267 -600h-60l-54 121h-395l-53 -121h-58zM323 552l-167 -382h355l-164 382h-24z" />
    <glyph glyph-name="afii10018" unicode="&#x411;" horiz-adv-x="590" 
d="M105 400h240q103 0 161 -67q49 -59 49 -131q0 -86 -58 -144q-60 -58 -152 -58h-295v600h436v-47h-381v-153zM501 202q0 55 -35 100q-45 50 -126 50h-235v-304h240q76 0 118 47q38 41 38 107z" />
    <glyph glyph-name="afii10019" unicode="&#x412;" horiz-adv-x="600" 
d="M362 0h-312v600h299q89 0 138 -49q37 -37 37 -96q0 -39 -19 -71q-15 -27 -51 -50v-4q52 -24 76 -60q30 -43 30 -97q0 -73 -49 -122q-57 -51 -149 -51zM506 174q0 52 -27 83q-36 44 -110 44h-262v-255h256q73 0 109 41q34 37 34 87zM468 449q0 45 -29 74q-35 30 -96 30
h-236v-204h253q57 0 82 31q26 32 26 69z" />
    <glyph glyph-name="afii10020" unicode="&#x413;" horiz-adv-x="527" 
d="M105 553v-553h-55v600h452v-47h-397z" />
    <glyph glyph-name="afii10021" unicode="&#x414;" horiz-adv-x="691" 
d="M211 600h390v-553h65v-175h-40l-15 128h-534l-12 -128h-40v175q51 0 88 47q29 37 41 112zM545 553h-289l-53 -362q-8 -56 -23.5 -88t-45.5 -56h411v506z" />
    <glyph glyph-name="afii10022" unicode="&#x415;" horiz-adv-x="555" 
d="M50 0v600h450v-50h-394v-207h352v-49h-352v-245h409v-49h-465z" />
    <glyph glyph-name="afii10024" unicode="&#x416;" horiz-adv-x="920" 
d="M485 0h-53v298h-86q-32 0 -58 6l-178 -304h-68l204 327q-25 22 -38 51l-62 126q-20 34 -46 46q-22 11 -62 11h-5l-4 43q22 2 35 2q45 0 78 -16q30 -16 49 -55l66 -139q17 -32 39 -41q20 -11 59 -11h77v256h53v-256h79q32 0 59 11q21 11 38 41l67 139q20 42 58 59
q27 13 68 13q19 0 37 -3l-6 -43h-4q-45 0 -69 -13q-25 -14 -39 -44l-62 -126q-16 -30 -38 -51l202 -327h-66l-180 304q-25 -6 -58 -6h-86v-298z" />
    <glyph glyph-name="afii10025" unicode="&#x417;" horiz-adv-x="589" 
d="M279 38q108 0 167 43q52 38 52 108q0 56 -34 90q-34 37 -97 37h-212v46h194q54 0 85 34q23 23 23 61q0 50 -43 77q-49 32 -146 32q-91 0 -192 -33l-13 40q97 38 212 38q119 0 185 -48q52 -39 52 -105q0 -38 -18 -65q-18 -26 -54 -43v-4q49 -16 81 -56q33 -42 33 -101
q0 -90 -68 -142q-71 -58 -207 -58q-145 0 -248 49l16 42q116 -42 232 -42z" />
    <glyph glyph-name="afii10026" unicode="&#x418;" horiz-adv-x="637" 
d="M104 600v-535l423 535h60v-600h-51v535l-425 -535h-61v600h54z" />
    <glyph glyph-name="afii10027" unicode="&#x419;" horiz-adv-x="639" 
d="M104 600v-535l423 535h60v-600h-51v535l-425 -535h-61v600h54zM399 755l43 -6q-12 -53 -38 -77q-34 -31 -88 -31q-58 0 -94 33q-24 24 -35 75l42 6q8 -38 29 -56q23 -19 58 -19q37 0 57 20q17 19 26 55z" />
    <glyph glyph-name="afii10028" unicode="&#x41a;" horiz-adv-x="604" 
d="M50 600h56v-256h124q39 0 60 12q16 9 37 41l78 135q24 39 52 55q31 19 79 19q20 0 38 -3l-7 -43h-8q-40 0 -65 -12q-27 -12 -45 -43l-71 -128q-23 -35 -39 -49l232 -328h-64l-213 303q-24 -5 -56 -5h-132v-298h-56v600z" />
    <glyph glyph-name="afii10029" unicode="&#x41b;" horiz-adv-x="685" 
d="M231 600h405v-600h-56v551h-301l-62 -429q-8 -57 -42 -91q-35 -35 -93 -35q-38 0 -67 10l8 42q28 -5 44 -5q43 0 69 26q24 25 30 74z" />
    <glyph glyph-name="afii10030" unicode="&#x41c;" horiz-adv-x="751" 
d="M50 600h80l248 -346l246 346h77v-600h-55v541h-8l-258 -365h-11l-261 365h-8v-541h-50v600z" />
    <glyph glyph-name="afii10031" unicode="&#x41d;" horiz-adv-x="620" 
d="M514 600h56v-600h-56v303h-409v-303h-55v600h55v-249h409v249z" />
    <glyph glyph-name="afii10032" unicode="&#x41e;" horiz-adv-x="694" 
d="M347 611q136 0 228 -90q89 -89 89 -221q0 -130 -87 -217q-89 -94 -230 -94q-144 0 -236 98q-81 89 -81 213q0 126 84 215q90 96 233 96zM86 300q0 -104 68 -182q76 -82 193 -82q116 0 191 81q69 75 69 183q0 111 -72 186q-73 76 -188 76q-118 0 -191 -79
q-70 -77 -70 -183z" />
    <glyph glyph-name="afii10033" unicode="&#x41f;" horiz-adv-x="612" 
d="M50 600h512v-600h-55v553h-402v-553h-55v600z" />
    <glyph glyph-name="afii10034" unicode="&#x420;" horiz-adv-x="585" 
d="M555 388q0 -86 -61 -147q-64 -62 -165 -62h-222v-179h-57v600h279q113 0 179 -77q47 -56 47 -135zM335 228q81 0 125 51q39 44 39 109t-39 110q-47 53 -134 53h-219v-323h228z" />
    <glyph glyph-name="afii10035" unicode="&#x421;" horiz-adv-x="602" 
d="M87 302q0 -112 72 -187q74 -77 190 -77q115 0 189 68l34 -37q-93 -80 -223 -80q-135 0 -228 91q-90 90 -90 222q0 129 90 219t228 90q134 0 223 -80l-34 -37q-78 68 -189 68q-116 0 -188 -74q-74 -77 -74 -186z" />
    <glyph glyph-name="afii10036" unicode="&#x422;" horiz-adv-x="608" 
d="M25 553v47h558v-47h-251v-553h-56v553h-251z" />
    <glyph glyph-name="afii10037" unicode="&#x423;" horiz-adv-x="633" 
d="M547 600h61l-264 -501q-26 -48 -56 -73q-38 -31 -86 -31q-24 0 -39 3l4 39h13q33 0 59 14q30 20 44 46l15 27l-272 476h65l239 -419h6z" />
    <glyph glyph-name="afii10038" unicode="&#x424;" horiz-adv-x="805" 
d="M431 611v-68h99q114 0 183 -72q63 -69 63 -161q0 -100 -73 -170q-67 -65 -173 -65h-99v-75h-55v75h-101q-108 0 -178 70q-67 67 -67 165q0 87 56 153q67 80 189 80h101v68h55zM526 496h-95v-371h95q90 0 142 51q56 51 56 134q0 82 -54 133q-53 53 -144 53zM133 181
q56 -56 148 -56h95v371h-95q-100 0 -156 -66q-41 -47 -41 -120q0 -78 49 -129z" />
    <glyph glyph-name="afii10039" unicode="&#x425;" horiz-adv-x="613" 
d="M109 600l197 -265l190 265h65l-216 -288l238 -312h-66l-211 286l-213 -286h-62l232 311l-219 289h65z" />
    <glyph glyph-name="afii10040" unicode="&#x426;" horiz-adv-x="651" 
d="M105 47h404v553h55v-553h62v-176h-41l-12 129h-523v600h55v-553z" />
    <glyph glyph-name="afii10041" unicode="&#x427;" horiz-adv-x="626" 
d="M576 0h-55v223q-98 -72 -209 -72q-134 0 -201 69q-66 69 -66 207v173h56v-168q0 -112 45 -168q49 -64 169 -64q108 0 206 70v330h55v-600z" />
    <glyph glyph-name="afii10042" unicode="&#x428;" horiz-adv-x="827" 
d="M441 600v-553h281v553h55v-600h-727v600h55v-553h281v553h55z" />
    <glyph glyph-name="afii10043" unicode="&#x429;" horiz-adv-x="863" 
d="M441 600v-553h281v553h55v-553h62v-176h-41l-12 129h-736v600h55v-553h281v553h55z" />
    <glyph glyph-name="afii10044" unicode="&#x42a;" horiz-adv-x="691" 
d="M662 213q0 -89 -62 -151q-64 -62 -164 -62h-274v552l-142 8v40h197v-177h219q104 0 169 -67q57 -60 57 -143zM606 212q0 69 -44 113q-43 49 -136 49h-209v-325h216q81 0 124 43q49 46 49 120z" />
    <glyph glyph-name="afii10045" unicode="&#x42b;" horiz-adv-x="716" 
d="M549 213q0 -89 -61 -150q-63 -63 -168 -63h-270v600h55v-177h215q110 0 172 -68q57 -59 57 -142zM493 213q0 69 -43 112q-43 49 -132 49h-213v-325h219q78 0 121 43q48 47 48 121zM666 600v-600h-55v600h55z" />
    <glyph glyph-name="afii10046" unicode="&#x42c;" horiz-adv-x="579" 
d="M549 213q0 -89 -61 -150q-63 -63 -164 -63h-274v600h55v-177h219q105 0 168 -68q57 -59 57 -142zM493 213q0 66 -43 112q-44 49 -131 49h-214v-325h220q77 0 120 43q48 47 48 121z" />
    <glyph glyph-name="afii10047" unicode="&#x42d;" horiz-adv-x="602" 
d="M160 291v46h354q-10 89 -68 150q-74 76 -191 76q-109 0 -190 -68l-33 37q47 41 98.5 60t124.5 19q135 0 228 -88q88 -83 88 -221q0 -137 -87 -222q-94 -91 -230 -91q-135 0 -223 80l32 36q80 -68 191 -68q127 0 201 88q57 68 61 166h-356z" />
    <glyph glyph-name="afii10048" unicode="&#x42e;" horiz-adv-x="866" 
d="M530 611q132 0 221 -92q83 -88 83 -219q0 -141 -94 -230q-84 -81 -210 -81q-130 0 -220 93q-76 82 -82 203h-122v-285h-56v600h56v-268h123q11 113 82 187q90 92 219 92zM778 300q0 114 -67 187q-69 77 -181 77q-118 0 -185 -84q-61 -70 -61 -180q0 -109 65 -184
q71 -80 181 -80q103 0 176 73q72 72 72 191z" />
    <glyph glyph-name="afii10049" unicode="&#x42f;" horiz-adv-x="590" 
d="M29 388q0 84 57 144q65 68 185 68h269v-600h-56v178h-252l-120 -178h-61l127 186q-71 25 -112 83q-37 52 -37 119zM88 388q0 -70 46 -116t129 -46h221v326h-216q-87 0 -136 -49q-44 -46 -44 -115z" />
    <glyph glyph-name="afii10065" unicode="&#x430;" horiz-adv-x="572" 
d="M247 500h77l223 -500h-58l-45 100h-320l-45 -100h-54zM276 453l-132 -308h281l-133 308h-16z" />
    <glyph glyph-name="afii10066" unicode="&#x431;" horiz-adv-x="508" 
d="M105 338h191q87 0 137 -57q40 -46 40 -111t-42 -113q-51 -57 -135 -57h-246v500h366v-44h-311v-118zM105 292v-245h192q63 0 96 39q28 34 28 84q0 48 -27 81q-32 41 -103 41h-186z" />
    <glyph glyph-name="afii10067" unicode="&#x432;" horiz-adv-x="517" 
d="M313 0h-263v500h253q72 0 112 -40q32 -34 32 -82q0 -32 -15 -59q-15 -24 -38 -38v-4q30 -15 56 -47q27 -39 27 -85q0 -58 -43 -101q-46 -44 -121 -44zM425 147q0 43 -22 68q-30 35 -84 35h-215v-206h211q55 0 86 36q24 28 24 67zM394 374q0 35 -23 58t-73 23h-194v-161
h210q42 0 61 24q19 22 19 56z" />
    <glyph glyph-name="afii10068" unicode="&#x433;" horiz-adv-x="466" 
d="M104 454v-454h-54v500h381v-46h-327z" />
    <glyph glyph-name="afii10069" unicode="&#x434;" horiz-adv-x="591" 
d="M174 500h331v-454h56v-152h-39l-12 106h-435l-10 -106h-40v152h15q38 0 62 35q22 35 30 93zM451 454h-231l-41 -296q-12 -78 -49 -112h321v408z" />
    <glyph glyph-name="afii10070" unicode="&#x435;" horiz-adv-x="481" 
d="M50 0v500h379v-47h-325v-163h290v-46h-290v-198h337v-46h-391z" />
    <glyph glyph-name="afii10072" unicode="&#x436;" horiz-adv-x="776" 
d="M303 289h59v211h51v-211h59q38 0 56 13q15 9 24 28l54 114q17 34 44 48q22 14 63 14q17 0 35 -3l-5 -41h-8q-34 0 -55 -11q-20 -10 -31 -33l-51 -105q-13 -23 -33 -40l173 -273h-62l-151 250q-22 -5 -44 -5h-68v-245h-51v245h-68q-22 0 -44 5l-151 -250h-62l173 273
q-20 17 -33 40l-51 105q-11 23 -31 33q-21 11 -55 11h-8l-5 41q18 3 35 3q41 0 63 -14q27 -14 44 -48l54 -114q9 -19 24 -28q18 -13 56 -13z" />
    <glyph glyph-name="afii10073" unicode="&#x437;" horiz-adv-x="504" 
d="M240 38q105 0 149 48q28 31 28 73q0 40 -23 69q-24 34 -82 34h-177v44h164q41 0 64 24q19 19 19 50q0 35 -27 57q-36 28 -124 28q-78 0 -159 -30l-14 40q76 34 179 34q118 0 165 -47q32 -32 32 -80q0 -35 -15 -57q-14 -22 -38 -32v-4q35 -13 53 -34q35 -39 35 -92
q0 -78 -61 -126q-56 -46 -168 -46q-124 0 -210 43l16 42q90 -38 194 -38z" />
    <glyph glyph-name="afii10074" unicode="&#x438;" horiz-adv-x="550" 
d="M101 500v-433l344 433h55v-500h-50v433l-345 -433h-55v500h51z" />
    <glyph glyph-name="afii10075" unicode="&#x439;" horiz-adv-x="552" 
d="M101 500v-433l344 433h55v-500h-50v433l-345 -433h-55v500h51zM276 557q-49 0 -79 32q-20 26 -23 58l36 7q8 -30 24 -45q16 -14 41 -14q26 0 42 14q17 17 23 45l37 -7q-3 -34 -24 -59q-29 -31 -77 -31z" />
    <glyph glyph-name="afii10076" unicode="&#x43a;" horiz-adv-x="518" 
d="M50 500h53v-211h96q29 0 48 11q14 7 28 29l67 114q24 37 51 51q25 12 60 12q20 0 33 -3l-3 -42h-12q-35 0 -52 -9q-17 -8 -31 -32l-64 -107q-13 -22 -33 -38l197 -275h-64l-175 250q-25 -5 -45 -5h-101v-245h-53v500z" />
    <glyph glyph-name="afii10077" unicode="&#x43b;" horiz-adv-x="580" 
d="M191 500h339v-500h-54v453h-237l-50 -353q-8 -50 -39 -77q-30 -27 -76 -27q-29 0 -59 8l10 40q17 -4 33 -4q38 0 58 23q19 23 23 58z" />
    <glyph glyph-name="afii10078" unicode="&#x43c;" horiz-adv-x="645" 
d="M50 500h72l201 -281l200 281h72v-500h-54v442h-4l-209 -294h-15l-211 294h-4v-442h-48v500z" />
    <glyph glyph-name="afii10079" unicode="&#x43d;" horiz-adv-x="529" 
d="M433 500h54v-500h-54v245h-329v-245h-54v500h54v-209h329v209z" />
    <glyph glyph-name="afii10080" unicode="&#x43e;" horiz-adv-x="590" 
d="M295 509q117 0 193 -78q70 -70 70 -181q0 -114 -75 -186q-76 -73 -188 -73q-115 0 -190 75t-75 184q0 114 80 188q76 71 185 71zM84 250q0 -93 59 -152q60 -60 152 -60q91 0 148 57q63 63 63 155q0 96 -64 157q-57 55 -147 55q-94 0 -152 -61q-59 -59 -59 -151z" />
    <glyph glyph-name="afii10081" unicode="&#x43f;" horiz-adv-x="539" 
d="M104 453v-453h-54v500h439v-500h-54v453h-331z" />
    <glyph glyph-name="afii10082" unicode="&#x440;" horiz-adv-x="503" 
d="M473 323q0 -67 -46 -118q-56 -58 -141 -58h-182v-147h-54v500h236q85 0 137 -55q50 -50 50 -122zM292 193q56 0 93 39q34 39 34 91q0 54 -32 89q-36 42 -103 42h-180v-261h188z" />
    <glyph glyph-name="afii10083" unicode="&#x441;" horiz-adv-x="523" 
d="M88 251q0 -91 58 -152q61 -61 153 -61q94 0 159 57l30 -36q-74 -68 -189 -68q-114 0 -189 75q-75 73 -75 185q0 107 75 182q78 76 189 76q115 0 189 -68l-31 -35q-64 56 -158 56q-91 0 -151 -60t-60 -151z" />
    <glyph glyph-name="afii10084" unicode="&#x442;" horiz-adv-x="519" 
d="M25 454v46h469v-46h-208v-454h-54v454h-207z" />
    <glyph glyph-name="afii10085" unicode="&#x443;" horiz-adv-x="545" 
d="M461 500h59l-221 -415q-23 -45 -45 -63q-32 -25 -73 -25q-14 0 -36 2l3 39h12q34 0 50 9q20 11 33 38l10 20l-228 395h63l194 -342h5z" />
    <glyph glyph-name="afii10086" unicode="&#x444;" horiz-adv-x="680" 
d="M366 509v-55h86q96 0 151 -68q47 -57 47 -128q0 -80 -58 -138q-56 -58 -140 -58h-86v-62h-52v62h-86q-85 0 -144 61q-54 57 -54 135t52 135q56 61 146 61h86v55h52zM122 153q42 -44 109 -44h83v299h-83q-65 0 -108 -43q-42 -42 -42 -107q0 -64 41 -105zM449 408h-83v-299
h83q68 0 108 43q42 42 42 106q0 60 -36 101q-46 49 -114 49z" />
    <glyph glyph-name="afii10087" unicode="&#x445;" horiz-adv-x="520" 
d="M97 500l161 -214l155 214h62l-181 -240l201 -260h-63l-175 232l-171 -232h-61l196 260l-186 240h62z" />
    <glyph glyph-name="afii10088" unicode="&#x446;" horiz-adv-x="555" 
d="M104 47h322v453h55v-453h49v-154h-40l-10 107h-430v500h54v-453z" />
    <glyph glyph-name="afii10089" unicode="&#x447;" horiz-adv-x="537" 
d="M487 0h-53v179q-73 -54 -169 -54q-107 0 -164 54q-61 58 -61 175v146h55v-142q0 -100 43 -144q40 -43 130 -43q96 0 166 52v277h53v-500z" />
    <glyph glyph-name="afii10090" unicode="&#x448;" horiz-adv-x="703" 
d="M378 500v-454h221v454h54v-500h-603v500h54v-454h220v454h54z" />
    <glyph glyph-name="afii10091" unicode="&#x449;" horiz-adv-x="728" 
d="M654 500v-454h49v-152h-39l-11 106h-603v500h54v-454h221v454h54v-454h221v454h54z" />
    <glyph glyph-name="afii10092" unicode="&#x44a;" horiz-adv-x="587" 
d="M557 178q0 -76 -52 -126q-55 -52 -133 -52h-235v453l-117 7v40h171v-146h181q78 0 134 -53q51 -51 51 -123zM503 178q0 53 -34 90q-37 39 -101 39h-177v-260h182q61 0 95 37q35 37 35 94z" />
    <glyph glyph-name="afii10093" unicode="&#x44b;" horiz-adv-x="626" 
d="M470 178q0 -80 -60 -133q-51 -45 -125 -45h-235v500h54v-146h181q76 0 129 -48q56 -51 56 -128zM416 178q0 54 -35 89q-37 40 -99 40h-178v-260h186q57 0 92 40q34 38 34 91zM523 500h53v-500h-53v500z" />
    <glyph glyph-name="afii10094" unicode="&#x44c;" horiz-adv-x="500" 
d="M470 178q0 -70 -45 -120q-56 -58 -140 -58h-235v500h54v-146h181q90 0 142 -61q43 -49 43 -115zM416 178q0 47 -29 82q-37 47 -105 47h-178v-260h186q55 0 92 39q34 37 34 92z" />
    <glyph glyph-name="afii10095" unicode="&#x44d;" horiz-adv-x="522" 
d="M142 234v47h293q-9 78 -59 128q-54 54 -146 54q-89 0 -158 -60l-31 34q75 72 189 72q116 0 188 -70q74 -74 74 -189t-76 -189q-73 -70 -186 -70t-191 69l32 38q69 -60 159 -60q100 0 156 62q45 49 51 134h-295z" />
    <glyph glyph-name="afii10096" unicode="&#x44e;" horiz-adv-x="733" 
d="M449 509q112 0 185 -79q69 -75 69 -180q0 -108 -71 -182q-74 -77 -183 -77q-104 0 -177 70q-70 70 -76 172h-91v-233h-55v500h55v-220h92q11 103 83 166q71 63 169 63zM648 250q0 90 -48 145q-56 68 -151 68q-78 0 -134 -50q-65 -60 -65 -163q0 -92 53 -151
q56 -61 146 -61q91 0 147 64q52 58 52 148z" />
    <glyph glyph-name="afii10097" unicode="&#x44f;" horiz-adv-x="499" 
d="M22 323q0 76 56 127q55 50 132 50h239v-500h-52v146h-203l-98 -146h-59l106 155q-56 18 -86 62q-35 48 -35 106zM77 323q0 -51 32 -89q36 -42 101 -42h187v261h-186q-61 0 -98 -39q-36 -38 -36 -91z" />
    <glyph glyph-name="afii10071" unicode="&#x451;" horiz-adv-x="485" 
d="M50 0v500h379v-47h-325v-163h290v-46h-290v-198h337v-46h-391zM290 611q0 17 12.5 29.5t29.5 12.5t29.5 -12.5t12.5 -29.5t-12.5 -29.5t-29.5 -12.5t-29.5 12.5t-12.5 29.5zM109 611q0 17 12.5 29.5t29.5 12.5t29.5 -12.5t12.5 -29.5t-12.5 -29.5t-29.5 -12.5t-29.5 12.5
t-12.5 29.5z" />
    <glyph glyph-name="afii10099" unicode="&#x452;" horiz-adv-x="685" 
d="M27 454v46h465v-46h-206v-126q67 50 159 50q93 0 153 -49q64 -56 64 -160v-117q0 -65 -30 -114q-23 -39 -59 -66l-25 24q30 32 44 66q15 35 15 94v107q0 84 -40 124q-40 43 -125 43q-51 0 -86 -10.5t-70 -38.5v-281h-54v454h-205z" />
    <glyph glyph-name="afii10100" unicode="&#x453;" horiz-adv-x="466" 
d="M104 454v-454h-54v500h381v-46h-327zM236 566l55 137l47 -23l-71 -128z" />
    <glyph glyph-name="afii10101" unicode="&#x454;" horiz-adv-x="522" 
d="M383 281v-47h-298q4 -86 60 -142q54 -54 147 -54q90 0 159 57l30 -35q-77 -69 -189 -69q-100 0 -169 56q-93 73 -93 203q0 116 73 187q72 72 189 72q110 0 190 -70l-30 -34q-66 58 -160 58t-148 -56q-48 -48 -57 -126h296z" />
    <glyph glyph-name="afii10102" unicode="&#x455;" horiz-adv-x="495" 
d="M34 380q0 61 52 93q56 36 155 36q102 0 194 -39l-18 -41q-86 34 -170 34q-83 0 -127 -24q-32 -20 -32 -60q0 -28 19 -44q20 -19 76 -29l115 -20q94 -16 132 -55q35 -37 35 -88q0 -68 -47 -105q-59 -47 -191 -47q-114 0 -198 38l19 46q90 -36 178 -36q114 0 156 37
q29 24 29 64q0 38 -28 63q-22 16 -91 30l-124 23q-61 13 -89 34q-45 33 -45 90z" />
    <glyph glyph-name="afii10103" unicode="&#x456;" horiz-adv-x="153" 
d="M50 500h53v-500h-53v500z" />
    <glyph glyph-name="afii10104" unicode="&#x457;" horiz-adv-x="153" 
d="M50 500h53v-500h-53v500zM127 611q0 17 12.5 29.5t29.5 12.5t29.5 -12.5t12.5 -29.5t-12.5 -29.5t-29.5 -12.5t-29.5 12.5t-12.5 29.5zM-54 611q0 17 12.5 29.5t29.5 12.5t29.5 -12.5t12.5 -29.5t-12.5 -29.5t-29.5 -12.5t-29.5 12.5t-12.5 29.5z" />
    <glyph glyph-name="afii10105" unicode="&#x458;" horiz-adv-x="439" 
d="M341 500h53v-288q0 -105 -59 -164q-59 -57 -160 -57q-99 0 -160 63l30 38q63 -54 128 -54q76 0 119 39q49 48 49 124v299z" />
    <glyph glyph-name="afii10106" unicode="&#x459;" horiz-adv-x="901" 
d="M191 500h327v-146h168q84 0 140 -59q45 -50 45 -117q0 -72 -50 -124q-51 -54 -135 -54h-221v453h-227l-50 -353q-7 -49 -34 -74q-30 -30 -79 -30q-30 0 -60 8l9 40q15 -4 35 -4q36 0 52 17q19 16 27 64zM817 178q0 52 -32 87q-36 42 -102 42h-165v-260h173q60 0 97 45
q29 35 29 86z" />
    <glyph glyph-name="afii10107" unicode="&#x45a;" horiz-adv-x="856" 
d="M420 500h53v-146h168q88 0 143 -61q42 -48 42 -115q0 -69 -45 -119q-56 -59 -140 -59h-221v245h-316v-245h-54v500h54v-210h316v210zM772 178q0 44 -28 82q-39 47 -106 47h-165v-260h173q55 0 92 39q34 37 34 92z" />
    <glyph glyph-name="afii10108" unicode="&#x45b;" horiz-adv-x="687" 
d="M27 454v46h465v-46h-206v-126q67 50 159 50q93 0 153 -49q64 -56 64 -160v-169h-55v165q0 84 -43 127q-42 39 -122 39q-51 0 -86 -10.5t-70 -38.5v-282h-54v454h-205z" />
    <glyph glyph-name="afii10109" unicode="&#x45c;" horiz-adv-x="518" 
d="M50 500h53v-211h96q29 0 48 11q14 7 28 29l67 114q24 37 51 51q25 12 60 12q20 0 33 -3l-3 -42h-12q-35 0 -52 -9q-17 -8 -31 -32l-64 -107q-13 -22 -33 -38l197 -275h-64l-175 250q-25 -5 -45 -5h-101v-245h-53v500zM198 566l55 137l47 -23l-71 -128z" />
    <glyph glyph-name="afii10110" unicode="&#x45e;" horiz-adv-x="545" 
d="M461 500h59l-221 -415q-23 -45 -45 -63q-32 -25 -73 -25q-14 0 -36 2l3 39h12q34 0 50 9q20 11 33 38l10 20l-228 395h63l194 -342h5zM284 557q-49 0 -79 32q-20 26 -23 58l36 7q8 -30 24 -45q16 -14 41 -14q26 0 42 14q17 17 23 45l37 -7q-3 -34 -24 -59
q-29 -31 -77 -31z" />
    <glyph glyph-name="afii10193" unicode="&#x45f;" horiz-adv-x="540" 
d="M104 47h331v453h54v-500h-194l-5 -107h-40l-5 107h-195v500h54v-453z" />
    <glyph glyph-name="afii10146" unicode="&#x462;" horiz-adv-x="580" 
d="M0 501v46h51v53h55v-53h168v-46h-168v-75h219q102 0 165 -66q60 -60 60 -145q0 -87 -60 -150q-63 -65 -165 -65h-274v501h-51zM494 215q0 68 -44 114q-48 51 -131 51h-213v-333h220q72 0 118 43q50 47 50 125z" />
    <glyph glyph-name="afii10194" unicode="&#x463;" horiz-adv-x="500" 
d="M-1 452v48h51v103h54v-103h142v-48h-142v-98h181q90 0 142 -61q43 -49 43 -115q0 -69 -45 -119q-56 -59 -140 -59h-235v452h-51zM416 178q0 47 -29 82q-37 47 -105 47h-178v-260h186q55 0 92 39q34 37 34 92z" />
    <glyph glyph-name="afii10147" unicode="&#x472;" horiz-adv-x="694" 
d="M347 611q138 0 231 -93q86 -88 86 -218q0 -140 -93 -225q-93 -86 -224 -86q-136 0 -226 87q-92 87 -92 224q0 141 100 230q89 81 218 81zM473 247q-65 0 -128 34q-66 37 -126 37q-78 0 -134 -52q7 -91 74 -155q77 -74 188 -74q110 0 183 70q69 68 80 189
q-75 -49 -137 -49zM160 489q-70 -77 -77 -182q76 57 143 57q70 0 138 -38q56 -30 117 -30q39 0 63 9.5t61 35.5q-10 95 -77 155q-71 67 -181 67q-111 0 -187 -74z" />
    <glyph glyph-name="afii10195" unicode="&#x473;" horiz-adv-x="590" 
d="M295 509q116 0 192 -78q72 -72 72 -181q0 -113 -76 -186t-188 -73q-115 0 -190 75q-74 74 -74 184q0 115 79 188q76 71 185 71zM404 204q-55 0 -113 28q-58 30 -103 30q-57 0 -103 -39q7 -74 58 -125q61 -61 152 -61q89 0 148 57q57 56 62 143q-46 -33 -101 -33zM141 402
q-50 -53 -59 -136q52 38 109 38q56 0 116 -29q54 -28 97 -28q54 0 99 35q-7 73 -61 125q-58 56 -147 56q-93 0 -154 -61z" />
    <glyph glyph-name="afii10148" unicode="&#x474;" horiz-adv-x="646" 
d="M354 0h-89l-253 600h60l228 -549h23l68 192q44 127 116 240q43 71 99 134l40 -31q-52 -55 -102 -137q-65 -103 -108 -225z" />
    <glyph glyph-name="afii10196" unicode="&#x475;" horiz-adv-x="553" 
d="M312 0h-76l-211 500h59l185 -451h12l56 155q39 112 94 198q34 56 89 114l34 -30q-45 -51 -85 -113q-50 -80 -89 -187z" />
    <glyph glyph-name="afii10050" unicode="&#x490;" horiz-adv-x="524" 
d="M105 553v-553h-55v600h397l11 94l41 -2v-139h-394z" />
    <glyph glyph-name="afii10098" unicode="&#x491;" horiz-adv-x="466" 
d="M104 454v-454h-54v500h337l4 79h40v-125h-327z" />
    <glyph glyph-name="uni04D8" unicode="&#x4d8;" horiz-adv-x="682" 
d="M145 496l-31 39q84 76 221 76q145 0 235 -92q82 -82 82 -219q0 -141 -88 -223q-90 -88 -223 -88q-127 0 -221 87q-90 84 -90 224q0 37 2 46h560q-17 93 -68 144q-73 73 -189 73q-107 0 -190 -67zM521 109q71 71 75 188h-510q5 -121 73 -185q77 -75 182 -75q108 0 180 72z
" />
    <glyph glyph-name="afii10846" unicode="&#x4d9;" horiz-adv-x="579" 
d="M130 407l-29 37q67 65 184 65q121 0 197 -82q67 -70 67 -177q0 -115 -73 -185q-77 -74 -186 -74q-112 0 -187 75q-73 73 -73 184q0 17 2 41h461q-12 68 -54 112q-60 60 -154 60t-155 -56zM436 95q55 54 60 150h-413q5 -95 59 -148q60 -60 148 -60t146 58z" />
    <glyph glyph-name="Wgrave" unicode="&#x1e80;" horiz-adv-x="957" 
d="M313 0h-86l-202 600h64l177 -556h12l159 556h83l165 -556h12l175 556h60l-199 -600h-88l-163 551h-12zM444 796l56 -135l-34 -16l-71 128z" />
    <glyph glyph-name="wgrave" unicode="&#x1e81;" horiz-adv-x="829" 
d="M282 0h-87l-165 500h59l147 -457h8l127 457h85l134 -457h8l144 457h57l-164 -500h-88l-132 456h-5zM376 703l55 -137l-31 -14l-71 128z" />
    <glyph glyph-name="Wacute" unicode="&#x1e82;" horiz-adv-x="957" 
d="M313 0h-86l-202 600h64l177 -556h12l159 556h83l165 -556h12l175 556h60l-199 -600h-88l-163 551h-12zM461 661l56 135l49 -23l-71 -128z" />
    <glyph glyph-name="wacute" unicode="&#x1e83;" horiz-adv-x="829" 
d="M282 0h-87l-165 500h59l147 -457h8l127 457h85l134 -457h8l144 457h57l-164 -500h-88l-132 456h-5zM391 566l55 137l47 -23l-71 -128z" />
    <glyph glyph-name="Wdieresis" unicode="&#x1e84;" horiz-adv-x="957" 
d="M313 0h-86l-202 600h64l177 -556h12l159 556h83l165 -556h12l175 556h60l-199 -600h-88l-163 551h-12zM533 695q0 20 14 34t33 14t33 -14t14 -34q0 -19 -14 -32.5t-33 -13.5t-33 13.5t-14 32.5zM330 695q0 20 13.5 34t32.5 14q20 0 33.5 -14t13.5 -34q0 -19 -13.5 -32.5
t-33.5 -13.5q-19 0 -32.5 13.5t-13.5 32.5z" />
    <glyph glyph-name="wdieresis" unicode="&#x1e85;" horiz-adv-x="829" 
d="M282 0h-87l-165 500h59l147 -457h8l127 457h85l134 -457h8l144 457h57l-164 -500h-88l-132 456h-5zM461 611q0 17 12.5 29.5t29.5 12.5t29.5 -12.5t12.5 -29.5t-12.5 -29.5t-29.5 -12.5t-29.5 12.5t-12.5 29.5zM280 611q0 17 12.5 29.5t29.5 12.5t29.5 -12.5t12.5 -29.5
t-12.5 -29.5t-29.5 -12.5t-29.5 12.5t-12.5 29.5z" />
    <glyph glyph-name="Ygrave" unicode="&#x1ef2;" horiz-adv-x="629" 
d="M343 0h-56v134l-261 466h64l224 -405h5l224 405h61l-261 -462v-138zM294 796l56 -135l-34 -16l-71 128z" />
    <glyph glyph-name="ygrave" unicode="&#x1ef3;" horiz-adv-x="537" 
d="M296 0h-54v117l-217 383h61l181 -327h4l183 327h58l-216 -380v-120zM223 703l55 -137l-31 -14l-71 128z" />
    <glyph glyph-name="endash" unicode="&#x2013;" horiz-adv-x="415" 
d="M17 284h382v-40h-382v40z" />
    <glyph glyph-name="emdash" unicode="&#x2014;" horiz-adv-x="493" 
d="M17 284h460v-40h-460v40z" />
    <glyph glyph-name="quoteleft" unicode="&#x2018;" horiz-adv-x="169" 
d="M85 512q-23 0 -36 12.5t-13 32.5q0 11 5 23l39 95l30 -8l-12 -66q34 -7 34 -44q0 -20 -12.5 -32.5t-34.5 -12.5z" />
    <glyph glyph-name="quoteright" unicode="&#x2019;" horiz-adv-x="169" 
d="M84 595q23 0 36 -12.5t13 -32.5q0 -11 -5 -23l-39 -95l-30 8l12 66q-34 7 -34 44q0 20 12.5 32.5t34.5 12.5z" />
    <glyph glyph-name="quotesinglbase" unicode="&#x201a;" horiz-adv-x="169" 
d="M84 83q23 0 36 -12.5t13 -32.5q0 -11 -5 -23l-39 -95l-30 8l12 66q-34 7 -34 44q0 20 12.5 32.5t34.5 12.5z" />
    <glyph glyph-name="quotedblleft" unicode="&#x201c;" horiz-adv-x="282" 
d="M198 512q-23 0 -36 12.5t-13 32.5q0 11 5 23l39 95l30 -8l-12 -66q34 -7 34 -44q0 -20 -12.5 -32.5t-34.5 -12.5zM85 512q-23 0 -36 12.5t-13 32.5q0 11 5 23l39 95l30 -8l-12 -66q34 -7 34 -44q0 -20 -12.5 -32.5t-34.5 -12.5z" />
    <glyph glyph-name="quotedblright" unicode="&#x201d;" horiz-adv-x="282" 
d="M197 595q23 0 36 -12.5t13 -32.5q0 -11 -5 -23l-39 -95l-30 8l12 66q-34 7 -34 44q0 20 12.5 32.5t34.5 12.5zM84 595q23 0 36 -12.5t13 -32.5q0 -11 -5 -23l-39 -95l-30 8l12 66q-34 7 -34 44q0 20 12.5 32.5t34.5 12.5z" />
    <glyph glyph-name="quotedblbase" unicode="&#x201e;" horiz-adv-x="282" 
d="M84 83q23 0 36 -12.5t13 -32.5q0 -11 -5 -23l-39 -95l-30 8l12 66q-34 7 -34 44q0 20 12.5 32.5t34.5 12.5zM197 83q23 0 36 -12.5t13 -32.5q0 -11 -5 -23l-39 -95l-30 8l12 66q-34 7 -34 44q0 20 12.5 32.5t34.5 12.5z" />
    <glyph glyph-name="dagger" unicode="&#x2020;" horiz-adv-x="290" 
d="M126 110l-6 100v62l5 77l-59 -5h-31l-22 21v5l22 21h31l59 -6l-5 57v36l23 22h4l23 -22v-36l-5 -56l58 5h32l21 -21v-5l-21 -21h-32l-58 5l5 -77v-62l-6 -100l-17 -146h-4z" />
    <glyph glyph-name="daggerdbl" unicode="&#x2021;" horiz-adv-x="290" 
d="M165 219l5 -52l-23 -203h-4l-23 203l5 52l-59 -5h-31l-22 20v6l22 20h31l59 -5l-5 48l5 47l-59 -6h-31l-22 21v5l22 21h31l59 -6l-5 57v36l23 22h4l23 -22v-36l-5 -56l58 5h32l21 -21v-5l-21 -21h-32l-58 6l5 -47l-5 -48l58 5h32l21 -20v-6l-21 -20h-32z" />
    <glyph glyph-name="bullet" unicode="&#x2022;" horiz-adv-x="190" 
d="M42 283q0 22 15.5 37.5t37.5 15.5t37.5 -15.5t15.5 -37.5t-15.5 -37.5t-37.5 -15.5t-37.5 15.5t-15.5 37.5z" />
    <glyph glyph-name="onedotenleader" unicode="&#x2024;" horiz-adv-x="158" 
d="M35 38q0 20 12 32.5t32 12.5t32 -12.5t12 -32.5t-12 -32t-32 -12t-32 12t-12 32z" />
    <glyph glyph-name="twodotenleader" unicode="&#x2025;" horiz-adv-x="304" 
d="M35 38q0 20 12 32.5t32 12.5t32 -12.5t12 -32.5t-12 -32t-32 -12t-32 12t-12 32zM181 38q0 20 12 32.5t32 12.5t32 -12.5t12 -32.5t-12 -32t-32 -12t-32 12t-12 32z" />
    <glyph glyph-name="ellipsis" unicode="&#x2026;" horiz-adv-x="450" 
d="M35 38q0 20 12 32.5t32 12.5t32 -12.5t12 -32.5t-12 -32t-32 -12t-32 12t-12 32zM181 38q0 20 12 32.5t32 12.5t32 -12.5t12 -32.5t-12 -32t-32 -12t-32 12t-12 32zM327 38q0 20 12 32.5t32 12.5t32 -12.5t12 -32.5t-12 -32t-32 -12t-32 12t-12 32z" />
    <glyph glyph-name="perthousand" unicode="&#x2030;" horiz-adv-x="932" 
d="M298 373q0 -56 -38 -96q-37 -40 -100 -40t-100 40q-38 40 -38 96t38 96q37 40 100 40t100 -40q38 -40 38 -96zM123 12l341 495l36 -23l-340 -496zM64 373q0 -38 23 -64q30 -32 73 -32t73 32q23 26 23 64t-23 64q-29 32 -73 32t-73 -32q-23 -26 -23 -64zM613 126
q0 -56 -38 -96q-37 -40 -100 -40t-100 40q-38 40 -38 96t38 96q37 40 100 40t100 -40q38 -40 38 -96zM379 126q0 -38 23 -64q29 -32 73 -32q43 0 73 32q23 26 23 64t-23 64q-30 32 -73 32q-44 0 -73 -32q-23 -26 -23 -64zM910 126q0 -56 -38 -96q-37 -40 -100 -40t-100 40
q-38 40 -38 96t38 96q37 40 100 40t100 -40q38 -40 38 -96zM676 126q0 -38 23 -64q29 -32 73 -32q43 0 73 32q23 26 23 64t-23 64q-30 32 -73 32q-44 0 -73 -32q-23 -26 -23 -64z" />
    <glyph glyph-name="guilsinglleft" unicode="&#x2039;" horiz-adv-x="282" 
d="M233 401l19 -29l-170 -121l170 -121l-19 -29l-213 139v22z" />
    <glyph glyph-name="guilsinglright" unicode="&#x203a;" horiz-adv-x="282" 
d="M52 101l-19 29l171 121l-171 121l19 29l214 -139v-22z" />
    <glyph glyph-name="exclamdbl" unicode="&#x203c;" horiz-adv-x="288" 
d="M59 654h51v-138l-6 -378h-40l-5 378v138zM39 39q0 20 12.5 32.5t32.5 12.5t32.5 -12.5t12.5 -32.5t-12.5 -32.5t-32.5 -12.5t-32.5 12.5t-12.5 32.5zM178 654h51v-138l-6 -378h-40l-5 378v138zM158 39q0 20 12.5 32.5t32.5 12.5t32.5 -12.5t12.5 -32.5t-12.5 -32.5
t-32.5 -12.5t-32.5 12.5t-12.5 32.5z" />
    <glyph glyph-name="fraction" unicode="&#x2044;" horiz-adv-x="198" 
d="M-60 -7l276 535l42 -21l-277 -536z" />
    <glyph glyph-name="zerosuperior" unicode="&#x2070;" horiz-adv-x="332" 
d="M310 466q0 -59 -41 -100q-41 -42 -104 -42t-104 42q-41 41 -41 100t41 100q40 42 104 42q63 0 104 -42q41 -41 41 -100zM68 466q0 -46 27 -73q25 -28 70 -28t70 28q27 27 27 73t-27 73q-25 28 -70 28t-70 -28q-27 -27 -27 -73z" />
    <glyph glyph-name="foursuperior" unicode="&#x2074;" horiz-adv-x="286" 
d="M17 374v26l176 200h36v-186h32v-34l-32 -6v-41h-44v41h-168zM185 414v117l-107 -117h107z" />
    <glyph glyph-name="fivesuperior" unicode="&#x2075;" horiz-adv-x="288" 
d="M138 362q39 0 57 15q19 13 19 44q0 24 -14 41q-18 18 -54 18q-38 0 -73 -15l-30 6v129h196v-40h-152v-51q30 11 66 11q57 0 86 -36q20 -26 20 -63q0 -41 -26 -67q-30 -33 -95 -33q-67 0 -113 48l29 30q39 -37 84 -37z" />
    <glyph glyph-name="sixsuperior" unicode="&#x2076;" horiz-adv-x="294" 
d="M228 542q-34 25 -72 25q-36 0 -57 -21q-18 -18 -23 -52q38 18 73 18q55 0 84 -26q31 -26 31 -70q0 -41 -31 -69q-35 -30 -84 -30q-59 0 -92 46q-27 39 -27 98q0 65 33 105q34 41 93 41q50 0 95 -35zM91 387q19 -33 64 -33q30 0 48 18q17 17 17 44q0 28 -16 41
q-16 15 -54 15q-36 0 -76 -19q0 -40 17 -66z" />
    <glyph glyph-name="sevensuperior" unicode="&#x2077;" horiz-adv-x="262" 
d="M25 562v38h212v-29l-125 -239h-50l127 230h-164z" />
    <glyph glyph-name="eightsuperior" unicode="&#x2078;" horiz-adv-x="309" 
d="M154 317q-68 0 -98 29q-26 26 -26 64q0 23 13 42q11 17 32 28q-22 21 -22 51q0 31 27 53q28 22 76 22q51 0 77 -25q20 -18 20 -49q0 -28 -24 -47q23 -10 37 -30q13 -19 13 -43q0 -40 -32 -67q-34 -28 -93 -28zM154 567q-33 0 -46 -11q-11 -9 -11 -25q0 -15 12 -23
q12 -7 45 -7q18 0 36 -2q19 10 19 35q0 16 -11 24q-12 9 -44 9zM154 461q-32 0 -43 3q-36 -10 -36 -52q0 -26 18 -39q20 -17 61 -17q42 0 63 17q16 12 16 39q0 21 -15 33q-22 16 -64 16z" />
    <glyph glyph-name="ninesuperior" unicode="&#x2079;" horiz-adv-x="294" 
d="M62 379q33 -23 76 -23q35 0 58 22q20 20 23 54q-35 -20 -73 -20q-58 0 -88 27q-28 22 -28 68q0 43 31 71q32 29 84 29q60 0 91 -44q28 -40 28 -101q0 -65 -31 -103q-33 -42 -95 -42q-52 0 -96 29zM220 470q0 41 -16 66q-21 33 -65 33q-30 0 -47 -17q-18 -16 -18 -45
q0 -27 16 -40q19 -16 55 -16q39 0 75 19z" />
    <glyph glyph-name="parenleftsuperior" unicode="&#x207d;" horiz-adv-x="128" 
d="M70 461q0 -93 38 -158l-32 -16q-46 68 -46 174t46 173l32 -15q-38 -65 -38 -158z" />
    <glyph glyph-name="parenrightsuperior" unicode="&#x207e;" horiz-adv-x="128" 
d="M58 461q0 95 -38 157l32 16q46 -70 46 -173t-46 -174l-32 16q38 65 38 158z" />
    <glyph glyph-name="zeroinferior" unicode="&#x2080;" horiz-adv-x="332" 
d="M310 89q0 -59 -41 -100q-41 -42 -104 -42t-104 42q-41 41 -41 100t41 100q41 42 104 42t104 -42q41 -41 41 -100zM68 89q0 -46 27 -73q25 -28 70 -28t70 28q27 27 27 73t-27 73q-25 28 -70 28t-70 -28q-27 -27 -27 -73z" />
    <glyph glyph-name="oneinferior" unicode="&#x2081;" horiz-adv-x="147" 
d="M31 155l-16 32l67 34h25v-268h-44v215z" />
    <glyph glyph-name="twoinferior" unicode="&#x2082;" horiz-adv-x="268" 
d="M27 -48v33l126 88q27 23 33 32q12 19 12 38q0 25 -22 38q-17 11 -44 11q-45 0 -86 -34l-23 28q48 45 109 45q48 0 77 -22q33 -26 33 -68q0 -29 -18 -57q-18 -25 -45 -43l-76 -50h141v-39h-217z" />
    <glyph glyph-name="threeinferior" unicode="&#x2083;" horiz-adv-x="291" 
d="M139 -20q41 0 63 19q16 14 16 38q0 20 -14 31q-15 12 -42 12h-89v38h86q18 0 28 10t10 26q0 20 -15 27q-14 10 -47 10q-41 0 -76 -25l-21 30q43 33 99 33q48 0 78 -21q26 -19 26 -55q0 -32 -23 -48q44 -21 44 -68q0 -45 -32 -71q-34 -26 -91 -26q-68 0 -114 46l26 30
q41 -36 88 -36z" />
    <glyph glyph-name="fourinferior" unicode="&#x2084;" horiz-adv-x="286" 
d="M17 -5v26l176 200h36v-186h32v-34l-32 -6v-41h-44v41h-168zM185 35v117l-107 -117h107z" />
    <glyph glyph-name="fiveinferior" unicode="&#x2085;" horiz-adv-x="288" 
d="M138 -17q39 0 57 15q19 13 19 44q0 24 -14 41q-18 18 -54 18q-38 0 -73 -15l-30 6v129h196v-40h-152v-51q30 11 66 11q57 0 86 -36q20 -26 20 -63q0 -41 -26 -67q-30 -33 -95 -33q-67 0 -113 48l29 30q39 -37 84 -37z" />
    <glyph glyph-name="sixinferior" unicode="&#x2086;" horiz-adv-x="294" 
d="M228 165q-34 25 -72 25q-36 0 -57 -21q-18 -18 -23 -52q38 18 73 18q55 0 84 -26q31 -26 31 -70q0 -41 -31 -69q-35 -30 -84 -30q-59 0 -92 46q-27 39 -27 98q0 65 33 105q34 41 93 41q50 0 95 -35zM91 10q19 -33 64 -33q30 0 48 18q17 17 17 44q0 28 -16 41
q-16 15 -54 15q-36 0 -76 -19q0 -40 17 -66z" />
    <glyph glyph-name="seveninferior" unicode="&#x2087;" horiz-adv-x="262" 
d="M25 183v38h212v-29l-125 -239h-50l127 230h-164z" />
    <glyph glyph-name="eightinferior" unicode="&#x2088;" horiz-adv-x="309" 
d="M154 -60q-68 0 -98 29q-26 26 -26 64q0 23 13 42q11 17 32 28q-22 21 -22 51q0 31 27 53q28 22 76 22q51 0 77 -25q20 -18 20 -49q0 -28 -24 -47q23 -10 37 -30q13 -19 13 -43q0 -40 -32 -67q-34 -28 -93 -28zM154 190q-33 0 -46 -11q-11 -9 -11 -25t12 -23t45 -7
q18 0 36 -2q19 10 19 35q0 16 -11 24q-12 9 -44 9zM154 84q-32 0 -43 3q-36 -10 -36 -52q0 -25 18 -39q20 -17 61 -17q42 0 63 17q16 12 16 39q0 21 -15 33q-22 16 -64 16z" />
    <glyph glyph-name="nineinferior" unicode="&#x2089;" horiz-adv-x="294" 
d="M62 2q33 -23 76 -23q35 0 58 22q20 20 23 54q-35 -20 -73 -20q-58 0 -88 27q-28 22 -28 68q0 43 31 71q32 29 84 29q60 0 91 -44q28 -40 28 -101q0 -65 -31 -103q-33 -42 -95 -42q-52 0 -96 29zM220 93q0 41 -16 66q-21 33 -65 33q-30 0 -47 -17q-18 -17 -18 -45
q0 -27 16 -40q19 -16 55 -16q39 0 75 19z" />
    <glyph glyph-name="parenleftinferior" unicode="&#x208d;" horiz-adv-x="128" 
d="M70 82q0 -93 38 -158l-32 -16q-46 68 -46 174t46 173l32 -15q-38 -65 -38 -158z" />
    <glyph glyph-name="parenrightinferior" unicode="&#x208e;" horiz-adv-x="128" 
d="M58 82q0 95 -38 157l32 16q46 -70 46 -173t-46 -174l-32 16q38 65 38 158z" />
    <glyph glyph-name="Euro" unicode="&#x20ac;" horiz-adv-x="525" 
d="M10 229h337l-7 -44h-243q14 -47 43 -79q60 -68 160 -68q97 0 161 56l29 -35q-77 -68 -190 -68q-114 0 -191 79q-48 48 -66 115h-33v44zM354 274h-344v44h34q17 61 59 108q78 83 197 83q114 0 190 -68l-30 -35q-64 56 -160 56q-98 0 -159 -67q-27 -30 -44 -77h264z" />
    <glyph glyph-name="afii61352" unicode="&#x2116;" horiz-adv-x="814" 
d="M464 500h51v-500h-56l-357 432v-432h-52v500h57l357 -431v431zM557 291q0 46 32 80q34 34 82 34q49 0 82 -35q32 -32 32 -79t-34 -81q-35 -33 -80 -33t-79 32q-35 35 -35 82zM597 291q0 -31 21 -52q19 -22 53 -22q31 0 53 22q21 21 21 52t-20 51q-21 23 -54 23
q-34 0 -53 -22q-21 -21 -21 -52zM571 133h196v-38h-196v38z" />
    <glyph glyph-name="trademark" unicode="&#x2122;" horiz-adv-x="595" 
d="M156 569v-212h-33v212h-98v31h230v-31h-99zM299 562v-205h-32v243h45l100 -124l100 124h43v-243h-33v205l-107 -130h-11z" />
    <glyph glyph-name="minus" unicode="&#x2212;" horiz-adv-x="320" 
d="M17 294h287v-40h-287v40z" />
    <glyph glyph-name="approxequal" unicode="&#x2248;" horiz-adv-x="356" 
d="M178 190q-42 14 -71 14q-36 0 -61 -25l-26 32q42 37 88 37q27 0 69 -14q36 -16 70 -16q37 0 62 24l27 -31q-43 -37 -89 -37q-34 0 -69 16zM178 287q-42 14 -71 14q-37 0 -61 -24l-26 32q41 36 88 36q32 0 69 -14q34 -15 70 -15q38 0 62 23l27 -30q-42 -37 -89 -37
q-36 0 -69 15z" />
    <glyph glyph-name="notequal" unicode="&#x2260;" horiz-adv-x="318" 
d="M17 228h107l20 72h-127v41h137l11 37l42 -11l-7 -26h101v-41h-112l-19 -72h131v-41h-142l-11 -41l-43 11l7 30h-95v41z" />
    <glyph glyph-name="lessequal" unicode="&#x2264;" horiz-adv-x="279" 
d="M249 176l-19 -29l-210 138v23l210 139l19 -29l-167 -121zM20 220l4 5l178 -117l-19 -28l-163 103v37z" />
    <glyph glyph-name="greaterequal" unicode="&#x2265;" horiz-adv-x="279" 
d="M49 147l-19 29l167 121l-167 121l19 29l210 -139v-23zM255 225l4 -5v-37l-163 -103l-19 28z" />
    <glyph glyph-name="NULL" horiz-adv-x="0" 
 />
    <glyph glyph-name="CR" horiz-adv-x="300" 
 />
    <glyph glyph-name="percent" horiz-adv-x="636" 
d="M298 373q0 -56 -38 -96q-37 -40 -100 -40t-100 40q-38 40 -38 96t38 96q37 40 100 40t100 -40q38 -40 38 -96zM123 12l341 495l36 -23l-340 -496zM64 373q0 -38 23 -64q30 -32 73 -32t73 32q23 26 23 64t-23 64q-29 32 -73 32t-73 -32q-23 -26 -23 -64zM613 126
q0 -56 -38 -96q-37 -40 -100 -40t-100 40q-38 40 -38 96t38 96q37 40 100 40t100 -40q38 -40 38 -96zM379 126q0 -38 23 -64q29 -32 73 -32q43 0 73 32q23 26 23 64t-23 64q-30 32 -73 32q-44 0 -73 -32q-23 -26 -23 -64z" />
    <glyph glyph-name="Breve" horiz-adv-x="355" 
d="M262 755l43 -6q-12 -53 -38 -77q-34 -31 -88 -31q-58 0 -94 33q-24 24 -35 75l42 6q8 -38 29 -56q23 -19 58 -19q37 0 57 20q17 19 26 55z" />
    <glyph glyph-name="Dieresis" horiz-adv-x="397" 
d="M253 695q0 20 14 34t33 14t33 -14t14 -34q0 -19 -14 -32.5t-33 -13.5t-33 13.5t-14 32.5zM50 695q0 20 13.5 34t32.5 14q20 0 33.5 -14t13.5 -34q0 -19 -13.5 -32.5t-33.5 -13.5q-19 0 -32.5 13.5t-13.5 32.5z" />
    <glyph glyph-name="commaaccent" horiz-adv-x="188" 
d="M93 76q21 0 33 -11.5t12 -29.5q0 -12 -4 -21l-35 -88l-31 8l11 61q-29 8 -29 40q0 18 11.5 29.5t31.5 11.5z" />
    <glyph glyph-name="dblgrave" horiz-adv-x="300" 
d="M206 705l44 -137l-34 -14l-60 131zM95 703l62 -136l-32 -13l-75 126z" />
    <glyph glyph-name="Acute" horiz-adv-x="205" 
d="M50 661l56 135l49 -23l-71 -128z" />
    <glyph glyph-name="Grave" horiz-adv-x="205" 
d="M99 796l56 -135l-34 -16l-71 128z" />
    <glyph glyph-name="Caron" horiz-adv-x="369" 
d="M50 763l21 22l113 -93l113 93l22 -22l-123 -120h-23z" />
    <glyph glyph-name="Circumflex" horiz-adv-x="369" 
d="M74 647l-24 23l123 121h23l123 -121l-24 -23l-111 94z" />
    <glyph glyph-name="commaaccent.cap" horiz-adv-x="187" 
d="M93 75q21 0 32.5 -11t11.5 -29q0 -13 -3 -20l-37 -88l-32 10l14 58q-29 6 -29 40q0 18 11.5 29t31.5 11z" />
    <glyph glyph-name="Dotaccent" horiz-adv-x="183" 
d="M50 35q0 17 12 28.5t29 11.5t29.5 -11.5t12.5 -28.5t-12.5 -29t-29.5 -12t-29 12t-12 29z" />
    <glyph glyph-name="Hungarumlaut" horiz-adv-x="308" 
d="M50 669l42 147l55 -22l-59 -139zM141 672l67 142l50 -23l-82 -135z" />
    <glyph glyph-name="dblGrave" horiz-adv-x="308" 
d="M216 816l42 -147l-39 -14l-58 139zM99 814l68 -142l-35 -16l-82 135z" />
    <glyph glyph-name="Macron" horiz-adv-x="416" 
d="M50 695h316v-45h-316v45z" />
    <glyph glyph-name="Ring" horiz-adv-x="302" 
d="M151 629q-42 0 -72 30q-29 29 -29 70q0 44 30 71q29 29 71 29t71 -29q30 -27 30 -71q0 -41 -29 -70q-30 -30 -72 -30zM151 669q29 0 42 18q15 15 15 42q0 28 -15 43q-14 17 -42 17q-27 0 -42 -17q-15 -18 -15 -43q0 -27 15 -42q13 -18 42 -18z" />
    <glyph glyph-name="Tilde" horiz-adv-x="423" 
d="M284 650q-40 0 -78 21q-36 21 -70 21q-36 0 -66 -25l-20 26q46 40 91 40q36 0 84 -25q25 -16 64 -16q21 0 33 4.5t29 18.5l22 -26q-42 -39 -89 -39z" />
    <glyph glyph-name="zero.fitted" horiz-adv-x="620" 
d="M312 37q103 0 176 73q75 75 75 190q0 109 -70 186q-69 77 -181 77t-181 -77q-70 -77 -70 -186q0 -115 75 -190q73 -73 176 -73zM312 -11q-127 0 -211 81q-95 93 -95 230q0 129 84 219q89 92 222 92t222 -92q85 -91 85 -219q0 -136 -96 -230q-84 -81 -211 -81z" />
    <glyph glyph-name="one.fitted" horiz-adv-x="620" 
d="M238 503l-18 34l130 63h27v-600h-52v540z" />
    <glyph glyph-name="two.fitted" horiz-adv-x="620" 
d="M76 0v45l288 219q62 48 81 74q30 39 30 93q0 71 -64 108q-49 28 -116 28q-64 0 -102.5 -16t-91.5 -55l-26 34q91 81 220 81q98 0 160 -45q72 -51 72 -139q0 -65 -41 -118q-25 -34 -102 -91l-231 -174h369v-44h-446z" />
    <glyph glyph-name="three.fitted" horiz-adv-x="620" 
d="M298 33q103 0 159 54q43 40 43 102q0 49 -29 84q-36 42 -121 42h-170v42h170q63 0 91 43q15 26 15 62q0 57 -51 83q-47 24 -117 24q-88 0 -173 -57l-24 32q46 37 92.5 52t109.5 15q81 0 141 -33q72 -39 72 -116q0 -44 -21 -76q-19 -27 -46 -40v-4q54 -18 80 -56
q32 -44 32 -97q0 -83 -61 -138q-72 -62 -192 -62q-136 0 -229 87l30 35q46 -41 88.5 -59.5t110.5 -18.5z" />
    <glyph glyph-name="four.fitted" horiz-adv-x="620" 
d="M60 97v42l387 461h47v-458h65v-40l-65 -5v-97h-54v97h-380zM440 142v383l-317 -383h317z" />
    <glyph glyph-name="five.fitted" horiz-adv-x="620" 
d="M290 33q108 0 164 57q41 44 41 111q0 68 -43 111q-54 51 -143 51q-94 0 -164 -33h-43v270h394v-45h-348v-182q67 33 157 33q104 0 171 -56q69 -56 69 -149q0 -85 -57 -142q-70 -70 -198 -70q-78 0 -127 20t-90 59l29 36q44 -38 83 -54.5t105 -16.5z" />
    <glyph glyph-name="six.fitted" horiz-adv-x="620" 
d="M317 403q109 0 173 -48q69 -50 69 -153q0 -90 -63 -147q-72 -66 -180 -66q-97 0 -161 56q-94 81 -94 256q0 157 95 245q68 65 169 65q114 0 189 -58l-25 -37q-46 29 -81 40.5t-82 11.5q-82 0 -135 -45q-56 -49 -76 -169q74 49 202 49zM316 33q93 0 148 55q44 44 44 114
q0 74 -46 114q-49 43 -145 43q-67 0 -111 -10.5t-92 -35.5v-9q0 -161 70 -225q51 -46 132 -46z" />
    <glyph glyph-name="seven.fitted" horiz-adv-x="620" 
d="M87 556v44h444v-40l-286 -560h-55l285 556h-388z" />
    <glyph glyph-name="eight.fitted" horiz-adv-x="620" 
d="M309 -11q-117 0 -191 54q-68 53 -68 137q0 70 51 121q30 27 70 44q-37 28 -50 49q-17 31 -17 68q0 67 56 108q54 41 152 41q101 0 157 -45q44 -37 44 -101q0 -40 -23 -73q-18 -29 -48 -41q61 -21 92 -60q37 -45 37 -106q0 -85 -64 -136q-73 -60 -198 -60zM309 568
q-74 0 -117 -31q-37 -27 -37 -80q0 -35 26 -59q37 -30 128 -30q40 0 71 -4q46 9 65 40q18 26 18 63q0 51 -44 75q-42 26 -110 26zM309 322q-46 0 -78 7q-60 -20 -97 -60q-31 -32 -31 -84q0 -71 54 -110q58 -42 152 -42q104 0 161 49q48 40 48 103t-47 99q-49 38 -162 38z
" />
    <glyph glyph-name="nine.fitted" horiz-adv-x="620" 
d="M304 197q-109 0 -174 48q-69 50 -69 153q0 90 64 147q72 66 180 66q96 0 160 -56q92 -79 92 -256q0 -159 -96 -248q-68 -62 -174 -62q-113 0 -191 60l27 36q47 -30 82 -41.5t81 -11.5q92 0 145 50q58 57 75 164q-74 -49 -202 -49zM305 567q-94 0 -149 -55
q-44 -46 -44 -114q0 -74 46 -114q50 -43 146 -43q114 0 203 46v9q0 158 -71 225q-51 46 -131 46z" />
    <glyph glyph-name="zerooldstyle" horiz-adv-x="567" 
d="M539 250q0 -116 -72 -188q-71 -71 -184 -71q-116 0 -187 74q-69 75 -69 185q0 116 70 186q70 73 186 73q118 0 189 -76q67 -73 67 -183zM79 250q0 -100 59 -159q55 -55 145 -55q100 0 154 62q50 61 50 152q0 101 -55 159q-52 56 -149 56q-90 0 -144 -54q-60 -60 -60 -161
z" />
    <glyph glyph-name="oneoldstyle" horiz-adv-x="241" 
d="M49 402l-18 34l134 64h26v-500h-50v442z" />
    <glyph glyph-name="twooldstyle" horiz-adv-x="482" 
d="M66 0v44l263 189q47 36 62 64q13 22 13 62q0 56 -44 82q-43 25 -110 25q-52 0 -90 -15.5t-80 -50.5l-29 33q83 76 199 76q98 0 154 -45q49 -40 49 -109q0 -45 -20 -80q-24 -38 -88 -84l-212 -148h315v-43h-382z" />
    <glyph glyph-name="threeoldstyle" horiz-adv-x="479" 
d="M231 34q83 0 130 34q40 30 40 85q0 45 -25 69q-32 30 -96 30h-147v44h142q48 0 72 25q19 24 19 58q0 40 -33 63q-35 24 -108 24q-91 0 -156 -46l-22 32q73 57 183 57q86 0 133 -35q50 -35 50 -95q0 -32 -12 -55q-12 -22 -40 -40v-4q37 -10 62 -45q26 -34 26 -82
q0 -71 -57 -115q-60 -47 -162 -47q-128 0 -205 70l25 34q79 -61 181 -61z" />
    <glyph glyph-name="fouroldstyle" horiz-adv-x="491" 
d="M25 87v48l337 365h48v-369h61v-39l-61 -5v-87h-49v87h-336zM361 131v305l-281 -305h281z" />
    <glyph glyph-name="fiveoldstyle" horiz-adv-x="465" 
d="M206 33q83 0 131 42q39 33 39 93q0 62 -40 95q-41 35 -127 35q-67 0 -129 -30l-30 8v224h336v-41h-292v-142q55 24 123 24q83 0 140 -39q68 -47 68 -134q0 -77 -55 -125q-59 -52 -164 -52q-115 0 -191 62l26 35q40 -29 76 -42t89 -13z" />
    <glyph glyph-name="sixoldstyle" horiz-adv-x="489" 
d="M253 340q104 0 161 -54q45 -43 45 -118q0 -87 -69 -135q-59 -42 -142 -42q-108 0 -164 71q-54 69 -54 187q0 133 82 206q61 54 146 54q95 0 164 -51l-24 -33q-59 43 -139 43q-66 0 -115 -43q-51 -45 -63 -124q67 39 172 39zM248 30q78 0 124 43q41 39 41 95q0 60 -39 95
q-41 35 -121 35q-102 0 -176 -38v-4q0 -109 38 -162q44 -64 133 -64z" />
    <glyph glyph-name="sevenoldstyle" horiz-adv-x="433" 
d="M20 457v43h393v-38l-247 -462h-53l248 457h-341z" />
    <glyph glyph-name="eightoldstyle" horiz-adv-x="512" 
d="M255 509q113 0 162 -61q21 -27 21 -71q0 -58 -54 -91v-4q43 -17 70 -50q28 -35 28 -80q0 -68 -57 -113q-62 -48 -170 -48q-132 0 -187 61q-38 40 -38 100q0 39 23 74q28 39 65 53v4q-44 35 -44 97q0 59 50 93q48 36 131 36zM255 258q-53 0 -87 8q-44 -12 -69 -45
q-22 -29 -22 -70q0 -43 32 -75q46 -42 146 -42q97 0 142 38q38 31 38 77q0 47 -35 74q-27 21 -53.5 28t-91.5 7zM121 380q0 -45 24 -63q11 -9 30.5 -13t33 -4.5t46.5 -0.5q49 0 69 -3q67 20 67 86q0 36 -29 58q-36 27 -107 27q-67 0 -103 -26q-31 -24 -31 -61z" />
    <glyph glyph-name="nineoldstyle" horiz-adv-x="489" 
d="M237 159q-104 0 -162 55q-45 45 -45 119q0 89 70 136q58 40 141 40q110 0 166 -73q52 -68 52 -185q0 -126 -71 -199q-58 -61 -157 -61q-106 0 -174 45l21 35q65 -39 152 -39q75 0 123 48q46 43 54 116q-62 -37 -170 -37zM241 469q-74 0 -117 -34q-47 -37 -47 -103
q0 -62 39 -95q41 -35 121 -35q100 0 175 37v4q0 110 -37 162q-44 64 -134 64z" />
    <glyph glyph-name="one.taboldstyle" 
d="M187 402l-18 34l134 64h26v-500h-50v442z" />
    <glyph glyph-name="two.taboldstyle" 
d="M98 0v44l263 189q47 36 62 64q13 22 13 62q0 56 -44 82q-43 25 -110 25q-52 0 -90 -15.5t-80 -50.5l-29 33q83 76 199 76q98 0 154 -45q49 -40 49 -109q0 -45 -20 -80q-24 -38 -88 -84l-212 -148h315v-43h-382z" />
    <glyph glyph-name="zero.taboldstyle" 
d="M536 250q0 -116 -72 -188q-71 -71 -184 -71q-116 0 -187 74q-69 75 -69 185q0 116 70 186q70 73 186 73q118 0 189 -76q67 -73 67 -183zM76 250q0 -100 59 -159q55 -55 145 -55q100 0 154 62q50 61 50 152q0 101 -55 159q-52 56 -149 56q-90 0 -144 -54q-60 -60 -60 -161
z" />
    <glyph glyph-name="three.taboldstyle" 
d="M272 34q83 0 130 34q40 30 40 85q0 45 -25 69q-31 30 -96 30h-147v44h142q48 0 72 25q19 24 19 58q0 40 -33 63q-35 24 -108 24q-91 0 -156 -46l-22 32q73 57 183 57q86 0 133 -35q50 -35 50 -95q0 -32 -12 -55q-12 -22 -40 -40v-4q37 -10 62 -45q26 -34 26 -82
q0 -71 -57 -115q-60 -47 -162 -47q-128 0 -205 70l25 34q79 -61 181 -61z" />
    <glyph glyph-name="four.taboldstyle" 
d="M57 87v48l337 365h48v-369h61v-39l-61 -5v-87h-49v87h-336zM393 131v305l-281 -305h281z" />
    <glyph glyph-name="five.taboldstyle" 
d="M265 33q83 0 131 42q39 33 39 93q0 62 -40 95q-41 35 -127 35q-68 0 -129 -30l-30 8v224h336v-41h-292v-142q55 24 123 24q83 0 140 -39q68 -47 68 -134q0 -77 -55 -125q-59 -52 -164 -52q-115 0 -191 62l26 35q40 -29 76 -42t89 -13z" />
    <glyph glyph-name="six.taboldstyle" 
d="M287 340q104 0 161 -54q45 -43 45 -118q0 -87 -69 -135q-59 -42 -142 -42q-108 0 -164 71q-54 69 -54 187q0 133 82 206q61 54 146 54q95 0 164 -51l-24 -33q-59 43 -139 43q-66 0 -115 -43q-51 -45 -63 -124q67 39 172 39zM282 30q78 0 124 43q41 39 41 95q0 60 -39 95
q-41 35 -121 35q-102 0 -176 -38v-4q0 -109 38 -162q44 -64 133 -64z" />
    <glyph glyph-name="seven.taboldstyle" 
d="M82 457v43h393v-38l-247 -462h-53l248 457h-341z" />
    <glyph glyph-name="eight.taboldstyle" 
d="M278 509q113 0 162 -61q21 -27 21 -71q0 -58 -54 -91v-4q43 -17 70 -50q28 -35 28 -80q0 -68 -57 -113q-62 -48 -170 -48q-132 0 -187 61q-38 40 -38 100q0 39 23 74q28 39 65 53v4q-44 35 -44 97q0 59 50 93q48 36 131 36zM278 258q-53 0 -87 8q-43 -12 -69 -45
q-22 -29 -22 -70q0 -43 32 -75q46 -42 146 -42q97 0 142 38q38 31 38 77q0 47 -35 74q-27 21 -53.5 28t-91.5 7zM144 380q0 -45 24 -63q11 -9 30.5 -13t33 -4.5t46.5 -0.5q49 0 69 -3q67 20 67 86q0 36 -29 58q-36 27 -107 27q-67 0 -103 -26q-31 -24 -31 -61z" />
    <glyph glyph-name="nine.taboldstyle" 
d="M271 159q-104 0 -162 55q-45 45 -45 119q0 89 70 136q58 40 141 40q110 0 166 -73q52 -68 52 -185q0 -126 -71 -199q-58 -61 -157 -61q-106 0 -174 45l21 35q65 -39 152 -39q75 0 123 48q46 43 54 116q-62 -37 -170 -37zM275 469q-74 0 -117 -34q-47 -37 -47 -103
q0 -62 39 -95q41 -35 121 -35q100 0 175 37v4q0 110 -37 162q-44 64 -134 64z" />
    <glyph glyph-name="currency.taboldstyle" 
d="M280 101q-48 0 -88 27l-42 -39l-29 29l39 43q-28 40 -28 89q0 51 29 89l-40 42l29 30l42 -40q41 28 88 28t88 -28l42 40l29 -30l-39 -42q29 -41 29 -89q0 -46 -29 -89l40 -42l-30 -30l-42 39q-40 -27 -88 -27zM377 250q0 43 -23 69q-27 30 -74 30q-44 0 -72 -28
q-24 -27 -24 -71q0 -45 23 -71q24 -29 73 -29q45 0 69 25q28 28 28 75z" />
    <glyph glyph-name="centoldstyle" horiz-adv-x="523" 
d="M326 566v-57q93 -9 161 -69l-30 -34q-64 56 -158 56q-91 0 -151 -60t-60 -151q0 -89 58 -150q63 -63 153 -63q96 0 158 57l31 -35q-70 -64 -162 -69v-57h-55v58q-94 10 -161 72q-75 73 -75 187q0 109 75 182q65 65 161 75v58h55z" />
    <glyph glyph-name="dollaroldstyle" horiz-adv-x="495" 
d="M34 381q0 60 52 92q43 29 122 34v59h55v-57q90 -5 172 -39l-17 -38q-86 31 -171 31q-83 0 -127 -24q-35 -23 -35 -60q0 -33 32 -52q24 -14 67 -21l114 -20q92 -16 129 -52q38 -35 38 -91q0 -67 -62 -112q-45 -34 -140 -40v-57h-55v58q-97 5 -179 37l14 43
q104 -33 183 -33q115 0 154 36q31 29 31 65q0 39 -28 64q-20 15 -91 29l-124 23q-65 13 -95 38q-39 31 -39 87z" />
    <glyph glyph-name="cent.taboldstyle" 
d="M342 566v-57q93 -9 161 -69l-30 -34q-64 56 -158 56q-91 0 -151 -60t-60 -151q0 -89 58 -150q63 -63 153 -63q96 0 158 57l31 -35q-70 -64 -162 -69v-57h-55v58q-94 10 -161 72q-75 73 -75 187q0 109 75 182q65 65 161 75v58h55z" />
    <glyph glyph-name="dollar.taboldstyle" 
d="M66 381q0 60 52 92q43 29 122 34v59h55v-57q90 -5 172 -39l-17 -38q-86 31 -171 31q-83 0 -127 -24q-35 -23 -35 -60q0 -33 32 -52q24 -14 67 -21l114 -20q92 -16 129 -52q38 -35 38 -91q0 -67 -62 -112q-45 -34 -140 -40v-57h-55v58q-97 5 -179 37l14 43
q104 -33 183 -33q115 0 154 36q31 29 31 65q0 39 -28 64q-20 15 -91 29l-124 23q-65 13 -95 38q-39 31 -39 87z" />
    <glyph glyph-name="Euro.taboldstyle" 
d="M42 229h337l-7 -44h-243q14 -47 43 -79q60 -68 160 -68q97 0 161 56l29 -35q-77 -68 -190 -68q-114 0 -191 79q-48 48 -66 115h-33v44zM386 274h-344v44h34q17 61 59 108q78 83 197 83q114 0 190 -68l-30 -35q-64 56 -160 56q-98 0 -159 -67q-27 -30 -44 -77h264z" />
    <glyph glyph-name="yen.taboldstyle" 
d="M440 167h-312v45h90l-178 288h61l179 -291h9l181 291h56l-178 -288h92v-45zM128 123h312v-45h-130v-78h-53v78h-129v45z" />
    <glyph glyph-name="numbersign.taboldstyle" horiz-adv-x="570" 
d="M173 52l6 89h-84v39h89l6 62h-95v40h98l8 92l41 -3l-7 -89h68l7 92l42 -3l-8 -89h90v-40h-94l-6 -62h100v-39h-104l-7 -92l-40 3l6 89h-67l-8 -92zM231 242l-6 -62h68l6 62h-68z" />
    <glyph glyph-name="zero.denominator" horiz-adv-x="332" 
d="M310 139q0 -59 -41 -100q-41 -42 -104 -42t-104 42q-41 41 -41 100t41 100q40 42 104 42q63 0 104 -42q41 -41 41 -100zM68 139q0 -46 27 -73q25 -28 70 -28t70 28q27 27 27 73t-27 73q-25 28 -70 28t-70 -28q-27 -27 -27 -73z" />
    <glyph glyph-name="one.denominator" horiz-adv-x="147" 
d="M31 205l-16 32l67 34h25v-268h-44v215z" />
    <glyph glyph-name="three.denominator" horiz-adv-x="291" 
d="M139 30q41 0 63 19q16 14 16 38q0 20 -14 31q-15 12 -42 12h-89v38h86q18 0 28 10t10 26q0 20 -15 27q-14 10 -47 10q-41 0 -76 -25l-21 30q43 33 99 33q48 0 78 -21q26 -19 26 -55q0 -32 -23 -48q44 -21 44 -68q0 -45 -32 -71q-34 -26 -91 -26q-68 0 -114 46l26 30
q41 -36 88 -36z" />
    <glyph glyph-name="four.denominator" horiz-adv-x="286" 
d="M17 45v26l176 200h36v-186h32v-34l-32 -6v-41h-44v41h-168zM185 85v117l-107 -117h107z" />
    <glyph glyph-name="five.denominator" horiz-adv-x="288" 
d="M138 33q39 0 57 15q19 13 19 44q0 24 -14 41q-18 18 -54 18q-38 0 -73 -15l-30 6v129h196v-40h-152v-51q30 11 66 11q57 0 86 -36q20 -26 20 -63q0 -41 -26 -67q-30 -33 -95 -33q-67 0 -113 48l29 30q39 -37 84 -37z" />
    <glyph glyph-name="six.denominator" horiz-adv-x="294" 
d="M228 215q-34 25 -72 25q-36 0 -57 -21q-18 -18 -23 -52q38 18 73 18q55 0 84 -26q31 -26 31 -70q0 -41 -31 -69q-35 -30 -84 -30q-59 0 -92 46q-27 39 -27 98q0 65 33 105q34 41 93 41q50 0 95 -35zM91 60q19 -33 64 -33q30 0 48 18q17 17 17 44q0 28 -16 41
q-16 15 -54 15q-36 0 -76 -19q0 -40 17 -66z" />
    <glyph glyph-name="seven.denominator" horiz-adv-x="262" 
d="M25 233v38h212v-29l-125 -239h-50l127 230h-164z" />
    <glyph glyph-name="eight.denominator" horiz-adv-x="309" 
d="M154 -10q-68 0 -98 29q-26 26 -26 64q0 23 13 42q11 17 32 28q-22 21 -22 51q0 31 27 53q28 22 76 22q51 0 77 -25q20 -18 20 -49q0 -28 -24 -47q23 -10 37 -30q13 -19 13 -43q0 -40 -32 -67q-34 -28 -93 -28zM154 240q-33 0 -46 -11q-11 -9 -11 -25t12 -23t45 -7
q18 0 36 -2q19 10 19 35q0 16 -11 24q-12 9 -44 9zM154 134q-32 0 -43 3q-36 -10 -36 -52q0 -25 18 -39q20 -17 61 -17q42 0 63 17q16 12 16 39q0 21 -15 33q-22 16 -64 16z" />
    <glyph glyph-name="nine.denominator" horiz-adv-x="294" 
d="M62 52q33 -23 76 -23q35 0 58 22q20 20 23 54q-35 -20 -73 -20q-58 0 -88 27q-28 22 -28 68q0 43 31 71q32 29 84 29q60 0 91 -44q28 -40 28 -101q0 -65 -31 -103q-33 -42 -95 -42q-52 0 -96 29zM220 143q0 41 -16 66q-21 33 -65 33q-30 0 -47 -17q-18 -17 -18 -45
q0 -27 16 -40q19 -16 55 -16q39 0 75 19z" />
    <glyph glyph-name="period.denominator" horiz-adv-x="105" 
d="M15 36q0 16 10.5 27t26.5 11t27 -11t11 -27t-11 -26.5t-27 -10.5t-26.5 10.5t-10.5 26.5z" />
    <glyph glyph-name="comma.denominator" horiz-adv-x="105" 
d="M15 36q0 16 10.5 27t26.5 11t27 -11t11 -27q0 -9 -3 -17l-30 -80l-27 8l9 55q-24 6 -24 34z" />
    <glyph glyph-name="dollar.denominator" horiz-adv-x="283" 
d="M114 301h44v-30q55 -6 87 -23l-13 -31q-46 18 -89 18q-42 0 -59 -11q-15 -8 -15 -25q0 -25 42 -31l57 -8q45 -7 66 -25q23 -20 23 -51q0 -32 -23 -55q-25 -25 -76 -30v-30h-44v31q-44 1 -89 26l17 34q45 -22 89 -22q47 0 66 13q17 11 17 30q0 31 -53 39l-61 9
q-33 5 -53 21q-21 18 -21 46q0 34 26 53q24 19 62 21v31z" />
    <glyph glyph-name="cent.denominator" horiz-adv-x="297" 
d="M145 -31v30q-42 5 -77 36q-43 37 -43 100q0 57 40 97q33 33 80 39v30h43v-28q48 -7 84 -42l-27 -27q-39 31 -78 31q-42 0 -71 -29q-29 -27 -29 -71q0 -42 29 -71q26 -28 71 -28q39 0 78 31l27 -27q-43 -38 -84 -42v-29h-43z" />
    <glyph glyph-name="parenleft.denominator" horiz-adv-x="128" 
d="M70 132q0 -93 38 -158l-32 -16q-46 68 -46 174t46 173l32 -15q-38 -65 -38 -158z" />
    <glyph glyph-name="parenright.denominator" horiz-adv-x="128" 
d="M58 132q0 95 -38 157l32 16q46 -70 46 -173t-46 -174l-32 16q38 65 38 158z" />
    <glyph glyph-name="hyphen.denominator" horiz-adv-x="184" 
d="M15 170h154v-45h-154v45z" />
    <glyph glyph-name="Cedilla" horiz-adv-x="234" 
d="M78 18h43l-2 -54q26 0 46 -17q16 -15 16 -41q0 -51 -43 -78q-33 -19 -73 -26l-8 32q41 10 56 21q26 16 26 47q0 10 -8 18q-7 6 -21 6h-32v92z" />
    <glyph glyph-name="Ogonek" horiz-adv-x="206" 
d="M98 18l19 -17q-11 -7 -18 -19q-8 -14 -8 -29q0 -28 17 -48q12 -14 48 -33l-13 -29q-48 14 -70 40q-23 25 -23 63q0 24 14 44q8 14 34 28z" />
    <glyph glyph-name="rupiah" horiz-adv-x="503" 
d="M23 100h27v400h231q90 0 142 -55q49 -49 49 -118q0 -64 -45 -114q-56 -58 -146 -58h-177v-55h194v-43h-194v-57h-54v57h-27v43zM284 201q64 0 101 39q34 39 34 87q0 50 -32 85q-36 42 -111 42h-172v-253h180z" />
    <glyph glyph-name="zero.slash" horiz-adv-x="674" 
d="M337 -11q-127 0 -211 81q-96 94 -96 230q0 128 85 219q89 92 222 92t222 -92q85 -91 85 -219q0 -136 -96 -230q-84 -81 -211 -81zM337 37q103 0 176 73q75 75 75 190q0 58 -22 117t-66 90l-299 -431q59 -39 136 -39zM86 300q0 -122 81 -200l297 430q-56 33 -127 33
q-112 0 -181 -77q-70 -77 -70 -186z" />
    <glyph glyph-name="zero.slash.fitted" horiz-adv-x="620" 
d="M312 -11q-127 0 -211 81q-96 94 -96 230q0 128 85 219q89 92 222 92t222 -92q85 -91 85 -219q0 -136 -96 -230q-84 -81 -211 -81zM312 37q103 0 176 73q75 75 75 190q0 58 -22 117t-66 90l-299 -431q58 -39 136 -39zM61 300q0 -122 81 -200l297 430q-55 33 -127 33
q-112 0 -181 -77q-70 -77 -70 -186z" />
    <glyph glyph-name="zerooldstyle.slash" horiz-adv-x="567" 
d="M539 250q0 -116 -72 -188q-71 -71 -184 -71q-117 0 -185 70q-71 71 -71 189q0 116 70 186q70 73 186 73q117 0 187 -73q69 -71 69 -186zM79 250q0 -92 48 -148l285 323q-53 41 -129 41q-90 0 -144 -55q-60 -60 -60 -161zM489 250q0 89 -47 149l-284 -327q50 -38 125 -38
q99 0 153 63q53 59 53 153z" />
    <glyph glyph-name="zerooldstyle.slash.fitted" 
d="M533 250q0 -116 -72 -188q-71 -71 -184 -71q-117 0 -185 70q-71 71 -71 189q0 116 70 186q70 73 186 73q117 0 187 -73q69 -71 69 -186zM73 250q0 -92 48 -148l285 323q-53 41 -129 41q-90 0 -144 -55q-60 -60 -60 -161zM483 250q0 89 -47 149l-284 -327q50 -38 125 -38
q99 0 153 63q53 59 53 153z" />
    <glyph glyph-name="two.denominator" horiz-adv-x="268" 
d="M27 2v33l126 88q27 23 33 32q12 19 12 38q0 25 -22 38q-17 11 -44 11q-45 0 -86 -34l-23 28q48 45 109 45q48 0 77 -22q33 -26 33 -68q0 -29 -18 -57q-18 -25 -45 -43l-76 -50h141v-39h-217z" />
    <glyph glyph-name="zero.numerator" horiz-adv-x="332" 
d="M310 367q0 -59 -41 -100q-41 -42 -104 -42t-104 42q-41 41 -41 100t41 100q40 42 104 42q63 0 104 -42q41 -41 41 -100zM68 367q0 -46 27 -73q25 -28 70 -28t70 28q27 27 27 73t-27 73q-25 28 -70 28t-70 -28q-27 -27 -27 -73z" />
    <glyph glyph-name="one.numerator" horiz-adv-x="147" 
d="M31 435l-16 32l67 34h25v-268h-44v215z" />
    <glyph glyph-name="two.numerator" horiz-adv-x="268" 
d="M27 230v33l126 88q27 23 33 32q12 19 12 38q0 25 -22 38q-17 11 -44 11q-45 0 -86 -34l-23 28q48 45 109 45q48 0 77 -22q33 -26 33 -68q0 -29 -18 -57q-18 -25 -45 -43l-76 -50h141v-39h-217z" />
    <glyph glyph-name="three.numerator" horiz-adv-x="291" 
d="M139 258q41 0 63 19q16 14 16 38q0 20 -14 31q-15 12 -42 12h-89v38h86q18 0 28 10t10 26q0 20 -15 27q-14 10 -47 10q-41 0 -76 -25l-21 30q43 33 99 33q48 0 78 -21q26 -19 26 -55q0 -32 -23 -48q44 -21 44 -68q0 -45 -32 -71q-34 -26 -91 -26q-68 0 -114 46l26 30
q41 -36 88 -36z" />
    <glyph glyph-name="four.numerator" horiz-adv-x="286" 
d="M17 275v26l176 200h36v-186h32v-34l-32 -6v-41h-44v41h-168zM185 315v117l-107 -117h107z" />
    <glyph glyph-name="five.numerator" horiz-adv-x="288" 
d="M138 263q39 0 57 15q19 13 19 44q0 24 -14 41q-18 18 -54 18q-38 0 -73 -15l-30 6v129h196v-40h-152v-51q30 11 66 11q57 0 86 -36q20 -26 20 -63q0 -41 -26 -67q-30 -33 -95 -33q-67 0 -113 48l29 30q39 -37 84 -37z" />
    <glyph glyph-name="six.numerator" horiz-adv-x="294" 
d="M228 443q-34 25 -72 25q-36 0 -57 -21q-18 -18 -23 -52q38 18 73 18q55 0 84 -26q31 -26 31 -70q0 -41 -31 -69q-35 -30 -84 -30q-59 0 -92 46q-27 39 -27 98q0 65 33 105q34 41 93 41q50 0 95 -35zM91 288q19 -33 64 -33q30 0 48 18q17 17 17 44q0 28 -16 41
q-16 15 -54 15q-36 0 -76 -19q0 -40 17 -66z" />
    <glyph glyph-name="seven.numerator" horiz-adv-x="262" 
d="M25 463v38h212v-29l-125 -239h-50l127 230h-164z" />
    <glyph glyph-name="eight.numerator" horiz-adv-x="309" 
d="M154 218q-68 0 -98 29q-26 26 -26 64q0 23 13 42q11 17 32 28q-22 21 -22 51q0 31 27 53q28 22 76 22q51 0 77 -25q20 -18 20 -49q0 -28 -24 -47q23 -10 37 -30q13 -19 13 -43q0 -40 -32 -67q-34 -28 -93 -28zM154 468q-33 0 -46 -11q-11 -9 -11 -25q0 -15 12 -23
q12 -7 45 -7q18 0 36 -2q19 10 19 35q0 16 -11 24q-12 9 -44 9zM154 362q-32 0 -43 3q-36 -10 -36 -52q0 -25 18 -39q20 -17 61 -17q42 0 63 17q16 12 16 39q0 21 -15 33q-22 16 -64 16z" />
    <glyph glyph-name="nine.numerator" horiz-adv-x="294" 
d="M62 280q33 -23 76 -23q35 0 58 22q20 20 23 54q-35 -20 -73 -20q-58 0 -88 27q-28 22 -28 68q0 43 31 71q32 29 84 29q60 0 91 -44q28 -40 28 -101q0 -65 -31 -103q-33 -42 -95 -42q-52 0 -96 29zM220 371q0 41 -16 66q-21 33 -65 33q-30 0 -47 -17q-18 -17 -18 -45
q0 -27 16 -40q19 -16 55 -16q39 0 75 19z" />
    <glyph glyph-name="parenleft.numerator" horiz-adv-x="128" 
d="M70 362q0 -93 38 -158l-32 -16q-46 68 -46 174t46 173l32 -15q-38 -65 -38 -158z" />
    <glyph glyph-name="parenright.numerator" horiz-adv-x="128" 
d="M58 362q0 95 -38 157l32 16q46 -70 46 -173t-46 -174l-32 16q38 65 38 158z" />
    <glyph glyph-name="cent.numerator" horiz-adv-x="297" 
d="M145 200v30q-42 5 -77 36q-43 37 -43 100q0 57 40 97q33 33 80 39v30h43v-28q48 -8 84 -42l-27 -27q-39 31 -78 31q-42 0 -71 -29q-29 -27 -29 -71q0 -42 29 -71q26 -28 71 -28q39 0 78 31l27 -27q-43 -38 -84 -42v-29h-43z" />
    <glyph glyph-name="dollar.numerator" horiz-adv-x="283" 
d="M114 532h44v-30q55 -6 87 -23l-13 -31q-47 18 -89 18t-59 -11q-15 -7 -15 -25q0 -25 42 -31l57 -8q45 -7 66 -25q23 -20 23 -51q0 -32 -23 -55q-25 -25 -76 -30v-30h-44v31q-44 1 -89 26l17 34q45 -22 89 -22q47 0 66 13q17 11 17 30q0 31 -53 39l-61 9q-33 5 -53 21
q-21 18 -21 46q0 33 26 53q24 19 62 21v31z" />
    <glyph glyph-name="hyphen.numerator" horiz-adv-x="184" 
d="M15 394h154v-45h-154v45z" />
    <glyph glyph-name="comma.numerator" horiz-adv-x="105" 
d="M15 257q0 16 10.5 27t26.5 11t27 -11t11 -27q0 -9 -3 -17l-30 -80l-27 8l9 55q-24 6 -24 34z" />
    <glyph glyph-name="period.numerator" horiz-adv-x="105" 
d="M15 257q0 16 10.5 27t26.5 11t27 -11t11 -27t-11 -26.5t-27 -10.5t-26.5 10.5t-10.5 26.5z" />
    <glyph glyph-name="centsuperior" horiz-adv-x="297" 
d="M145 299v30q-42 5 -77 36q-43 37 -43 100q0 57 40 97q33 33 80 39v30h43v-28q48 -7 84 -42l-27 -27q-39 31 -78 31q-42 0 -71 -29q-29 -27 -29 -71q0 -42 29 -71q26 -28 71 -28q39 0 78 31l27 -27q-43 -38 -84 -42v-29h-43z" />
    <glyph glyph-name="hyphensuperior" horiz-adv-x="184" 
d="M15 493h154v-45h-154v45z" />
    <glyph glyph-name="commasuperior" horiz-adv-x="105" 
d="M15 356q0 16 10.5 27t26.5 11t27 -11t11 -27q0 -10 -3 -17l-30 -80l-27 8l9 55q-24 6 -24 34z" />
    <glyph glyph-name="periodsuperior" horiz-adv-x="105" 
d="M15 356q0 16 10.5 27t26.5 11t27 -11t11 -27t-11 -26.5t-27 -10.5t-26.5 10.5t-10.5 26.5z" />
    <glyph glyph-name="dollarsuperior" horiz-adv-x="283" 
d="M114 631h44v-30q55 -6 87 -23l-13 -31q-47 18 -89 18t-59 -11q-15 -8 -15 -25q0 -25 42 -31l57 -8q45 -7 66 -25q23 -20 23 -51q0 -32 -23 -55q-25 -25 -76 -30v-30h-44v31q-44 1 -89 26l17 34q45 -22 89 -22q47 0 66 13q17 11 17 30q0 31 -53 39l-61 9q-33 5 -53 21
q-21 18 -21 46q0 34 26 53q24 19 62 21v31z" />
    <glyph glyph-name="hypheninferior" horiz-adv-x="184" 
d="M15 120h154v-45h-154v45z" />
    <glyph glyph-name="commainferior" horiz-adv-x="105" 
d="M15 -14q0 16 10.5 27t26.5 11t27 -11t11 -27q0 -10 -3 -17l-30 -80l-27 8l9 55q-24 6 -24 34z" />
    <glyph glyph-name="periodinferior" horiz-adv-x="105" 
d="M15 -14q0 16 10.5 27t26.5 11t27 -11t11 -27t-11 -26.5t-27 -10.5t-26.5 10.5t-10.5 26.5z" />
    <glyph glyph-name="centinferior" horiz-adv-x="297" 
d="M145 -81v30q-42 5 -77 36q-43 37 -43 100q0 57 40 97q33 33 80 39v30h43v-28q48 -7 84 -42l-27 -27q-39 31 -78 31q-42 0 -71 -29q-29 -27 -29 -71q0 -42 29 -71q26 -28 71 -28q39 0 78 31l27 -27q-43 -38 -84 -42v-29h-43z" />
    <glyph glyph-name="dollarinferior" horiz-adv-x="283" 
d="M114 251h44v-30q55 -6 87 -23l-13 -31q-46 18 -89 18q-42 0 -59 -11q-15 -8 -15 -25q0 -25 42 -31l57 -8q45 -7 66 -25q23 -20 23 -51q0 -32 -23 -55q-25 -25 -76 -30v-30h-44v31q-44 1 -89 26l17 34q45 -22 89 -22q47 0 66 13q17 11 17 30q0 31 -53 39l-61 9
q-33 5 -53 21q-21 18 -21 46q0 34 26 53q24 19 62 21v31z" />
    <glyph glyph-name="ampersandsmall" horiz-adv-x="499" 
d="M387 434l-35 -24q-20 30 -42 42q-28 14 -54 14q-49 0 -76 -27q-21 -23 -21 -53q0 -33 30 -63l206 -206q12 16 25 60l41 -9q-9 -51 -34 -83l57 -58l-36 -35l-52 53q-70 -54 -152 -54q-37 0 -77.5 11t-65.5 30q-66 51 -66 130q0 56 24 94q21 35 68 64q-18 31 -18 65
q0 53 42 89q41 35 99 35q52 0 89 -24q29 -18 48 -51zM246 37q69 0 118 41l-210 213q-34 -19 -51 -48q-17 -30 -17 -67q0 -60 44 -99q20 -18 53 -29t63 -11z" />
    <glyph glyph-name="Imacron" horiz-adv-x="156" 
d="M106 600v-600h-56v600h56zM-78 695h316v-45h-316v45z" />
    <glyph glyph-name="ibreve" horiz-adv-x="153" 
d="M50 500h53v-500h-53v500zM79 557q-49 0 -79 32q-20 26 -23 58l36 7q8 -30 24 -45q16 -14 41 -14q26 0 42 14q17 17 23 45l37 -7q-3 -34 -24 -59q-29 -31 -77 -31z" />
    <glyph glyph-name="afii10024.alt" horiz-adv-x="900" 
d="M423 345v255h56v-255h122l191 255h63l-207 -274l232 -326h-60l-216 299h-125v-299h-56v299h-126l-216 -299h-61l233 326l-207 274h63l191 -255h123z" />
    <glyph glyph-name="afii10028.alt" horiz-adv-x="594" 
d="M50 600h56v-255h179l200 255h64l-216 -274l241 -326h-64l-224 298h-180v-298h-56v600z" />
    <glyph glyph-name="afii10037.alt" horiz-adv-x="633" 
d="M548 600h60l-316 -600h-62l69 124l-273 476h64l239 -419h6z" />
    <glyph glyph-name="afii10061.alt" horiz-adv-x="594" 
d="M50 600h56v-255h179l200 255h64l-216 -274l241 -326h-64l-224 298h-180v-298h-56v600zM236 661l56 135l49 -23l-71 -128z" />
    <glyph glyph-name="afii10062.alt" horiz-adv-x="633" 
d="M548 600h60l-316 -600h-62l69 124l-273 476h64l239 -419h6zM417 755l43 -6q-12 -53 -38 -77q-34 -31 -88 -31q-58 0 -94 33q-24 24 -35 75l42 6q8 -38 29 -56q23 -19 58 -19q37 0 57 20q17 19 26 55z" />
    <glyph glyph-name="afii10072.alt" horiz-adv-x="775" 
d="M361 291v209h53v-209h107l153 209h60l-170 -229l191 -271h-59l-174 247h-108v-247h-53v247h-108l-174 -247h-59l191 271l-170 229h60l153 -209h107z" />
    <glyph glyph-name="afii10076.alt" horiz-adv-x="508" 
d="M50 500h54v-209h140l163 209h60l-180 -229l202 -271h-61l-185 247h-139v-247h-54v500z" />
    <glyph glyph-name="afii10085.alt" horiz-adv-x="545" 
d="M461 500h59l-268 -500h-56l57 107l-228 393h63l195 -341h5z" />
    <glyph glyph-name="afii10109.alt" horiz-adv-x="508" 
d="M50 500h54v-209h140l163 209h60l-180 -229l202 -271h-61l-185 247h-139v-247h-54v500zM219 566l55 137l47 -23l-71 -128z" />
    <glyph glyph-name="afii10110.alt" horiz-adv-x="545" 
d="M461 500h59l-268 -500h-56l57 107l-228 393h63l195 -341h5zM286 557q-49 0 -79 32q-20 26 -23 58l36 7q8 -30 24 -45q16 -14 41 -14q26 0 42 14q17 17 23 45l37 -7q-3 -34 -24 -59q-29 -31 -77 -31z" />
    </font>
</defs>
</svg>
